<svg version="1.2" xmlns="http://www.w3.org/2000/svg" width="460" height="460"><style>.prefix__s1{fill:#fff}.prefix__s2{fill:#007900}.prefix__s3{fill:none;stroke:#005900;stroke-linecap:round;stroke-linejoin:round;stroke-width:1.3}.prefix__s4{fill:#00b110}.prefix__s5{fill:none;stroke:#007900;stroke-linecap:round;stroke-linejoin:round;stroke-width:1.3}.prefix__s7{fill:#ffbc00}.prefix__s8{fill:#8b2717}.prefix__s9{fill:#ff2b42}.prefix__s10{fill:#0051c1}.prefix__s11{fill:#3b7ad0}.prefix__s12{fill:#ff6a7e}.prefix__s13{fill:#ffde00}</style><defs><clipPath id="prefix__cp1"><path d="M-103-20h666.67v666.67H-103z"/></clipPath><clipPath id="prefix__cp2"><path d="M37.91 37.03h383.05v383.05H37.91z"/></clipPath><clipPath id="prefix__cp3"><path d="M-103-20h666.67v666.67H-103z"/></clipPath><clipPath id="prefix__cp4"><path d="M259.47 21.22c-.62.62-1.5 2.75-1.75 3.75-.25.99-2.74 1.24-3.62.99-.87-.25-1.25.51-1.62 1.75-.21.7-.77.43-1.33.16-.44-.22-.89-.43-1.17-.16-.62.63-5.62 10.24-6.37 10.87-.46.38-2.17.25-3.7.12-.96-.09-1.86-.17-2.29-.12-1.13.12-9.62 6.74-10.12 6.87-.5.12-7.24 5.74-7.86 6.12-.63.37-12.24 0-12.87 0-.62 0-1.87-1.5-2.62-2.13-.75-.62-7.24.75-7.37.75-.12 0 0 4.5 0 5.12 0 .63-2.25 4.25-2.74 4.75-.5.5.37 2.74 0 3.12-.38.37-3.25.25-3.87 0-.63-.25-.13-3.5 0-4.37.12-.88-8-1.88-8.62-2.25-.63-.37-3.25 2.25-6.74 4.87-3.5 2.62-9.5 5.87-9.5 6.24 0 .38.63 2.88 0 3.63-.62.75-5.12 6.61-5.12 7.36s1.75 3.5 2.38 4c.62.5-.38 7.37-.5 7.99-.13.63 2 1.75 2.37 2.12.37.38-.25 3.38-.63 4.22-.37.85-2.24.28-2.99.03-.39-.13-1.92.21-3.39.55-1.37.32-2.68.63-2.98.57-.62-.12-5.74 4.75-6.37 5.25-.62.5.25 3.25 0 3.62-.25.38-1.5 1.25-2.25 1.5s-.87 2.87-1.25 3.5c-.37.62-12.73 6.99-12.86 7.49-.12.5 2 2.5 2.75 2.87.75.38.37 11.12 0 11.61-.38.5-1.75.63-2.25.5-.5-.12-.87-3.74-1.25-4.62-.37-.87-11.74-11.36-12.24-11.61s-3.24 1.87-3.62 2.87c-.37 1 7 11.87 7.12 12.74.12.87-3.12 2.62-4.37 2.75-1.25.12 0 5.6 0 5.61 0-.01-.91.75-1.89 1.5-1.01.79-2.1 1.57-2.36 1.5-.5-.12-.12-1.74-.12-2.37 0-.62-.75-.37-1.75-.62s-1.62 3.87-2.5 4.12c-.87.25-2.49 2.5-2.12 3.24.37.75 4.62 9.37 5.25 10.12.62.75 0 4.12 0 4.74 0 .63 1.12 2.75 1.62 2.99.5.24 3.37.26 4.12.01s2.62 4.37 2.85 5.12c.23.75-1.73 4.12-2.23 4.87s-1.87-1.37-2.74-1.87c-.88-.5-1.13 3-1 4 .12.99 8.49 12.11 7.99 12.48-.5.38-2.12.25-3.72-.5-1.14-.54-.74 2.22-1.23 2.96-.5.74-2.97-1.48-4.2-1.73-1.24-.24 0 2.97 0 4.2 0 1.24 2.71 2.47 4.2 3.22 1.48.74 2.47 20.01 3.21 21.25.74 1.23-7.41 5.68-7.41 5.68v4.2s2.71-.99 2.71 0 1.98 6.92 3.71 7.66c1.73.74 4.2-3.71 4.7-4.7.49-.98 2.77 1.4 3.7 1.73.63.23-1.42 3.49-5.17 7.23-3.75 3.75-9.87 8.87-11.86 10.74-2 1.88-2.38 2.87-1.38 4 1 1.12.5 1.75-1.37 3.87-1.88 2.12-1.12 3.25-.38 3.62.75.38-3.74 5.5-4.74 5.62-1 .13-1.5-1.87-2.25-2.62s-1.62 1.25-2.75 1.25c-1.12 0-.62-1.63-1.62-1.88-1-.24-5.12 2-6.24 2.38-1.13.37-5.87 7.24-6.12 7.86-.25.63 2.12 2.38 2.74 3.25.63.87.5 3 .25 4s1.75 1.99 1.25 2.99c-.5 1-2.62-.74-3.24-1.49-.36-.43-1.02-.13-1.67.15-.51.23-1 .45-1.33.34-.75-.24-2.75 6.12-1.87 7.25.87 1.12 15.11 14.36 16.35 15.36 1.25 1 2.88 1.87 4.25 1.75 1.37-.13 2.75 2.74 3.37 2.87.63.12 3.12-1.87 3.75-2.75.62-.87 3.5-.87 4.37-.62.87.25.62 3.74 1 4.62.37.87 2.87 1 3.74 1.62.88.62-.12 3.25-.37 4s7.37 3.87 10.12 4.49c2.74.63 5.49 1.75 5.87.75.37-1-.13-2.12.74-2.5.88-.37 3.38 2.75 4.12 3.12.75.38 5.5.38 6.12.26.63-.13 0-3 .13-4 .12-1 5.12-1.62 6.12-1.37s4.74 6.12 5.24 7.36c.5 1.25 4.25 1.25 5.87 2 1.63.75 7.12 2.87 8.12 3.12 1 .25 2.25-.37 2.62-1.25.38-.87 4.87 1.76 5.75 2.38.87.62 1.74 3.74 2.37 3.62.62-.12.87-2 1.5-1.91.62.09 2.24.16 2.74.91s-.12 4.37.5 5.37c.63 1 2.63-.13 3.75-.25 1.13-.12 4.25 5.37 4.62 6.12.38.75.5 4.37 1.25 5.24.75.88 5.62 2.75 6.74 2.63 1.13-.13 2 2.62 2.63 3.74.62 1.13 4.37.63 5.37.63.99 0 5.74 7.37 6.11 7.99.38.62-1.87 3.12-2.87 3.5-1 .37 4.25 4.87 5.25 4.62s1.62-1.25 1.75-2.87c.12-1.63 4.24 6.99 4.49 7.74s-2.12 2.49-3 3.62c-.87 1.12 4.13 5.12 4.87 5.74.75.63 3.38.38 4.87-.75.81-.6 2.61-.23 4.2.15 1.36.32 2.58.64 2.92.35.75-.62 5 2.25 6.37 2.38 1.38.12 6-.5 6.87-1.75.87-1.25 4.62-.88 5.49-2 .88-1.12.63-3.12 1.75-3.87 1.13-.75 5.25 3.25 5.87 4.24.63 1 7.74 2 8.74 1.5s2.13-3.37 4-2.74c1.87.62 2.75-.88 3.5-1 .75-.13 16.36 11.49 16.86 12.11.49.62-4.75 8.74-6.25 11.74s-6.62 14.48-6.74 15.61c-.08.68 2.73.44 5.38.21 1.72-.16 3.37-.31 4.11-.21 1.87.25 9.24 9.61 10.24 8.49 1-1.12 7.62-38.96 8.24-42.96.62-3.99 4.5-29.6 4.5-30.97 0-1.37-5.12-10.74-5.62-11.74s1.99-3.62 1.62-5.24c-.38-1.63-4.37-1-5.74-1.87-1.38-.88-6.25-4.88-7.37-6.41-1.13-1.53-1.38-20.94-.13-20.32 1.25.63 6.37 1.13 7.25 1 .87-.13 5.61-3.75 6.74-3.5 1.12.25 6.49 3.13 7.62 2.25 1.12-.87 2.99-4.99 2.62-6.49-.37-1.5-3.62-4.75-4.62-5.37-.56-.35-3.69.08-6.65.5-2.37.34-4.62.68-5.34.62-1.62-.12-2-13.11-.88-13.36 1.13-.25 4.63-.5 5.25-2.5.63-2 2.12-2.37 3.75-1.87 1.62.5 4.87 3.12 6.49 3 1.63-.13 15.11-1.5 18.98-1.13 3.87.38 4.75.5 5.37-.75.63-1.25-1-5.37 0-5.87s3.5 2.63 5 3.75 1.37 1.62 2.87.75c1.5-.88 4.12-3.25 5.12-4.37 1-1.13 3.25-4.37 3.99-5.5.76-1.12 2.88.25 4.25 1s1.25 3 1.13 4.5c-.13 1.5 3.87 3.75 3.87 5.99 0 2.25 1.12 13.24.62 14.74-.5 1.5 3.62 1.12 4.12 0s.88-10.74.63-14.11c-.25-3.37-2.25-9.87-3.25-11.37s-.75-5.12-1.75-6.62c-1-1.49-10.24-9.61-11.11-10.24-.88-.62-4.25-.24-5-1.24s3.37-3.13 5.5-5.37c2.12-2.25 4.49-4.37 4.24-6.12s-4.12-5.75-5.49-10.43c-1.38-4.68-3.25-12.43-3.25-13.42 0-1-1.5-2.88-2.25-3.5-.75-.63.25-7.74 0-9.74s.63-1.62 1.38-2.62c.75-1-.38-8.75-.25-9.49.12-.75 3.12-2.13 4.37-3.25 1.25-1.13.37-5.37 0-6.75-.38-1.37 4.74-8.11 4.49-9.99-.25-1.87-3.62-1.87-4.62-3.12-.55-.69-5.38-.26-9.68.17-3.4.34-6.47.68-6.8.46-.75-.5-4.5 1.87-5.37 2.12-.88.25-1.5-.63-2-1.62-.5-1-9.61-.25-10.24-.25-.62 0-3.87 2.74-4.87 3.12-1 .37-1.62-1.75-2-2.87-.37-1.13-2.37.12-3.62.25-1.25.12-5.49-3.75-7.24-6.37s-7.25-10.49-7.87-11.12c-.62-.62-5.99-.5-6.99-.75s-2.37-2.37-2.87-2.99c-.5-.63-6-1.88-6.87-2.25-.88-.38-4.75 4.24-6.25 5.12-1.5.87-5.74-1.5-6.62-2.25-.87-.75-2.24.63-3.99 1-.89.19-2.88-.62-4.73-1.43-1.79-.78-3.46-1.56-3.89-1.44-.87.25-2.25 2.75-2.99 2.87-.75.13-5.75-2.75-6.37-3.37-.63-.63-1.38-6-1.75-6.74-.38-.75-2.88-1.25-3.5-1.75-.62-.5-3.37-.13-4.12-.5-.75-.38.25-8.87.12-9.62-.12-.75-1.49-1.87-1.87-2.62-.37-.75 4.62-1 5.12-2.62.5-1.63-1.5-6.5-2.25-7-.74-.5-3.49-1.75-4.37-3.37-.87-1.62-3.37-13.98-3.37-14.73s-2-1.5-2.5-1.63c-.5-.12-1.74.88-2.49 1-.75.13-1.63-3.99-2.25-4.12-.63-.12-3.37 2-3.75 2.25-.37.25-2.25 0-2.87-.25-.62-.25 9.74-16.36 9.99-16.86s-.5-2-1.12-2.25c-.63-.25-.88-2.49-.38-2.99s1.37-2.63 1.5-3.63c.13-.99 1.25-2.12 1.75-2.74.5-.63.12-3.63.12-4.62 0-1 8.62-14.61 9-15.86.23-.78 1.91-.45 3.42-.11.91.2 1.77.4 2.19.36 1.13-.13 4.63-10.87 4.75-12.62.12-1.74 3.37-2.99 5.37-3.62 2-.62 8.99-1.37 9.62-1.75.62-.37 2.99-5.24 3.37-5.62.37-.37 1.87.38 2.24.63.38.25 4.12-2.62 4.75-3.12.63-.5-1.5-2.88-1.75-3.62-.16-.49-1.16-.4-2.01-.31-.47.05-.89.1-1.11.06-.62-.13-3.5-3.13-3.87-4-.38-.87-2 .25-2.87.37-.88.13-1.38-1.12-1.88-1.24q-.09-.03-.28-.03c-.83 0-2.79.36-3.34.9z"/></clipPath><clipPath id="prefix__cp5"><path d="M-103-20h666.67v666.67H-103z"/></clipPath></defs><g id="prefix__circle" clip-path="url(#prefix__cp1)"><g id="prefix__g32" clip-path="url(#prefix__cp2)" opacity=".4"><path id="prefix__path28" class="prefix__s1" d="M421 228.6c0 105.7-85.8 191.5-191.6 191.5-105.7 0-191.5-85.8-191.5-191.5C37.9 122.8 123.7 37 229.4 37 335.2 37 421 122.8 421 228.6z"/></g></g><g id="prefix__leaves" clip-path="url(#prefix__cp3)"><path id="prefix__path46" class="prefix__s2" d="M347.7 306.9c.1-1.2 2.6-2.9 4.6-4-1.4-10.7-7.5-17.5-17.4-21.5-16.7-6.7-35.4 2.8-35.4 2.8-3.5 26.9 14.6 35.7 28.7 36.6q.6.1 1.2.1c.5-2.7 1.4-6.4 2.7-6.5 1.4-.2 2.8 4.3 3.6 7.5 10.7 2.5 13.1 8.3 13.1 8.3 2.4-7.8 3.7-14.5 3.8-20.4-2.2-.5-5.1-1.5-4.9-2.9z"/><path id="prefix__path54" fill-rule="evenodd" class="prefix__s3" d="M342.3 322.4s-.3-6.3-.4-10.1"/><path id="prefix__path58" fill-rule="evenodd" class="prefix__s3" d="M337.2 320.5c-.4-5.1-.8-8.4-1.3-13.4"/><path id="prefix__path62" fill-rule="evenodd" class="prefix__s3" d="M332 312.5c-.3-3.2-.3-4.8-.6-8.1"/><path id="prefix__path66" fill-rule="evenodd" class="prefix__s3" d="M324.9 318.3c-.6-6.5-.9-10.8-1.3-17.3"/><path id="prefix__path70" fill-rule="evenodd" class="prefix__s3" d="M317.4 318.3q-.7-10.7-.6-21.3"/><path id="prefix__path74" fill-rule="evenodd" class="prefix__s3" d="M308.6 312.9c.6-7.4 1.7-12.9 2.4-20.3"/><path id="prefix__path82" fill-rule="evenodd" class="prefix__s3" d="M335.9 307.1c1.3.2 7.9-.1 10.2.2"/><path id="prefix__path86" fill-rule="evenodd" class="prefix__s3" d="M331.4 304.4c6.6-2.3 11.9-3.6 18.8-4.7"/><path id="prefix__path90" fill-rule="evenodd" class="prefix__s3" d="M323.7 300.4c8.1-3.2 15.2-5 23.7-7.1"/><path id="prefix__path94" fill-rule="evenodd" class="prefix__s3" d="M316.9 296.5c8.7-4.3 17.8-6.6 27.1-8.9"/><path id="prefix__path98" fill-rule="evenodd" class="prefix__s3" d="M311 292.3c8.3-4.4 17-7.6 26.1-9.9"/><path id="prefix__path110" fill-rule="evenodd" class="prefix__s5" d="M318.1 345.4c.3-2.6.4-4.1.7-6.7"/><path id="prefix__path114" fill-rule="evenodd" class="prefix__s5" d="M315.3 336c.2-1.6.3-2.5.6-4.1"/><path id="prefix__path118" fill-rule="evenodd" class="prefix__s5" d="M310.6 338c1.1-4.2 1.8-6.9 2.9-11.1"/><path id="prefix__path122" fill-rule="evenodd" class="prefix__s5" d="M307.1 333.5c1.6-4.2 2.6-7.2 4-11.5"/><path id="prefix__path126" fill-rule="evenodd" class="prefix__s5" d="M306.2 326.5q1.7-4 3-8.2"/><path id="prefix__path130" fill-rule="evenodd" class="prefix__s5" d="M301.9 325.6c1.7-4.7 3.1-7.4 4.8-12.1"/><path id="prefix__path134" fill-rule="evenodd" class="prefix__s5" d="M300.3 320.5c1.1-4.7 2.3-6.9 3.8-11.4"/><path id="prefix__path138" fill-rule="evenodd" class="prefix__s5" d="M324.6 342.6c-2-1.6-3.3-2.6-5.5-4"/><path id="prefix__path142" fill-rule="evenodd" class="prefix__s5" d="M323.6 334.9c-2.9-1.1-4.3-1.6-7.2-2.8"/><path id="prefix__path150" fill-rule="evenodd" class="prefix__s5" d="M321.3 322c-4.3-1.5-7.5-2.4-11.9-3.4"/><path id="prefix__path154" fill-rule="evenodd" class="prefix__s5" d="M319.4 314.6c-4.1-1.1-8.5-1.7-12.8-1.7"/><path id="prefix__path162" class="prefix__s4" d="M81.2 199.2s14.1-1.2 21.1 9.3c0 0-10.7 7.8-21.1-9.3z"/><path id="prefix__path166" class="prefix__s4" d="M96.3 180.8s-3.6 14.9 6 27.7c0 0 9.9-5.5-6-27.7z"/><path id="prefix__path170" class="prefix__s4" d="M77.5 170.9s-1.6 18.1 15.8 23.2c0 0 .9-18.4-15.8-23.2z"/><path id="prefix__path174" class="prefix__s4" d="M88.3 216.8s8.5 10.8 24.2 5.9c0 0-10.3-11.8-24.2-5.9z"/><path id="prefix__path178" class="prefix__s4" d="M111.5 197.8s8.8 10.5 1 24.9c0 0-9.6-12.4-1-24.9z"/><path id="prefix__path182" fill-rule="evenodd" class="prefix__s3" d="M102.3 208.5s-10.7 7.8-21.1-9.3"/><path id="prefix__path186" fill-rule="evenodd" class="prefix__s3" d="M102.3 208.5s9.9-5.5-6-27.7"/><path id="prefix__path194" fill-rule="evenodd" class="prefix__s3" d="M88.3 216.8s8.5 10.8 24.2 5.9"/><path id="prefix__path198" fill-rule="evenodd" class="prefix__s3" d="M111.5 197.8s8.8 10.5 1 24.9"/><path id="prefix__path210" fill-rule="evenodd" class="prefix__s3" d="M68.2 253.4c1.7-1.9 3-2.9 5.1-4.4"/><path id="prefix__path214" fill-rule="evenodd" class="prefix__s3" d="M68.7 244.6c2 1.7 2.7 2.5 4.4 4.5"/><path id="prefix__path218" fill-rule="evenodd" class="prefix__s3" d="M76 253.9c1.9-1.5 2.8-2.3 4.7-3.8"/><path id="prefix__path222" fill-rule="evenodd" class="prefix__s3" d="M76.9 243.8c1.7 2.3 2.5 3.6 3.8 6.2"/><path id="prefix__path226" fill-rule="evenodd" class="prefix__s3" d="M80.4 236.5c4.4 6.3 7.5 11.7 10.6 18.8"/><path id="prefix__path230" fill-rule="evenodd" class="prefix__s3" d="M90.4 240.1c3.9 6.6 6.5 12.4 9 19.7"/><path id="prefix__path234" fill-rule="evenodd" class="prefix__s3" d="M96.9 235.6c4.4 9.1 7.6 16.4 11.2 25.8"/><path id="prefix__path242" fill-rule="evenodd" class="prefix__s3" d="M77.2 260.6c4.2-2.6 8-4.3 12.9-5.6"/><path id="prefix__path246" fill-rule="evenodd" class="prefix__s3" d="M87 264.6c3.9-2.5 6.8-3.8 11.4-4.9"/><path id="prefix__path250" fill-rule="evenodd" class="prefix__s3" d="M91 272.9s8-8.3 16.3-10.5"/><path id="prefix__path262" fill-rule="evenodd" class="prefix__s5" d="M302.5 111.5c1.2 3.2 1.7 5.3 1.9 8.7"/><path id="prefix__path266" fill-rule="evenodd" class="prefix__s5" d="M293.3 112.7c2.2 6.8 3.6 11.8 5.1 18.8"/><path id="prefix__path270" fill-rule="evenodd" class="prefix__s5" d="M285 123.8c2.3 6.8 3.8 12.2 5.4 19.2"/><path id="prefix__path274" fill-rule="evenodd" class="prefix__s5" d="M274.9 123.2c3.1 9.5 5.9 17.2 9.7 26.6"/><path id="prefix__path278" fill-rule="evenodd" class="prefix__s5" d="M268.9 138.8c3.4 7.2 5.9 12.5 9 19.8"/><path id="prefix__path282" fill-rule="evenodd" class="prefix__s5" d="M260.6 145.5q6.2 11.8 12.9 23.3"/><path id="prefix__path290" fill-rule="evenodd" class="prefix__s5" d="M317.9 121.6c-6.4 3.2-11.9 6-18.3 9.2"/><path id="prefix__path294" fill-rule="evenodd" class="prefix__s5" d="M314.5 135.2c-8.5 3-15.6 5.3-24.1 8"/><path id="prefix__path298" fill-rule="evenodd" class="prefix__s5" d="M285 149.5c9.3-.7 16.8-1 26-1.2"/><path id="prefix__path302" fill-rule="evenodd" class="prefix__s5" d="M278.4 159.2q17.5-.2 35.1.9"/><path id="prefix__path322" fill-rule="evenodd" class="prefix__s3" d="M333.2 151.2c-.7 3.6-1 5.5-1.6 9.1"/><path id="prefix__path326" fill-rule="evenodd" class="prefix__s3" d="M322.4 152.8c-.2 4.1-.5 7.1-.9 11.1"/><path id="prefix__path330" fill-rule="evenodd" class="prefix__s3" d="M312 156.4c-.1 4.6.1 7.4.7 12"/><path id="prefix__path334" fill-rule="evenodd" class="prefix__s3" d="M351.5 152.2c4.5-.8 7.2-1.3 11.7-2.2"/><path id="prefix__path338" fill-rule="evenodd" class="prefix__s3" d="M342.6 156.6c6-.4 9.7-.6 15.7-.9"/><path id="prefix__path342" fill-rule="evenodd" class="prefix__s3" d="M331.5 161c8 .1 14 .2 22 .3"/><path id="prefix__path346" fill-rule="evenodd" class="prefix__s3" d="M321.2 164.8c9.2.9 15.8 1.5 25.1 2.5"/><path id="prefix__path350" fill-rule="evenodd" class="prefix__s3" d="M312.4 168.9c8.7 2.2 15.2 3.9 23.9 6.1"/><path id="prefix__path50" fill-rule="evenodd" class="prefix__s3" d="M348.3 327.1c-.2-7.8-3.9-13.8-10.1-18.7-4.3-3.4-9.6-5.5-14.5-8-8.2-4.1-15.6-9.7-21.8-16.4"/><path id="prefix__path78" fill-rule="evenodd" class="prefix__s3" d="M341.9 312.3l2 .4c2.9.7 4.5.9 7.3 1.6"/><path id="prefix__path102" class="prefix__s4" d="M316.9 326.3l7.3 1.2c-4.9-24.2-23.7-26.5-23.7-26.5-4.6 10.6-2.4 20.4 2.2 28.4l3.6-3.1-2 5.7c2.5 3.9 5.5 7.2 8.4 10l2.4-5.2-1 6.5c5.6 5.2 10.6 8.3 10.6 8.3 1-8.2.9-15 .1-20.8z"/><path id="prefix__path106" fill-rule="evenodd" class="prefix__s5" d="M324.1 350.7q-4.2-11.5-9.7-22.6-1.1-2.3-2.3-4.6l-10.6-20.6"/><path id="prefix__path146" fill-rule="evenodd" class="prefix__s5" d="M316.3 326.1l-3.2-1h-.2s0 .1.1.1"/><path id="prefix__path158" d="M86.1 184.8c4.2 3.2 7.1 7.6 9.8 11.8 2.8 4.3 5.5 8.5 8.4 12.7 2.9 4.1 5.9 8.1 9.2 11.9 3.3 3.7 7 7 11 9.9.8.6.9 1.6.4 2.4-.6.8-1.6 1-2.4.4h-.1c-4.1-3.2-7.8-6.9-11.1-10.9-3.3-3.9-6.2-8.1-9-12.4-2.8-4.3-5.3-8.7-7.9-13-2.6-4.3-5.3-8.6-9.1-11.7-.3-.3-.4-.7-.1-1 .2-.3.6-.3.9-.1z" fill="#005900"/><path id="prefix__path190" fill-rule="evenodd" class="prefix__s3" d="M79 180.9c3.7 7.7 7.7 11.3 14.3 13.2 0 0 .3-6.4-2.9-12.6"/><path id="prefix__path202" class="prefix__s2" d="M92 233.3c.7 1.6 1.1 3.4-.4 4.8-2.3 2.1-6.2-1.9-8.1-4.2-3.4.8-6.2 2-8.6 3.4 1.2 2.3 2.5 5.6.4 6.2-2.2.7-3.8-1.5-4.7-3.1-5.9 5.3-7.4 11.5-7.4 11.5s2.2.3 6.7 3.7c2.9-.8 6.8-1.5 7.8.2.8 1.4-.9 2.9-2.8 4 1.4 1.4 3 3.1 4.8 5q.1.2.3.3c2.3-.6 5.2-.7 7 1.1 1.5 1.6.3 3.1-1.4 4.2 15.3 12.3 31.9 8.4 43.2-8.9-3.9-16-21.3-27.3-36.8-28.2z"/><path id="prefix__path206" fill-rule="evenodd" class="prefix__s3" d="M64.3 251.1c1.4-1.1 3.3-1.6 5.8-1.8 5.1-.5 10.3.4 15 2.6 4.6 2.2 8.7 5.6 13.4 7.8 8.8 4 19.1 3 28.6.9"/><path id="prefix__path238" fill-rule="evenodd" class="prefix__s3" d="M106.7 237.8c1.7 4.1 2.5 7.2 3.9 11.4l1.6 5q1.2 4.1 2.5 8.2"/><path id="prefix__path254" class="prefix__s4" d="M312.7 148.3c.7-1.6 3.8-1.4 6.1-1.1.7-3.3 1.2-6.7 1.3-10-1.9-.3-4.9-.3-5-2.2-.1-1.9 3.1-3.5 5.1-3.9a80.3 80.3 0 00-2.6-17.9c-2 .2-4.3.3-4.8-.6-.6-.9 1.5-3.5 3.2-5.2-2.6-8.4-5.5-13.8-5.5-13.8s-2.7 4.6-7.8 9.5c.3 2.8.4 6.3-.5 6.8-.8.5-2.2-1.3-3.5-3.2q-1.9 1.5-4.2 2.9c-2.5 1.6-5.3 3.2-8.2 4.8-.1 3-.6 7.1-1.9 7.6-1.4.5-2.4-2.4-3-4.9-4.6 2.6-9 5.3-12.3 8.4.2 4.6.3 10.8-1.1 11.8-1.3.9-3.1-1.9-4.3-4.3-4.1 9.7-6.9 29 5.6 45.8 0 0 35.5 6.3 47-23.4q.5-1.1.8-2.2c-2-1-5.2-3.1-4.4-4.9z"/><path id="prefix__path258" fill-rule="evenodd" class="prefix__s5" d="M310.3 96.3c-.7 15.3-5.8 28.1-14.8 40.3-5.3 7.1-11.7 13.3-16.4 20.8-3.9 6.1-6.6 13.1-7.8 20.2"/><path id="prefix__path286" fill-rule="evenodd" class="prefix__s5" d="M311.8 113.5c-2.5 2-3.8 3.2-6.3 5.2-.1.1-.1.3 0 .2"/><path id="prefix__path306" class="prefix__s2" d="M371.7 134.7s-15.2 11.5-32.8 14.2c-17.6 2.6-43.1 2.5-42.1 35.3 0 0 19.1 8.8 45.8-11.1 26.6-20 29.1-38.4 29.1-38.4z"/><path id="prefix__path310" fill-rule="evenodd" class="prefix__s3" d="M371 135.9c-8.3 9-18.6 16.3-29.9 21.2-8 3.5-16.5 5.8-24.3 9.6-7.9 3.8-15.3 9.5-18.7 17.5"/><path id="prefix__path314" fill-rule="evenodd" class="prefix__s3" d="M353.5 146.8c-1 2.3-1.3 2.9-2.2 5.2l-.1.1c-.1 0-.1-.2 0-.1"/><path id="prefix__path318" fill-rule="evenodd" class="prefix__s3" d="M344.1 149.5c-.5 2.4-.7 3.3-1.2 5.7-.1.4-.2.8-.6 1"/><path id="prefix__path354" class="prefix__s7" d="M340.3 132.1s-4.2-4.6-8-7.6c-3.7-3-7.2-3.7-7.3-2.1-.1 1.5 2 4.1 2.2 4.5.2.4-.1 3.8 3.1 5.2 0 0-1 3.9 2.2 7.1 3.2 3.1 5.2 2.7 7.1 1.1 1-.8 1.5-2.8 1.5-2.8z"/><path id="prefix__path358" class="prefix__s7" d="M339.5 131.6s2.6-5.7 5.3-9.8c2.8-4 6.6-5.7 7.6-4.2s0 4.7-.1 5.1c0 .5 2.3 3.7-.7 6 0 0 3.4 3.6 1.3 7.7-2.1 4-4.7 4.1-7.8 3.2-1.7-.6-3.5-2.4-3.5-2.4z"/><path id="prefix__path362" class="prefix__s8" d="M339.9 130.9s.9 2.2 1.6 4.5c.8 2.5 1.5 4.1.9 4.2-.5 0-4.1-7.2-3.8-8.7.2-.9 1.1-.6 1.3 0z"/><path id="prefix__path366" class="prefix__s8" d="M338.3 130.4c-.2.5.1 1 .6 1.1.5.2.9-.1 1.1-.6.1-.5-.1-1-.6-1.1-.5-.1-1 .1-1.1.6z"/><path id="prefix__path370" class="prefix__s8" d="M339.4 130.3s-.5-2.2-.4-2.8c0-.7.4-.4.2 0-.1.5.2 2.8.2 2.8z"/><path id="prefix__path374" class="prefix__s8" d="M338.8 130.2s-.4-2.1-.4-2.8c0-.7.4-.4.3.1-.2.4.1 2.7.1 2.7z"/><path id="prefix__path378" class="prefix__s7" d="M371.7 319c-4.2-4.8-9-.2-8.8 3.5-3-2.1-9.5-.5-7.6 5.6 1.8 5.9 14.1 6.2 14.1 6.2s6.3-10.6 2.3-15.3z"/></g><g id="prefix__colombia" clip-path="url(#prefix__cp4)"><path id="prefix__path388" class="prefix__s9" d="M396.2 442.5H62.7V334.9h333.5z"/><path id="prefix__path390" class="prefix__s10" d="M396.2 341.3H62.7V240.1h333.5z"/><path id="prefix__path392" class="prefix__s7" d="M396.2 242.2H62.7V14.6h333.5z"/></g><g id="prefix__flowers" clip-path="url(#prefix__cp5)"><path id="prefix__path404" class="prefix__s9" d="M66 232.7c-2.3-2.9-5.3-.3-5.3 1.8-1.7-1.3-5.6-.5-4.6 3.1.9 3.5 8.1 4 8.1 4s4-6 1.8-8.9z"/><path id="prefix__path408" class="prefix__s10" d="M125.8 230.5s3 4 6 1.3c3.1-2.7-1.3-7-1.3-7s4.1-2.2 2.5-5.8c-1.5-3.6-7.1-2.6-7.1-2.6s.6-5.2-3.7-5.5c-4.2-.2-5.4 3.4-4.2 6.1 0 0-2.8-2.8-5.2-.4-2.4 2.4-.7 6 1.9 6.7 0 0-3.5 1.4-2.6 4.6.9 3.2 4.4 2.9 6 1.3 0 0-.6 4.4 2.9 5.2 3.4.8 4.5-2.3 4.8-3.9z"/><path id="prefix__path412" class="prefix__s11" d="M120.4 223.3s-3.3-1.2-2.8-2.6c.5-1.4 3.1 1 3.1 1s.3-4.1 1.5-3.8c1.1.2.4 3.7.4 3.7s3.6-1.7 3.9-.7c.3 1.1-3 2.1-3 2.1s3.9 1.6 3.7 2.8c-.3 1.2-3.7-1-3.7-1s.8 2.9 0 3.5c-.8.7-1.9-2.9-1.9-2.9s-2.9 1.2-3.4.3c-.5-.9 2.2-2.4 2.2-2.4z"/><path id="prefix__path416" class="prefix__s11" d="M119.7 219.5c-.5-.1-.7-.3-.9-.5-.1-.2-.2-.5-.1-1 .5.1.7.3.9.5.2.2.2.5.1 1z"/><path id="prefix__path420" class="prefix__s11" d="M117.9 223.5c-.3.4-.6.6-1 .6-.4.1-.7 0-1.2-.3.4-.4.7-.6 1.1-.6.4-.1.7 0 1.1.3z"/><path id="prefix__path424" class="prefix__s11" d="M119.9 227c.1.5 0 .8-.2 1-.2.3-.4.5-.9.6-.2-.4-.1-.8.1-1.1.2-.3.5-.5 1-.5z"/><path id="prefix__path428" class="prefix__s11" d="M125 226.8c.6 0 .9.3 1.1.5.2.3.4.7.3 1.2-.5 0-.8-.3-1.1-.5-.2-.3-.4-.7-.3-1.2z"/><path id="prefix__path432" class="prefix__s11" d="M126.9 223.1c.3-.4.6-.5.9-.5.4 0 .7.1 1.1.5-.3.4-.7.5-1 .5-.4 0-.7-.1-1-.5z"/><path id="prefix__path436" class="prefix__s11" d="M124.4 219.2c-.3-.3-.3-.6-.2-.8.1-.2.3-.4.8-.3.1.4.1.6.1.7-.2.2-.3.3-.7.4z"/><path id="prefix__path440" class="prefix__s7" d="M122.1 223.1c-.7.1-3.5-8.1-2.5-8.6.9-.4 4.2 8.4 2.5 8.6z"/><path id="prefix__path444" class="prefix__s9" d="M118.5 251.3s-.1 6.5 5.1 6.1c5.2-.3 4.1-8.1 4.1-8.1s6 1 7.3-3.9c1.3-4.8-5.2-8.3-5.2-8.3s4.7-4.8.6-8.4c-4-3.6-8.2-.9-9.1 2.8 0 0-.6-5-4.9-4.5-4.3.6-5.5 5.4-3.4 8.3 0 0-4.7-1.4-6.3 2.5-1.6 4 2.3 6.5 5.1 6.2 0 0-4.1 3.9-1.2 7.4 2.8 3.6 6.3 1.3 7.9-.1z"/><path id="prefix__path448" class="prefix__s12" d="M118.8 239.8s-2.4-3.8-.8-4.9c1.6-1 2.4 3.5 2.4 3.5s3.5-3.9 4.5-2.7c.9 1.1-2.6 4.1-2.6 4.1s5 1.1 4.5 2.4c-.5 1.3-4.7-.3-4.7-.3s2.7 4.7 1.5 5.8c-1.2 1-2.9-4-2.9-4s-1.4 3.6-2.8 3.6c-1.3 0 .4-4.4.4-4.4s-3.8-1.2-3.6-2.5c.2-1.3 4.1-.6 4.1-.6z"/><path id="prefix__path452" class="prefix__s12" d="M121.1 235.3c-.5-.4-.6-.8-.6-1.1.1-.4.2-.7.7-1.1.5.4.6.8.6 1.2-.1.3-.2.7-.7 1z"/><path id="prefix__path456" class="prefix__s12" d="M116.1 238c-.7.2-1.1.1-1.5-.1-.4-.3-.8-.6-.9-1.3.6-.2 1.1 0 1.5.2.4.2.8.6.9 1.2z"/><path id="prefix__path460" class="prefix__s12" d="M115.3 243.1c-.3.6-.6.8-1 .9-.4.1-.8.2-1.4-.1.2-.6.6-.9 1-1.1.4-.1.9-.1 1.4.3z"/><path id="prefix__path464" class="prefix__s12" d="M120.7 246.9c.5.5.6 1 .6 1.5 0 .4-.1.9-.6 1.4-.5-.4-.6-.9-.6-1.4 0-.5.1-1 .6-1.5z"/><path id="prefix__path468" class="prefix__s12" d="M125.4 244.7c.7-.1 1.1 0 1.5.2.3.3.5.6.6 1.3-.6.2-1 0-1.4-.2-.3-.3-.6-.7-.7-1.3z"/><path id="prefix__path472" class="prefix__s12" d="M126 238.8c0-.6.2-.9.5-1 .3-.1.6-.1 1 .3-.1.5-.3.7-.5.8-.2.1-.5.1-1-.1z"/><path id="prefix__path476" class="prefix__s7" d="M120.6 240.9c-.8-.5 3-10.9 4.3-10.7 1.3.3-2.4 11.8-4.3 10.7z"/><path id="prefix__path480" class="prefix__s10" d="M76.7 188.5c0 1.9-1.5 3.4-3.4 3.4s-3.5-1.5-3.5-3.4 1.6-3.5 3.5-3.5 3.4 1.6 3.4 3.5z"/><path id="prefix__path484" class="prefix__s7" d="M52 222.3c0 .8-.6 1.5-1.4 1.5-.8 0-1.4-.7-1.4-1.5 0-.7.6-1.4 1.4-1.4.8 0 1.4.7 1.4 1.4z"/><path id="prefix__path488" class="prefix__s1" d="M73.1 197.3c-12.5.7-11.3 1.3-12 13.8-.8-12.5.4-13.1-12.1-13.8 12.5-.8 11.3-1.4 12.1-13.8.7 12.4-.5 13 12 13.8z"/><path id="prefix__path492" class="prefix__s1" d="M91.9 227c-4.9.3-4.4.5-4.7 5.3-.3-4.8.2-5-4.7-5.3 4.9-.3 4.4-.6 4.7-5.4.3 4.8-.2 5.1 4.7 5.4z"/><path id="prefix__path496" class="prefix__s7" d="M76.5 224.7s2-6.8 2.5-12.2c.5-5.4-1.6-9.7-3.5-9.1-2 .6-3.3 4.1-3.7 4.5-.3.4-4.6 1.6-3.6 5.7 0 0-5.5.7-6.6 5.6-1.1 5 1.1 7 4.4 8.4 1.9.7 4.8.4 4.8.4z"/><path id="prefix__path500" class="prefix__s8" d="M76.8 223.8s-2.4 1.3-4.6 2.8c-2.5 1.5-4.3 2.4-3.8 2.9.4.4 8.7-3.2 9.5-4.7.5-1-.5-1.3-1.1-1z"/><path id="prefix__path504" class="prefix__s8" d="M78.5 224.6c-.2.5-.8.7-1.3.5-.5-.2-.8-.8-.5-1.3.2-.5.8-.8 1.3-.6.5.3.7.9.5 1.4z"/><path id="prefix__path508" class="prefix__s8" d="M77.6 223.7s1.9-1.6 2.4-2.2c.4-.6-.1-.6-.3-.1-.2.5-2.1 2.3-2.1 2.3z"/><path id="prefix__path512" class="prefix__s8" d="M78.1 224s2-1.5 2.4-2.1c.5-.7 0-.7-.2-.2-.3.6-2.2 2.3-2.2 2.3z"/><path id="prefix__path516" class="prefix__s9" d="M248.6 103.8c-2.3-3-5.3-.4-5.3 1.8-1.6-1.4-5.5-.6-4.6 3.1.9 3.5 8.1 4 8.1 4s4-6 1.8-8.9z"/><path id="prefix__path520" class="prefix__s10" d="M275.3 110.6c1.4-6.2-5.2-7.3-8-5-.1-3.6-5.4-7.8-9.1-2.7-3.6 5 3.6 15 3.6 15s12.2-1.3 13.5-7.3z"/><path id="prefix__path524" class="prefix__s10" d="M238.2 140.3s-5 4.2-1.3 7.9c3.6 3.7 8.8-2.1 8.8-2.1s3.2 5.1 7.7 2.9c4.5-2.1 2.9-9.3 2.9-9.3s6.7.4 6.8-5c.1-5.4-4.6-6.8-8-5.1 0 0 3.4-3.7.2-6.6-3.3-3-7.7-.7-8.5 2.8 0 0-2-4.5-6.1-3.1-4 1.3-3.4 5.8-1.3 7.8 0 0-5.6-.5-6.4 3.9-.9 4.5 3.1 5.7 5.2 5.9z"/><path id="prefix__path528" class="prefix__s11" d="M247.1 133.1s1.4-4.3 3.2-3.8c1.8.6-1.1 4.1-1.1 4.1s5.3.1 5 1.6c-.3 1.5-4.8.8-4.8.8s2.4 4.5 1.1 5c-1.3.4-2.8-3.8-2.8-3.8s-1.9 5.1-3.4 4.9c-1.6-.3 1.1-4.8 1.1-4.8s-3.7 1.3-4.5.2c-.9-1 3.5-2.6 3.5-2.6s-1.6-3.6-.4-4.3c1.1-.7 3.1 2.7 3.1 2.7z"/><path id="prefix__path532" class="prefix__s11" d="M252 131.9c0-.6.2-.9.5-1.1.3-.2.7-.4 1.3-.2 0 .6-.3.9-.5 1.2-.3.2-.7.3-1.3.1z"/><path id="prefix__path536" class="prefix__s11" d="M246.7 129.9c-.6-.4-.8-.8-.9-1.3 0-.4 0-.9.4-1.5.6.4.8.8.9 1.3 0 .5 0 1-.4 1.5z"/><path id="prefix__path540" class="prefix__s11" d="M242.3 132.6c-.6.1-1 0-1.3-.2-.3-.2-.6-.5-.8-1.1.6-.3 1-.2 1.4.1.4.2.7.6.7 1.2z"/><path id="prefix__path544" class="prefix__s11" d="M242.9 139.2c0 .7-.3 1.1-.6 1.4-.4.3-.8.5-1.5.5 0-.7.3-1.1.6-1.4.4-.3.8-.6 1.5-.5z"/><path id="prefix__path548" class="prefix__s11" d="M247.7 141.3c.6.4.7.9.8 1.3 0 .4-.1.8-.6 1.3-.5-.4-.7-.8-.7-1.2 0-.5.1-.9.5-1.4z"/><path id="prefix__path552" class="prefix__s11" d="M252.6 137.9c.4-.4.8-.4 1-.3.3.2.6.4.5 1-.5.3-.7.3-1 .2-.2-.2-.4-.3-.5-.9z"/><path id="prefix__path556" class="prefix__s7" d="M247.5 135.3c-.2-1 10.2-5 10.8-3.8.6 1.2-10.5 5.9-10.8 3.8z"/><path id="prefix__path560" class="prefix__s9" d="M264.3 153.6s5.2-.4 4.5-4.5c-.6-4-6.7-2.7-6.7-2.7s.4-4.7-3.6-5.4c-3.9-.7-6.2 4.7-6.2 4.7s-4.1-3.4-6.7 0c-2.5 3.5-.1 6.6 2.8 7 0 0-3.9.8-3.2 4.2.8 3.4 4.7 4 6.8 2.2 0 0-.8 3.8 2.5 4.7 3.2 1 4.9-2.2 4.5-4.4 0 0 3.4 3 6 .5s.6-5.1-.7-6.3z"/><path id="prefix__path564" class="prefix__s12" d="M255.2 154.2s-2.9 2.1-3.8.9c-.9-1.2 2.6-2.1 2.6-2.1s-3.3-2.5-2.5-3.3c.9-.9 3.5 1.7 3.5 1.7s.5-4.1 1.6-3.7c1 .3 0 3.7 0 3.7s3.6-2.5 4.5-1.6c.9.9-3 2.6-3 2.6s3 .9 3.1 1.9c.1 1.1-3.5.1-3.5.1s-.7 3-1.7 3c-1.1-.1-.8-3.2-.8-3.2z"/><path id="prefix__path568" class="prefix__s12" d="M251.5 152.7c-.3.4-.6.5-.9.5-.3 0-.6-.1-.8-.5.2-.4.5-.5.8-.5.3 0 .6.1.9.5z"/><path id="prefix__path572" class="prefix__s12" d="M254 156.4c.2.5.1.9 0 1.2-.2.4-.5.7-1 .9-.2-.6-.1-.9.1-1.3.1-.3.4-.6.9-.8z"/><path id="prefix__path576" class="prefix__s12" d="M258.1 156.7c.4.2.6.5.7.7.2.3.2.6.1 1.1-.6-.1-.8-.3-1-.7-.1-.3-.1-.7.2-1.1z"/><path id="prefix__path580" class="prefix__s12" d="M260.7 152.2c.4-.4.7-.6 1.1-.6.4-.1.8 0 1.2.3-.3.5-.7.6-1.1.7-.4 0-.8-.1-1.2-.4z"/><path id="prefix__path584" class="prefix__s12" d="M258.6 148.6c-.1-.5 0-.9.1-1.2.2-.2.5-.5 1-.6.2.5 0 .8-.1 1.2-.2.2-.5.5-1 .6z"/><path id="prefix__path588" class="prefix__s12" d="M253.9 148.5c-.5.1-.7-.1-.8-.3-.1-.2-.2-.5.1-.8.5 0 .6.2.8.3 0 .2.1.4-.1.8z"/><path id="prefix__path592" class="prefix__s7" d="M256 152.6c-.4.7-8.9-1.5-8.8-2.6.2-1 9.5 1.1 8.8 2.6z"/><path id="prefix__path596" class="prefix__s7" d="M254.4 115.2c0 1-.8 1.8-1.8 1.8s-1.8-.8-1.8-1.8c0-.9.8-1.7 1.8-1.7s1.8.8 1.8 1.7z"/><path id="prefix__path600" class="prefix__s9" d="M267.1 93.3c0 1-.8 1.8-1.8 1.8s-1.8-.8-1.8-1.8.8-1.8 1.8-1.8 1.8.8 1.8 1.8z"/><path id="prefix__path604" class="prefix__s1" d="M250.1 87.1c-6.4.4-5.8.7-6.2 7.1-.4-6.4.2-6.7-6.1-7.1 6.3-.3 5.7-.7 6.1-7 .4 6.3-.2 6.7 6.2 7z"/><path id="prefix__path608" class="prefix__s1" d="M289.2 100.5c-4.8.3-4.3.6-4.6 5.4-.3-4.8.1-5.1-4.7-5.4 4.8-.3 4.4-.5 4.7-5.3.3 4.8-.2 5 4.6 5.3z"/><path id="prefix__path612" class="prefix__s9" d="M345.5 341.4c-.1-3.7-4.1-3.4-5.3-1.6-.6-2.1-4.2-3.7-5.6-.2-1.3 3.4 4.3 8 4.3 8s6.7-2.6 6.6-6.2z"/><path id="prefix__path616" class="prefix__s7" d="M317 283.8s3.4-3.8.2-6.2c-3.2-2.5-6.6 2.6-6.6 2.6s-3-3.6-6.2-1.4c-3.3 2.1-1.3 7.5-1.3 7.5s-5.1.4-4.6 4.6c.5 4.2 4.3 4.7 6.7 3 0 0-2.2 3.3.6 5.2 2.8 1.9 6-.4 6.2-3.1 0 0 2 3.2 5 1.7 3-1.5 2-4.9.2-6.2 0 0 4.4-.2 4.5-3.7.2-3.6-3-4-4.7-4z"/><path id="prefix__path620" class="prefix__s13" d="M311 290.3s-.6 3.5-2.1 3.3c-1.4-.2.4-3.2.4-3.2s-4.1.4-4-.7c0-1.2 3.6-1.2 3.6-1.2s-2.4-3.1-1.4-3.7c1-.5 2.6 2.6 2.6 2.6s.8-4.1 2.1-4.1c1.2 0-.4 3.8-.4 3.8s2.7-1.4 3.5-.7c.8.7-2.5 2.4-2.5 2.4s1.7 2.6.9 3.3c-.8.7-2.7-1.8-2.7-1.8z"/><path id="prefix__path624" class="prefix__s13" d="M307.3 291.8c.1.5-.1.8-.3 1-.2.2-.4.3-.9.2-.1-.5.1-.7.3-.9.2-.2.4-.4.9-.3z"/><path id="prefix__path628" class="prefix__s13" d="M311.6 292.8c.5.2.7.5.8.9.1.3.2.7-.1 1.2-.5-.3-.7-.6-.8-.9-.1-.4-.1-.8.1-1.2z"/><path id="prefix__path632" class="prefix__s13" d="M314.7 290.2c.5-.2.8-.1 1.1 0 .2.1.5.3.7.8-.4.3-.8.2-1.1.1-.3-.1-.6-.4-.7-.9z"/><path id="prefix__path636" class="prefix__s13" d="M313.5 285.2c0-.5.1-.9.4-1.2.2-.2.5-.5 1.1-.5 0 .5-.2.9-.4 1.2-.2.2-.6.5-1.1.5z"/><path id="prefix__path640" class="prefix__s13" d="M309.6 284.1c-.5-.3-.6-.6-.7-.9-.1-.3-.1-.6.2-1.1.5.2.6.6.7.9.1.3.1.7-.2 1.1z"/><path id="prefix__path644" class="prefix__s13" d="M306.2 287.3c-.3.3-.5.3-.8.3-.2-.1-.4-.3-.4-.7.3-.3.5-.3.7-.2.2 0 .3.1.5.6z"/><path id="prefix__path648" class="prefix__s9" d="M310.5 288.7c.2.8-7.4 5-8 4.1-.6-.8 7.4-5.7 8-4.1z"/><path id="prefix__path652" class="prefix__s9" d="M335.1 290.2s5.9 2.9 7.8-1.9c1.9-4.8-5.6-7.3-5.6-7.3s3.4-4.9-.4-8.2c-3.8-3.2-9.8 1.2-9.8 1.2s-2.3-6.3-7.3-4.2c-4.9 2.1-4.3 7-1.4 9.4 0 0-4.7-1.6-6.1 2.6-1.3 4.1 2.5 7.2 6 6.6 0 0-3.2 3.6-.3 6.7 2.9 3.2 6.7.8 7.7-1.9 0 0 1.8 5.3 6.2 4.2 4.4-1 3.9-5.1 3.2-7.2z"/><path id="prefix__path656" class="prefix__s12" d="M324.9 285.1s-4.5.5-4.8-1.4c-.2-1.9 4.2-.7 4.2-.7s-2-4.8-.6-5.2c1.5-.3 2.7 4.1 2.7 4.1s3.1-4.1 4.1-3.1c1 1.1-2.3 4.1-2.3 4.1s5.4-.3 5.8 1.2c.4 1.5-4.8.9-4.8.9s2.7 2.8 2.1 4.1c-.6 1.2-3.8-2.3-3.8-2.3s-2.7 3-3.8 2.2c-1.1-.7 1.2-3.9 1.2-3.9z"/><path id="prefix__path660" class="prefix__s12" d="M321.8 281.1c-.6.2-.9.1-1.3 0-.3-.2-.5-.5-.6-1.1.6-.3.9-.2 1.3 0 .3.2.5.5.6 1.1z"/><path id="prefix__path664" class="prefix__s12" d="M322.2 286.7c-.2.7-.5 1.1-.9 1.4-.4.2-.8.4-1.5.2.1-.7.4-1 .8-1.3.4-.2.9-.4 1.6-.3z"/><path id="prefix__path668" class="prefix__s12" d="M326.4 289.6c.4.5.4.9.4 1.3-.1.4-.2.8-.7 1.2-.5-.4-.6-.9-.6-1.3.1-.5.3-.9.9-1.2z"/><path id="prefix__path672" class="prefix__s12" d="M332.1 286.4c.7-.2 1.2-.2 1.6 0 .4.2.8.5 1.1 1.2-.6.3-1.1.2-1.6 0-.4-.2-.8-.5-1.1-1.2z"/><path id="prefix__path676" class="prefix__s12" d="M332.1 281.1c.2-.6.5-.9.9-1.1.4-.2.8-.3 1.4-.1-.1.6-.4 1-.8 1.2-.4.2-.9.3-1.5 0z"/><path id="prefix__path680" class="prefix__s12" d="M327 278.1c-.5-.2-.6-.5-.6-.8 0-.4.1-.7.7-.9.4.4.5.6.5.9 0 .2-.1.4-.6.8z"/><path id="prefix__path684" class="prefix__s7" d="M326.7 283.9c-.8.5-8.7-7.3-7.9-8.4.9-1.1 9.7 7.1 7.9 8.4z"/><path id="prefix__path688" class="prefix__s10" d="M365.2 304.4c0 2-1.6 3.5-3.5 3.5s-3.5-1.5-3.5-3.5c0-1.9 1.6-3.4 3.5-3.4s3.5 1.5 3.5 3.4z"/><path id="prefix__path692" class="prefix__s9" d="M383.1 316.9c0 .8-.6 1.5-1.4 1.5-.8 0-1.4-.7-1.4-1.5 0-.7.6-1.4 1.4-1.4.8 0 1.4.7 1.4 1.4z"/><path id="prefix__path696" class="prefix__s10" d="M356.4 339.5c0 .7-.7 1.4-1.5 1.4-.7 0-1.4-.7-1.4-1.4 0-.8.7-1.5 1.4-1.5.8 0 1.5.7 1.5 1.5z"/><path id="prefix__path700" class="prefix__s1" d="M344.2 362.8c-12.5.7-11.3 1.3-12.1 13.8-.7-12.5.5-13.1-12-13.8 12.5-.8 11.3-1.4 12-13.8.8 12.4-.4 13 12.1 13.8z"/><path id="prefix__path704" class="prefix__s1" d="M367.6 347.9c-4.9.3-4.4.5-4.7 5.4-.3-4.9.2-5.1-4.7-5.4 4.9-.3 4.4-.5 4.7-5.3.3 4.8-.2 5 4.7 5.3z"/></g></svg>