<svg version="1.2" xmlns="http://www.w3.org/2000/svg" viewBox="0 0 20 20" width="20" height="20">
	<title>github-svg</title>
	<style>
		.s0 { fill: none } 
		.s1 { fill: #000000 } 
	</style>
	<path id="Layer" class="s0" d="m-2-2h24v24h-24z"/>
	<path id="Layer" class="s1" d="m10 0c-2.4 0-4.7 0.8-6.5 2.4-1.8 1.5-3 3.6-3.4 6-0.4 2.4 0.1 4.8 1.3 6.8 1.3 2 3.2 3.6 5.4 4.3 0.5 0.1 0.7-0.2 0.7-0.5v-1.7c-2.8 0.6-3.4-1.3-3.4-1.3q0-0.2-0.1-0.4-0.1-0.3-0.3-0.5-0.1-0.1-0.3-0.3-0.2-0.2-0.4-0.3c-0.9-0.6 0.1-0.6 0.1-0.6q0.2 0 0.4 0.1 0.3 0.1 0.4 0.2 0.2 0.2 0.4 0.3 0.2 0.2 0.3 0.4 0.2 0.4 0.5 0.6 0.4 0.3 0.8 0.4 0.4 0.1 0.8 0.1 0.4-0.1 0.8-0.3 0-0.2 0.1-0.3 0-0.2 0.1-0.4 0.1-0.2 0.2-0.3 0.1-0.2 0.2-0.3c-2.1-0.2-4.5-1.1-4.5-4.9q0-0.4 0.1-0.7 0-0.4 0.2-0.8 0.1-0.3 0.3-0.6 0.2-0.3 0.4-0.6-0.1-0.3-0.1-0.7-0.1-0.3-0.1-0.6 0-0.4 0.1-0.7 0.1-0.3 0.2-0.7c0.1-0.2 0.9-0.2 2.8 1q0.6-0.1 1.2-0.2 0.6-0.1 1.3-0.1 0.6 0 1.2 0.1 0.7 0.1 1.3 0.3c1.9-1.3 2.7-1.1 2.7-1.1q0.2 0.4 0.2 0.7 0.1 0.3 0.1 0.7 0 0.3 0 0.6-0.1 0.4-0.2 0.7 0.3 0.3 0.5 0.6 0.2 0.3 0.3 0.6 0.1 0.4 0.2 0.8 0 0.3 0 0.7c0 3.8-2.3 4.7-4.6 4.9q0.2 0.2 0.4 0.4 0.1 0.2 0.2 0.5 0.1 0.2 0.1 0.5 0.1 0.2 0 0.5v2.7c0 0.3 0.2 0.6 0.7 0.5 2.3-0.7 4.2-2.3 5.4-4.3 1.3-2 1.7-4.4 1.4-6.8-0.4-2.3-1.6-4.5-3.4-6-1.8-1.5-4.1-2.4-6.5-2.4z"/>
</svg>