<?xml version="1.0" ?><!DOCTYPE svg  PUBLIC '-//W3C//DTD SVG 1.1//EN'  'http://www.w3.org/Graphics/SVG/1.1/DTD/svg11.dtd'><svg enable-background="new 0 0 512 512" height="512px" id="Layer_1" version="1.1" viewBox="0 0 512 512" width="512px" xml:space="preserve" xmlns="http://www.w3.org/2000/svg" xmlns:xlink="http://www.w3.org/1999/xlink"><g><path d="M437.013,74.992C390.803,28.641,326.732,0,256,0C185.41,0,121.343,28.641,74.988,74.992   C28.634,121.338,0,185.269,0,256.005c0,70.726,28.634,134.657,74.988,181.013C121.343,483.364,185.41,512,256,512   c70.732,0,134.803-28.636,181.013-74.982C483.367,390.662,512,326.73,512,256.005C512,185.269,483.367,121.338,437.013,74.992z"/><path clip-rule="evenodd" d="M384.711,251.325c-0.142-7.225-1.136-14.313-2.41-21.26   c-1.702-8.366-4.11-16.443-7.374-24.244c-3.397-7.654-7.225-14.878-12.049-21.972c-4.673-6.795-9.918-13.041-15.731-18.993   c-5.812-5.665-12.332-11.193-19.135-15.727c-6.806-4.68-14.179-8.512-21.833-11.919c-7.656-3.247-16.017-5.811-24.095-7.366   c-8.504-1.691-17.297-2.691-26.084-2.691c-8.646,0-17.436,1-25.942,2.691c-8.075,1.555-16.438,4.12-24.095,7.366   c-7.653,3.408-15.166,7.239-21.972,11.919c-6.662,4.534-13.326,10.062-18.993,15.727c-5.952,5.952-11.2,12.197-15.731,18.993   c-4.824,7.093-8.795,14.318-11.769,21.972c-3.542,7.8-5.952,15.878-7.653,24.244c-1.419,6.513-2.268,13.323-2.411,19.841   c-0.285,1.979-0.285,3.968-0.285,6.24c0,8.639,0.855,17.297,2.696,25.793c1.701,8.371,4.111,16.443,7.653,24.238   c2.974,7.654,6.944,14.884,11.769,21.973c4.531,6.664,9.779,13.045,15.731,18.997c5.667,5.952,12.331,11.192,18.993,15.731   c6.806,4.539,14.318,8.507,21.972,11.769c7.656,3.397,16.02,5.952,24.095,7.653c8.507,1.848,17.297,2.408,25.942,2.408   c8.787,0,17.58-0.561,26.084-2.408c8.078-1.701,16.438-4.256,24.095-7.653c7.654-3.262,15.027-7.229,21.833-11.769   c6.803-4.539,13.323-9.779,19.135-15.731c5.813-5.952,11.059-12.333,15.731-18.997c4.824-7.089,8.651-14.318,12.049-21.973   c3.264-7.795,5.672-15.867,7.374-24.238c1.698-8.496,2.693-17.291,2.693-25.793C384.994,254.299,384.994,252.89,384.711,251.325   L384.711,251.325z M256,146.006c27.785,0,53.44,10.354,72.719,27.358c-0.285,0.429-16.02,24.244-57.408,39.833   c-18.713-34.593-39.549-61.946-41.106-64.067C238.564,147.142,247.071,146.006,256,146.006L256,146.006z M229.777,149.131   L229.777,149.131c0,0-0.142,0.142-0.427,0.142C229.636,149.272,229.636,149.131,229.777,149.131L229.777,149.131z M208.939,156.497   c1.56,1.984,21.972,29.62,40.967,63.501c-52.73,14.03-98.653,13.318-101.493,13.318   C155.641,199.158,178.319,170.951,208.939,156.497L208.939,156.497z M174.212,329.573c-17.574-19.433-28.204-45.226-28.204-73.427   c0-1.419,0-2.418,0.139-3.544c1.84,0,56.274,1.272,112.972-15.741c3.12,6.104,6.099,12.485,8.934,18.856   c-1.563,0.141-2.979,0.576-4.397,1.277c-59.531,18.993-89.442,72.433-89.442,72.433V329.573z M256,366.141   c-25.513,0-48.901-8.795-67.611-23.391l0,0c0,0-0.995-0.711-2.408-1.979c0.707,0.707,1.555,1.268,2.408,1.979   c0.28-0.429,21.548-46.209,86.463-68.752c0.283,0,0.427-0.141,0.712-0.141c15.446,40.258,21.828,73.997,23.389,83.488   C285.77,362.879,271.311,366.141,256,366.141L256,366.141z M317.519,347.284c-1.134-6.649-6.942-38.839-21.401-78.526   c35.578-5.67,66.337,3.969,68.747,4.686C359.761,304.199,342.327,330.704,317.519,347.284L317.519,347.284z M289.597,251.325   c-0.995-1.979-1.843-3.827-2.413-5.67c-1.843-3.973-3.542-7.659-5.241-11.627c-0.706-1.414-1.418-2.837-2.271-4.392   c43.515-17.716,61.097-43.09,61.521-43.519c13.608,16.59,22.537,37.43,24.523,60.109c0.145,2.827,0.427,5.659,0.427,8.784   C364.577,254.591,327.161,246.503,289.597,251.325L289.597,251.325z" fill="#FFFFFF" fill-rule="evenodd"/></g></svg>