<svg version="1.2" xmlns="http://www.w3.org/2000/svg" viewBox="0 0 600 600" width="600" height="600">
    <defs>
        <clipPath clipPathUnits="userSpaceOnUse" id="cp1">
            <path d="m-32.95-32.95h665.56v665.56h-665.56z" />
        </clipPath>
        <clipPath clipPathUnits="userSpaceOnUse" id="cp2">
            <path d="m19.26 385.27h550.35v159.23h-550.35z" />
        </clipPath>
        <clipPath clipPathUnits="userSpaceOnUse" id="cp3">
            <path d="m-32.95-32.95h665.56v665.56h-665.56z" />
        </clipPath>
    </defs>
    <style>
        .s0 {
            fill: #5996b5
        }

        .s1 {
            fill: #f7cf3c
        }

        .s2 {
            fill: #ffefdc
        }

        .s3 {
            fill: #ffffff
        }

        .s4 {
            fill: #eebe50
        }

        .s5 {
            fill: #d0b049
        }

        .s6 {
            fill: #3c5d6e
        }

        .s7 {
            fill: #c84a34
        }

        .s8 {
            fill: #66afcc
        }

        .s9 {
            fill: #39859d
        }

        .s10 {
            fill: #6dcea1
        }

        .s11 {
            fill: #58bb8c
        }

        .s12 {
            fill: #91e2b6
        }

        .s13 {
            fill: #fdd3bb
        }

        .s14 {
            fill: #fca383
        }

        .s15 {
            fill: #f47d5d
        }
    </style>
    <g id="g8">
        <g id="g12">
            <g id="Clip-Path: g14" clip-path="url(#cp1)">
                <g id="g34">
                    <g id="Clip-Path: g32" clip-path="url(#cp2)">
                        <g id="g32" style="opacity: .3">
                            <g id="g30">
                                <path id="path28" class="s0"
                                    d="m294.4 544.5c-152.1 0-275.1-35.6-275.1-79.6 0-44 123-79.6 275.1-79.6 152.2 0 275.2 35.6 275.2 79.6 0 44-123 79.6-275.2 79.6z" />
                            </g>
                        </g>
                    </g>
                </g>

            </g>
        </g>
        <g id="g36">
            <path id="path38" class="s1" d="m532.6 411.6l-37.5-5.6-70.3 57.7 6.7 26.7 20.4 5.5 15.8-16z" />
        </g>
        <g id="g40">
            <path id="path42" class="s2" d="m517.4 326.3v86l-75.7 76.8-14.2-84.5 32.9-43.7z" />
        </g>
        <g id="g44">
            <g id="Clip-Path: g46" clip-path="url(#cp3)">
                <g id="g46">
                    <g id="g52">
                        <path id="path54" class="s3"
                            d="m443.9 420.6c0 0 1.1-1.2 3-3.3 1.9-2.2 4.6-5.2 8-8.8 3.3-3.6 7.2-7.9 11.4-12.3 4.2-4.5 8.7-9.2 13.2-14 4.5-4.7 9-9.4 13.3-13.8 4.3-4.4 8.3-8.5 11.8-12 3.4-3.5 6.4-6.3 8.4-8.3 2-2 3.2-3.2 3.2-3.2 0 0-1.1 1.3-3 3.4-1.9 2.1-4.6 5.2-8 8.8-3.3 3.6-7.1 7.8-11.4 12.3-4.2 4.4-8.7 9.2-13.1 13.9-4.6 4.8-9.1 9.5-13.4 13.9-4.3 4.4-8.3 8.4-11.8 11.9-3.4 3.5-6.3 6.4-8.4 8.4-2 2-3.2 3.1-3.2 3.1z" />
                    </g>
                    <g id="g56">
                        <path id="path58" class="s3"
                            d="m443.9 413.2c0 0 1.1-1.2 3-3.3 1.9-2.1 4.6-5.2 8-8.8 3.3-3.6 7.2-7.8 11.4-12.3 4.2-4.5 8.7-9.2 13.2-14 4.5-4.7 9-9.4 13.3-13.8 4.3-4.4 8.3-8.4 11.8-11.9 3.4-3.5 6.4-6.4 8.4-8.4 2-2 3.2-3.1 3.2-3.1 0 0-1.1 1.2-3 3.3-1.9 2.1-4.6 5.2-8 8.8-3.3 3.6-7.1 7.8-11.4 12.3-4.2 4.5-8.7 9.2-13.1 14-4.6 4.7-9.1 9.4-13.4 13.8-4.3 4.4-8.3 8.4-11.8 11.9-3.4 3.5-6.3 6.4-8.4 8.4-2 2-3.2 3.1-3.2 3.1z" />
                    </g>
                    <g id="g60">
                        <path id="path62" class="s3"
                            d="m443.9 428c0 0 1.1-1.2 3-3.4 1.9-2.1 4.6-5.2 8-8.8 3.3-3.5 7.2-7.8 11.4-12.2 4.2-4.5 8.7-9.3 13.2-14 4.5-4.7 9-9.4 13.3-13.8 4.3-4.4 8.3-8.5 11.8-12 3.4-3.5 6.4-6.3 8.4-8.3 2-2 3.2-3.2 3.2-3.2 0 0-1.1 1.2-3 3.4-1.9 2.1-4.6 5.2-8 8.8-3.3 3.6-7.1 7.8-11.4 12.3-4.2 4.4-8.7 9.2-13.1 13.9-4.6 4.7-9.1 9.4-13.4 13.8-4.3 4.5-8.3 8.5-11.8 12-3.4 3.5-6.3 6.3-8.4 8.4-2 2-3.2 3.1-3.2 3.1z" />
                    </g>
                    <g id="g64">
                        <path id="path66" class="s3"
                            d="m443.9 435.4c0 0 1.1-1.2 3-3.4 1.9-2.1 4.6-5.2 8-8.8 3.3-3.6 7.2-7.8 11.4-12.3 4.2-4.4 8.7-9.2 13.2-13.9 4.5-4.7 9-9.4 13.3-13.9 4.3-4.4 8.3-8.4 11.8-11.9 3.4-3.5 6.4-6.3 8.4-8.4 2-2 3.2-3.1 3.2-3.1 0 0-1.1 1.2-3 3.4-1.9 2.1-4.6 5.1-8 8.7-3.3 3.6-7.1 7.9-11.4 12.3-4.2 4.5-8.7 9.3-13.1 14-4.6 4.7-9.1 9.4-13.4 13.8-4.3 4.4-8.3 8.5-11.8 12-3.4 3.5-6.3 6.3-8.4 8.3-2 2-3.2 3.2-3.2 3.2z" />
                    </g>
                    <g id="g68">
                        <path id="path70" class="s3"
                            d="m443.9 442.7c0 0 1.1-1.2 3-3.3 1.9-2.1 4.6-5.2 8-8.8 3.3-3.6 7.2-7.8 11.4-12.3 4.2-4.4 8.7-9.2 13.2-14 4.5-4.7 9-9.4 13.3-13.8 4.3-4.4 8.3-8.4 11.8-11.9 3.4-3.5 6.4-6.4 8.4-8.4 2-2 3.2-3.1 3.2-3.1 0 0-1.1 1.2-3 3.3-1.9 2.2-4.6 5.2-8 8.8-3.3 3.6-7.1 7.9-11.4 12.3-4.2 4.5-8.7 9.2-13.1 14-4.6 4.7-9.1 9.4-13.4 13.8-4.3 4.4-8.3 8.4-11.8 11.9-3.4 3.5-6.3 6.4-8.4 8.4-2 2-3.2 3.1-3.2 3.1z" />
                    </g>
                    <g id="g72">
                        <path id="path74" class="s3"
                            d="m443.9 450.1c0 0 1.1-1.2 3-3.3 1.9-2.1 4.6-5.2 8-8.8 3.3-3.6 7.2-7.9 11.4-12.3 4.2-4.5 8.7-9.2 13.2-14 4.5-4.7 9-9.4 13.3-13.8 4.3-4.4 8.3-8.4 11.8-11.9 3.4-3.5 6.4-6.4 8.4-8.4 2-2 3.2-3.2 3.2-3.2 0 0-1.1 1.3-3 3.4-1.9 2.1-4.6 5.2-8 8.8-3.3 3.6-7.1 7.8-11.4 12.3-4.2 4.4-8.7 9.2-13.1 14-4.6 4.7-9.1 9.4-13.4 13.8-4.3 4.4-8.3 8.4-11.8 11.9-3.4 3.5-6.3 6.4-8.4 8.4-2 2-3.2 3.1-3.2 3.1z" />
                    </g>
                    <g id="g76">
                        <path id="path78" class="s3"
                            d="m443.9 457.5c0 0 1.1-1.2 3-3.4 1.9-2.1 4.6-5.1 8-8.7 3.3-3.6 7.2-7.9 11.4-12.3 4.2-4.5 8.7-9.2 13.2-14 4.5-4.7 9-9.4 13.3-13.8 4.3-4.4 8.3-8.5 11.8-12 3.4-3.5 6.4-6.3 8.4-8.3 2-2 3.2-3.2 3.2-3.2 0 0-1.1 1.3-3 3.4-1.9 2.1-4.6 5.2-8 8.8-3.3 3.6-7.1 7.8-11.4 12.3-4.2 4.4-8.7 9.2-13.1 13.9-4.6 4.7-9.1 9.4-13.4 13.9-4.3 4.4-8.3 8.4-11.8 11.9-3.4 3.5-6.3 6.3-8.4 8.4-2 2-3.2 3.1-3.2 3.1z" />
                    </g>
                    <g id="g80">
                        <path id="path82" class="s3"
                            d="m443.9 464.9c0 0 1.1-1.2 3-3.4 1.9-2.1 4.6-5.2 8-8.8 3.3-3.6 7.2-7.8 11.4-12.3 4.2-4.4 8.7-9.2 13.2-13.9 4.5-4.7 9-9.4 13.3-13.8 4.3-4.5 8.3-8.5 11.8-12 3.4-3.5 6.4-6.3 8.4-8.4 2-2 3.2-3.1 3.2-3.1 0 0-1.1 1.2-3 3.4-1.9 2.1-4.6 5.2-8 8.8-3.3 3.5-7.1 7.8-11.4 12.2-4.2 4.5-8.7 9.3-13.1 14-4.6 4.7-9.1 9.4-13.4 13.8-4.3 4.4-8.3 8.5-11.8 12-3.4 3.5-6.3 6.3-8.4 8.3-2 2-3.2 3.2-3.2 3.2z" />
                    </g>
                    <g id="g84">
                        <path id="path86" class="s3"
                            d="m443.9 472.3c0 0 1.1-1.3 3-3.4 1.9-2.1 4.6-5.2 8-8.8 3.3-3.6 7.2-7.8 11.4-12.3 4.2-4.4 8.7-9.2 13.2-13.9 4.5-4.8 9-9.5 13.3-13.9 4.3-4.4 8.3-8.4 11.8-11.9 3.4-3.5 6.4-6.4 8.4-8.4 2-2 3.2-3.1 3.2-3.1 0 0-1.1 1.2-3 3.3-1.9 2.2-4.6 5.2-8 8.8-3.3 3.6-7.1 7.9-11.4 12.3-4.2 4.5-8.7 9.2-13.1 14-4.6 4.7-9.1 9.4-13.4 13.8-4.3 4.4-8.3 8.5-11.8 12-3.4 3.5-6.3 6.3-8.4 8.3-2 2-3.2 3.2-3.2 3.2z" />
                    </g>
                    <g id="g88">
                        <path id="path90" class="s3"
                            d="m443.9 479.6c0 0 1.1-1.2 3-3.3 1.9-2.1 4.6-5.2 8-8.8 3.3-3.6 7.2-7.8 11.4-12.3 4.2-4.5 8.7-9.2 13.2-14 4.5-4.7 9-9.4 13.3-13.8 4.3-4.4 8.3-8.4 11.8-11.9 3.4-3.5 6.4-6.4 8.4-8.4 2-2 3.2-3.1 3.2-3.1 0 0-1.1 1.2-3 3.3-1.9 2.1-4.6 5.2-8 8.8-3.3 3.6-7.1 7.8-11.4 12.3-4.2 4.5-8.7 9.2-13.1 14-4.6 4.7-9.1 9.4-13.4 13.8-4.3 4.4-8.3 8.4-11.8 11.9-3.4 3.5-6.3 6.4-8.4 8.4-2 2-3.2 3.1-3.2 3.1z" />
                    </g>
                    <g id="g92">
                        <path id="path94" class="s3"
                            d="m443.9 487c0 0 1.1-1.2 3-3.3 1.9-2.2 4.6-5.2 8-8.8 3.3-3.6 7.2-7.9 11.4-12.3 4.2-4.5 8.7-9.2 13.2-14 4.5-4.7 9-9.4 13.3-13.8 4.3-4.4 8.3-8.5 11.8-12 3.4-3.5 6.4-6.3 8.4-8.3 2-2 3.2-3.2 3.2-3.2 0 0-1.1 1.3-3 3.4-1.9 2.1-4.6 5.2-8 8.8-3.3 3.6-7.1 7.8-11.4 12.3-4.2 4.4-8.7 9.2-13.1 14-4.6 4.7-9.1 9.4-13.4 13.8-4.3 4.4-8.3 8.4-11.8 11.9-3.4 3.5-6.3 6.4-8.4 8.4-2 2-3.2 3.1-3.2 3.1z" />
                    </g>
                    <g id="g96">
                        <path id="path98" class="s1"
                            d="m110.7 313.4c0 0-45.7 47.6-75 77.7-11.1 11.5-10.8 41.1-11 59.6h419.5c0.2-18.5-0.1-48.1 11.1-59.6 29.2-30.1 75-77.7 75-77.7z" />
                    </g>
                    <g id="g100">
                        <path id="path102" class="s4"
                            d="m33.1 495.8c-7.5 1.8-8.6-24.4-8.4-45.1 0.2-18.5-0.1-48.1 11-59.6h419.6c-11.2 11.5-10.9 41.1-11.1 59.6-0.2 20 0.9 45.2 7.7 45.2z" />
                    </g>
                    <g id="g104">
                        <path id="path106" class="s5"
                            d="m451.9 495.9q-1.1 0-2.1-0.4c-4.2-1.8-8.4-8.5-8-44.8v-2.5c0.1-18.8 0.4-47.1 11.7-58.8 28.9-29.8 74.2-74.8 74.6-75.3 1-0.9 2.6-0.9 3.5 0 1 1 1 2.6 0 3.6-0.4 0.4-45.7 45.4-74.5 75.2-10 10.2-10.2 37.4-10.4 55.3v2.5c-0.3 36.1 4.1 39.8 5 40.2 0.4 0.1 1.4-0.3 2.8-1.7l76.3-76.9c1-1 2.5-1 3.5 0 1 1 1 2.5 0 3.5l-76.3 76.9q-3.1 3.2-6.1 3.2z" />
                    </g>
                    <g id="g108">
                        <path id="path110" class="s6"
                            d="m78.9 430.7c8.5 0 18.1 1.1 26.2-1.9 8.1-3 9.3-12.1 9.4-19.7 0-1-0.9-1.9-1.9-1.9-7.5 0-16.2 1.3-19.5 8.9-3.4 7.9-2.1 18.3-2.1 26.6 0 8.4-1.3 18.7 2.1 26.7 3.3 7.6 12 8.9 19.5 8.9 1 0 1.9-0.9 1.9-1.9-0.1-7.5-1.2-16.1-8.9-19.5-8-3.4-18.3-2.1-26.7-2.1-8.4 0-18.1-1.1-26.1 1.9-8.1 3-9.3 12.1-9.4 19.7 0 1 0.9 1.9 1.9 1.9 7.5 0 16.2-1.3 19.5-8.9 3.4-7.9 2.1-18.3 2.1-26.7 0-8.3 1.3-18.7-2.1-26.6-3.3-7.6-12-8.9-19.5-8.9-1 0-1.9 0.9-1.9 1.9 0.1 7.5 1.2 16.1 8.9 19.5 7.9 3.4 18.3 2.1 26.6 2.1 2.5 0 2.5-3.8 0-3.8-7.2 0-14.8 0.5-21.9-0.9-8.5-1.6-9.7-9.4-9.8-16.9q-0.9 1-1.9 1.9c7.2 0 14.6 1.1 16.7 8.9 1.9 7.2 1.1 15.5 1.1 22.8 0 7.6 0.6 15.5-1.1 22.9-1.8 7.8-9.8 8.9-16.7 8.9q1 0.9 1.9 1.9c0.1-7.2 1.1-14.6 8.9-16.7 7.2-1.9 15.5-1.1 22.8-1.1 7.3 0 14.8-0.5 22 0.9 8.5 1.6 9.7 9.4 9.8 16.9q0.9-1 1.9-1.9c-7.2 0-14.6-1.1-16.7-8.9-1.9-7.2-1.1-15.5-1.1-22.9 0-7.5-0.6-15.4 1.1-22.8 1.8-7.8 9.8-8.9 16.7-8.9q-1-0.9-1.9-1.9c-0.1 7.2-1.1 14.6-8.9 16.7-7.2 1.9-15.5 1.1-22.9 1.1-2.4 0-2.4 3.8 0 3.8z" />
                    </g>
                    <g id="g112">
                        <path id="path114" fill-rule="evenodd" class="s7"
                            d="m70.8 452.4c-0.4 0-0.8-0.1-1.1-0.4-0.3-0.3-0.5-0.7-0.4-1.2 0-1.9 0-4.3 0-7.1v-1.9c0-2.8 0-5.2 0-7.1-0.1-0.5 0.1-0.9 0.4-1.2 0.3-0.3 0.7-0.4 1.2-0.4q2.7 0 6.2 0h3.7q3.5 0 6.2 0c0.5 0 0.9 0.1 1.2 0.4 0.3 0.3 0.5 0.7 0.4 1.2 0 2 0 4.4 0 7.1v1.9c0 2.6 0 4.9 0 6.8q0.1 0.2 0.1 0.4c0 0.9-0.7 1.6-1.6 1.5h-0.1c-1.7 0-3.8 0-6 0h-4.1c-2.2 0-4.3 0-6 0zm10.2-3.1c1.6 0 3.1 0 4.5 0q-0.1-2.5-0.1-5.6v-1.9q0-3.1 0.1-5.6-2.2 0-4.8 0h-3.6q-2.6 0-4.8 0 0.1 2.5 0.1 5.6v1.9q0 3.1-0.1 5.6c1.4 0 3 0 4.5 0z" />
                    </g>
                    <g id="g116">
                        <path id="path118" class="s6"
                            d="m188.5 434.3c6.2 6.2 13.3 15.6 22.4 17.9 4.5 1.2 9-0.9 12.6-3.4 3.5-2.5 7.9-4.9 4.1-8.6-6.9-6.8-14.9-9.5-23.2-3.8-9.7 6.8-18 16.5-26 25.1-5.4 5.7-10.9 13-6.7 21.1 1.3 2.5 5.1 9.6 8.3 9.6 1.9 0 3.6-3 4.7-4.3 1.8-2.1 3.2-4.4 4.2-7 3.5-8.3-4.1-16-9.3-21.4-7.8-8.3-16-17.9-25.6-24.1-8.5-5.5-16.7-0.1-23 6-1.2 1.2-0.3 3.3 1.4 3.3-0.5 0 3.5 3.7 4 4.1 1.7 1.2 3.5 2.1 5.4 2.9 3.1 1.3 6.9 1 9.9-0.4 7.7-3.6 13.8-11.1 19.8-17 5.9-6 13.4-12.1 17-19.8 1.3-2.8 1.4-5.7 0.8-8.7-0.3-1.9-1.5-3.7-2.4-5.4-0.7-0.9-1.5-1.9-2.2-2.8 0-0.1-2.8-3.4-2.8-2.4 0-1.7-2.1-2.6-3.3-1.4-5.3 5.5-10.9 12.8-7.2 20.7 3.6 7.7 11.1 13.8 17.1 19.8 1.7 1.7 4.4-1 2.7-2.7-5.1-5.1-10.7-10.1-14.8-16-5-7.2-0.4-13.6 4.9-19.1q-1.6-0.6-3.3-1.3c0 2.2 4.3 5.4 5.5 7.2 2.6 3.7 3.1 7.7 1 11.6-3.6 6.8-10.4 12.2-15.7 17.6-5.5 5.4-10.9 11.7-17.5 15.7-3.5 2-7 1.6-10.5-0.2-2.2-1.1-4-2.8-5.8-4.5-0.7-0.7-1.4-1.8-2.6-1.8q0.7 1.7 1.4 3.3c3.8-3.7 8.4-8.1 14.2-7.2 2.9 0.5 5.6 2.8 7.7 4.5 7.6 6.3 14.4 13.8 21.2 20.8 5.4 5.5 11.6 11.6 7.4 19.7-1.1 2.2-2.8 4-4.5 5.8 0.1-0.1-3.7-4.9-4.2-5.8-2.5-4.2-1.7-8.2 0.8-12 4.8-7.4 12.4-13.6 18.6-19.8 4.9-4.9 11.3-13.1 18.9-13.3 2.3-0.1 4.5 1.2 6.4 2.4q1.8 1.1 3.4 2.5c1.7 1.5 1.6 0.6 0 2.1-3.7 3.3-8.3 6-13.3 4.3-3-1-5.7-3.5-8-5.6-3.9-3.5-7.6-7.3-11.2-10.9-1.8-1.8-4.5 0.9-2.7 2.7z" />
                    </g>
                    <g id="g120">
                        <path id="path122" fill-rule="evenodd" class="s7"
                            d="m180 455.8c-0.5 0-0.9-0.2-1.2-0.5-1.3-1.5-3.1-3.2-5-5.2l-1.3-1.2c-2-2-3.6-3.7-5.1-5-0.3-0.3-0.5-0.7-0.5-1.2 0-0.4 0.2-0.8 0.5-1.1 1.4-1.3 3-2.9 4.8-4.7l1.7-1.7c2-1.9 3.6-3.6 4.9-5 0.3-0.3 0.7-0.5 1.2-0.5 0.4 0 0.8 0.2 1.1 0.5 1.3 1.4 3 3.1 4.9 5l1.5 1.5c1.9 1.9 3.6 3.6 5 4.9 0.3 0.3 0.5 0.7 0.5 1.1 0 0.5-0.2 0.9-0.5 1.2-1.5 1.4-3.2 3.1-5.2 5.1l-0.9 1c-2.1 2-3.9 3.8-5.3 5.3-0.3 0.3-0.7 0.5-1.1 0.5zm-9.3-13.1q1.8 1.8 4 4l1.2 1.3q2.3 2.2 4.1 4 1.8-1.9 4.2-4.2l0.9-0.9q2.3-2.4 4.2-4.2-1.8-1.7-3.9-3.8l-1.6-1.6q-2.1-2.1-3.8-3.8-1.7 1.7-3.9 3.8l-1.7 1.8q-2.1 2-3.7 3.6z" />
                    </g>
                    <g id="g124">
                        <path id="path126" class="s6"
                            d="m388.4 426.9c-7.2 0-14.8 0.5-22-0.9-8.4-1.6-9.6-9.4-9.7-16.9q-1 1-1.9 1.9c7.1 0 14.6 1.1 16.7 8.9 1.9 7.2 1.1 15.5 1.1 22.8 0 7.6 0.5 15.5-1.1 22.9-1.8 7.8-9.8 8.9-16.7 8.9q0.9 0.9 1.9 1.9c0.1-7.2 1-14.6 8.9-16.7 7.2-1.9 15.4-1.1 22.8-1.1 7.3 0 14.8-0.5 22 0.9 8.4 1.6 9.6 9.4 9.7 16.9q1-1 1.9-1.9c-7.1 0-14.6-1.1-16.7-8.9-1.9-7.2-1.1-15.5-1.1-22.9 0-7.5-0.5-15.4 1.1-22.8 1.8-7.8 9.8-8.9 16.7-8.9q-0.9-0.9-1.9-1.9c-0.1 7.2-1 14.6-8.9 16.7-7.2 1.9-15.4 1.1-22.8 1.1-2.5 0-2.5 3.8 0 3.8 8.4 0 18.1 1.1 26.2-1.9 8.1-3 9.3-12.1 9.3-19.7 0.1-1-0.8-1.9-1.9-1.9-7.5 0-16.1 1.3-19.4 8.9-3.5 7.9-2.2 18.3-2.2 26.6 0 8.4-1.3 18.7 2.2 26.7 3.3 7.6 11.9 8.9 19.4 8.9 1.1 0 2-0.9 1.9-1.9 0-7.5-1.1-16.1-8.9-19.5-7.9-3.4-18.2-2.1-26.6-2.1-8.4 0-18.1-1.1-26.2 1.9-8.1 3-9.3 12.1-9.3 19.7-0.1 1 0.8 1.9 1.9 1.9 7.5 0 16.1-1.3 19.4-8.9 3.5-7.9 2.2-18.3 2.2-26.7 0-8.3 1.3-18.7-2.2-26.6-3.3-7.6-11.9-8.9-19.4-8.9-1.1 0-2 0.9-1.9 1.9 0 7.5 1.2 16.1 8.9 19.5 7.9 3.4 18.2 2.1 26.6 2.1 2.5 0 2.5-3.8 0-3.8z" />
                    </g>
                    <g id="g128">
                        <path id="path130" fill-rule="evenodd" class="s7"
                            d="m396.6 452.4h-0.1c-1.8 0-3.8 0-6 0h-4.2c-2.1 0-4.2 0-6 0-0.4 0-0.8-0.1-1.1-0.4-0.3-0.3-0.5-0.7-0.5-1.2 0.1-1.9 0.1-4.3 0.1-7.1v-1.9c0-2.8 0-5.2-0.1-7.2 0-0.4 0.2-0.8 0.5-1.1 0.3-0.3 0.7-0.4 1.1-0.4 1.8 0 3.9 0 6.3 0h3.6c2.4 0 4.5 0 6.3 0 0.4 0 0.8 0.1 1.1 0.4 0.3 0.3 0.5 0.7 0.5 1.1-0.1 2-0.1 4.4-0.1 7.2v1.9c0 2.8 0 5.2 0.1 7.1 0 0.5-0.2 0.9-0.5 1.2-0.2 0.3-0.6 0.4-1 0.4zm-14.8-16.2q0.1 2.5 0.1 5.6v1.9q0 3.1-0.1 5.6c1.4 0 3 0 4.5 0h4.2c1.6 0 3.1 0 4.5 0q-0.1-2.5-0.1-5.6v-1.9q0-3.1 0.1-5.6-2.2 0-4.8 0h-3.6q-2.6 0-4.8 0z" />
                    </g>
                    <g id="g132">
                        <path id="path134" class="s6"
                            d="m277.1 431.6c-5.6 5.5-11.2 12.3-18.3 16.1-4.6 2.4-9.3 0-13-2.9-3-2.3-2.8-1.7 0-4.1 2.4-2.1 5.3-3.7 8.5-3.9 6.8-0.6 13.6 8 17.8 12.2 6.7 6.6 14.3 13.1 19.7 20.9 2.2 3.1 2.9 6.2 1.8 10-0.8 2.4-2.7 4.6-4.3 6.6q-2.1 1.3-0.9 1.2c-1.4-1.4-2.6-3-3.7-4.6-5.8-8.2 1-15 6.6-20.9 6.5-6.8 13.2-13.7 20.3-20 2.3-2.1 4.9-4.1 7.9-5.1 5.8-1.9 11.2 3.4 15 7q0.6-1.6 1.3-3.3c-2.2 0-5.4 4.3-7.2 5.5-3.7 2.6-7.7 3.1-11.6 1-6.8-3.6-12.2-10.4-17.5-15.7-5.5-5.5-11.8-10.9-15.8-17.6-2-3.4-1.6-6.9 0.2-10.4 1.1-2.2 2.9-4 4.5-5.8 0.7-0.8 1.8-1.5 1.8-2.6q-1.7 0.7-3.3 1.3c5.5 5.7 9.6 11.8 4.9 19.1-3.9 6-9.7 10.9-14.7 16-1.8 1.7 0.9 4.4 2.7 2.7 5.9-6 13.4-12.1 17-19.8 3.7-7.9-1.9-15.2-7.2-20.7-1.2-1.2-3.2-0.3-3.2 1.4 0-0.5-3.8 3.5-4.2 4-1.2 1.7-2.1 3.5-2.9 5.4-1.3 3.1-1 6.9 0.4 9.9 3.6 7.7 11.1 13.8 17.1 19.8 5.9 5.9 12 13.4 19.7 17 2.8 1.3 5.7 1.4 8.7 0.8 1.9-0.4 3.7-1.5 5.4-2.5 1-0.6 1.9-1.4 2.8-2.1 0.1 0 3.4-2.8 2.4-2.8 1.7 0 2.6-2.1 1.4-3.3-6.9-6.7-14.8-11.3-23.7-5.5-3.9 2.5-7.3 6-10.6 9.3-5.2 5-10.3 10.1-15.3 15.3-5.8 6.1-11.5 12.9-7.8 21.6 1.1 2.6 5.3 10.1 8.5 10.1 3.1 0 7.4-7.5 8.4-10.1 3.7-8.7-2.1-15.5-7.8-21.6-7.9-8.5-16.3-17.9-25.9-24.6-8.6-6.1-17-1-23.6 5.5-2.6 2.5 3.9 6.4 5.3 7.4 4.1 2.8 8.4 4.5 13.4 3.2 8.5-2.2 15.8-11.8 21.7-17.7 1.7-1.8-1-4.5-2.7-2.7z" />
                    </g>
                    <g id="g136">
                        <path id="path138" fill-rule="evenodd" class="s7"
                            d="m288.3 455.8c-0.5 0-0.9-0.2-1.2-0.5-1.4-1.5-3.2-3.3-5.3-5.4l-0.9-0.9c-2-2-3.7-3.7-5.2-5.1-0.3-0.3-0.5-0.7-0.5-1.2 0-0.4 0.2-0.8 0.5-1.1 1.4-1.3 3.1-3 5-4.9l1.6-1.6c1.9-1.9 3.5-3.5 4.8-4.9 0.6-0.7 1.7-0.7 2.3 0 1.3 1.4 3 3.1 4.9 5l1.7 1.7c1.9 1.8 3.4 3.4 4.8 4.7 0.4 0.3 0.5 0.7 0.5 1.1 0 0.5-0.1 0.9-0.5 1.2-1.4 1.3-3.1 3-5.1 5l-1.2 1.2c-2 2-3.7 3.7-5.1 5.2-0.3 0.3-0.7 0.5-1.1 0.5zm-9.3-13.1q1.8 1.8 4.1 4.2l0.9 0.8q2.4 2.4 4.3 4.3 1.7-1.8 4-4.1l1.2-1.2q2.3-2.2 4.1-4-1.7-1.6-3.8-3.6l-1.7-1.8q-2.1-2.1-3.8-3.8-1.7 1.7-3.9 3.8l-1.6 1.6q-2.1 2.2-3.8 3.8z" />
                    </g>
                    <g id="g140">
                        <path id="path142" class="s5"
                            d="m41.7 391.1h-4.1c-0.2 16.7-0.6 33.5-0.5 50.2 0 18.2 0.3 36.4 0.5 54.5h4.1c-0.2-18.1-0.5-36.3-0.6-54.5 0-16.7 0.3-33.5 0.6-50.2z" />
                    </g>
                    <g id="g144">
                        <path id="path146" class="s5"
                            d="m35.7 391.2c-2.7 2.8-4.8 6.7-6.3 11.3-0.3 12.9-0.7 25.9-0.6 38.8 0.1 17.7 0.5 35.3 0.9 53 0.9 1.2 2 1.8 3.4 1.5h2.6c-0.4-18.1-0.7-36.3-0.9-54.5-0.1-16.7 0.5-33.4 0.9-50.1z" />
                    </g>
                    <g id="g148">
                        <path id="path150" class="s5"
                            d="m119.8 391.1h-4.1c0.2 16.7 0.6 33.5 0.5 50.2 0 18.2-0.3 36.4-0.5 54.6h4c0.3-18.2 0.5-36.4 0.6-54.6 0.1-16.7-0.3-33.5-0.5-50.2z" />
                    </g>
                    <g id="g152">
                        <path id="path154" class="s5"
                            d="m127.7 391.1h-6c0.3 16.8 0.9 33.5 0.8 50.2-0.1 18.2-0.4 36.4-0.9 54.6h6.1c0.4-18.2 0.7-36.4 0.9-54.6 0.1-16.7-0.5-33.4-0.9-50.2z" />
                    </g>
                    <g id="g156">
                        <path id="path158" class="s5"
                            d="m429.8 391.1h-4.1c0.2 16.7 0.6 33.5 0.5 50.2-0.1 18.2-0.3 36.4-0.6 54.6h4.1c0.3-18.2 0.5-36.4 0.6-54.6 0.1-16.7-0.3-33.5-0.5-50.2z" />
                    </g>
                    <g id="g160">
                        <path id="path162" class="s5"
                            d="m437.7 391.1h-6c0.3 16.8 0.9 33.5 0.8 50.2-0.1 18.2-0.5 36.4-0.9 54.6h6.1c0.4-18.2 0.7-36.4 0.9-54.6 0.1-16.7-0.5-33.4-0.9-50.2z" />
                    </g>
                    <g id="g164">
                        <path id="path166" class="s5"
                            d="m351.7 391.1h-4.1c-0.2 16.7-0.6 33.5-0.6 50.2 0.1 18.2 0.4 36.4 0.6 54.6h4.1c-0.3-18.2-0.5-36.4-0.6-54.6-0.1-16.7 0.3-33.5 0.6-50.2z" />
                    </g>
                    <g id="g168">
                        <path id="path170" class="s5"
                            d="m345.7 391.1h-6.1c-0.3 16.8-0.9 33.5-0.8 50.2 0.1 18.2 0.5 36.4 0.9 54.6h6c-0.4-18.2-0.7-36.4-0.9-54.6-0.1-16.7 0.5-33.4 0.9-50.2z" />
                    </g>
                    <g id="g172">
                        <path id="path174" class="s5"
                            d="m237.9 391.1h-6.1c-0.1 21.5-1.1 43-1 64.5 0.1 13.4 0.3 26.8 0.6 40.3h6c-0.3-13.5-0.5-26.9-0.6-40.3-0.1-21.5 0.9-43 1.1-64.5z" />
                    </g>
                    <g id="g176">
                        <path id="path178" class="s0"
                            d="m463.1 373.2l39-37.5 72.2-75.3c0 0-0.6-0.9-2.4-1.2-1.8-0.3-23.6-2.9-23.6-2.9l-104.6 95.3 9.7 17.6z" />
                    </g>
                    <g id="g180">
                        <path id="path182" class="s2"
                            d="m568.4 201.9l-1.5 56.6-106.7 107.1-11-24.6 2.5-43.4 98.3-88.1z" />
                    </g>
                    <g id="g184">
                        <path id="path186" class="s3"
                            d="m460.6 325.3c0 0 1.7-1.7 4.5-4.7 2.8-2.9 6.8-7.1 11.7-12.1 4.9-5 10.6-10.8 16.7-17 6.2-6.2 12.7-12.8 19.3-19.4 6.6-6.5 13.2-13.1 19.4-19.2 6.2-6.1 12.1-11.8 17.1-16.6 5-4.9 9.2-8.9 12.1-11.7 3-2.8 4.7-4.4 4.7-4.4 0 0-1.6 1.6-4.4 4.6-2.9 2.9-6.9 7.1-11.8 12.1-4.9 5-10.5 10.8-16.7 17-6.1 6.2-12.7 12.8-19.3 19.4-6.6 6.5-13.2 13.1-19.4 19.2-6.2 6.1-12.1 11.8-17.1 16.7-5 4.8-9.2 8.8-12.1 11.7-3 2.8-4.7 4.4-4.7 4.4z" />
                    </g>
                    <g id="g188">
                        <path id="path190" class="s3"
                            d="m460.6 317.9c0 0 1.7-1.7 4.5-4.6 2.8-3 6.8-7.1 11.7-12.1 4.9-5 10.6-10.8 16.7-17.1 6.2-6.1 12.7-12.7 19.3-19.3 6.6-6.6 13.2-13.1 19.4-19.3 6.2-6.1 12.1-11.7 17.1-16.6 5-4.8 9.2-8.9 12.1-11.7 3-2.8 4.7-4.4 4.7-4.4 0 0-1.6 1.7-4.4 4.6-2.9 3-6.9 7.1-11.8 12.2-4.9 4.9-10.5 10.8-16.7 17-6.1 6.1-12.7 12.7-19.3 19.3-6.6 6.6-13.2 13.1-19.4 19.3-6.2 6.1-12.1 11.7-17.1 16.6-5 4.8-9.2 8.9-12.1 11.7-3 2.8-4.7 4.4-4.7 4.4z" />
                    </g>
                    <g id="g192">
                        <path id="path194" class="s3"
                            d="m460.6 332.6c0 0 1.7-1.7 4.5-4.6 2.8-2.9 6.8-7.1 11.7-12.1 4.9-5 10.6-10.8 16.7-17 6.2-6.2 12.7-12.8 19.3-19.4 6.6-6.6 13.2-13.1 19.4-19.2 6.2-6.2 12.1-11.8 17.1-16.7 5-4.8 9.2-8.9 12.1-11.7 3-2.8 4.7-4.4 4.7-4.4 0 0-1.6 1.7-4.4 4.6-2.9 3-6.9 7.2-11.8 12.2-4.9 4.9-10.5 10.8-16.7 17-6.1 6.2-12.7 12.8-19.3 19.4-6.6 6.5-13.2 13-19.4 19.2-6.2 6.1-12.1 11.7-17.1 16.6-5 4.9-9.2 8.9-12.1 11.7-3 2.8-4.7 4.4-4.7 4.4z" />
                    </g>
                    <g id="g196">
                        <path id="path198" class="s3"
                            d="m460.6 340c0 0 1.7-1.7 4.5-4.7 2.8-2.9 6.8-7.1 11.7-12.1 4.9-5 10.6-10.8 16.7-17 6.2-6.2 12.7-12.8 19.3-19.4 6.6-6.5 13.2-13 19.4-19.2 6.2-6.1 12.1-11.8 17.1-16.6 5-4.9 9.2-8.9 12.1-11.7 3-2.8 4.7-4.4 4.7-4.4 0 0-1.6 1.7-4.4 4.6-2.9 2.9-6.9 7.1-11.8 12.1-4.9 5-10.5 10.9-16.7 17-6.1 6.2-12.7 12.8-19.3 19.4-6.6 6.6-13.2 13.1-19.4 19.2-6.2 6.1-12.1 11.8-17.1 16.7-5 4.8-9.2 8.8-12.1 11.7-3 2.8-4.7 4.4-4.7 4.4z" />
                    </g>
                    <g id="g200">
                        <path id="path202" class="s3"
                            d="m460.6 347.3c0 0 1.7-1.7 4.5-4.6 2.8-2.9 6.8-7.1 11.7-12.1 4.9-5 10.6-10.8 16.7-17 6.2-6.2 12.7-12.8 19.3-19.4 6.6-6.5 13.2-13.1 19.4-19.2 6.2-6.2 12.1-11.8 17.1-16.7 5-4.8 9.2-8.8 12.1-11.7 3-2.8 4.7-4.4 4.7-4.4 0 0-1.6 1.7-4.4 4.7-2.9 2.9-6.9 7.1-11.8 12.1-4.9 5-10.5 10.8-16.7 17-6.1 6.2-12.7 12.8-19.3 19.4-6.6 6.5-13.2 13-19.4 19.2-6.2 6.1-12.1 11.8-17.1 16.6-5 4.9-9.2 8.9-12.1 11.7-3 2.8-4.7 4.4-4.7 4.4z" />
                    </g>
                    <g id="g204">
                        <path id="path206" class="s3"
                            d="m460.6 354.7c0 0 1.7-1.7 4.5-4.6 2.8-3 6.8-7.1 11.7-12.2 4.9-4.9 10.6-10.8 16.7-17 6.2-6.2 12.7-12.8 19.3-19.4 6.6-6.5 13.2-13 19.4-19.2 6.2-6.1 12.1-11.7 17.1-16.6 5-4.9 9.2-8.9 12.1-11.7 3-2.8 4.7-4.4 4.7-4.4 0 0-1.6 1.7-4.4 4.6-2.9 2.9-6.9 7.1-11.8 12.1-4.9 5-10.5 10.9-16.7 17-6.1 6.2-12.7 12.8-19.3 19.4-6.6 6.6-13.2 13.1-19.4 19.2-6.2 6.1-12.1 11.8-17.1 16.7-5 4.8-9.2 8.9-12.1 11.7-3 2.8-4.7 4.4-4.7 4.4z" />
                    </g>
                    <g id="g208">
                        <path id="path210" class="s3"
                            d="m460.6 362c0 0 1.7-1.6 4.5-4.6 2.8-2.9 6.8-7.1 11.7-12.1 4.9-5 10.6-10.8 16.7-17 6.2-6.2 12.7-12.8 19.3-19.4 6.6-6.5 13.2-13.1 19.4-19.2 6.2-6.2 12.1-11.8 17.1-16.7 5-4.8 9.2-8.8 12.1-11.7 3-2.8 4.7-4.4 4.7-4.4 0 0-1.6 1.7-4.4 4.7-2.9 2.9-6.9 7.1-11.8 12.1-4.9 5-10.5 10.8-16.7 17-6.1 6.2-12.7 12.8-19.3 19.4-6.6 6.5-13.2 13.1-19.4 19.2-6.2 6.1-12.1 11.8-17.1 16.6-5 4.9-9.2 8.9-12.1 11.7-3 2.8-4.7 4.4-4.7 4.4z" />
                    </g>
                    <g id="g212">
                        <path id="path214" class="s8"
                            d="m106.7 345.1c0.2-11.8 0-30.8 7.1-38.1 18.7-19.3 105.5-108.7 105.5-108.7h352.6c0 0-86.7 89.4-105.4 108.7-7.2 7.3-7 26.3-7.1 38.1z" />
                    </g>
                    <g id="g216">
                        <path id="path218" class="s9"
                            d="m110.3 375c-3.2-2.7-3.7-18.5-3.6-29.9 0.2-11.8 0-30.8 7.1-38.1h352.7c-7.2 7.3-7 26.3-7.1 38.1-0.1 11.4 0.4 27.2 3.6 29.9z" />
                    </g>
                    <g id="g220">
                        <path id="path222" class="s6"
                            d="m574.3 260.4c-1-1-2.6-0.9-3.6 0.1l-105.4 108.7c-0.4 0.4-0.7 0.6-0.9 0.7-0.7-0.9-2.7-5-2.5-24.7v-1.7c0.1-11.3 0.2-28.5 6.3-34.8 18.8-19.3 105.5-108.7 105.5-108.7 0.9-1 0.9-2.5-0.1-3.5-1-0.9-2.5-0.9-3.5 0v0.1q0 0 0 0c-1 1-86.8 89.5-105.4 108.7-7.5 7.7-7.7 25.3-7.8 38.2v1.6c-0.2 23.8 2.6 28.2 5.7 29.5 0.5 0.2 1 0.4 1.7 0.4 1.2 0 2.8-0.6 4.6-2.4l105.4-108.7c1-1 0.9-2.5 0-3.5z" />
                    </g>
                    <g id="g224">
                        <path id="path226" class="s6"
                            d="m127.6 308.4c0 0 0 18.1-0.3 27.1-0.2 5.9 0.3 37.7 0.3 37.7h-1.3c0 0-0.5-31.8-0.3-37.7 0.3-9 0.3-27.1 0.3-27.1z" />
                    </g>
                    <g id="g228">
                        <path id="path230" class="s6"
                            d="m127.1 308.4c0 13.7-0.4 27.5-0.2 41.2q0.1 10.7 0.2 21.4 0 1 0 2c0 0.5 0.7-0.2 0-0.2-1 0-0.4 0.5-0.4 0.2q0-3.1-0.1-6.1c-0.1-10.1-0.3-20.1-0.2-30.2 0-5.7 0.2-11.5 0.3-17.3q0-4.2 0-8.5 0-1.1 0-2.2v-0.3q-0.6 0.5 0 0.4h0.9c0.5 0 0.5-0.9 0-0.9h-1.3c-0.3 0-0.5 0.2-0.5 0.5 0 11.2-0.3 22.4-0.3 33.6 0 10.4 0.2 20.8 0.3 31.2 0 0.2 0.2 0.4 0.5 0.4h1.3c0.2 0 0.4-0.2 0.4-0.4-0.1-10.3-0.3-20.5-0.3-30.8-0.1-11.3 0.3-22.7 0.3-34 0-0.6-0.9-0.6-0.9 0z" />
                    </g>
                    <g id="g232">
                        <path id="path234" class="s6"
                            d="m140.7 308.4c0 0 0 18.1-0.3 27.1-0.2 5.9 0.3 37.7 0.3 37.7h-1.3c0 0-0.5-31.8-0.3-37.7 0.3-9 0.3-27.1 0.3-27.1z" />
                    </g>
                    <g id="g236">
                        <path id="path238" class="s6"
                            d="m140.3 308.4c0 13.7-0.4 27.5-0.3 41.2q0.1 10.7 0.2 21.4 0 1 0.1 2c0 0.5 0.6-0.2-0.1-0.2-0.9 0-0.4 0.5-0.4 0.2q0-3.1-0.1-6.1c-0.1-10.1-0.3-20.1-0.2-30.2 0.1-5.7 0.2-11.5 0.3-17.3q0-4.2 0-8.5 0-1.1 0-2.2v-0.3q-0.6 0.5 0.1 0.4h0.8c0.6 0 0.6-0.9 0-0.9h-1.3c-0.2 0-0.4 0.2-0.4 0.5 0 11.2-0.4 22.4-0.4 33.6 0.1 10.4 0.2 20.8 0.4 31.2 0 0.2 0.2 0.4 0.4 0.4h1.3c0.2 0 0.4-0.2 0.4-0.4-0.1-10.3-0.2-20.5-0.3-30.8 0-11.3 0.3-22.7 0.3-34 0-0.6-0.8-0.6-0.8 0z" />
                    </g>
                    <g id="g240">
                        <path id="path242" class="s6"
                            d="m135.8 308.4c0 0 0 18.1-0.3 27.1-0.1 5.9 0.3 37.7 0.3 37.7h-5.3c0 0-0.4-31.8-0.3-37.7 0.3-9 0.3-27.1 0.3-27.1z" />
                    </g>
                    <g id="g244">
                        <path id="path246" class="s6"
                            d="m135.4 308.4c0 13.7-0.4 27.5-0.3 41.2q0.1 10.7 0.2 21.4 0 1 0.1 2c0 0.5 0.6-0.2 0.2-0.2h-2.4-2.3c-0.7 0 0.1 0.5 0 0.3q0-1.1 0-2.1c-0.1-11.4-0.4-22.9-0.3-34.3 0.1-7 0.3-14 0.3-21.1q0-3.5 0.1-7c0-0.5-0.6 0.2-0.3 0.2h1.6 3.5c0.6 0 0.6-0.9 0-0.9h-5.3c-0.2 0-0.4 0.2-0.4 0.5 0 11.2-0.4 22.4-0.4 33.6 0.1 10.4 0.2 20.8 0.4 31.2 0 0.2 0.2 0.4 0.4 0.4h5.3c0.2 0 0.4-0.2 0.4-0.4-0.1-10.3-0.2-20.5-0.3-30.8 0-11.3 0.3-22.7 0.3-34 0-0.6-0.8-0.6-0.8 0z" />
                    </g>
                    <g id="g248">
                        <path id="path250" class="s5"
                            d="m185.2 315.3c3.9 0.1 8.6 1.3 9.4 5.7 0.2 0.9 0 2-0.2 2.9-0.5 2.1-4.6-1.8-0.7-1.7 3.1 0 6.3 0.4 9.4 0.5 3.1 0.2 8.2 0 6.3-4.5-1.4-3.7-6.2-3.6-6.6 0.5-0.4 4.2 0.1 8.3-0.1 12.5 0 0.7 0 1.4-0.2 2.1 0.1-0.1-1.8-0.3-1.5-1.9 0.2-0.8 1.1-0.7 1.6-0.7 1.2 0 2.6 0.1 3.7 0.7 4.5 2.3 4.3 9.7 3.3 13.8-0.9 3.7-3.2 5.3-6.6 5.6-1.6 0.1-3.2-1.8-1.1-2.5 1-0.3 0.8 0.8 0.8 1.6 0.1 2.2 0.1 4.5 0.1 6.8-0.1 2.7-1.2 8.4 2.4 9.3 3.5 0.9 6.2-4.6 3.3-6.8-1.3-0.9-3.5-0.6-5-0.5-3.1 0.2-6.1 0.3-9.2 0.6-0.5 0-2.6 0.3-2.3-1.1 0.1-0.7 1.3-1.5 2.1-1.2 0.8 0.3 0.6 2.6 0.5 3.3-0.1 1.4-0.9 2.6-1.9 3.6-3.4 3.3-11.1 3.1-14.7 0.2-1.1-0.8-1.8-2.1-2.1-3.4-0.2-0.8-0.1-1.8 0-2.7 0.5-2.9 4.6 1.4 0.8 1.3-3-0.1-6-0.4-9-0.6-1.7 0-3.7-0.4-5.4 0.4-3.7 1.8-0.6 6.9 2.7 6.9 3.7 0.1 2.7-6.5 2.7-8.8 0-2.1 0-4.3 0-6.4 0-0.8 0.1-1.6 0.2-2.4 0.1-0.5 1 0.1 1.2 0.2 1.9 0.9-0.5 2.2-1.2 2.2-3.5 0-5.8-1.6-6.9-5-1.4-4.3-1.3-11.5 2.9-14.3 1-0.6 2.1-0.6 3.2-0.8 0.9 0 4.2 0.6 2 2.2-1.4 1-1.3-0.3-1.4-1.3-0.2-4.1 0.2-8.2 0-12.4-0.2-4.4-4.5-4.8-6.6-1.2-1.5 2.6 0.5 4.5 3 4.8 1.5 0.2 3 0 4.4-0.1 2.6-0.1 5.1-0.3 7.6-0.5 1.1-0.1 3.5 0.6 1.7 2-1.5 1.1-1.9-0.4-2-1.6-0.1-1.1 0.1-2.2 0.6-3.2 1.6-3.3 5.6-4 8.8-4.1 1.2 0 1.2-1.8 0-1.8-3.8 0.1-7.8 1-10.1 4.4-1.4 2.1-1.7 5.8-0.1 7.8 2 2.4 6.4-1.3 5.1-3.9-0.8-1.8-2.9-1.5-4.6-1.4-3 0.3-5.9 0.4-8.9 0.6-1.1 0.1-2.1 0.1-3.2-0.1-2.9-0.7 1.5-5.9 2.4-2.4 0.5 1.9 0.1 4.3 0.1 6.3 0 2.1-0.1 4.2 0 6.4 0 1-0.1 2.5 0.7 3.3 0.9 1.1 2.9 0.3 3.8-0.3 1.3-1 1.2-3 0.3-4.2-1.3-1.8-5.1-1.3-6.9-0.5-3.2 1.5-4.7 5-5.1 8.3-0.5 4.3-0.2 9.4 3 12.7 1.8 1.8 4.5 2.3 6.9 2.1 3.6-0.3 3.5-5 0.4-6-3.6-1.2-3.1 3.6-3.1 5.7-0.1 2.1 0 4.3 0 6.5q0 1.2 0 2.5 0 0.8-0.1 1.7c-0.4 2.5-2.8 0.3-3.2-0.7-1.1-2.7 4.7-1.8 5.9-1.7 3.2 0.1 6.4 0.7 9.6 0.5 1.5-0.1 2.2-1.3 2.2-2.7 0-1.8-1.6-2.9-3.2-3.2-3.3-0.8-3.4 4.2-2.9 6.2 0.7 3.1 3.4 5 6.3 6 6.8 2.2 16.6-0.7 15.9-9.1-0.3-3.6-4.1-4.2-5.9-1.2-0.6 1-0.5 2.9 0.6 3.5 1.9 1.2 5.5 0.4 7.6 0.2 2.4-0.1 4.8-0.4 7.1-0.4 2.4 0.1 2.7 2.2 0.8 3.6-2.2 1.5-2.1-2.8-2.1-3.5 0-4 0.4-8.1-0.1-12.1-0.1-1.1-0.4-1.7-1.6-1.9-1.3-0.2-3.4 0.6-3.6 2-0.6 3.9 2.6 4.2 5.5 4 8.3-0.7 8.3-13.5 5.9-19-1.1-2.4-3.4-4.3-6.1-4.5-1.2-0.1-2.8-0.4-3.8 0.2-1.3 0.7-2.1 2.6-1.4 4 0.6 1.2 2.1 2 3.5 1.8 1.3-0.3 1.5-1.1 1.6-2.3 0.5-3.9 0.1-8.1 0.1-12.1 0-1.5 0.5-4.7 2.8-2.5 0.8 0.8 1 2.4-0.3 2.8-0.7 0.2-1.5 0.2-2.2 0.2-3.3-0.1-6.6-0.5-9.9-0.7-1.9 0-4.2-0.4-4.7 2-0.4 2 1.4 3.5 3.1 3.9 3.7 0.8 3.5-5.2 2.6-7.3-1.8-4.2-6.5-5.4-10.7-5.5-1.1 0-1.1 1.8 0 1.8z" />
                    </g>
                    <g id="g252">
                        <path id="path254" class="s4"
                            d="m170.3 356c-0.1 2.1-0.1 4.1-0.1 6.2 0 1.6-0.3 2.9 0.8 4 3.7 3.7 10.1 5.8 15.1 6.2 3 0.2 6-0.8 8.6-2.1 2.1-1 5.2-2.7 6.4-4.8 0.6-0.9 0.2-3 0.2-4-0.1-2.1 0-4.3-0.1-6.4q-0.5 0.4-0.9 0.9c2 0.1 4.1 0 6.2 0.1 1.4 0 2.5 0.3 3.5-0.8 3.4-3.7 5.2-9.7 5.6-14.5 0.5-5.4-2-11.7-5.5-15.7-1-1.2-2.2-0.9-3.6-0.9-2.1 0-4.2 0-6.2 0.1q0.4 0.4 0.9 0.9c0-2.1 0-4.1 0-6.2 0-1.3 0.4-2.8-0.5-3.8-3.8-4.1-10.3-6.5-15.8-6-4.9 0.5-10.6 2.7-14.2 6.1-0.9 0.9-0.5 2.6-0.5 3.7 0 2.1 0 4.1 0.1 6.2q0.4-0.5 0.9-0.9c-2.1-0.1-4.2-0.1-6.3-0.1-1.2 0-2.7-0.3-3.7 0.6-4.2 3.8-6.7 10.6-6.4 16.2 0.4 5.2 2.7 11.2 6.2 15.2 0.9 1.1 2.1 0.8 3.5 0.8 2.2 0 4.5 0 6.7-0.1 1.2-0.1 1.2-1.9 0-1.8-3 0.1-6 0-9 0 0.7 0 0-0.2-0.2-0.5-0.4-0.5-0.7-0.9-1-1.4-0.7-1-1.2-2.1-1.7-3.2-1.3-2.6-2.2-5.5-2.6-8.4-0.7-5.5 1.9-11.7 5.8-15.6-0.1 0.1-0.5 0 0 0h0.8q1.3 0 2.6 0c1.8 0 3.5 0 5.3 0.1 0.5 0 0.9-0.4 0.9-0.9-0.1-3-0.1-6-0.1-9 0 0.6 1.1-0.5 1.6-0.9 0.9-0.6 1.9-1.1 3-1.7 2.5-1.2 5.2-2 7.9-2.5 3-0.5 6.1 0.2 8.9 1.4 1.3 0.6 2.5 1.3 3.6 2q0.9 0.6 1.7 1.3c0.1 0.2 0.7 1.1 0.7 0.4 0 3 0.1 6 0 9-0.1 0.5 0.4 0.9 0.9 0.9 1.6 0 3.1 0 4.7-0.1q1.4 0 2.7 0h0.9c0.5 0 0 0.1-0.1 0 3.7 3.5 5.6 9.9 5.3 14.8-0.3 4.5-2.2 10.1-5.3 13.5q0.6-0.1 0.2-0.1-0.3 0-0.7 0-1.2 0-2.5 0c-1.7 0-3.5 0-5.2 0-0.5-0.1-0.9 0.4-0.9 0.9 0.1 3.2 0 6.4 0 9.7 0 0.4 0 0 0-0.1-0.3 0.4-0.7 0.7-1 1.1-1 0.9-2.2 1.6-3.4 2.3-2.7 1.6-5.8 2.5-8.9 2.5-4.7-0.2-10.7-2.6-14.1-5.9 0.1 0.1 0 0.5 0 0q0-0.4 0-0.8 0-1.3 0-2.6c0-1.8 0-3.6 0.1-5.3 0-1.2-1.8-1.2-1.8 0z" />
                    </g>
                    <g id="g256">
                        <path id="path258" class="s6"
                            d="m227.9 308.4c0 0 0 18.1-0.3 27.1-0.2 5.9 0.3 37.7 0.3 37.7h-1.3c0 0-0.5-31.8-0.3-37.7 0.3-9 0.3-27.1 0.3-27.1z" />
                    </g>
                    <g id="g260">
                        <path id="path262" class="s6"
                            d="m227.4 308.4c0 13.7-0.4 27.5-0.2 41.2q0 10.7 0.2 21.4 0 1 0 2c0 0.5 0.7-0.2 0-0.2-1 0-0.4 0.5-0.4 0.2q0-3.1-0.1-6.1c-0.1-10.1-0.3-20.1-0.2-30.2 0-5.7 0.2-11.5 0.3-17.3q0-4.2 0-8.5 0-1.1 0-2.2v-0.3q-0.7 0.5 0 0.4h0.9c0.5 0 0.5-0.9 0-0.9h-1.3c-0.3 0-0.5 0.2-0.5 0.5 0 11.2-0.3 22.4-0.3 33.6 0 10.4 0.2 20.8 0.3 31.2 0 0.2 0.2 0.4 0.5 0.4h1.3c0.2 0 0.4-0.2 0.4-0.4-0.1-10.3-0.3-20.5-0.3-30.8-0.1-11.3 0.3-22.7 0.3-34 0-0.6-0.9-0.6-0.9 0z" />
                    </g>
                    <g id="g264">
                        <path id="path266" class="s6"
                            d="m241 308.4c0 0 0 18.1-0.3 27.1-0.2 5.9 0.3 37.7 0.3 37.7h-1.3c0 0-0.5-31.8-0.3-37.7 0.3-9 0.3-27.1 0.3-27.1z" />
                    </g>
                    <g id="g268">
                        <path id="path270" class="s6"
                            d="m240.6 308.4c0 13.7-0.4 27.5-0.3 41.2q0.1 10.7 0.2 21.4 0 1 0.1 2c0 0.5 0.6-0.2-0.1-0.2-1 0-0.4 0.5-0.4 0.2q0-3.1-0.1-6.1c-0.1-10.1-0.3-20.1-0.2-30.2 0.1-5.7 0.2-11.5 0.3-17.3q0-4.2 0-8.5 0-1.1 0-2.2v-0.3q-0.6 0.5 0.1 0.4h0.8c0.6 0 0.6-0.9 0-0.9h-1.3c-0.2 0-0.4 0.2-0.4 0.5 0 11.2-0.4 22.4-0.4 33.6 0.1 10.4 0.2 20.8 0.4 31.2 0 0.2 0.2 0.4 0.4 0.4h1.3c0.2 0 0.4-0.2 0.4-0.4-0.1-10.3-0.2-20.5-0.3-30.8 0-11.3 0.3-22.7 0.3-34 0-0.6-0.8-0.6-0.8 0z" />
                    </g>
                    <g id="g272">
                        <path id="path274" class="s6"
                            d="m236.1 308.4c0 0 0 18.1-0.3 27.1-0.2 5.9 0.3 37.7 0.3 37.7h-5.3c0 0-0.4-31.8-0.3-37.7 0.3-9 0.3-27.1 0.3-27.1z" />
                    </g>
                    <g id="g276">
                        <path id="path278" class="s6"
                            d="m235.7 308.4c0 13.7-0.4 27.5-0.3 41.2q0.1 10.7 0.2 21.4 0 1 0.1 2c0 0.5 0.5-0.2 0.2-0.2h-2.4-2.3c-0.7 0 0 0.5 0 0.3q0-1.1 0-2.1c-0.1-11.4-0.4-22.9-0.3-34.3 0.1-7 0.3-14 0.3-21.1q0-3.5 0-7c0-0.5-0.5 0.2-0.2 0.2h1.6 3.5c0.6 0 0.6-0.9 0-0.9h-5.3c-0.2 0-0.4 0.2-0.4 0.5 0 11.2-0.4 22.4-0.4 33.6 0.1 10.4 0.2 20.8 0.4 31.2 0 0.2 0.2 0.4 0.4 0.4h5.3c0.2 0 0.4-0.2 0.4-0.4-0.1-10.3-0.2-20.5-0.3-30.8 0-11.3 0.3-22.7 0.3-34 0-0.6-0.8-0.6-0.8 0z" />
                    </g>
                    <g id="g280">
                        <path id="path282" class="s5"
                            d="m205 308c2.5 0 5.4 1.6 7.7 2.9 3.4 2 6.4 7.1 6.2 11.2 0-2.9 0.1-12 0-14.1z" />
                    </g>
                    <g id="g284">
                        <path id="path286" class="s5"
                            d="m205 308.4c6.9 0.4 13.5 6.7 13.5 13.7h0.8c0-4.7 0.3-9.5 0-14.1 0-0.3-0.2-0.5-0.4-0.5h-13.9c-0.6 0-0.6 0.9 0 0.9h12.6 0.9c0.7 0 0 0.1 0-0.2 0.1 1.3 0 2.7 0 4.1 0 3.2 0 6.5 0 9.8 0 0.6 0.8 0.6 0.8 0 0.1-7.5-6.9-14.2-14.3-14.6-0.6 0-0.6 0.9 0 0.9z" />
                    </g>
                    <g id="g288">
                        <path id="path290" class="s5"
                            d="m205 373.6c2.5 0 5.4-1.6 7.7-2.9 3.4-2 6.4-7.2 6.2-11.2 0 2.9 0.1 12 0 14.1z" />
                    </g>
                    <g id="g292">
                        <path id="path294" class="s5"
                            d="m205 374.1c7.4-0.5 14.4-7.1 14.3-14.6 0-0.6-0.8-0.6-0.8 0 0 3.1 0 6.2 0 9.3q0 2 0 4c0 0.8 0.3 0.4 0.2 0.4h-0.9-12.8c-0.6 0-0.6 0.9 0 0.9h13.9c0.2 0 0.4-0.2 0.4-0.5 0.3-4.7 0-9.4 0-14.1h-0.8c0 7-6.6 13.3-13.5 13.7-0.6 0-0.6 0.9 0 0.9z" />
                    </g>
                    <g id="g296">
                        <path id="path298" class="s5"
                            d="m167.9 308c-2.6 0-5.5 1.6-7.7 2.9-3.5 2-6.4 7.1-6.2 11.2 0-2.9-0.2-12 0-14.1z" />
                    </g>
                    <g id="g300">
                        <path id="path302" class="s5"
                            d="m167.9 307.5c-7.4 0.4-14.4 7.1-14.4 14.6 0 0.6 0.9 0.6 0.9 0 0-3.1 0-6.2-0.1-9.3q0-2 0.1-4c0-0.8-0.3-0.4-0.3-0.4h0.9 12.9c0.6 0 0.6-0.9 0-0.9h-13.9c-0.3 0-0.5 0.2-0.5 0.5-0.3 4.6 0 9.4 0 14.1h0.9c0-7 6.6-13.3 13.5-13.7 0.6 0 0.6-0.9 0-0.9z" />
                    </g>
                    <g id="g304">
                        <path id="path306" class="s5"
                            d="m167.9 373.6c-2.6 0-5.5-1.6-7.7-2.9-3.5-2-6.4-7.2-6.2-11.2 0 2.9-0.2 12 0 14.1z" />
                    </g>
                    <g id="g308">
                        <path id="path310" class="s5"
                            d="m167.9 373.2c-6.9-0.4-13.5-6.7-13.5-13.7h-0.9c0 4.7-0.3 9.4 0 14.1 0 0.3 0.2 0.5 0.5 0.5h13.9c0.6 0 0.6-0.9 0-0.9h-12.6-0.9c-0.7 0 0-0.1 0 0.2-0.1-1.4-0.1-2.7-0.1-4.1 0-3.3 0.1-6.5 0.1-9.8 0-0.6-0.9-0.6-0.9 0 0 7.5 7 14.2 14.4 14.6 0.6 0 0.6-0.9 0-0.9z" />
                    </g>
                    <g id="g312">
                        <path id="path314" class="s5"
                            d="m285.5 315.3c3.9 0.1 8.6 1.3 9.4 5.7 0.2 0.9 0 2-0.2 2.9-0.5 2.1-4.6-1.8-0.7-1.7 3.1 0 6.3 0.4 9.4 0.5 3.1 0.2 8.2 0 6.3-4.5-1.4-3.7-6.2-3.6-6.6 0.5-0.4 4.2 0.1 8.3-0.1 12.5 0 0.7 0 1.4-0.2 2.1 0-0.1-1.8-0.3-1.5-1.9 0.2-0.8 1-0.7 1.6-0.7 1.2 0 2.5 0.1 3.7 0.7 4.5 2.3 4.3 9.7 3.3 13.8-0.9 3.7-3.2 5.3-6.6 5.6-1.6 0.1-3.2-1.8-1.1-2.5 1-0.3 0.8 0.8 0.8 1.6 0.1 2.2 0.1 4.5 0.1 6.8-0.1 2.7-1.2 8.4 2.4 9.3 3.5 0.9 6.2-4.6 3.3-6.8-1.3-0.9-3.5-0.6-5-0.5-3.1 0.2-6.1 0.3-9.2 0.6-0.5 0-2.6 0.3-2.3-1.1 0.1-0.7 1.3-1.5 2.1-1.2 0.8 0.3 0.6 2.6 0.5 3.3-0.1 1.4-0.9 2.6-1.9 3.6-3.4 3.3-11.1 3.1-14.7 0.2-1.1-0.8-1.8-2.1-2.1-3.4-0.2-0.8-0.1-1.8 0-2.7 0.5-2.9 4.6 1.4 0.8 1.3-3-0.1-6-0.4-9-0.6-1.7 0-3.7-0.4-5.4 0.4-3.7 1.8-0.6 6.9 2.7 6.9 3.7 0.1 2.7-6.5 2.7-8.8 0-2.1 0-4.3 0-6.4 0-0.8 0-1.6 0.2-2.4 0-0.5 1 0.1 1.2 0.2 1.9 0.9-0.5 2.2-1.2 2.2-3.5 0-5.8-1.6-6.9-5-1.4-4.3-1.3-11.5 2.9-14.3 1-0.6 2.1-0.6 3.2-0.8 0.9 0 4.2 0.6 2 2.2-1.4 1-1.3-0.3-1.4-1.3-0.2-4.1 0.2-8.2 0-12.4-0.2-4.4-4.5-4.8-6.6-1.2-1.5 2.6 0.5 4.5 3 4.8 1.5 0.2 3 0 4.4-0.1 2.6-0.1 5.1-0.3 7.6-0.5 1.1-0.1 3.5 0.6 1.7 2-1.5 1.1-1.9-0.4-2-1.6-0.1-1.1 0.1-2.2 0.6-3.2 1.5-3.3 5.6-4 8.8-4.1 1.2 0 1.2-1.8 0-1.8-3.8 0.1-7.8 1-10.1 4.4-1.4 2.1-1.7 5.8-0.1 7.8 2 2.4 6.4-1.3 5.1-3.9-0.8-1.8-2.9-1.5-4.6-1.4-3 0.3-6 0.4-8.9 0.6-1.1 0.1-2.1 0.1-3.2-0.1-2.9-0.7 1.5-5.9 2.4-2.4 0.5 1.9 0.1 4.3 0.1 6.3 0 2.1-0.1 4.2 0 6.4 0 1-0.1 2.5 0.7 3.3 0.9 1.1 2.9 0.3 3.8-0.3 1.3-1 1.2-3 0.3-4.2-1.3-1.8-5.1-1.3-6.9-0.5-3.2 1.5-4.7 5-5.1 8.3-0.5 4.3-0.2 9.4 3 12.7 1.8 1.8 4.5 2.3 6.9 2.1 3.6-0.3 3.5-5 0.4-6-3.6-1.2-3.1 3.6-3.1 5.7-0.1 2.1 0 4.3 0 6.5q0 1.2 0 2.5 0 0.8-0.1 1.7c-0.4 2.5-2.8 0.3-3.2-0.7-1.1-2.7 4.7-1.8 5.9-1.7 3.2 0.1 6.4 0.7 9.6 0.5 1.5-0.1 2.2-1.3 2.2-2.7 0-1.8-1.6-2.9-3.2-3.2-3.3-0.8-3.4 4.2-2.9 6.2 0.7 3.1 3.4 5 6.3 6 6.8 2.2 16.6-0.7 15.9-9.1-0.3-3.6-4.1-4.2-5.9-1.2-0.6 1-0.5 2.9 0.6 3.5 1.9 1.2 5.5 0.4 7.6 0.2 2.4-0.1 4.8-0.4 7.1-0.4 2.4 0.1 2.6 2.2 0.8 3.6-2.2 1.5-2.1-2.8-2.1-3.5 0-4 0.4-8.1-0.1-12.1-0.1-1.1-0.5-1.7-1.6-1.9-1.3-0.2-3.4 0.6-3.6 2-0.6 3.9 2.6 4.2 5.5 4 8.3-0.7 8.3-13.5 5.9-19-1.1-2.4-3.4-4.3-6.1-4.5-1.2-0.1-2.8-0.4-3.8 0.2-1.3 0.7-2.1 2.6-1.4 4 0.6 1.2 2.1 2 3.5 1.8 1.3-0.3 1.5-1.1 1.6-2.3 0.5-3.9 0.1-8.1 0.1-12.1 0-1.5 0.5-4.7 2.8-2.5 0.8 0.8 1 2.4-0.3 2.8-0.7 0.2-1.5 0.2-2.2 0.2-3.3-0.1-6.6-0.5-9.9-0.7-1.9 0-4.2-0.4-4.7 2-0.4 2 1.4 3.5 3.1 3.9 3.7 0.8 3.5-5.2 2.6-7.3-1.8-4.2-6.5-5.4-10.7-5.5-1.1 0-1.1 1.8 0 1.8z" />
                    </g>
                    <g id="g316">
                        <path id="path318" class="s4"
                            d="m270.6 356c-0.1 2.1-0.1 4.1-0.1 6.2 0 1.6-0.3 2.9 0.8 4 3.7 3.7 10 5.8 15.1 6.2 3 0.2 6-0.8 8.6-2.1 2.1-1 5.2-2.7 6.4-4.8 0.6-0.9 0.2-3 0.2-4-0.1-2.1 0-4.3-0.1-6.4q-0.5 0.4-0.9 0.9c2 0.1 4.1 0 6.2 0.1 1.4 0 2.5 0.3 3.5-0.8 3.4-3.7 5.2-9.7 5.6-14.5 0.5-5.4-2-11.7-5.5-15.7-1-1.2-2.2-0.9-3.6-0.9-2.1 0-4.2 0-6.2 0.1q0.4 0.4 0.9 0.9c0-2.1 0-4.1 0-6.2 0-1.3 0.4-2.8-0.6-3.8-3.7-4.1-10.2-6.5-15.7-6-4.9 0.5-10.6 2.7-14.2 6.1-0.9 0.9-0.5 2.6-0.5 3.7 0 2.1 0 4.1 0.1 6.2q0.4-0.5 0.9-0.9c-2.1-0.1-4.2-0.1-6.3-0.1-1.2 0-2.7-0.3-3.7 0.6-4.2 3.8-6.7 10.6-6.4 16.2 0.3 5.2 2.7 11.2 6.2 15.2 0.9 1.1 2.1 0.8 3.5 0.8 2.2 0 4.5 0 6.7-0.1 1.2-0.1 1.2-1.9 0-1.8-3 0.1-6 0-9 0 0.7 0 0-0.2-0.2-0.5-0.4-0.5-0.7-0.9-1-1.4-0.7-1-1.2-2.1-1.7-3.2-1.3-2.6-2.2-5.5-2.6-8.4-0.7-5.5 1.9-11.7 5.8-15.6-0.1 0.1-0.5 0 0 0h0.8q1.3 0 2.6 0c1.8 0 3.5 0 5.3 0.1 0.5 0 0.9-0.4 0.9-0.9-0.1-3-0.1-6-0.1-9 0 0.6 1.1-0.5 1.5-0.9 1-0.6 2-1.1 3.1-1.7 2.5-1.2 5.2-2 7.9-2.5 3-0.5 6.1 0.2 8.9 1.4 1.3 0.6 2.4 1.3 3.6 2q0.9 0.6 1.7 1.3c0.1 0.2 0.7 1.1 0.7 0.4 0 3 0.1 6 0 9-0.1 0.5 0.4 0.9 0.9 0.9 1.5 0 3.1 0 4.7-0.1q1.4 0 2.7 0h0.9c0.5 0 0 0.1-0.1 0 3.7 3.5 5.6 9.9 5.3 14.8-0.3 4.5-2.2 10.1-5.3 13.5q0.6-0.1 0.2-0.1-0.3 0-0.7 0-1.2 0-2.5 0c-1.7 0-3.5 0-5.2 0-0.5-0.1-1 0.4-0.9 0.9 0.1 3.2 0 6.4 0 9.7 0 0.4 0 0 0-0.1-0.3 0.4-0.7 0.7-1 1.1-1.1 0.9-2.2 1.6-3.4 2.3-2.7 1.6-5.8 2.5-8.9 2.5-4.7-0.2-10.7-2.6-14.1-5.9 0.1 0.1 0 0.5 0 0q0-0.4 0-0.8 0-1.3 0-2.6c0-1.8 0-3.6 0.1-5.3 0-1.2-1.8-1.2-1.8 0z" />
                    </g>
                    <g id="g320">
                        <path id="path322" class="s6"
                            d="m328.2 308.4c0 0 0 18.1-0.3 27.1-0.2 5.9 0.3 37.7 0.3 37.7h-1.3c0 0-0.5-31.8-0.3-37.7 0.3-9 0.3-27.1 0.3-27.1z" />
                    </g>
                    <g id="g324">
                        <path id="path326" class="s6"
                            d="m327.7 308.4c0 13.7-0.4 27.5-0.3 41.2q0.1 10.7 0.3 21.4 0 1 0 2c0 0.5 0.7-0.2 0-0.2-1 0-0.4 0.5-0.4 0.2q0-3.1-0.1-6.1c-0.1-10.1-0.3-20.1-0.2-30.2 0-5.7 0.2-11.5 0.3-17.3q0-4.2 0-8.5 0-1.1 0-2.2v-0.3q-0.7 0.5 0 0.4h0.9c0.5 0 0.5-0.9 0-0.9h-1.3c-0.3 0-0.5 0.2-0.5 0.5 0 11.2-0.3 22.4-0.3 33.6 0 10.4 0.2 20.8 0.3 31.2 0 0.2 0.2 0.4 0.5 0.4h1.3c0.2 0 0.4-0.2 0.4-0.4-0.1-10.3-0.3-20.5-0.3-30.8-0.1-11.3 0.3-22.7 0.3-34 0-0.6-0.9-0.6-0.9 0z" />
                    </g>
                    <g id="g328">
                        <path id="path330" class="s6"
                            d="m341.3 308.4c0 0 0 18.1-0.3 27.1-0.2 5.9 0.3 37.7 0.3 37.7h-1.3c0 0-0.5-31.8-0.3-37.7 0.3-9 0.3-27.1 0.3-27.1z" />
                    </g>
                    <g id="g332">
                        <path id="path334" class="s6"
                            d="m340.9 308.4c-0.1 13.7-0.4 27.5-0.3 41.2q0.1 10.7 0.2 21.4 0 1 0 2c0.1 0.5 0.7-0.2 0-0.2-1 0-0.4 0.5-0.4 0.2q0-3.1-0.1-6.1c-0.1-10.1-0.3-20.1-0.2-30.2 0.1-5.7 0.2-11.5 0.3-17.3q0-4.2 0-8.5 0-1.1 0-2.2v-0.3q-0.6 0.5 0 0.4h0.9c0.6 0 0.6-0.9 0-0.9h-1.3c-0.2 0-0.4 0.2-0.4 0.5-0.1 11.2-0.4 22.4-0.4 33.6 0.1 10.4 0.2 20.8 0.4 31.2 0 0.2 0.1 0.4 0.4 0.4h1.3c0.2 0 0.4-0.2 0.4-0.4-0.1-10.3-0.3-20.5-0.3-30.8 0-11.3 0.3-22.7 0.3-34 0-0.6-0.8-0.6-0.8 0z" />
                    </g>
                    <g id="g336">
                        <path id="path338" class="s6"
                            d="m336.4 308.4c0 0 0 18.1-0.3 27.1-0.2 5.9 0.3 37.7 0.3 37.7h-5.3c0 0-0.5-31.8-0.3-37.7 0.3-9 0.3-27.1 0.3-27.1z" />
                    </g>
                    <g id="g340">
                        <path id="path342" class="s6"
                            d="m336 308.4c0 13.7-0.4 27.5-0.3 41.2q0.1 10.7 0.2 21.4 0 1 0.1 2c0 0.5 0.5-0.2 0.2-0.2h-2.5-2.2c-0.7 0 0 0.5 0 0.3q0-1.1 0-2.1c-0.1-11.4-0.4-22.9-0.3-34.3 0.1-7 0.3-14 0.3-21.1q0-3.5 0-7c0-0.5-0.5 0.2-0.2 0.2h1.6 3.5c0.6 0 0.6-0.9 0-0.9h-5.3c-0.2 0-0.4 0.2-0.4 0.5 0 11.2-0.4 22.4-0.4 33.6 0.1 10.4 0.2 20.8 0.4 31.2 0 0.2 0.2 0.4 0.4 0.4h5.3c0.2 0 0.4-0.2 0.4-0.4-0.1-10.3-0.2-20.5-0.3-30.8 0-11.3 0.3-22.7 0.3-34 0-0.6-0.8-0.6-0.8 0z" />
                    </g>
                    <g id="g344">
                        <path id="path346" class="s5"
                            d="m305.3 308c2.5 0 5.4 1.6 7.7 2.9 3.4 2 6.3 7.1 6.2 11.2 0-2.9 0.1-12 0-14.1z" />
                    </g>
                    <g id="g348">
                        <path id="path350" class="s5"
                            d="m305.3 308.4c6.9 0.4 13.5 6.7 13.4 13.7h0.9c0-4.7 0.3-9.5 0-14.1 0-0.3-0.2-0.5-0.4-0.5h-13.9c-0.6 0-0.6 0.9 0 0.9h12.6 0.9c0.7 0 0 0.1 0-0.2 0.1 1.3 0 2.7 0 4.1 0 3.2 0 6.5-0.1 9.8 0 0.6 0.9 0.6 0.9 0 0.1-7.5-6.9-14.2-14.3-14.6-0.6 0-0.6 0.9 0 0.9z" />
                    </g>
                    <g id="g352">
                        <path id="path354" class="s5"
                            d="m305.3 373.6c2.5 0 5.4-1.6 7.7-2.9 3.4-2 6.3-7.2 6.2-11.2 0 2.9 0.1 12 0 14.1z" />
                    </g>
                    <g id="g356">
                        <path id="path358" class="s5"
                            d="m305.3 374.1c7.4-0.5 14.4-7.1 14.3-14.6 0-0.6-0.9-0.6-0.9 0 0.1 3.1 0.1 6.2 0.1 9.3q0 2 0 4c0 0.8 0.3 0.4 0.2 0.4h-0.9-12.8c-0.6 0-0.6 0.9 0 0.9h13.9c0.2 0 0.4-0.2 0.4-0.5 0.3-4.7 0-9.4 0-14.1h-0.9c0.1 7-6.5 13.3-13.4 13.7-0.6 0-0.6 0.9 0 0.9z" />
                    </g>
                    <g id="g360">
                        <path id="path362" class="s5"
                            d="m268.2 308c-2.6 0-5.5 1.6-7.7 2.9-3.5 2-6.4 7.1-6.2 11.2 0-2.9-0.2-12 0-14.1z" />
                    </g>
                    <g id="g364">
                        <path id="path366" class="s5"
                            d="m268.2 307.5c-7.4 0.4-14.4 7.1-14.4 14.6 0 0.6 0.9 0.6 0.9 0 0-3.1-0.1-6.2-0.1-9.3q0-2 0.1-4c0-0.8-0.3-0.4-0.3-0.4h0.9 12.9c0.6 0 0.6-0.9 0-0.9h-13.9c-0.3 0-0.5 0.2-0.5 0.5-0.3 4.6 0 9.4 0 14.1h0.9c0-7 6.6-13.3 13.5-13.7 0.6 0 0.6-0.9 0-0.9z" />
                    </g>
                    <g id="g368">
                        <path id="path370" class="s5"
                            d="m268.2 373.6c-2.6 0-5.5-1.6-7.7-2.9-3.5-2-6.4-7.2-6.2-11.2 0 2.9-0.2 12 0 14.1z" />
                    </g>
                    <g id="g372">
                        <path id="path374" class="s5"
                            d="m268.2 373.2c-6.9-0.4-13.5-6.7-13.5-13.7h-0.9c0 4.7-0.3 9.4 0 14.1 0 0.3 0.2 0.5 0.5 0.5h13.9c0.6 0 0.6-0.9 0-0.9h-12.6-0.9c-0.7 0 0-0.1 0 0.2-0.1-1.4-0.1-2.7-0.1-4.1 0-3.3 0.1-6.5 0.1-9.8 0-0.6-0.9-0.6-0.9 0 0 7.5 7 14.2 14.4 14.6 0.6 0 0.6-0.9 0-0.9z" />
                    </g>
                    <g id="g376">
                        <path id="path378" class="s5"
                            d="m385.8 315.3c3.9 0.1 8.6 1.3 9.4 5.7 0.2 0.9 0 2-0.2 2.9-0.5 2.1-4.6-1.8-0.7-1.7 3.1 0 6.2 0.4 9.4 0.5 3.1 0.2 8.2 0 6.3-4.5-1.4-3.7-6.2-3.6-6.6 0.5-0.4 4.2 0.1 8.3-0.1 12.5 0 0.7 0 1.4-0.2 2.1 0-0.1-1.8-0.3-1.5-1.9 0.2-0.8 1-0.7 1.6-0.7 1.2 0 2.5 0.1 3.7 0.7 4.5 2.3 4.3 9.7 3.3 13.8-0.9 3.7-3.2 5.3-6.6 5.6-1.6 0.1-3.2-1.8-1.1-2.5 1-0.3 0.8 0.8 0.8 1.6 0.1 2.2 0.1 4.5 0.1 6.8-0.1 2.7-1.2 8.4 2.4 9.3 3.5 0.9 6.2-4.6 3.3-6.8-1.3-0.9-3.5-0.6-5-0.5-3.1 0.2-6.1 0.3-9.2 0.6-0.6 0-2.6 0.3-2.3-1.1 0.1-0.7 1.3-1.5 2.1-1.2 0.8 0.3 0.6 2.6 0.5 3.3-0.1 1.4-0.9 2.6-1.9 3.6-3.4 3.3-11.1 3.1-14.7 0.2-1.1-0.8-1.8-2.1-2.1-3.4-0.2-0.8-0.1-1.8 0-2.7 0.5-2.9 4.6 1.4 0.8 1.3-3-0.1-6-0.4-9-0.6-1.7 0-3.7-0.4-5.4 0.4-3.7 1.8-0.6 6.9 2.7 6.9 3.7 0.1 2.7-6.5 2.7-8.8q-0.1-3.2 0-6.4c0-0.8 0-1.6 0.2-2.4 0-0.5 1 0.1 1.2 0.2 1.9 0.9-0.5 2.2-1.2 2.2-3.5 0-5.8-1.6-6.9-5-1.4-4.3-1.3-11.5 2.9-14.3 1-0.6 2.1-0.6 3.2-0.8 0.9 0 4.2 0.6 2 2.2-1.4 1-1.3-0.3-1.4-1.3-0.2-4.1 0.2-8.2 0-12.4-0.2-4.4-4.5-4.8-6.6-1.2-1.5 2.6 0.5 4.5 3 4.8 1.5 0.2 3 0 4.4-0.1 2.6-0.1 5.1-0.3 7.6-0.5 1.1-0.1 3.5 0.6 1.7 2-1.5 1.1-1.9-0.4-2-1.6-0.1-1.1 0.1-2.2 0.6-3.2 1.5-3.3 5.6-4 8.8-4.1 1.2 0 1.2-1.8 0-1.8-3.8 0.1-7.8 1-10.1 4.4-1.4 2.1-1.7 5.8-0.1 7.8 2 2.4 6.4-1.3 5.1-3.9-0.8-1.8-2.9-1.5-4.6-1.4-3 0.3-6 0.4-8.9 0.6-1.1 0.1-2.1 0.1-3.2-0.1-2.9-0.7 1.5-5.9 2.4-2.4 0.5 1.9 0.1 4.3 0.1 6.3-0.1 2.1-0.1 4.2 0 6.4 0 1-0.1 2.5 0.7 3.3 0.9 1.1 2.9 0.3 3.8-0.3 1.3-1 1.2-3 0.3-4.2-1.3-1.8-5.1-1.3-6.9-0.5-3.2 1.5-4.7 5-5.1 8.3-0.5 4.3-0.2 9.4 3 12.7 1.8 1.8 4.5 2.3 6.9 2.1 3.6-0.3 3.5-5 0.4-6-3.6-1.2-3.1 3.6-3.1 5.7-0.1 2.1 0 4.3 0 6.5q0 1.2 0 2.5 0 0.8-0.1 1.7c-0.4 2.5-2.8 0.3-3.2-0.7-1.1-2.7 4.7-1.8 5.9-1.7 3.2 0.1 6.4 0.7 9.6 0.5 1.5-0.1 2.2-1.3 2.2-2.7 0-1.8-1.6-2.9-3.2-3.2-3.3-0.8-3.4 4.2-2.9 6.2 0.7 3.1 3.4 5 6.3 6 6.8 2.2 16.6-0.7 15.9-9.1-0.3-3.6-4.1-4.2-5.9-1.2-0.6 1-0.5 2.9 0.6 3.5 1.9 1.2 5.5 0.4 7.6 0.2 2.4-0.1 4.8-0.4 7.1-0.4 2.4 0.1 2.6 2.2 0.8 3.6-2.2 1.5-2.1-2.8-2.1-3.5 0-4 0.4-8.1-0.1-12.1-0.1-1.1-0.5-1.7-1.6-1.9-1.3-0.2-3.4 0.6-3.6 2-0.6 3.9 2.5 4.2 5.5 4 8.3-0.7 8.3-13.5 5.8-19-1-2.4-3.3-4.3-6-4.5-1.2-0.1-2.8-0.4-3.8 0.2-1.3 0.7-2.1 2.6-1.4 4 0.6 1.2 2.1 2 3.5 1.8 1.3-0.3 1.5-1.1 1.6-2.3 0.5-3.9 0.1-8.1 0.1-12.1 0-1.5 0.5-4.7 2.8-2.5 0.8 0.8 1 2.4-0.3 2.8-0.7 0.2-1.5 0.2-2.2 0.2-3.3-0.1-6.6-0.5-9.9-0.7-1.9 0-4.2-0.4-4.7 2-0.5 2 1.3 3.5 3.1 3.9 3.7 0.8 3.5-5.2 2.6-7.3-1.8-4.2-6.5-5.4-10.7-5.5-1.2 0-1.1 1.8 0 1.8z" />
                    </g>
                    <g id="g380">
                        <path id="path382" class="s4"
                            d="m370.9 356c-0.1 2.1-0.1 4.1-0.1 6.2 0 1.6-0.3 2.9 0.8 4 3.7 3.7 10 5.8 15.1 6.2 3 0.2 6-0.8 8.6-2.1 2.1-1 5.2-2.7 6.4-4.8 0.6-0.9 0.2-3 0.1-4 0-2.1 0.1-4.3 0-6.4l-0.9 0.9c2 0.1 4.1 0 6.2 0.1 1.4 0 2.5 0.3 3.5-0.8 3.4-3.7 5.2-9.7 5.6-14.5 0.5-5.4-2-11.7-5.5-15.7-1-1.2-2.2-0.9-3.6-0.9-2.1 0-4.2 0-6.2 0.1q0.4 0.4 0.9 0.9c0-2.1 0-4.1 0-6.2 0-1.3 0.3-2.8-0.6-3.8-3.7-4.1-10.2-6.5-15.7-6-4.9 0.5-10.6 2.7-14.2 6.1-0.9 0.9-0.5 2.6-0.5 3.7 0 2.1 0 4.1 0.1 6.2q0.4-0.5 0.9-0.9c-2.1-0.1-4.2-0.1-6.3-0.1-1.2 0-2.7-0.3-3.7 0.6-4.2 3.8-6.7 10.6-6.4 16.2 0.3 5.2 2.7 11.2 6.2 15.2 0.9 1.1 2.1 0.8 3.5 0.8 2.2 0 4.5 0 6.7-0.1 1.2-0.1 1.2-1.9 0-1.8-3 0.1-6 0-9 0 0.6 0 0-0.2-0.2-0.5-0.4-0.5-0.7-0.9-1-1.4-0.7-1-1.2-2.1-1.7-3.2-1.3-2.6-2.2-5.5-2.6-8.4-0.7-5.5 1.9-11.7 5.8-15.6-0.1 0.1-0.6 0-0.1 0h0.9q1.3 0 2.6 0c1.8 0 3.5 0 5.3 0.1 0.5 0 0.9-0.4 0.9-0.9-0.1-3-0.1-6-0.1-9 0 0.6 1.1-0.5 1.5-0.9 1-0.6 2-1.1 3.1-1.7 2.4-1.2 5.1-2 7.9-2.5 3-0.5 6.1 0.2 8.9 1.4 1.3 0.6 2.4 1.3 3.6 2q0.9 0.6 1.6 1.3c0.2 0.2 0.8 1.1 0.8 0.4 0 3 0.1 6 0 9-0.1 0.5 0.4 0.9 0.9 0.9 1.5 0 3.1 0 4.7-0.1q1.4 0 2.7 0h0.9c0.5 0 0 0.1-0.1 0 3.7 3.5 5.6 9.9 5.3 14.8-0.3 4.5-2.2 10.1-5.3 13.5q0.6-0.1 0.2-0.1-0.3 0-0.7 0-1.2 0-2.5 0c-1.7 0-3.5 0-5.2 0-0.5-0.1-1 0.4-0.9 0.9 0.1 3.2 0 6.4 0 9.7 0 0.4 0 0 0-0.1-0.3 0.4-0.7 0.7-1 1.1-1.1 0.9-2.2 1.6-3.4 2.3-2.7 1.6-5.8 2.5-8.9 2.5-4.7-0.2-10.7-2.6-14.1-5.9 0.1 0.1 0 0.5 0 0v-0.8q0-1.3 0-2.6 0-2.7 0.1-5.3c0-1.2-1.8-1.2-1.8 0z" />
                    </g>
                    <g id="g384">
                        <path id="path386" class="s6"
                            d="m428.5 308.4c0 0 0 18.1-0.3 27.1-0.2 5.9 0.3 37.7 0.3 37.7h-1.3c0 0-0.5-31.8-0.3-37.7 0.3-9 0.3-27.1 0.3-27.1z" />
                    </g>
                    <g id="g388">
                        <path id="path390" class="s6"
                            d="m428 308.4c0 13.7-0.4 27.5-0.3 41.2q0.1 10.7 0.3 21.4 0 1 0 2c0 0.5 0.7-0.2 0-0.2-1 0-0.4 0.5-0.4 0.2q0-3.1-0.1-6.1c-0.1-10.1-0.3-20.1-0.2-30.2 0-5.7 0.2-11.5 0.3-17.3q0-4.2 0-8.5 0-1.1 0-2.2v-0.3q-0.7 0.5 0 0.4h0.9c0.5 0 0.5-0.9 0-0.9h-1.3c-0.3 0-0.5 0.2-0.5 0.5 0 11.2-0.3 22.4-0.3 33.6 0 10.4 0.2 20.8 0.3 31.2 0 0.2 0.2 0.4 0.5 0.4h1.3c0.2 0 0.4-0.2 0.4-0.4-0.1-10.3-0.3-20.5-0.3-30.8-0.1-11.3 0.3-22.7 0.3-34 0-0.6-0.9-0.6-0.9 0z" />
                    </g>
                    <g id="g392">
                        <path id="path394" class="s6"
                            d="m441.6 308.4c0 0 0 18.1-0.3 27.1-0.2 5.9 0.3 37.7 0.3 37.7h-1.3c0 0-0.5-31.8-0.3-37.7 0.3-9 0.3-27.1 0.3-27.1z" />
                    </g>
                    <g id="g396">
                        <path id="path398" class="s6"
                            d="m441.1 308.4c0 13.7-0.3 27.5-0.2 41.2q0.1 10.7 0.2 21.4 0 1 0 2c0.1 0.5 0.7-0.2 0-0.2-1 0-0.4 0.5-0.4 0.2q0-3.1-0.1-6.1c-0.1-10.1-0.3-20.1-0.2-30.2 0.1-5.7 0.2-11.5 0.3-17.3q0-4.2 0-8.5 0-1.1 0-2.2v-0.3q-0.6 0.5 0 0.4h0.9c0.6 0 0.6-0.9 0-0.9h-1.3c-0.3 0-0.5 0.2-0.5 0.5 0 11.2-0.3 22.4-0.3 33.6 0.1 10.4 0.2 20.8 0.3 31.2 0.1 0.2 0.2 0.4 0.5 0.4h1.3c0.2 0 0.4-0.2 0.4-0.4-0.1-10.3-0.3-20.5-0.3-30.8-0.1-11.3 0.3-22.7 0.3-34 0-0.6-0.9-0.6-0.9 0z" />
                    </g>
                    <g id="g400">
                        <path id="path402" class="s6"
                            d="m436.7 308.4c0 0 0 18.1-0.3 27.1-0.2 5.9 0.3 37.7 0.3 37.7h-5.3c0 0-0.5-31.8-0.3-37.7 0.3-9 0.3-27.1 0.3-27.1z" />
                    </g>
                    <g id="g404">
                        <path id="path406" class="s6"
                            d="m436.3 308.4c0 13.7-0.4 27.5-0.3 41.2q0.1 10.7 0.2 21.4 0 1 0.1 2c0 0.5 0.5-0.2 0.2-0.2h-2.5-2.2c-0.7 0 0 0.5 0 0.3q0-1.1 0-2.1c-0.1-11.4-0.4-22.9-0.3-34.3 0.1-7 0.3-14 0.3-21.1q0-3.5 0-7c0-0.5-0.6 0.2-0.2 0.2h1.6 3.5c0.6 0 0.6-0.9 0-0.9h-5.3c-0.2 0-0.4 0.2-0.4 0.5 0 11.2-0.4 22.4-0.4 33.6 0.1 10.4 0.2 20.8 0.4 31.2 0 0.2 0.2 0.4 0.4 0.4h5.3c0.2 0 0.4-0.2 0.4-0.4-0.1-10.3-0.3-20.5-0.3-30.8 0-11.3 0.3-22.7 0.3-34 0-0.6-0.8-0.6-0.8 0z" />
                    </g>
                    <g id="g408">
                        <path id="path410" class="s5"
                            d="m405.6 308c2.5 0 5.4 1.6 7.7 2.9 3.4 2 6.3 7.1 6.2 11.2 0-2.9 0.1-12 0-14.1z" />
                    </g>
                    <g id="g412">
                        <path id="path414" class="s5"
                            d="m405.6 308.4c6.9 0.4 13.5 6.7 13.4 13.7h0.9c0-4.7 0.3-9.5 0-14.1 0-0.3-0.2-0.5-0.4-0.5h-13.9c-0.6 0-0.6 0.9 0 0.9h12.6 0.8c0.8 0 0.1 0.1 0.1-0.2 0 1.3 0 2.7 0 4.1 0 3.2 0 6.5-0.1 9.8 0 0.6 0.9 0.6 0.9 0 0-7.5-6.9-14.2-14.3-14.6-0.6 0-0.6 0.9 0 0.9z" />
                    </g>
                    <g id="g416">
                        <path id="path418" class="s5"
                            d="m405.6 373.6c2.5 0 5.4-1.6 7.7-2.9 3.4-2 6.3-7.2 6.2-11.2 0 2.9 0.1 12 0 14.1z" />
                    </g>
                    <g id="g420">
                        <path id="path422" class="s5"
                            d="m405.6 374.1c7.4-0.5 14.3-7.1 14.3-14.6 0-0.6-0.9-0.6-0.9 0 0 3.1 0.1 6.2 0.1 9.3q0 2 0 4c0 0.8 0.3 0.4 0.2 0.4h-0.9-12.8c-0.6 0-0.6 0.9 0 0.9h13.9c0.2 0 0.4-0.2 0.4-0.5 0.3-4.7 0-9.4 0-14.1h-0.9c0.1 7-6.5 13.3-13.4 13.7-0.6 0-0.6 0.9 0 0.9z" />
                    </g>
                    <g id="g424">
                        <path id="path426" class="s5"
                            d="m368.5 308c-2.6 0-5.5 1.6-7.7 2.9-3.5 2-6.4 7.1-6.2 11.2 0-2.9-0.2-12 0-14.1z" />
                    </g>
                    <g id="g428">
                        <path id="path430" class="s5"
                            d="m368.5 307.5c-7.4 0.4-14.4 7.1-14.4 14.6 0 0.6 0.9 0.6 0.9 0 0-3.1-0.1-6.2-0.1-9.3q0-2 0.1-4c0-0.8-0.3-0.4-0.3-0.4h0.9 12.9c0.6 0 0.6-0.9 0-0.9h-13.9c-0.3 0-0.5 0.2-0.5 0.5-0.3 4.6 0 9.4 0 14.1h0.9c0-7 6.6-13.3 13.5-13.7 0.6 0 0.6-0.9 0-0.9z" />
                    </g>
                    <g id="g432">
                        <path id="path434" class="s5"
                            d="m368.5 373.6c-2.6 0-5.5-1.6-7.7-2.9-3.5-2-6.4-7.2-6.2-11.2 0 2.9-0.2 12 0 14.1z" />
                    </g>
                    <g id="g436">
                        <path id="path438" class="s5"
                            d="m368.5 373.2c-6.9-0.4-13.5-6.7-13.5-13.7h-0.9c0 4.7-0.3 9.4 0 14.1 0 0.3 0.2 0.5 0.5 0.5h13.9c0.6 0 0.6-0.9 0-0.9h-12.6-0.9c-0.7 0 0-0.1 0 0.2-0.1-1.4-0.1-2.7-0.1-4.1 0-3.3 0.1-6.5 0.1-9.8 0-0.6-0.9-0.6-0.9 0 0 7.5 7 14.2 14.4 14.6 0.6 0 0.6-0.9 0-0.9z" />
                    </g>
                    <g id="g440">
                        <path id="path442" class="s10"
                            d="m436.1 288.3l76.2-79.9-7.2-0.5-33.1-1.7c0 0-62.8 52.1-63 52.8-0.2 0.7 8.9 27.3 8.9 27.3z" />
                    </g>
                    <g id="g444">
                        <path id="path446" class="s2" d="m505 149.5l0.1 58.4-74.8 76.6-11.4-25.3 2.1-67z" />
                    </g>
                    <g id="g448">
                        <path id="path450" class="s3"
                            d="m431.8 243c0 0 1.1-1.1 2.9-3.2 1.9-2.1 4.6-5.1 7.9-8.6 3.3-3.5 7.1-7.6 11.3-12 4.1-4.3 8.5-8.9 13-13.6 4.5-4.5 9-9.1 13.2-13.4 4.2-4.3 8.2-8.2 11.6-11.6 3.4-3.4 6.3-6.2 8.3-8.2 2-1.9 3.2-3 3.2-3 0 0-1.1 1.2-3 3.3-1.9 2-4.6 5-7.9 8.5-3.3 3.5-7 7.7-11.2 12-4.2 4.3-8.6 9-13 13.6-4.5 4.6-9 9.1-13.2 13.4-4.2 4.3-8.2 8.3-11.6 11.7-3.4 3.4-6.3 6.1-8.3 8.1-2.1 1.9-3.2 3-3.2 3z" />
                    </g>
                    <g id="g452">
                        <path id="path454" class="s3"
                            d="m431.8 235.7c0 0 1.1-1.2 2.9-3.3 1.9-2 4.6-5 7.9-8.5 3.3-3.5 7.1-7.7 11.3-12 4.1-4.4 8.5-9 13-13.6 4.5-4.6 9-9.2 13.2-13.5 4.2-4.3 8.2-8.2 11.6-11.6 3.4-3.4 6.3-6.2 8.3-8.1 2-2 3.2-3.1 3.2-3.1 0 0-1.1 1.2-3 3.3-1.9 2.1-4.6 5.1-7.9 8.6-3.3 3.5-7 7.6-11.2 11.9-4.2 4.4-8.6 9-13 13.6-4.5 4.6-9 9.2-13.2 13.5-4.2 4.3-8.2 8.2-11.6 11.6-3.4 3.4-6.3 6.2-8.3 8.1-2.1 2-3.2 3.1-3.2 3.1z" />
                    </g>
                    <g id="g456">
                        <path id="path458" class="s3"
                            d="m431.8 250.4c0 0 1.1-1.2 2.9-3.3 1.9-2 4.6-5 7.9-8.5 3.3-3.5 7.1-7.7 11.3-12 4.1-4.3 8.5-9 13-13.6 4.5-4.6 9-9.2 13.2-13.5 4.2-4.2 8.2-8.2 11.6-11.6 3.4-3.4 6.3-6.1 8.3-8.1 2-1.9 3.2-3.1 3.2-3.1 0 0-1.1 1.2-3 3.3-1.9 2.1-4.6 5.1-7.9 8.6-3.3 3.5-7 7.6-11.2 11.9-4.2 4.4-8.6 9-13 13.6-4.5 4.6-9 9.2-13.2 13.5-4.2 4.3-8.2 8.2-11.6 11.6-3.4 3.4-6.3 6.2-8.3 8.2-2.1 1.9-3.2 3-3.2 3z" />
                    </g>
                    <g id="g460">
                        <path id="path462" class="s3"
                            d="m431.8 257.8c0 0 1.1-1.2 2.9-3.3 1.9-2.1 4.6-5.1 7.9-8.6 3.3-3.5 7.1-7.6 11.3-11.9 4.1-4.4 8.5-9 13-13.6 4.5-4.6 9-9.2 13.2-13.5 4.2-4.3 8.2-8.2 11.6-11.6 3.4-3.4 6.3-6.2 8.3-8.2 2-1.9 3.2-3 3.2-3 0 0-1.1 1.2-3 3.3-1.9 2-4.6 5-7.9 8.5-3.3 3.5-7 7.7-11.2 12-4.2 4.3-8.6 9-13 13.6-4.5 4.6-9 9.2-13.2 13.5-4.2 4.2-8.2 8.2-11.6 11.6-3.4 3.4-6.3 6.1-8.3 8.1-2.1 2-3.2 3.1-3.2 3.1z" />
                    </g>
                    <g id="g464">
                        <path id="path466" class="s3"
                            d="m431.8 265.1c0 0 1.1-1.2 2.9-3.3 1.9-2 4.6-5 7.9-8.5 3.3-3.5 7.1-7.6 11.3-12 4.1-4.3 8.5-9 13-13.6 4.5-4.6 9-9.1 13.2-13.4 4.2-4.3 8.2-8.3 11.6-11.7 3.4-3.4 6.3-6.1 8.3-8.1 2-1.9 3.2-3 3.2-3 0 0-1.1 1.1-3 3.2-1.9 2.1-4.6 5.1-7.9 8.6-3.3 3.5-7 7.6-11.2 12-4.2 4.3-8.6 8.9-13 13.6-4.5 4.5-9 9.1-13.2 13.4-4.2 4.3-8.2 8.2-11.6 11.6-3.4 3.4-6.3 6.2-8.3 8.2-2.1 1.9-3.2 3-3.2 3z" />
                    </g>
                    <g id="g468">
                        <path id="path470" class="s3"
                            d="m431.8 272.5c0 0 1.1-1.2 2.9-3.3 1.9-2.1 4.6-5.1 7.9-8.6 3.3-3.5 7.1-7.6 11.3-11.9 4.1-4.4 8.5-9 13-13.6 4.5-4.6 9-9.2 13.2-13.5 4.2-4.3 8.2-8.2 11.6-11.6 3.4-3.4 6.3-6.2 8.3-8.1 2-2 3.2-3.1 3.2-3.1 0 0-1.1 1.2-3 3.3-1.9 2-4.6 5-7.9 8.5-3.3 3.5-7 7.7-11.2 12-4.2 4.4-8.6 9-13 13.6-4.5 4.6-9 9.2-13.2 13.5-4.2 4.3-8.2 8.2-11.6 11.6-3.4 3.4-6.3 6.2-8.3 8.1-2.1 2-3.2 3.1-3.2 3.1z" />
                    </g>
                    <g id="g472">
                        <path id="path474" class="s3"
                            d="m431.8 279.8c0 0 1.1-1.2 2.9-3.2 1.9-2.1 4.6-5.1 7.9-8.6 3.3-3.5 7.1-7.6 11.3-12 4.1-4.3 8.5-8.9 13-13.6 4.5-4.6 9-9.1 13.2-13.4 4.2-4.3 8.2-8.2 11.6-11.6 3.4-3.5 6.3-6.2 8.3-8.2 2-1.9 3.2-3 3.2-3 0 0-1.1 1.2-3 3.2-1.9 2.1-4.6 5.1-7.9 8.6-3.3 3.5-7 7.6-11.2 12-4.2 4.3-8.6 8.9-13 13.6-4.5 4.6-9 9.1-13.2 13.4-4.2 4.3-8.2 8.2-11.6 11.6-3.4 3.4-6.3 6.2-8.3 8.2-2.1 1.9-3.2 3-3.2 3z" />
                    </g>
                    <g id="g476">
                        <path id="path478" class="s10"
                            d="m96.2 261.5c0.1-11.7-0.1-30.4 6.9-37.7 18.5-19.1 74.5-77.7 74.5-77.7l334.6-0.4c0 0-57.7 58.6-76.2 77.7-7 7.3-6.8 26-6.9 37.7z" />
                    </g>
                    <g id="g480">
                        <path id="path482" class="s11"
                            d="m101.1 291.1c-4.3-0.1-5-15-4.9-28.1 0.1-12.2-0.1-31.6 6.9-39.2l332.9-0.4c-7 7.6-6.8 27-6.9 39.2-0.1 12.6 0.5 26.9 4.4 28z" />
                    </g>
                    <g id="g484">
                        <path id="path486" class="s12"
                            d="m434 290.6c-0.7 0-1.2-0.1-1.7-0.3-3.1-1.3-5.9-5.7-5.7-29.2v-1.6c0.1-12.7 0.2-30.2 7.6-37.8 18.3-18.9 73.9-75.4 74.5-76 1-1 2.5-1 3.5 0 1 0.9 1 2.5 0 3.5-0.5 0.5-56.1 57-74.4 75.9-6 6.3-6.1 23.2-6.2 34.4v1.6c-0.2 19.4 1.8 23.6 2.5 24.5 0.2-0.2 0.5-0.4 0.9-0.8l74.4-75.9c1-1 2.5-1 3.5-0.1 1 1 1 2.6 0.1 3.5l-74.5 76c-1.7 1.8-3.3 2.3-4.5 2.3z" />
                    </g>
                    <g id="g488">
                        <path id="path490" fill-rule="evenodd" class="s4"
                            d="m173.5 261.5c0.7 1.4-1.4 2.7-2.1 1.3q-0.4-1-0.8-1.9c-1.3 3.2-2.6 6.5-4 9.7-1.6 3.8-2.6 9.1-7.3 10-4.2 0.8-6.9-0.6-8.4-4.4q-2.4-5.9-4.7-11.7-0.8-1.7-1.5-3.5-0.8 2-1.7 4.1-2.2 5.6-4.5 11.1c-1.4 3.6-4.6 4.5-8.3 4.1-3.5-0.4-4.3-2.5-5.4-5.3q-2.5-6.2-4.9-12.4-0.3-0.9-0.7-1.8-2.4 6.1-4.7 12.2c-0.6 1.4-3 0.8-2.4-0.7q2.9-7.4 5.9-14.8-3-7.7-5.9-15.4c-0.6-1.4 1.8-2.1 2.4-0.6q2.4 6.3 4.8 12.6 0.9-2.3 1.8-4.6c1.4-3.6 2.9-7.2 4.4-10.8 1.4-3.3 4.7-4.1 8.2-3.4 3.6 0.7 4.3 2.8 5.6 5.8q2.6 6.5 5.2 12.9 0.1 0.3 0.2 0.5 1-2.3 1.9-4.7 2.3-5.5 4.5-10.9c1.5-3.9 5.4-5.1 9.3-3.7 3.9 1.5 5 6.8 6.5 10.4 1.3 3 2.5 6 3.7 9q0.4-0.9 0.8-1.8c0.7-1.5 2.8-0.2 2.1 1.2q-0.8 1.9-1.6 3.8 0.8 1.9 1.6 3.7zm-30.1-3.7q-3.7-9.3-7.5-18.5c-0.8-2.1-4.8-2.1-6.6-1.4-1.2 0.4-1.5 1.5-2 2.6-1.6 4-3.2 8-4.7 11.9q-1 2.6-2 5.1 1.3 3.4 2.6 6.8c1.4 3.8 2.9 7.6 4.4 11.3 0.7 1.7 1.7 2.4 3.8 2.4 1.9-0.1 3.9-0.3 4.7-2.2q3.6-9 7.3-18zm25.8 0c-1.6-4.1-3.2-8.2-4.9-12.3q-1-2.3-2.1-4.7c-0.3-0.7-0.8-2.4-1.5-2.8-2.3-1.3-6.1-1.6-7.2 1.3q-3.7 9.2-7.5 18.5 2.3 5.6 4.6 11.1c0.9 2.4 2.3 8.9 5.3 9.4 2.6 0.5 4.7-0.2 5.8-2.6 1.3-2.6 2.4-5.2 3.5-7.9 1.4-3.3 2.7-6.7 4-10z" />
                    </g>
                    <g id="g492">
                        <path id="path494" class="s6"
                            d="m177.3 271.4c-2.9 0.2-4.6-2-4.9-4.7-0.4-3.5 2.2-5.4 5.4-5.4 7.9 0 8.8 11 4.2 15.3-2.6 2.4-6.9 2.2-9.9 0.9-3.8-1.6-6.1-5.7-7.9-9.1-2.4-4.9-4.3-10-6.4-15.1-2-5-4-10.1-6.4-15-1.7-3.5-6.1-4.5-9.6-3.1-2.9 1.1-3.7 5.2-4.7 7.8q-2.9 7.1-5.7 14.1-2.9 7.1-5.8 14.2-0.9 2.1-1.7 4.3c-0.9 2-2.6 2.3-4.8 2.4-2.6 0-3.3-1.1-4.1-3.2-0.9-2.4-1.8-4.8-2.7-7.1q-1.2-3.4-2.4-6.8-0.4-1.2-0.8-2.4c-0.3-0.8-0.1-1.2-0.4-0.4q1.9-5.4 3.9-10.8 1.1-3.3 2.4-6.6c0.9-2.4 1.9-3.2 4.7-3.1 4.3 0 4.7 3.8 6.1 7.1q2.9 7.2 5.8 14.3 2.7 6.8 5.5 13.5c1 2.6 1.8 6.7 4.7 7.8 3.5 1.4 7.9 0.4 9.6-3.1 2.4-4.8 4.4-10 6.4-15 2.1-5 4.1-10.1 6.4-15 3-6.3 10.5-14 17.8-8.3 5.5 4.4 3.1 14.8-4.2 15.4-7 0.5-7.1-10.6-0.5-10.2 1.5 0.1 1.5-2.3 0-2.4-4.5-0.3-7.2 3.5-7.4 7.6-0.2 5 4.1 7.7 8.6 7.3 4.9-0.4 8.5-5 8.9-9.7 0.4-5.4-2.6-10.4-8-11.9-12.6-3.6-18.1 12.4-21.7 21.2-2.4 5.7-4.6 11.3-7.1 16.9-0.6 1.4-1.2 3.9-2.6 4.6-2.2 1.2-5.8 1.2-6.8-1.5-3.4-8.6-7-17.2-10.5-25.8q-2.2-5.5-4.5-11.1c-1.4-3.6-4.6-4.5-8.4-4.1-4.2 0.5-4.8 3.9-6.1 7.3-1.7 4.5-3.3 9-4.9 13.5-0.8 2.4 0.2 4.1 1.1 6.5 1.6 4.6 3.3 9.2 5.1 13.7 1.5 4 4.9 4.7 8.9 3.9 3.4-0.7 4.1-3.3 5.2-6.1q5.7-13.9 11.4-27.9c1.1-3 2.2-8.7 5.9-9 2.2-0.2 3.9 0.5 4.9 2.4 1.2 2.5 2.3 5 3.3 7.6 2.3 5.3 4.4 10.7 6.7 16 2.2 5.3 4.4 11.4 9.1 15 4.8 3.6 12.6 4.1 16.5-1.1 3.7-4.7 3.4-12.4-1.6-16.2-4.4-3.2-11.1-2.6-13 3-1.7 4.7 1.8 10.3 7 10 1.5 0 1.5-2.5 0-2.4z" />
                    </g>
                    <g id="g496">
                        <path id="path498" fill-rule="evenodd" class="s4"
                            d="m249.4 279.2c0 0.5-0.4 0.9-0.9 0.9-2.3 0-5.3-0.7-6.1-2.6-0.5-1.2-3.6-9-7-17.3-2.9 7.2-6.2 15.3-7.9 18.2-0.7 1.3-3.7 2.3-6.3 2.1-2.3-0.1-4-1.2-4.7-3.1-0.8-1.9-4.1-10-7-17.2-3.4 8.3-6.5 16.1-7 17.3-0.8 1.8-3.7 2.6-5.9 2.6-0.5 0-0.9-0.4-0.9-0.9 0-0.5 0.4-0.9 0.9-0.9 2-0.1 3.8-0.7 4.2-1.5 0.5-1.3 4.1-10.1 7.7-19-3.6-9-7.2-17.8-7.7-19-0.4-0.8-2.2-1.5-4.2-1.5-0.5-0.1-0.9-0.5-0.9-1 0-0.5 0.4-0.9 0.9-0.9 2.2 0.1 5.1 0.8 5.9 2.7 0.5 1.2 3.6 8.9 7 17.2 2.9-7.2 6.2-15.2 7-17.2 0.7-1.9 2.4-3 4.7-3.1 2.6-0.2 5.6 0.8 6.3 2.1 1.7 2.9 5 11.1 7.9 18.2 3.4-8.3 6.5-16 7-17.2 0.8-2 3.8-2.7 6.1-2.7 0.5 0 0.9 0.4 0.9 0.9 0 0.5-0.4 1-0.9 1-2.1 0-4 0.6-4.4 1.5-0.5 1.2-4.1 10-7.7 19 3.6 8.9 7.2 17.7 7.7 19 0.4 0.8 2.3 1.5 4.4 1.5 0.5 0 0.9 0.4 0.9 0.9zm-15-21.4l-0.7-1.7c-2.7-6.8-6.2-15.3-7.8-18.1-0.3-0.4-2.6-1.4-4.9-1.2q-2.2 0.3-2.8 2c-0.9 2.1-4.7 11.4-7.7 19 3 7.5 6.8 16.8 7.7 19q0.6 1.6 2.8 1.9c2.3 0.3 4.6-0.7 4.9-1.2 1.6-2.8 5.1-11.3 7.8-18z" />
                    </g>
                    <g id="g500">
                        <path id="path502" fill-rule="evenodd" class="s6"
                            d="m222.4 257.8q0 0.1-0.1 0.3c-3.6 9.1-7.3 18.1-7.8 19.4-0.8 1.8-3.5 2.5-5.7 2.6-2.2 0.1-4.9-0.4-5.7-2.1-1.2-2.5-7.1-19.2-7.4-19.9q-0.1-0.3 0-0.6c0.3-0.8 6.2-17.5 7.4-19.9 0.8-1.7 3.5-2.2 5.7-2.2 2.2 0.1 4.9 0.9 5.7 2.7 0.5 1.3 4.2 10.3 7.8 19.3q0.1 0.2 0.1 0.4zm-24.9 0c0.9 2.3 6.1 17.2 7.2 19.3 0.3 0.6 1.8 1.2 4 1.2 2-0.1 3.7-0.8 4.1-1.5 0.5-1.3 4.1-10.1 7.7-19-3.6-9-7.2-17.8-7.7-19-0.4-0.8-2.1-1.5-4.1-1.5-2.2-0.1-3.7 0.5-4 1.1-1.1 2.1-6.3 17-7.2 19.4z" />
                    </g>
                    <g id="g504">
                        <path id="path506" fill-rule="evenodd" class="s6"
                            d="m248.3 257.8q0 0.1 0 0.3l-0.9 2c-2.9 7.2-6.3 15.4-7.9 18.3-0.7 1.3-3.8 2.3-6.3 2.1-2.3-0.1-4-1.2-4.8-3.1-0.8-2.1-4.7-11.7-7.8-19.3q-0.1-0.3 0-0.7c3.1-7.6 7-17.1 7.8-19.3 0.8-1.9 2.5-3 4.8-3.1 2.5-0.2 5.6 0.8 6.3 2.1 1.6 2.9 5 11.1 7.9 18.3l0.9 2q0 0.2 0 0.4zm-25.8 0c3 7.5 6.8 16.8 7.6 19q0.7 1.6 2.9 1.9c2.3 0.3 4.6-0.7 4.9-1.2 1.6-2.8 5.1-11.3 7.8-18l0.7-1.7-0.7-1.7c-2.7-6.8-6.2-15.3-7.8-18.1-0.3-0.4-2.6-1.4-4.9-1.2q-2.2 0.3-2.9 2c-0.8 2.1-4.6 11.4-7.6 19z" />
                    </g>
                    <g id="g508">
                        <path id="path510" fill-rule="evenodd" class="s4"
                            d="m408.1 273q-2.4-6.1-4.8-12.2-1 2.6-2 5.3c-1.4 3.5-2.7 7.1-4.2 10.7-1.4 3.3-4.7 4.1-8.2 3.4-3.6-0.7-4.3-2.8-5.6-5.8q-2.6-6.5-5.2-12.9-0.1-0.3-0.2-0.5-1 2.4-2 4.7-2.2 5.5-4.4 11c-1.5 3.8-5.4 5.1-9.3 3.6-3.9-1.4-5.1-6.8-6.6-10.4-1.2-3-2.4-6-3.6-9q-0.4 0.9-0.8 1.9c-0.7 1.4-2.8 0.1-2.1-1.3q0.8-1.8 1.6-3.7-0.8-1.9-1.6-3.8c-0.7-1.4 1.4-2.7 2.1-1.2q0.4 0.9 0.8 1.9c1.4-3.5 2.8-7 4.2-10.5 1.8-4.2 2.8-8.8 7.9-9.4 4.4-0.6 6.4 1.5 7.9 5.2q2.4 6.1 4.9 12.2 0.5 1.2 1 2.3 0.6-1.4 1.2-2.9 2.3-5.9 4.7-11.8c1.4-3.3 3.6-4.8 7.4-4.7 3.7 0.2 5.1 1.6 6.4 4.8q2.4 5.9 4.8 11.9 0.4 1.2 0.9 2.3 2.4-6.3 4.8-12.6c0.6-1.5 2.9-0.8 2.4 0.6q-2.9 7.7-5.9 15.4 3 7.4 5.9 14.8c0.6 1.5-1.8 2.1-2.4 0.7zm-31.5-15.2q-2.3-5.6-4.6-11.2c-0.9-2.4-2.3-8.9-5.3-9.4-2.6-0.4-4.7 0.2-5.9 2.6-1.2 2.6-2.3 5.2-3.4 7.9-1.4 3.3-2.7 6.7-4.1 10.1 1.6 3.8 3.1 7.7 4.7 11.5 1.1 2.5 2 5.9 3.7 8.1 1.4 1.9 6.4 1.3 7.2-0.8 2.5-6.3 5.1-12.6 7.7-18.8zm25.4-0.3q-1.2-3.1-2.4-6.2c-1.5-3.8-3-7.6-4.6-11.3-0.8-1.8-1.7-2.5-3.8-2.4-2 0-3.9 0.2-4.7 2.1q-3.7 9-7.3 18.1 3.8 9.4 7.6 18.8c0.7 1.7 6.7 2.1 7.6 0.3 0.4-0.8 0.7-1.7 1.1-2.5q2.4-6.2 4.8-12.4 0.9-2.3 1.7-4.5z" />
                    </g>
                    <g id="g512">
                        <path id="path514" class="s6"
                            d="m345.3 273.8c4.5 0.3 7.2-3.4 7.3-7.6 0.2-5-4-7.7-8.6-7.3-4.8 0.4-8.4 5-8.8 9.7-0.4 5.5 2.6 10.4 8 11.9 12.6 3.6 18.1-12.4 21.7-21.2 2.3-5.7 4.6-11.3 7.1-16.9 0.6-1.4 1.2-3.9 2.6-4.6 2.2-1.2 5.8-1.1 6.8 1.5 3.4 8.6 7 17.2 10.4 25.8q2.3 5.6 4.6 11.1c1.4 3.6 4.6 4.5 8.3 4.1 4.2-0.4 4.9-3.9 6.2-7.3 1.7-4.5 3.3-9 4.8-13.5 0.9-2.4-0.2-4.1-1-6.5-1.7-4.6-3.3-9.2-5.1-13.7-1.5-4-4.9-4.7-9-3.9-3.3 0.7-4 3.3-5.1 6.1q-5.7 14-11.4 28c-1.2 2.9-2.2 8.6-5.9 8.9-2.2 0.2-4-0.5-4.9-2.4-1.2-2.5-2.3-5-3.3-7.5-2.3-5.4-4.4-10.8-6.7-16.1-2.2-5.3-4.4-11.4-9.1-14.9-4.8-3.7-12.6-4.1-16.5 1-3.7 4.8-3.4 12.4 1.6 16.2 4.3 3.3 11.1 2.6 13-3 1.6-4.7-1.8-10.3-7-10-1.5 0.1-1.6 2.5 0 2.4 2.9-0.1 4.6 2 4.9 4.7 0.4 3.5-2.2 5.5-5.5 5.5-7.9-0.1-8.7-11-4.1-15.4 2.6-2.4 6.9-2.1 9.9-0.8 3.8 1.6 6.1 5.6 7.9 9.1 2.4 4.8 4.3 10 6.3 15 2.1 5 4.1 10.1 6.5 15 1.6 3.5 6.1 4.5 9.6 3.1 2.8-1.1 3.7-5.2 4.7-7.8q2.9-7.1 5.7-14.1 2.9-7.1 5.8-14.2 0.9-2.1 1.7-4.3c0.9-2 2.6-2.3 4.8-2.3 2.6-0.1 3.3 1 4.1 3.1q1.4 3.6 2.6 7.2 1.3 3.4 2.5 6.7 0.4 1.2 0.8 2.4c0.3 0.8 0.1 1.3 0.4 0.5q-1.9 5.4-3.9 10.8-1.2 3.2-2.4 6.5c-1 2.5-1.9 3.2-4.8 3.2-4.2-0.1-4.7-3.9-6-7.2q-2.9-7.1-5.8-14.3-2.8-6.7-5.5-13.5c-1-2.6-1.9-6.7-4.7-7.8-3.6-1.4-7.9-0.4-9.6 3.1-2.4 4.9-4.4 10-6.5 15-2 5.1-4 10.2-6.3 15.1-3.1 6.3-10.5 13.9-17.8 8.2-5.6-4.4-3.1-14.7 4.1-15.3 7.1-0.6 7.2 10.5 0.6 10.1-1.6-0.1-1.5 2.4 0 2.4z" />
                    </g>
                    <g id="g516">
                        <path id="path518" fill-rule="evenodd" class="s4"
                            d="m321.8 238.8c-0.5 1.2-4.1 10-7.7 19 3.6 8.9 7.2 17.7 7.7 19 0.3 0.8 2.2 1.4 4.2 1.5 0.5 0 0.9 0.4 0.9 0.9 0 0.5-0.4 0.9-0.9 0.9-2.2 0-5.1-0.8-5.9-2.6-0.5-1.2-3.6-9-7-17.3-2.9 7.2-6.2 15.3-7 17.2-0.7 1.9-2.4 3-4.7 3.1-2.6 0.2-5.6-0.8-6.3-2.1-1.7-2.9-5-11-7.9-18.2-3.4 8.3-6.6 16.1-7.1 17.3-0.8 1.9-3.7 2.6-6 2.6-0.5 0-0.9-0.4-0.9-0.9 0-0.5 0.4-0.9 0.9-0.9 2.1 0 4-0.7 4.3-1.5 0.6-1.3 4.2-10.1 7.8-19-3.6-9-7.2-17.8-7.8-19-0.3-0.9-2.2-1.5-4.3-1.5-0.5-0.1-0.9-0.5-0.9-1 0-0.5 0.4-0.9 0.9-0.9 2.3 0 5.2 0.7 6 2.7 0.5 1.2 3.7 8.9 7.1 17.2 2.9-7.1 6.2-15.3 7.9-18.2 0.7-1.3 3.7-2.3 6.3-2.1 2.3 0.1 4 1.2 4.7 3.1 0.8 2 4.1 10 7 17.2 3.4-8.3 6.5-16 7-17.2 0.8-1.9 3.7-2.6 5.9-2.7 0.5 0 0.9 0.4 0.9 0.9 0 0.5-0.4 0.9-0.9 1-2 0-3.9 0.6-4.2 1.5zm-9.7 19c-3.1-7.6-6.8-16.9-7.7-19q-0.6-1.7-2.8-2c-2.3-0.2-4.6 0.8-4.9 1.2-1.6 2.8-5.1 11.3-7.9 18.1l-0.7 1.7 0.7 1.7c2.8 6.7 6.3 15.2 7.9 18 0.3 0.5 2.6 1.5 4.9 1.2q2.2-0.3 2.8-1.9c0.9-2.2 4.6-11.5 7.7-19z" />
                    </g>
                    <g id="g520">
                        <path id="path522" fill-rule="evenodd" class="s6"
                            d="m300.3 257.4c3.6-9 7.3-18 7.8-19.3 0.8-1.8 3.5-2.6 5.7-2.7 2.2 0 4.9 0.5 5.7 2.2 1.2 2.4 7.1 19.1 7.4 19.9q0.1 0.3 0 0.6c-0.3 0.7-6.2 17.4-7.4 19.9-0.8 1.7-3.5 2.2-5.7 2.1-2.2-0.1-4.9-0.8-5.7-2.6-0.5-1.3-4.2-10.3-7.8-19.4q-0.1-0.2-0.1-0.3 0-0.2 0.1-0.4zm17.6-19c-0.3-0.6-1.8-1.2-4-1.1-2 0-3.8 0.7-4.1 1.5-0.5 1.2-4.1 10-7.7 19 3.6 8.9 7.2 17.7 7.7 19 0.3 0.7 2.1 1.4 4.1 1.5 2.2 0 3.7-0.6 4-1.2 1-2.1 6.3-17 7.1-19.3-0.8-2.4-6.1-17.3-7.1-19.4z" />
                    </g>
                    <g id="g524">
                        <path id="path526" fill-rule="evenodd" class="s6"
                            d="m274.3 257.4l0.9-2c2.9-7.2 6.2-15.4 7.9-18.3 0.7-1.3 3.7-2.3 6.3-2.1 2.3 0.1 4 1.2 4.7 3.1 0.9 2.2 4.8 11.7 7.9 19.3q0.1 0.4 0 0.7c-3.1 7.6-7 17.2-7.9 19.3-0.7 1.9-2.4 3-4.7 3.1-2.6 0.2-5.6-0.8-6.3-2.1-1.7-2.9-5-11.1-7.9-18.3l-0.9-2q0-0.2 0-0.3 0-0.2 0-0.4zm18.1-18.6q-0.6-1.7-2.8-2c-2.3-0.2-4.6 0.8-4.9 1.2-1.6 2.8-5.1 11.3-7.8 18.1l-0.7 1.7 0.7 1.7c2.7 6.7 6.2 15.2 7.8 18 0.3 0.5 2.6 1.5 4.9 1.2q2.2-0.3 2.8-1.9c0.9-2.2 4.6-11.5 7.7-19-3.1-7.6-6.8-16.9-7.7-19z" />
                    </g>
                    <g id="g528">
                        <path id="path530" class="s6"
                            d="m249.6 223.6h-2.6c0 12 0.5 23.9 0.4 35.8 0 10.5-0.2 21-0.4 31.5h2.6c0.2-10.5 0.4-21 0.4-31.5 0.1-11.9-0.4-23.8-0.4-35.8z" />
                    </g>
                    <g id="g532">
                        <path id="path534" class="s9"
                            d="m254.6 223.6h-3.8c0 12 0.7 23.9 0.6 35.8 0 10.5-0.3 21-0.6 31.5l3.8-0.1c0.3-10.4 0.6-20.9 0.7-31.4 0.1-11.9-0.7-23.8-0.7-35.8z" />
                    </g>
                    <g id="g536">
                        <path id="path538" class="s6"
                            d="m197.6 223.7h-2.6c-0.1 11.9-0.5 23.8-0.5 35.7 0.1 10.5 0.3 21 0.4 31.5h2.6c-0.1-10.5-0.3-21-0.4-31.5 0-11.9 0.4-23.8 0.5-35.7z" />
                    </g>
                    <g id="g540">
                        <path id="path542" class="s9"
                            d="m193.8 223.7h-3.9c0 11.9-0.7 23.8-0.6 35.7 0 10.5 0.3 21 0.6 31.5h3.9c-0.3-10.5-0.6-21-0.7-31.5-0.1-11.9 0.6-23.8 0.7-35.7z" />
                    </g>
                    <g id="g544">
                        <path id="path546" class="s6"
                            d="m108.1 223.8h-5c-1.4 1.6-2.5 3.6-3.4 6-0.3 10-0.8 19.9-0.6 29.9 0.1 10.2 0.3 20.5 0.6 30.8 0.4 0.3 0.9 0.6 1.4 0.6h6.9c-0.3-22.5 0.4-44.8 0.1-67.3z" />
                    </g>
                    <g id="g548">
                        <path id="path550" class="s6"
                            d="m275.6 223.6h-2.6c0 11.9-0.5 23.9-0.4 35.8 0 10.5 0.2 20.9 0.4 31.4h2.6c-0.2-10.5-0.4-20.9-0.4-31.4-0.1-11.9 0.4-23.9 0.4-35.8z" />
                    </g>
                    <g id="g552">
                        <path id="path554" class="s9"
                            d="m271.8 223.6h-3.8c-0.1 11.9-0.8 23.9-0.7 35.8 0.1 10.5 0.3 21 0.6 31.4h3.9c-0.3-10.5-0.6-20.9-0.7-31.4-0.1-11.9 0.7-23.9 0.7-35.8z" />
                    </g>
                    <g id="g556">
                        <path id="path558" class="s6"
                            d="m327.6 223.5h-2.6c0 12 0.5 23.9 0.5 35.9-0.1 10.4-0.3 20.9-0.5 31.3h2.6c0.2-10.4 0.4-20.9 0.4-31.3 0.1-12-0.4-23.9-0.4-35.9z" />
                    </g>
                    <g id="g560">
                        <path id="path562" class="s9"
                            d="m332.6 223.5h-3.8c0 12 0.8 23.9 0.7 35.9-0.1 10.4-0.4 20.9-0.7 31.3h3.9c0.3-10.4 0.5-20.9 0.6-31.3 0.1-12-0.6-23.9-0.7-35.9z" />
                    </g>
                    <g id="g564">
                        <path id="path566" class="s6"
                            d="m422.8 223.4h-8.3c-0.4 22.4 0.3 44.8 0.1 67.2h8.2c0.3-10.3 0.6-20.6 0.7-30.9 0.2-12.1-0.6-24.2-0.7-36.3z" />
                    </g>
                    <g id="g568">
                        <path id="path570" class="s2" d="m397.1 95.8v51.8l-60.6 62.8c0 0-16.8-3.9-0.1-52.7z" />
                    </g>
                    <g id="g572">
                        <path id="path574" class="s3"
                            d="m331.1 172c0 0 1-1.1 2.7-3 1.7-1.9 4.2-4.7 7.2-7.9 3-3.2 6.5-7 10.3-11 3.8-3.9 7.8-8.2 11.9-12.4 4.1-4.2 8.2-8.4 12.1-12.4 3.8-3.9 7.5-7.5 10.7-10.6 3.1-3.1 5.8-5.6 7.6-7.4 1.9-1.8 2.9-2.8 2.9-2.8 0 0-1 1.1-2.7 3-1.7 1.9-4.2 4.6-7.2 7.8-3 3.3-6.5 7.1-10.3 11-3.8 4-7.8 8.3-11.9 12.5-4.1 4.2-8.2 8.4-12.1 12.3-3.9 4-7.5 7.6-10.7 10.7-3.1 3.1-5.8 5.6-7.6 7.4-1.9 1.8-2.9 2.8-2.9 2.8z" />
                    </g>
                    <g id="g576">
                        <path id="path578" class="s3"
                            d="m331.1 178.7c0 0 1-1.1 2.7-3 1.7-1.9 4.2-4.6 7.2-7.9 3-3.2 6.5-7 10.3-11 3.8-3.9 7.8-8.2 11.9-12.4 4.1-4.2 8.2-8.4 12.1-12.4 3.8-3.9 7.5-7.5 10.7-10.6 3.1-3.1 5.8-5.6 7.6-7.4 1.9-1.8 2.9-2.8 2.9-2.8 0 0-1 1.1-2.7 3-1.7 1.9-4.2 4.6-7.2 7.9-3 3.2-6.5 7-10.3 10.9-3.8 4-7.8 8.3-11.9 12.5-4.1 4.2-8.2 8.4-12.1 12.3-3.9 4-7.5 7.6-10.7 10.7-3.1 3.1-5.8 5.6-7.6 7.4-1.9 1.8-2.9 2.8-2.9 2.8z" />
                    </g>
                    <g id="g580">
                        <path id="path582" class="s3"
                            d="m331.1 185.4c0 0 1-1.1 2.7-3 1.7-1.9 4.2-4.6 7.2-7.8 3-3.3 6.5-7.1 10.3-11 3.8-4 7.8-8.3 11.9-12.5 4.1-4.2 8.2-8.4 12.1-12.3 3.8-4 7.5-7.6 10.7-10.7 3.1-3.1 5.8-5.6 7.6-7.4 1.9-1.8 2.9-2.8 2.9-2.8 0 0-1 1.1-2.7 3-1.7 1.9-4.2 4.6-7.2 7.9-3 3.2-6.5 7-10.3 11-3.8 3.9-7.8 8.2-11.9 12.4-4.1 4.2-8.2 8.4-12.1 12.4-3.9 3.9-7.5 7.5-10.7 10.6-3.1 3.1-5.8 5.6-7.6 7.4-1.9 1.8-2.9 2.8-2.9 2.8z" />
                    </g>
                    <g id="g584">
                        <path id="path586" class="s3"
                            d="m331.1 192.1c0 0 1-1.1 2.7-3 1.7-1.9 4.2-4.6 7.2-7.8 3-3.2 6.5-7 10.3-11 3.8-4 7.8-8.3 11.9-12.5 4.1-4.2 8.2-8.4 12.1-12.3 3.8-4 7.5-7.5 10.7-10.7 3.1-3.1 5.8-5.6 7.6-7.4 1.9-1.8 2.9-2.8 2.9-2.8 0 0-1 1.1-2.7 3-1.7 1.9-4.2 4.7-7.2 7.9-3 3.2-6.5 7-10.3 11-3.8 4-7.8 8.2-11.9 12.4-4.1 4.2-8.2 8.4-12.1 12.4-3.9 3.9-7.5 7.5-10.7 10.6-3.1 3.1-5.8 5.7-7.6 7.5-1.9 1.7-2.9 2.7-2.9 2.7z" />
                    </g>
                    <g id="g588">
                        <path id="path590" class="s3"
                            d="m331.1 198.9c0 0 1-1.1 2.7-3.1 1.7-1.8 4.2-4.6 7.2-7.8 3-3.2 6.5-7 10.3-11 3.8-4 7.8-8.2 11.9-12.5 4.1-4.2 8.2-8.4 12.1-12.3 3.8-3.9 7.5-7.5 10.7-10.7 3.1-3.1 5.8-5.6 7.6-7.4 1.9-1.8 2.9-2.8 2.9-2.8 0 0-1 1.1-2.7 3-1.7 1.9-4.2 4.7-7.2 7.9-3 3.2-6.5 7-10.3 11-3.8 4-7.8 8.2-11.9 12.5-4.1 4.2-8.2 8.4-12.1 12.3-3.9 3.9-7.5 7.5-10.7 10.6-3.1 3.1-5.8 5.7-7.6 7.5-1.9 1.7-2.9 2.8-2.9 2.8z" />
                    </g>
                    <g id="g592">
                        <path id="path594" class="s3"
                            d="m331.1 205.6c0 0 1-1.1 2.7-3 1.7-1.9 4.2-4.7 7.2-7.9 3-3.2 6.5-7 10.3-11 3.8-4 7.8-8.2 11.9-12.5 4.1-4.2 8.2-8.4 12.1-12.3 3.8-3.9 7.5-7.5 10.7-10.6 3.1-3.2 5.8-5.7 7.6-7.5 1.9-1.8 2.9-2.8 2.9-2.8 0 0-1 1.1-2.7 3-1.7 1.9-4.2 4.7-7.2 7.9-3 3.2-6.5 7-10.3 11-3.8 4-7.8 8.2-11.9 12.5-4.1 4.2-8.2 8.4-12.1 12.3-3.9 3.9-7.5 7.5-10.7 10.6-3.1 3.2-5.8 5.7-7.6 7.5-1.9 1.8-2.9 2.8-2.9 2.8z" />
                    </g>
                    <g id="g596">
                        <path id="path598" class="s13"
                            d="m336.4 157.7c15.1-15.6 62.4-63.7 62.4-63.7l-272.7 0.4c0 0-45.6 48.1-60.6 63.6z" />
                    </g>
                    <g id="g600">
                        <path id="path602" class="s14"
                            d="m62.8 213.2c-2.9-1.7-3.3-12.9-3.2-22.9 0-10-0.1-26 5.6-32.3l271.2-0.3c-5.7 6.2-5.6 22.2-5.6 32.3-0.1 10.4 0.4 22.2 3.6 23z" />
                    </g>
                    <g id="g604">
                        <path id="path606" class="s15"
                            d="m334.7 212.9c-0.5 0-1.1-0.1-1.5-0.3-3.1-1.2-5.1-5.8-4.9-24.2v-1.3c0.1-10.4 0.2-24.8 6.3-31.1 14.9-15.4 60.3-61.5 60.7-62 1-0.9 2.5-0.9 3.5 0 1 1 1 2.6 0 3.5-0.4 0.5-45.7 46.5-60.6 61.9-4.8 5-4.9 19.2-5 27.7v1.4c-0.1 13.7 1.1 17.9 1.8 19.2q0.1-0.1 0.2-0.3l60.7-61.9c0.9-1 2.5-1 3.5 0 1 1 1 2.5 0 3.5l-60.6 61.9c-1.6 1.6-2.9 2-4.1 2z" />
                    </g>
                    <g id="g608">
                        <path id="path610" class="s13"
                            d="m171.7 186.2c3.8-3.9 7.4-8 11.4-11.7 1-1 2-1.9 3.1-2.7 1-0.7 1-0.9 1.8-0.2 2.7 2.2 5.1 4.9 7.5 7.4 0.4 0.4 1.1 0.4 1.5 0 2.3-2.4 4.6-4.9 7.1-7.1 1-0.8 0.9-1 1.9-0.3 1.1 0.7 2.1 1.6 3 2.5 4.2 3.8 7.9 8.1 11.8 12.1v-1.5c-3.8 3.9-7.4 8-11.4 11.7-1 1-2 1.9-3.1 2.7-1 0.7-1 0.9-1.8 0.2-2.7-2.2-5.1-4.9-7.5-7.4-0.4-0.4-1.1-0.4-1.5 0-2.3 2.4-4.6 4.9-7.1 7.1-1 0.8-0.9 1-1.9 0.3-1.1-0.7-2.1-1.6-3-2.5-4.2-3.8-7.9-8.1-11.8-12.1-1-1-2.5 0.5-1.6 1.5 4.6 4.6 8.7 9.5 13.6 13.7 1.4 1.1 3.2 2.8 5 1.6 3.1-2.2 5.7-5.3 8.3-8.1h-1.5c2.5 2.7 5.1 5.6 8 7.8 1.9 1.5 3.4 0.2 5-1.1 5.1-4.1 9.3-9.2 13.9-13.9 0.4-0.4 0.4-1.1 0-1.5-4.6-4.6-8.7-9.5-13.6-13.7-1.4-1.2-3.2-2.8-5-1.6-3.1 2.2-5.7 5.3-8.3 8.1h1.5c-2.5-2.7-5.1-5.6-8-7.9-1.9-1.4-3.4-0.1-5 1.2-5.1 4.1-9.3 9.2-13.9 13.9-0.9 1 0.6 2.5 1.6 1.5z" />
                    </g>
                    <g id="g612">
                        <path id="path614" class="s7"
                            d="m125.6 181.2q4.3 4.5 8.7 8.9c2.4 2.5 4.5 5.5 8.3 5.7 2.5 0.1 5-2.6 4.6-5.1-0.4-2.3-2.6-4.7-4.3-6.2q-0.1 0.9-0.2 1.7c3-1.5 5.5-4.6 3.7-7.9-1.9-3.4-6-2.6-8.7-1-3.4 2.2-6.3 5.7-9.2 8.6q-1.3 1.3-2.6 2.5c-1.9 1.7-4.4 0.7-5.6-1.2-1.6-2.4 2.4-8.3 5.3-6 1 0.9 2.6-0.6 1.5-1.5-3.3-2.7-7.1 0.2-8.7 3.4-2 3.9 1 7.5 4.7 8.5 1.9 0.5 3.6-1.1 4.9-2.2 2.2-2.1 4.4-4.3 6.6-6.5 1.6-1.6 3.3-3.2 5.3-4.4q2.3-1.2 4.3 0.5c2.3 2-1.1 4.5-2.6 5.3-0.6 0.3-0.8 1.3-0.2 1.7 1.1 1 2.1 2.3 3 3.5 1.6 2.2-0.5 4.5-3 4-1.4-0.3-2.6-1.8-3.6-2.8-3.6-3.7-7.2-7.3-10.7-11-1-1-2.5 0.5-1.5 1.5z" />
                    </g>
                    <g id="g616">
                        <path id="path618" class="s7"
                            d="m157.4 179.7c-3.5 3.7-7.2 7.3-10.6 11-0.8 0.9-1.7 1.7-2.7 2.3-1.9 1.3-6-0.1-4.3-3 0.8-1.4 2.1-2.9 3.4-4 0.5-0.4 0.3-1.4-0.2-1.7-1.6-0.7-3.1-1.8-3.4-3.7-0.2-2.2 2.6-2.8 4.1-2.4 2.5 0.6 4.5 3 6.3 4.7 1.9 1.9 3.9 3.9 5.9 5.8 1.3 1.3 3.4 3.4 5.5 2.9 3.8-1 6.7-4.6 4.8-8.5-1.6-3.2-5.4-6.1-8.8-3.4-1 0.9 0.5 2.4 1.6 1.5 2.8-2.3 5.9 3 5.6 5.2-0.2 1.3-1.4 2.1-2.5 2.7-2.2 1.2-4.1-1.3-5.4-2.6-3.3-3.1-6.2-6.6-9.9-9.2-2.8-2-6.2-2-8.5 0.7-2.5 3.2 0.8 6.8 3.6 8.2q-0.1-0.8-0.2-1.7c-1.4 1.1-4 3.6-4.3 5.4-0.4 2.7 1.4 6 4.6 5.9 3.4-0.2 5.6-2.8 7.8-5.2 3-3.2 6.1-6.2 9.2-9.4 0.9-1-0.6-2.5-1.6-1.5z" />
                    </g>
                    <g id="g620">
                        <path id="path622" class="s13"
                            d="m107.3 203.4c0-6.5 0.6-12.9 0.1-19.3-0.2-1.8-0.2-4.2-2.4-4.6-3.7-0.7-7.8-0.3-11.6-0.2q0.5 0.5 1.1 1c0.1-3.7 0.3-7.5-0.2-11.2-0.3-2.3-2.2-2.4-4.2-2.7-6.6-0.7-13.2 0-19.7 0-0.6 0-1.1 0.5-1.1 1.1 0 6.4-0.6 12.9-0.1 19.3 0.2 1.8 0.3 4.2 2.4 4.6 3.7 0.7 7.8 0.3 11.6 0.2q-0.5-0.5-1.1-1c-0.1 3.6-0.3 7.5 0.2 11.2 0.3 2.3 2.2 2.4 4.3 2.7 6.5 0.7 13.1 0 19.6-0.1 1.4 0 1.4-2.1 0-2.1-5.4 0-10.9 0.4-16.3 0.2-1.4 0-2.8-0.1-4.2-0.3-1.1-0.2-1.3-0.1-1.4-1.2-0.3-3.4-0.1-7 0-10.4 0-0.6-0.5-1.1-1.1-1.1-3.3 0.1-6.7 0.1-10-0.1-1.3 0-1.4 0.1-1.6-1-0.3-1.3-0.3-2.7-0.3-4-0.3-5.6 0.1-11.2 0.2-16.9q-0.6 0.6-1.1 1.1c5.4 0 10.9-0.4 16.4-0.2 1.3 0 2.7 0.1 4.1 0.3 1.1 0.2 1.3 0.1 1.4 1.1 0.3 3.5 0.1 7.1 0 10.5 0 0.6 0.5 1.1 1.1 1.1 3.3-0.1 6.7-0.2 10 0 1.3 0.1 1.4 0 1.6 1.1 0.3 1.3 0.3 2.7 0.3 4 0.3 5.6-0.1 11.2-0.2 16.9 0 1.4 2.2 1.4 2.2 0z" />
                    </g>
                    <g id="g624">
                        <path id="path626" class="s7"
                            d="m265.4 179.7c-3.5 3.7-7.2 7.3-10.7 11-0.8 0.9-1.6 1.7-2.6 2.3-2 1.3-6-0.1-4.3-3 0.8-1.4 2.1-2.9 3.3-4 0.6-0.4 0.4-1.4-0.2-1.7-1.5-0.7-3.1-1.8-3.3-3.7-0.3-2.2 2.6-2.8 4.1-2.4 2.5 0.6 4.5 3 6.2 4.7 2 1.9 3.9 3.9 5.9 5.8 1.4 1.3 3.4 3.4 5.6 2.9 3.7-1 6.7-4.6 4.7-8.5-1.6-3.2-5.4-6.1-8.7-3.4-1.1 0.9 0.5 2.4 1.5 1.5 2.8-2.3 6 3 5.6 5.2-0.2 1.3-1.4 2.1-2.4 2.7-2.2 1.2-4.1-1.3-5.5-2.6-3.2-3.1-6.1-6.6-9.8-9.2-2.9-2-6.2-2-8.5 0.7-2.6 3.2 0.8 6.8 3.5 8.2q-0.1-0.8-0.2-1.7c-1.3 1.1-3.9 3.6-4.2 5.4-0.4 2.7 1.4 6 4.5 5.9 3.5-0.2 5.6-2.8 7.9-5.2 2.9-3.2 6.1-6.2 9.1-9.4 1-1-0.5-2.5-1.5-1.5z" />
                    </g>
                    <g id="g628">
                        <path id="path630" class="s7"
                            d="m233.5 181.2q4.3 4.5 8.7 8.9c2.5 2.5 4.6 5.5 8.3 5.7 2.5 0.1 5.1-2.6 4.7-5.1-0.4-2.3-2.6-4.7-4.4-6.2q-0.1 0.9-0.2 1.7c3-1.5 5.5-4.6 3.7-7.9-1.8-3.4-6-2.6-8.6-1-3.5 2.2-6.4 5.7-9.2 8.6q-1.3 1.3-2.7 2.5c-1.9 1.7-4.3 0.7-5.6-1.2-1.6-2.4 2.5-8.3 5.3-6 1.1 0.9 2.6-0.6 1.6-1.5-3.4-2.7-7.2 0.2-8.8 3.4-1.9 3.9 1 7.5 4.8 8.5 1.9 0.5 3.6-1.1 4.8-2.2 2.3-2.1 4.4-4.3 6.6-6.5 1.7-1.6 3.3-3.2 5.4-4.4q2.3-1.2 4.3 0.5c2.3 2-1.1 4.5-2.7 5.3-0.6 0.3-0.7 1.3-0.2 1.7 1.2 1 2.2 2.3 3.1 3.5 1.6 2.2-0.6 4.5-3 4-1.5-0.3-2.7-1.8-3.7-2.8-3.5-3.7-7.1-7.3-10.6-11-1-1-2.5 0.5-1.6 1.5z" />
                    </g>
                    <g id="g632">
                        <path id="path634" class="s13"
                            d="m287.3 203.4c-0.1-5.5-0.4-10.9-0.2-16.4 0-1.4 0.1-2.8 0.3-4.1 0.1-1.2 0.1-1.3 1.1-1.4 3.5-0.4 7-0.2 10.5-0.1 0.6 0 1.1-0.5 1.1-1.1-0.1-3.3-0.2-6.7 0-10 0.1-1.2-0.1-1.3 1.1-1.6 1.3-0.2 2.7-0.2 4-0.3 5.6-0.2 11.2 0.2 16.8 0.2q-0.5-0.5-1-1.1c0 5.5 0.3 10.9 0.2 16.4 0 1.4-0.1 2.8-0.3 4.1-0.2 1.2-0.1 1.3-1.2 1.4-3.4 0.4-7 0.2-10.5 0.1-0.5 0-1.1 0.5-1 1.1 0 3.3 0.1 6.6-0.1 10 0 1.2 0.1 1.3-1.1 1.5-1.2 0.3-2.6 0.3-3.9 0.4-5.6 0.2-11.3-0.2-16.9-0.2-1.4 0-1.4 2.1 0 2.1 6.4 0.1 12.8 0.6 19.3 0.1 1.8-0.1 4.2-0.2 4.6-2.4 0.7-3.7 0.3-7.8 0.2-11.5q-0.5 0.5-1.1 1c3.7 0.1 7.6 0.4 11.2-0.1 2.4-0.3 2.5-2.3 2.7-4.3 0.8-6.5 0.1-13.1 0-19.7 0-0.6-0.5-1.1-1.1-1.1-6.4 0-12.8-0.5-19.2 0-1.8 0.1-4.2 0.2-4.7 2.4-0.7 3.7-0.3 7.8-0.2 11.5q0.6-0.5 1.1-1c-3.7-0.1-7.5-0.4-11.2 0.1-2.3 0.3-2.5 2.3-2.7 4.3-0.7 6.5 0 13.1 0 19.7 0 1.4 2.2 1.4 2.2 0z" />
                    </g>
                    <g id="g636">
                        <path id="path638" class="s7"
                            d="m179.4 203.4c0-5.5-0.4-10.9-0.2-16.4 0-1.4 0.1-2.8 0.3-4.1 0.2-1.2 0.1-1.3 1.1-1.4 3.5-0.4 7.1-0.2 10.5-0.1 0.6 0 1.1-0.5 1.1-1.1-0.1-3.3-0.2-6.7 0-10 0.1-1.2 0-1.3 1.1-1.6 1.3-0.2 2.7-0.2 4-0.3 5.6-0.2 11.2 0.2 16.9 0.2q-0.6-0.5-1.1-1.1c0 5.5 0.4 10.9 0.2 16.4 0 1.4-0.1 2.8-0.3 4.1-0.2 1.2-0.1 1.3-1.1 1.4-3.5 0.4-7.1 0.2-10.5 0.1-0.6 0-1.1 0.5-1.1 1.1 0.1 3.3 0.1 6.6 0 10-0.1 1.2 0 1.3-1.1 1.5-1.3 0.3-2.7 0.3-4 0.4-5.6 0.2-11.2-0.2-16.9-0.2-1.4 0-1.4 2.1 0 2.1 6.4 0.1 12.9 0.6 19.3 0.1 1.8-0.1 4.2-0.2 4.6-2.4 0.7-3.7 0.3-7.8 0.2-11.5q-0.5 0.5-1 1c3.7 0.1 7.5 0.4 11.2-0.1 2.3-0.3 2.4-2.3 2.7-4.3 0.7-6.5 0-13.1-0.1-19.7 0-0.6-0.4-1.1-1-1.1-6.4 0-12.9-0.5-19.3 0-1.8 0.1-4.2 0.2-4.6 2.4-0.7 3.7-0.3 7.8-0.2 11.5q0.5-0.5 1-1c-3.7-0.1-7.5-0.4-11.2 0.1-2.3 0.3-2.4 2.3-2.7 4.3-0.7 6.5 0 13.1 0.1 19.7 0 1.4 2.1 1.4 2.1 0z" />
                    </g>
                    <g id="g640">
                        <path id="path642" class="s7"
                            d="m177.3 167.5c-0.1 6.4-0.6 12.9-0.1 19.3 0.1 1.8 0.2 4.2 2.4 4.6 3.7 0.7 7.8 0.3 11.5 0.2q-0.5-0.5-1-1c-0.1 3.6-0.4 7.5 0.1 11.2 0.3 2.3 2.3 2.4 4.3 2.7 6.5 0.7 13.1 0 19.7-0.1 0.6 0 1-0.4 1-1 0.1-6.5 0.6-12.9 0.1-19.3-0.1-1.8-0.2-4.2-2.4-4.6-3.7-0.7-7.8-0.3-11.5-0.2q0.5 0.5 1 1c0.1-3.7 0.4-7.5-0.1-11.2-0.3-2.3-2.3-2.4-4.3-2.7-6.5-0.7-13.1 0-19.7 0-1.4 0.1-1.4 2.2 0 2.2 5.5 0 10.9-0.4 16.4-0.2 1.4 0 2.8 0.1 4.1 0.3 1.2 0.2 1.3 0.1 1.4 1.1 0.4 3.5 0.2 7.1 0.1 10.5 0 0.6 0.5 1.1 1.1 1.1 3.3-0.1 6.6-0.2 10 0 1.2 0.1 1.3 0 1.5 1.1 0.3 1.3 0.3 2.7 0.4 4 0.2 5.6-0.2 11.2-0.2 16.9q0.5-0.6 1.1-1.1c-5.5 0-10.9 0.4-16.4 0.2-1.4 0-2.8-0.1-4.1-0.3-1.2-0.2-1.3-0.1-1.4-1.2-0.4-3.4-0.2-7-0.1-10.4 0-0.6-0.5-1.1-1.1-1.1-3.3 0.1-6.6 0.1-10-0.1-1.2 0-1.3 0.1-1.6-1-0.2-1.3-0.2-2.7-0.3-4-0.2-5.6 0.2-11.2 0.2-16.9 0-1.4-2.1-1.4-2.1 0z" />
                    </g>
                    <g id="g644">
                        <path id="path646" class="s13"
                            d="m195.5 159.3c-4.6 4.6-9.5 8.7-13.7 13.6-1.2 1.4-2.8 3.2-1.6 5 2.2 3.1 5.3 5.7 8.1 8.3v-1.5c-2.7 2.5-5.6 5.1-7.8 8-1.5 1.9-0.2 3.3 1.1 5 4.1 5.1 9.2 9.3 13.9 13.9 0.4 0.4 1.1 0.4 1.5 0 4.6-4.6 9.5-8.7 13.7-13.6 1.2-1.4 2.8-3.2 1.6-5-2.2-3.1-5.3-5.7-8.1-8.3v1.5c2.7-2.5 5.6-5.1 7.8-8 1.5-1.9 0.2-3.4-1.1-5-4.1-5.1-9.2-9.3-13.9-13.9-1-0.9-2.5 0.6-1.5 1.6 3.9 3.8 8 7.4 11.7 11.4 1 1 1.9 2 2.7 3.1 0.7 1 0.9 1 0.2 1.8-2.2 2.7-4.9 5.1-7.4 7.5-0.4 0.4-0.4 1.1 0 1.5 2.4 2.3 4.9 4.6 7.1 7.1 0.8 1 1 0.9 0.3 1.9-0.7 1.1-1.6 2.1-2.5 3-3.8 4.2-8.1 7.9-12.1 11.8h1.5c-3.9-3.8-8-7.4-11.7-11.4-1-1-1.9-2-2.7-3.1-0.7-1-0.9-1-0.2-1.8 2.2-2.7 4.9-5.1 7.4-7.5 0.4-0.4 0.4-1.1 0-1.5-2.4-2.3-4.9-4.6-7.1-7.1-0.8-1-1-0.9-0.3-1.9 0.7-1.1 1.6-2.1 2.5-3 3.8-4.2 8.1-7.9 12.1-11.8 1-1-0.5-2.5-1.5-1.6z" />
                    </g>
                    <g id="g648">
                        <path id="path650" class="s7"
                            d="m323.3 196.9c-5.4 0.1-10.8 0.2-16.2 0.2-1.7 0.1-3.5-0.2-4.9-1.4-1.8-1.5-0.9-4.5 1.2-5.1 1.6-0.4 3.6-0.6 5.3-0.4 0.3 0 0.6-0.4 0.5-0.7-1-3.1 0.1-8 4.5-5.8 2.3 1.1 2.4 5 2.5 7.2 0.1 2.6 0.1 5.2 0.1 7.8 0 2.5-0.4 5.7 1.1 7.8 0.9 1.4 3.4 1.9 5 1.7 2-0.3 3.3-1.5 4.1-3.4 1.2-2.9 0.5-7.6-3.2-7.9-0.7-0.1-0.7 1 0 1.1 3.5 0.2 2.9 5.3 1.7 7.4-0.9 1.6-2.8 1.9-4.5 1.6-3.1-0.6-3-3-3.1-5.4-0.2-4.6 0.2-9.2-0.4-13.7-0.5-3.3-2.3-5.9-5.8-5.7-3.8 0.2-3.9 5-3 7.6q0.2-0.3 0.5-0.7c-2.1-0.2-5.3-0.1-7.1 1.2-1.7 1.2-1.8 4.1-0.6 5.7 2.2 2.7 6 2.2 9.1 2.1 4.4-0.1 8.8-0.1 13.2-0.1 0.6-0.1 0.7-1.1 0-1.1z" />
                    </g>
                    <g id="g652">
                        <path id="path654" class="s7"
                            d="m291.6 166.3c-0.1 4.4-0.1 8.8-0.1 13.1-0.1 3.2-0.7 6.9 2.1 9.1 1.5 1.3 4.5 1.2 5.7-0.6 1.3-1.8 1.3-4.9 1.2-7q-0.4 0.2-0.7 0.5c2.9 1 6.8 0.7 7.6-2.9 0.7-3.3-2.4-5.2-5.1-5.8-4.3-1-9.1-0.5-13.4-0.5-1.5 0-3.3 0.1-4.8-0.6-2.3-1-1.9-4.9-0.7-6.4 1.8-2.1 7.9-2.6 8.2 1.1 0.1 0.7 1.2 0.7 1.1 0-0.3-3.9-4.8-4.2-7.8-3.3-4 1.3-4.5 6.3-1.9 9.1 1.4 1.6 5 1.2 6.9 1.2 2.7 0 5.5 0 8.2 0.1 2.5 0 5.4 0.1 7.3 1.9 1.6 1.4 1.2 4.1-0.5 5.1-1.4 0.9-3.4 0.4-4.8 0-0.4-0.1-0.8 0.1-0.7 0.5 0.1 1.7-0.1 3.6-0.4 5.3-0.6 2.5-3.5 2.5-5.1 1.2-1.4-1.1-1.4-3.4-1.5-5-0.1-5.3 0.2-10.7 0.3-16.1 0-0.7-1.1-0.7-1.1 0z" />
                    </g>
                    <g id="g656">
                        <path id="path658" class="s7"
                            d="m69.2 198c4.3 0 8.7 0 13.1 0.1 3.1 0.1 6.9 0.6 9.1-2.1 1.3-1.6 1.1-4.5-0.6-5.7-1.8-1.3-4.9-1.4-7.1-1.2q0.3 0.4 0.5 0.7c1-2.9 0.8-6.9-2.8-7.6-3.4-0.7-5.3 2.3-5.9 5.1-0.9 4.3-0.4 9-0.4 13.3 0 1.6 0 3.4-0.6 4.9-1 2.3-5 1.9-6.5 0.6-2-1.7-2.5-7.8 1.2-8.1 0.7-0.1 0.7-1.2 0-1.1-3.9 0.3-4.2 4.8-3.3 7.8 1.2 3.9 6.3 4.5 9.1 1.9 1.6-1.4 1.1-5.1 1.2-6.9 0-2.8 0-5.5 0-8.2 0.1-2.5 0.2-5.4 1.9-7.3 1.5-1.6 4.1-1.2 5.2 0.5 0.8 1.4 0.4 3.4-0.1 4.8-0.1 0.3 0.2 0.7 0.5 0.7 1.8-0.2 3.7 0.1 5.3 0.4 2.6 0.5 2.6 3.5 1.2 5.1-1.1 1.4-3.3 1.4-4.9 1.4-5.4 0.1-10.8-0.1-16.1-0.2-0.7 0-0.7 1 0 1.1z" />
                    </g>
                    <g id="g660">
                        <path id="path662" class="s7"
                            d="m99.7 166.3c0.1 5.4 0.2 10.8 0.3 16.1 0 1.8-0.2 3.6-1.4 5-1.6 1.7-4.5 0.9-5.1-1.2-0.5-1.6-0.6-3.7-0.4-5.3 0-0.4-0.4-0.6-0.7-0.5-3.2 1-8-0.1-5.9-4.5 1.2-2.3 5.1-2.4 7.3-2.5 2.6-0.1 5.2-0.1 7.8-0.1 2.4 0 5.6 0.4 7.8-1.1 1.3-0.9 1.9-3.5 1.6-5-0.3-2-1.5-3.3-3.3-4.1-3-1.3-7.7-0.5-8 3.2 0 0.7 1.1 0.7 1.1 0 0.3-3.6 5.4-2.9 7.4-1.7 1.7 0.9 2 2.8 1.7 4.5-0.6 3-3 3-5.4 3.1-4.6 0.2-9.2-0.3-13.8 0.4-3.2 0.4-5.9 2.2-5.7 5.8 0.2 3.8 5 3.9 7.7 3q-0.4-0.3-0.7-0.5c-0.2 2.1-0.1 5.2 1.1 7 1.2 1.8 4.2 1.9 5.8 0.6 2.7-2.2 2.2-6 2.1-9.1-0.2-4.3-0.1-8.7-0.2-13.1 0-0.7-1.1-0.7-1.1 0z" />
                    </g>
                </g>
            </g>
        </g>
    </g>
</svg>