<svg version="1.2" xmlns="http://www.w3.org/2000/svg" viewBox="0 0 158 158" width="158" height="158">
    <style>
        .s0 {
            fill: #f7f7f7
        }

        .s1 {
            fill: #d2d3e5
        }

        .s2 {
            fill: #dfe1ef
        }

        .s3 {
            fill: #ffd576
        }

        .s4 {
            fill: #ff94b5
        }

        .s5 {
            fill: #7a77d8
        }

        .s6 {
            fill: #ffc9b6
        }

        .s7 {
            fill: #babdd3
        }

        .s8 {
            fill: #191935
        }

        .s9 {
            fill: #2c2c56
        }

        .s10 {
            fill: #353563
        }

        .s11 {
            fill: #ffb9a4
        }

        .s12 {
            fill: #5d5db2
        }

        .s13 {
            fill: #46c692
        }

        .s14 {
            fill: #c1c3d6
        }

        .s15 {
            fill: #a5a3ba
        }

        .s16 {
            fill: #b3b4ca
        }

        .s17 {
            fill: #ffffff
        }

        .s18 {
            fill: #ffb0cd
        }

        .s19 {
            fill: #f9b132
        }

        .s20 {
            fill: #f9c662
        }

        .s21 {
            fill: #ffaecb
        }

        .s22 {
            fill: #f47fa9
        }

        .s23 {
            fill: #d5c2c0
        }

        .s24 {
            fill: #ecdbd9
        }

        .s25 {
            fill: #404070
        }

        .s26 {
            fill: #34b27c
        }

        .s27 {
            fill: #299b67
        }

        .s28 {
            fill: #ffbf4e
        }

        .s29 {
            fill: #d5a3a0
        }

        .s30 {
            fill: #ffc8b5
        }

        .s31 {
            fill: #6a6acc
        }

        .s32 {
            fill: #8f8fef
        }

        .s33 {
            fill: #23234c
        }

        .s34 {
            fill: #2f2f60
        }

        .s35 {
            fill: #3c3c75
        }

        .s36 {
            fill: #dce6f9
        }

        .s37 {
            fill: #d6c3c1
        }

        .s38 {
            fill: #ffe1dd
        }

        .s39 {
            fill: #bcbed3
        }

        .s40 {
            fill: #abaec6
        }

        .s41 {
            fill: #a1a4b7
        }

        .s42 {
            fill: #f4e7e4
        }

        .s43 {
            fill: #2c2c5b
        }

        .s44 {
            fill: #878eb2
        }

        .s45 {
            fill: #e1e2ef
        }

        .s46 {
            fill: #bac9e5
        }

        .s47 {
            fill: #21111b
        }

        .s48 {
            fill: #8b8bea
        }

        .s49 {
            fill: #d3c0be
        }

        .s50 {
            fill: #2ba36c
        }

        .s51 {
            fill: #212144
        }

        .s52 {
            fill: #8a8ea0
        }

        .s53 {
            fill: #dadcea
        }

        .s54 {
            fill: #4b4ba0
        }

        .s55 {
            fill: #1c0c06
        }

        .s56 {
            fill: #ffa38e
        }

        .s57 {
            fill: #caccdd
        }

        .s58 {
            fill: #202044
        }
    </style>

    <path id="Layer" class="s6"
        d="m114.8 72.1c0 0 2.4 5 3.2 9.7 0.7 3.5 1.1 3.8 0.1 5.2-1.1 1.4-4.8 6.5-4.8 6.5 0 0 0.7 1 0.9 2.1 0.2 1 0.1 1.9 1.5 2.7 1.3 0.8-0.7 2.3-2.4 1.4-1.7-1-3.5-7.1-3.5-7.1 0 0 3.6-5.6 4.5-7.6-1.6-2.8-3.8-9.6-3.8-9.6z" />
    <path id="Layer" class="s6"
        d="m99.6 67.7c0 0-2.5 1.7-3.7 3.1-1.1 1.4-1.4 2-2.6 5.8-0.9 2.9-2.4 5-2.8 7.4-0.3 2.4-0.2 3.5 0.7 5.9 0.5 1.3 1.6-0.1 3.3-2 1.6-1.6 2.5-10.6 2.7-13.1q0.1-0.5 0.5-0.8c0.4-0.4 0.9-0.9 1.7-1.3 1-0.6 1.8-1 2.1-1.2 2.5-1.8-1.8-3.8-1.9-3.8z" />
    <path id="Layer" class="s15"
        d="m110.6 142.6c0.1-2.1 0.3-4.6 0.8-7.2 0.9-4.6 1.9-11.2-1.1-14.2 3.4-8.5 2.2-13.3 1.7-15.9 5-5.3 0.2-10.9-2.2-12.7-1.3 1.6-8.9 4.7-8.9 4.9-0.9 3.9-0.1 8 1.1 11.8 0.7 2.4 1.3 6.3 3 12.8-0.8 3.2 0.1 8.1 0.4 11.7 0.2 2.5 0.2 5.4 0.6 8.1 0.8 0.9 2.1 1.6 4.6 0.7z" />
    <path id="Layer" class="s11"
        d="m101.8 142.2c-1.7 0.7-2.2 1.3-1.7 2.4 0.6 1.7 2.4 2.7 3.9 3 2.3 0.5 3.6 3.2 6.1 0.6 0.6-0.6 0.5-1.9 0.3-2.8 0-0.6 0.1-2.1 0.2-2.8-2.5 0.9-3.8 0.2-4.6-0.7q0.2 0.9 0.4 1.8c-0.9-0.3-3.4-1.9-4.6-1.5z" />

    <path id="Layer" class="s4"
        d="m110.1 145.4c0 0-1.4 0.5-2.4 0.8-0.9 0.3-3.1 0.5-4.8-1.2-1.4-1.3 0.7-2.2 0.7-2.2 0 0-3.3-1.9-5.4-1-1 0.4-1.1 2.1-0.5 3.1 0.6 1.1 2.7 2.5 3.7 2.7 1 0.3 3.2 0.7 3.9 1.1 1.3 0.8 3 2 4.6 0.5 1.5-1.5 0.2-3.8 0.2-3.8z" />
    <path id="Layer" class="s16"
        d="m102.3 147.8c0.1-2.1 0.3-4.6 0.8-7.2 0.9-4.6 1.9-11.2-1.1-14.2 3.4-8.6 3.7-15.2 3.2-17.8 5.9-4.5 3.8-10.7 1.3-12.4-1.2 1.6-9.7-1-10.5 1.6-1.6 5-1.6 6.8-1.3 13.5 0 2.4 0.3 9.5 2 16-0.8 3.2 0.1 8 0.4 11.7 0.3 2.5 0.2 5.4 0.6 8.1 0.8 0.8 2.2 1.6 4.6 0.7z" />
    <path id="Layer" class="s11"
        d="m93.5 147.4c-1.7 0.7-2.2 1.3-1.7 2.4 0.7 1.6 2.4 2.6 3.9 3 2.3 0.4 3.6 2.9 6.1 0.4 0.6-0.7 0.5-1.7 0.3-2.6 0-0.6 0.2-2.1 0.2-2.8-2.4 0.9-3.8 0.1-4.6-0.7q0.2 0.9 0.4 1.7c-0.9-0.2-3.4-1.8-4.6-1.4z" />

    <path id="Layer" class="s4"
        d="m101.8 150.6c0 0-1.4 0.5-2.3 0.8-1 0.3-3.2 0.4-4.9-1.2-1.3-1.3 0.7-2.2 0.7-2.2 0 0-3.2-1.9-5.4-1-1 0.4-1 2.1-0.5 3.1 0.6 1.1 2.8 2.5 3.7 2.7 1 0.2 3.2 0.7 3.9 1.1 1.4 0.8 3.1 1.9 4.6 0.5 1.5-1.5 0.2-3.8 0.2-3.8z" />
    <path id="Layer" class="s17" d="m112.5 80.8c0 0 1.6-0.5 2.8-1.3 1.1-0.8 1.7-1.8 1.7-1.8l-0.7-1.9-4.4 2.5z" />
    <path id="Layer" class="s4"
        d="m113.5 69.2c-2.2-0.8-4.9 0.5-5.1 2.8-1.2 2 0 5.1 1.9 6.5 2.3 1.6 5.7 0 6.5-2.5 0.7-2.6-0.7-5.9-3.3-6.8z" />
    <path id="Layer" class="s6"
        d="m111.9 73.6c-0.1-0.2-0.2-0.3-0.4-0.4-2.7-0.7-3.3-2.1-3.7-4.5-0.1-0.4-0.5-0.5-0.8-0.4-1.4 0.9-2.9 1.5-4.4 2 1.4 4.4-1.2 5.3-2.4 7.1-0.3 0.4 2.8 2.6 4.4 2.4 1.4-0.2 2.8-0.6 4-1.4 1.3-0.9 3.7-3 3.3-4.8z" />
    <path id="Layer" class="s6"
        d="m108.1 63.5c-0.2-2.3-2.1-5.3-4.6-5.1-2.6 0.2-4.4 4-4.6 5.8-0.3 3.1-0.1 8.8 4.7 7 3.8-1.5 4.9-4.3 4.5-7.7z" />
    <path id="Layer" class="s10"
        d="m112.1 59c-1.1-2.5-3.9-4.9-7.8-3-2.5-1-6.2 0.5-7 3.4 0.8 2.3 2.3 4.8 3.9 3.9-0.1 2.8 3.7 6.8 6.1 6.8 0.9-1.9 2.9-1.9 4.3-4.6 0.7-1.4 1.2-5 0.5-6.5z" />
    <path id="Layer" class="s6" d="m101.2 65.2c0 0 2-1.3 2.3 0.5 0.3 1.9-1.6 2.6-1.6 2.6z" />
    <path id="Layer" class="s4"
        d="m111.2 56.5c-1.6-0.7-2.6-0.8-4 0.2-1.4 1.1-0.9 5.5 1.4 6 1.4 0.3 3.3-0.1 4.1-1.4 1-1.6 0.8-3.8-1.5-4.8z" />
    <path id="Layer" class="s18"
        d="m113.3 82.6c1.7-5.1 0.7-8.6-0.8-10.2-0.6-0.7-2-2.2-3.6-0.7 0.5 2.3-3.5 3.1-6.5 3.1-2.2 1.6-4.2 2.8-5.5 5-1.3 2.4-2 4.8 0.9 6.6-0.9 2.6-0.8 6.2-2.3 13 2.7 2.1 8 2.3 11 1 3.4-1.4 6.1-3.4 6-5-0.8-1.6-2.8-3.1-2.7-5.1 0.1-2.5 2.8-5.3 3.5-7.7z" />
    <path id="Layer" class="s11"
        d="m99 68.8c0 0-0.1 1.1 0.2 1.5 0.4 0.5 0.3 0.5 0.7 0.4 0.5-0.1 0.7 0 1-0.1 0.9-0.4 1.4-0.1 1.4-0.1 0 0-0.2-0.5-1.1-0.6-0.9-0.1-1.3 0.6-1.6-0.3-0.4-0.9-0.6-0.8-0.6-0.8z" />
    <path id="Layer" class="s6"
        d="m96.9 83.2c0 0-3.5 0.7-4.7 1.9-1.3 1.1-1.5 3.4-1.1 4.5 0.5 1.2 1.3 1.1 2.8 1 1.5 0 3.7-2.2 3.7-2.2z" />
    <path id="Layer" class="s4"
        d="m100.5 75.8c-3.3 0.3-5.7 4.5-6.1 7.2-0.9 0.9 0.9 4.5 3.9 4.7 2.9 0.9 6.3-2.5 6.6-6.4 0.1-3-2-5.6-4.4-5.5z" />
    <path id="Layer" class="s17"
        d="m94.4 83l-0.7 1.1c0 0-0.4 1 0.9 2.5 1.2 1.5 3 1.8 3 1.8l0.7-0.7c0 0-1.7-0.8-2.7-1.9-1.1-1.2-1.2-2.8-1.2-2.8z" />
    <path id="Layer" class="s9"
        d="m108.9 57c-1.3 1.6-0.7 3.4-0.1 4.9 0.4 0.8 4.5 2.1 3.7 5.1-0.6 1.9-2.3 4.8-2 8.4 0.3 3.7 3.7 2.4 3.7 2.4 0 0-2.1-1.1-0.9-3.1 1.2-2 4.7-7.6 3.7-12.7-0.9-5.1-5.7-7.9-8.1-5z" />


    <path id="Layer" class="s3" d="m51.3 97.6l-25.5 14.8v-83l25.5-14.7z" />
    <path id="Layer" class="s19" d="m25.8 112.4l-2.7-1.4v-83l2.7 1.4z" />
    <path id="Layer" class="s20" d="m51.3 14.7l-2.7-1.4-25.5 14.7 2.7 1.4z" />

    <path id="Layer" class="s4"
        d="m46.6 25.3c-1.7 0.9-3.1 2.6-4.1 4.6q0.5-3 0.5-5.8c0.1-0.3-0.3-0.4-0.5-0.1-4.8 6.6-8.1 14.9-8.9 22.7 0 0.4 0.3 0.7 0.5 0.2q1-2.1 2-4.2c-4.2 15.8-6.1 31.9-6 46.1 0 0.6 0.6 0.5 0.8-0.2q1.1-3.6 1.9-7.3 0 0.9-0.1 1.7c-0.3 5.5-0.6 10.9-1 16.4 0 0.6 0.6 0.3 0.7-0.2 3.8-24.4 8.5-48.8 14.6-73.5 0-0.3-0.2-0.5-0.4-0.4z" />
    <path id="Layer" class="s5"
        d="m45.7 50q-0.6 1.3-1.2 2.6c0.6-2.9 1.2-5.7 1.7-8.6 0.4-1.7 2.1-8.3 1.7-10.1-0.4-1.7-2 3.8-2.4 4.4 0-1.3 1.5-6.9 0.2-5.9-0.9 0.7-2.6 5.5-3 6.6-1.1 2.9-2 5.8-2.8 8.7-3.3 11.2-5.2 22.4-5.7 32.9 0 0.5 0.5 0.5 0.7 0q1.8-3.7 3.2-7.5c-1.7 8.8-2.1 17.3-1.4 24.9 0 0.4 0.4 0.3 0.5-0.2 4-16.1 7.2-31.9 9.2-47.7 0-0.5-0.4-0.6-0.7-0.1z" />

    <path id="Layer" class="s21" d="m86.4 70.6l-25.6 14.8v-64.1l25.6-14.8z" />
    <path id="Layer" class="s22" d="m60.8 85.4l-2.7-1.4v-64.1l2.7 1.4z" />
    <path id="Layer" class="s4" d="m86.4 6.5l-2.7-1.3-25.6 14.7 2.7 1.4z" />

    <path id="Layer" class="s5"
        d="m84 26.7c-1.7-3.1-4.3-6.9-7.5-8.8-1.5-0.9-1.7 0-1.6 1.2q-0.4-0.1-0.8-0.2c-2.6-0.3-3.1 2.1-2.3 4.1-1.3-1-3-1.4-3.6 0.3-0.5 1.3 0.4 2.7 1.2 3.7q0.2 0.3 0.5 0.6-0.8-0.3-1.4-0.4c-0.4-0.1-0.6 0.3-0.5 0.6 2.1 4 8 8.2 14.7 9.9 0.4 0 0.8-0.1 0.8-0.5 0-3.4-0.8-7.3-2.7-10.5q1.3 0.5 2.6 0.8c0.4 0 0.8-0.4 0.6-0.8z" />
    <path id="Layer" class="s5"
        d="m83.2 60.7c-4.4-8.3-10.1-15.6-17.2-21.8-0.3-0.3-0.7-0.1-0.6 0.3q0.6 2.8 1.9 5.1c-1.6-1.2-3.3-1.9-3.3-0.1-0.1 1 0.5 2.3 1.3 3.4q-0.4-0.2-0.7-0.4c-0.2-0.2-0.5 0.1-0.3 0.3 2.9 6.3 7.6 11.7 13.6 15.1 0.3 0.1 0.5-0.1 0.5-0.3q-0.4-1.1-0.8-2.2c0.9 0.5 1.7 0.6 2.1-0.1 0.4-0.6 0.1-1.4-0.2-2.1q1.5 1.7 3.1 3.2c0.3 0.3 0.8 0 0.6-0.4z" />
    <path id="Layer" class="s17"
        d="m82.9 48q0.5 0.4 1.1 0.8c0.3 0.3 0.7-0.1 0.6-0.4-1.8-7.7-6-14.5-12.1-19.5-0.2-0.1-0.6-0.1-0.5 0.3q0.1 0.8 0.2 1.5c-0.6-0.6-1.4-1.1-2.1-1.3-2.9-0.8-2.2 2.7-1.2 5.4-0.8-0.9-1.7-1.8-2.7-2.5-0.2-0.2-0.5-0.1-0.4 0.2 0.3 1.4 0.7 2.9 1.4 4.2q-0.6-0.3-1.2-0.6c-0.2 0-0.4 0.2-0.3 0.3 2.3 6.6 6 12.4 11.1 17.2 0.3 0.4 0.8 0 0.8-0.4q-0.1-0.1-0.1-0.2 0.1 0.1 0.2 0.2c0.6 0.7 2.5 3.3 3.8 2.5 0.4-0.3 0.5-0.7 0.5-1.1q1.2 1.4 2.3 2.7c0.2 0.3 0.7 0.1 0.7-0.3-0.2-3-0.9-6.1-2.1-9z" />
    <path id="Layer" class="s17"
        d="m82.1 66.1q-3.5-4-7.3-7.8-1.7-1.7-3.4-3.3c-0.8-0.7-2-2.4-3.1-2.7-2-0.7-1.1 1.7-0.1 3.8q-0.2-0.2-0.4-0.4c-0.7-0.6-1.2-1.3-2.2-1.4-0.1 0-0.2 0.1-0.2 0.1-0.9 1.3 0.3 3 0.8 4.2q0.4 1 0.9 1.8-0.2-0.1-0.5-0.2c-0.7-0.3-1.2 0.1-1.2 0.8 0 0.6 0.4 1.3 0.8 2-0.5-0.3-0.9-0.3-1.1 0.3-0.3 0.8 0.7 1.8 1.1 2.3q1.4 1.8 3.1 3.4c0.6 0.6 3.3 3.4 4.2 2 0.2-0.2 0.1-0.6 0-0.9 0.6 0.3 1.3 0.6 1.9 0.3 0.7-0.5 0.6-1.4 0.5-2q-0.1-0.2-0.1-0.4c1 0.9 2.2 1.6 3.5 2.1 0.3 0.1 0.5-0.2 0.4-0.4q-1.6-2.3-3.2-4.5c1.7 0.7 3.5 1.2 5.2 1.5 0.4 0.1 0.6-0.3 0.4-0.6z" />

</svg>