<?xml version="1.0" encoding="utf-8"?>
<!-- Generator: Adobe Illustrator 27.5.0, SVG Export Plug-In . SVG Version: 6.00 Build 0)  -->
<svg version="1.1" xmlns="http://www.w3.org/2000/svg" xmlns:xlink="http://www.w3.org/1999/xlink" x="0px" y="0px"
	 viewBox="0 0 500 500" style="enable-background:new 0 0 500 500;" xml:space="preserve">
<g id="Floor">
	<ellipse id="Floor_2_" style="fill:#F5F5F5;" cx="250" cy="370.864" rx="243.714" ry="121.017"/>
</g>
<g id="Shadows">
	<path id="Shadow_19_" style="fill:#E0E0E0;" d="M106.644,426.923l-16.476-9.526l-17.076,9.859l2.846-8.216l-17.076,3.286
		l19.922-11.502l-63.639-36.741c-1.005-0.58-1.004-1.52,0.002-2.099l119.615-68.747c1.006-0.579,2.637-0.578,3.643,0.002
		l91.302,52.639c1.006,0.58,1.006,1.52,0.001,2.101l-119.422,68.945C109.279,427.504,107.649,427.504,106.644,426.923z"/>
	<ellipse id="Shadow_20_" style="fill:#E0E0E0;" cx="406.995" cy="377.431" rx="73.47" ry="42.419"/>
</g>
<g id="Plants">
	<g id="Leaves_10_">
		<g id="Leaves_9_">
			<path id="XMLID_755_" style="fill:#27DEBF;" d="M110.294,192.598c0,0-7.781-1.753-13.877-11.049
				c-4.888-7.455-4.476-12.636-3.612-13.004c0.864-0.369,4.071,1.873,9.625,10.11C104.745,182.086,110.294,192.598,110.294,192.598z
				"/>
			<path id="XMLID_750_" style="fill:#27DEBF;" d="M123.821,203.996c-0.77-0.498-6.821-7.066-10.965-15.579
				c-2.208-4.536-1.991-7.499-0.87-7.557c0.66-0.034,3.826,2.246,7.167,9.147C122.494,196.908,124.59,204.495,123.821,203.996z"/>
			<path id="XMLID_748_" style="fill:#27DEBF;" d="M115.841,198.02c-0.689-0.653-3.718-1.678-8.973-2.501
				c-3.549-0.556-7.649-1.476-8.094-0.381c-0.445,1.096,3.186,3.944,7.301,4.599C110.19,200.392,116.531,198.672,115.841,198.02z"/>
			<path id="XMLID_736_" style="fill:#27DEBF;" d="M129.447,208.121c-0.871-0.649-7.138-1.243-10.023-1.49
				c-2.885-0.248-6.268,0.041-7.117,1.283c-0.849,1.242,2.594,3.231,7.488,3.261C124.689,211.204,130.317,208.77,129.447,208.121z"
				/>
			<path id="XMLID_733_" style="fill:#27DEBF;" d="M136.338,211.444c-0.867-0.081-4.127-4.322-6.867-8.62
				c-2.74-4.298-4.936-10.073-3.097-10.251c1.839-0.178,4.404,2.47,6.824,7.281C135.88,205.186,137.206,211.525,136.338,211.444z"/>
			<path id="XMLID_620_" style="fill:#27DEBF;" d="M142.927,214.788c-0.348-0.436-4.818,0.328-9.467,0.762
				c-4.544,0.425-6.583,0.612-6.892,1.984c-0.309,1.372,2.225,3.271,7.308,2.295C138.959,218.855,143.275,215.225,142.927,214.788z"
				/>
			<path id="XMLID_615_" style="fill:#E0E0E0;" d="M95.082,173.527c3.384,5.954,7.584,11.419,12.156,16.522
				c4.61,5.074,9.648,9.773,15.114,13.946c5.459,4.156,11.34,7.915,17.841,10.347c6.46,2.382,13.553,3.66,20.351,2.403
				c0.04-0.007,0.067-0.046,0.06-0.087c-0.007-0.037-0.041-0.063-0.078-0.061c-6.832,0.391-13.561-1.077-19.793-3.643
				c-6.249-2.541-12.169-5.93-17.67-9.914c-5.489-4.004-10.59-8.555-15.279-13.497c-4.689-4.937-9.027-10.252-12.573-16.09
				c-0.021-0.035-0.067-0.047-0.102-0.027C95.075,173.447,95.063,173.492,95.082,173.527z"/>
		</g>
		<g id="Leaves_8_">
			<path id="XMLID_609_" style="fill:#E0E0E0;" d="M75.756,97.269c0.779-11.126,4.782-13.578,7.402-17.621
				c3.312-5.109,3.256-8.882,3.256-8.882c1.21,3.155,1.976,12.038-2.282,17.103C80.559,92.119,77.217,92.934,75.756,97.269z"/>
			<path id="XMLID_439_" style="fill:#E0E0E0;" d="M68.968,82.133c-6.73-1.748-11.633-6.212-13.183-12.773
				c-1.55-6.561-4.889-9.961-4.889-9.961C65.202,64.69,68.851,77.164,68.968,82.133z"/>
		</g>
		<path id="Leavesz_2_" style="fill:#E0E0E0;" d="M85.358,181.515c-2.352-2.327-4.102-5.074-5.608-7.965
			c0.127-6.944,2.645-13.976-0.547-20.628c-0.121-0.243-0.54-0.348-0.524,0.032c0.067,1.973-0.896,4.043-1.15,6.007
			c-0.144,1.165-0.274,2.371-0.275,3.542c0,2.536,0.89,4.813,2.257,6.91c-0.111,1.081-0.191,2.166-0.212,3.248
			c-0.75-1.483-1.447-2.984-2.143-4.484c-2.154-4.681-4.19-9.414-6.037-14.229c0.217-1.025,0.271-2.169,0.336-3.161
			c0.079-1.018,0.109-2.096-0.08-3.119c1.876-1.008,2.499-3.311,2.725-5.481c2.044-4.821,2.273-10.529,5.338-14.841
			c0.861-0.984,1.7-1.99,2.428-3.088c0.728-1.076,1.356-2.327,1.836-3.531c0.466-1.178,0.837-2.304,1.049-3.557
			c0.236-1.342,0.254-2.764,0.168-4.117c-0.036-0.537-0.095-1.052-0.123-1.585c-0.037-0.515-0.106-0.968-0.039-1.486
			c0.036-0.286,0.226-0.739-0.094-0.883c-0.101-0.109-0.234-0.178-0.344-0.054c-0.238,0.231-0.497,0.419-0.703,0.688
			c-0.224,0.294-0.405,0.619-0.648,0.899c-0.502,0.578-0.854,1.295-1.252,1.947c-0.738,1.211-1.516,2.382-2.172,3.643
			c-0.434,0.836-0.875,1.67-1.235,2.542c-0.327,0.791-0.484,1.591-0.578,2.441c-0.051,0.466-0.077,0.909-0.087,1.377
			c-0.014,0.646-0.007,1.28,0.004,1.926c0.018,1.049,0.054,2.118,0.05,3.162c-0.001,0.242-0.009,0.484-0.026,0.726
			c-0.012,0.176-0.126,0.528-0.075,0.689c0.004,0.014,0.008,0.027,0.004,0.036c-0.508,1.043-0.835,2.192-1.184,3.318
			c-0.744,2.386-1.548,4.842-2.2,7.309c0.071-3.93-0.673-7.833-1.13-11.723c-0.032-0.22-0.377-0.511-0.524-0.227
			c-3.319,6.254-4.207,12.623-1.704,19.255c0.175,1.398,0.148,2.793-0.008,4.2c-0.048,0.46-0.14,0.941-0.21,1.423
			c-1.782-4.702-3.438-9.451-4.6-14.349c-0.306-1.275-0.577-2.554-0.839-3.828c0.068-0.044,0.087-0.146,0.031-0.232
			c-0.035-0.041-0.066-0.068-0.096-0.118c-0.254-1.225-0.503-2.459-0.747-3.679c0.161-0.592,0.363-1.175,0.596-1.753
			c0.735-1.782,1.732-3.439,2.635-5.133c0.387-0.723,0.686-1.537,0.976-2.31c0.621-1.65,1.031-3.521,1.166-5.277
			c0.05-0.594,0.059-1.198,0.109-1.792c0.028-0.38,0.061-0.768,0.081-1.153c0.045-0.585,0.136-1.259,0.056-1.842
			c-0.092-0.668-0.601-0.166-0.812,0.153c-0.549,0.857-0.997,1.771-1.468,2.671c-0.418,0.798-0.972,1.494-1.386,2.296
			c-0.123,0.238-0.266,0.459-0.403,0.687c-0.106,0.176-0.206,0.395-0.362,0.532c-0.086-0.094-0.092-0.346-0.118-0.47
			c-0.062-0.297-0.127-0.597-0.175-0.897c-0.062-0.384-0.141-0.772-0.273-1.138c-0.114-0.316-0.171-0.649-0.255-0.974
			c-0.074-0.286-0.204-0.456-0.334-0.703c-0.3-0.574-0.402-1.298-0.555-1.922c-0.391-1.59-0.549-3.215-0.451-4.855
			c0.012-0.219,0.029-0.447,0.055-0.67c0.03-0.232-0.325-0.698-0.5-0.339c-1.096,2.193-1.787,4.584-2.244,6.986
			c-0.266,1.4-0.554,2.903-0.483,4.333c0.031,0.614,0.023,1.203,0.109,1.816c0.09,0.642,0.221,1.278,0.377,1.907
			c0.534,2.16,1.722,3.69,2.428,5.736c0.069,1.039,0.174,2.051,0.318,3.073c-0.402-0.592-0.89-1.128-1.371-1.524
			c-0.826-0.688-1.785-1.12-2.753-1.578c-1.62-0.763-3.036-1.725-4.423-2.852c-0.168-0.132-0.349,0.021-0.312,0.21
			c0.427,2.149,1.009,4.39,2.602,6.007c2.016,2.062,4.737,2.834,7.102,4.312c0.342,1.553,0.712,3.097,1.032,4.605
			c0.592,2.742,1.327,5.446,2.157,8.121c-2.231-2.907-6.111-5.025-9.321-5.702c-0.316-0.063-0.211,0.341-0.029,0.447
			c2.892,1.549,3.307,6.126,5.438,8.553c0.655,0.757,1.468,1.383,2.332,1.888c0.341,0.189,2.948,1.397,3.842,1.412
			c0.202,0.544,0.39,1.093,0.596,1.629c2.113,5.539,4.519,10.971,7.033,16.324c1.912,4.082,4.069,8.021,7.297,11.221
			C85.188,182.993,85.812,181.965,85.358,181.515z M64.107,114.036c0.409,1.125,0.768,2.281,0.798,3.494
			c0.018,0.748-0.152,1.512-0.316,2.239c-0.128,0.572-0.313,1.133-0.502,1.687c-0.098,0.286-0.242,0.56-0.3,0.859
			c-0.065,0.34-0.147,0.674-0.237,1.011c-0.095,0.356-0.226,0.716-0.272,1.087c-0.054,0.321-0.129,0.834-0.031,1.145
			c-0.327-1.076-0.843-2.079-1.296-3.104c-0.228-0.516-0.448-1.054-0.612-1.58c-0.156-0.5-0.368-0.964-0.454-1.492
			c-0.075-0.459-0.178-0.911-0.172-1.377c0.005-0.364-0.017-0.723-0.021-1.086c-0.007-0.542,0.06-1.089,0.135-1.625
			c0.194-1.381,0.541-2.702,0.875-4.05c0.315-1.272,0.686-2.531,1.146-3.758c-0.019,1.23,0.055,2.452,0.34,3.66
			C63.412,112.133,63.761,113.086,64.107,114.036z M68.126,120.177c-0.496,1.584-1.224,3.091-1.914,4.6
			c-0.334,0.728-0.73,1.447-1.076,2.179c-0.19,0.409-0.357,0.817-0.512,1.244c-0.112,0.303-0.403,0.906-0.346,1.229
			c-0.305-1.669-0.421-3.352-0.261-5.027c0.027-0.313,0.068-0.629,0.118-0.942c0.099-0.58,0.259-1.105,0.438-1.666
			c0.492-1.542,1.286-2.932,1.942-4.399c0.241-0.539,0.501-1.062,0.774-1.587c0.509-0.98,1.078-1.928,1.585-2.908
			c0.069-0.133,0.264-0.65,0.434-0.713c0.225-0.083,0.158,0.512,0.155,0.645c-0.017,0.83-0.203,1.655-0.27,2.481
			c-0.027,0.331-0.036,0.664-0.078,0.993c-0.091,0.716-0.289,1.412-0.442,2.121c-0.076,0.353-0.197,0.696-0.306,1.039
			c-0.031,0.098-0.065,0.195-0.099,0.292C68.22,119.897,68.17,120.036,68.126,120.177z M64.147,133.17
			c-0.906-0.663-1.983-1.02-3.083-1.614c-2.204-1.18-5.421-3.382-5.565-6.207c-0.077-1.607,0.328-0.37,1.218,0.216
			c0.7,0.454,1.459,0.792,2.214,1.14c1.882,0.888,3.775,1.974,4.712,3.836C63.794,131.42,63.968,132.3,64.147,133.17z
			 M78.31,127.933c0.05-0.07,0.019-0.322,0.023-0.41c0.006-0.149,0.009-0.298,0.011-0.447c0.003-0.298-0.002-0.597-0.01-0.895
			c-0.018-0.598-0.054-1.196-0.079-1.794c-0.042-0.988,0.078-2.024,0.199-3.011c0.424-3.486,2.48-6.503,4.382-9.361
			c0.157-0.235,0.62-1.031,0.948-1.103c0.454-0.099,0.35,2.24,0.363,2.518c0.086,1.861-0.241,3.682-0.613,5.5
			c-0.283,1.38-0.828,2.594-1.455,3.839c-0.628,1.229-1.397,2.384-2.259,3.413c-0.296,0.353-0.556,0.658-0.812,0.976
			C78.747,127.394,78.511,127.654,78.31,127.933z M71.383,147.109c-0.786-3.215-1.802-5.986-1.426-9.442
			c0.33-3.063,1.337-5.91,2.708-8.634c0.544,3.766,1.655,8.806,1.007,13c-0.044,0.214-0.101,0.432-0.144,0.646
			c-0.005,0.009,0.008,0.027,0.013,0.04C73.188,144.396,72.529,145.902,71.383,147.109z M66.4,151.36
			c-1.868-0.982-3.13-2.585-4.108-4.412c-0.695-1.286-1.147-2.715-1.946-3.953c-0.018-0.009-0.853-0.917-1.244-1.357
			c0.743,0.544,3.222,1.585,3.652,1.842c2.42,1.416,4.004,3.028,5.41,5.247c0.423,1.268,0.855,2.54,1.318,3.796
			C68.459,152.126,67.385,151.872,66.4,151.36z M79.58,168.717c-1.051-2.249-1.873-4.31-1.733-6.92
			c0.09-1.756,0.319-3.497,0.717-5.217c0.191-0.802,0.459-1.598,0.593-2.419C80.975,158.858,80.119,163.801,79.58,168.717z"/>
		<g id="Leaves_7_">
			<path id="XMLID_594_" style="fill:#27DEBF;" d="M395.706,192.598c0,0,7.781-1.753,13.877-11.049
				c4.888-7.455,4.476-12.636,3.612-13.004c-0.864-0.369-4.071,1.873-9.625,10.11C401.255,182.086,395.706,192.598,395.706,192.598z
				"/>
			<path id="XMLID_553_" style="fill:#27DEBF;" d="M382.179,203.996c0.77-0.498,6.821-7.066,10.966-15.579
				c2.208-4.536,1.991-7.499,0.87-7.557c-0.66-0.034-3.826,2.246-7.167,9.147C383.506,196.908,381.41,204.495,382.179,203.996z"/>
			<path id="XMLID_537_" style="fill:#27DEBF;" d="M390.159,198.02c0.69-0.653,3.718-1.678,8.973-2.501
				c3.549-0.556,7.649-1.476,8.094-0.381c0.445,1.096-3.185,3.944-7.301,4.599C395.81,200.392,389.469,198.672,390.159,198.02z"/>
			<path id="XMLID_519_" style="fill:#27DEBF;" d="M376.553,208.121c0.871-0.649,7.138-1.243,10.023-1.49
				c2.885-0.248,6.268,0.041,7.117,1.283c0.849,1.242-2.594,3.231-7.488,3.261C381.311,211.204,375.683,208.77,376.553,208.121z"/>
			<path id="XMLID_517_" style="fill:#27DEBF;" d="M369.662,211.444c0.867-0.081,4.127-4.322,6.867-8.62
				c2.74-4.298,4.936-10.073,3.097-10.251c-1.839-0.178-4.404,2.47-6.824,7.281C370.12,205.186,368.794,211.525,369.662,211.444z"/>
			<path id="XMLID_438_" style="fill:#27DEBF;" d="M363.073,214.788c0.348-0.436,4.818,0.328,9.467,0.762
				c4.544,0.425,6.583,0.612,6.892,1.984c0.309,1.372-2.225,3.271-7.307,2.295C367.041,218.855,362.725,215.225,363.073,214.788z"/>
			<path id="XMLID_429_" style="fill:#E0E0E0;" d="M410.918,173.527c-3.384,5.954-7.584,11.419-12.156,16.522
				c-4.61,5.074-9.648,9.773-15.114,13.946c-5.459,4.156-11.34,7.915-17.841,10.347c-6.46,2.382-13.553,3.66-20.351,2.403
				c-0.04-0.007-0.067-0.046-0.06-0.087c0.007-0.037,0.041-0.063,0.078-0.061c6.832,0.391,13.561-1.077,19.793-3.643
				c6.25-2.541,12.169-5.93,17.67-9.914c5.489-4.004,10.59-8.555,15.279-13.497c4.689-4.937,9.027-10.252,12.573-16.09
				c0.021-0.035,0.066-0.047,0.102-0.027C410.925,173.447,410.937,173.492,410.918,173.527z"/>
		</g>
		<g id="Leaves_6_">
			<path id="XMLID_424_" style="fill:#E0E0E0;" d="M430.244,97.269c-0.779-11.126-4.782-13.578-7.402-17.621
				c-3.311-5.109-3.256-8.882-3.256-8.882c-1.21,3.155-1.976,12.038,2.282,17.103C425.441,92.119,428.783,92.934,430.244,97.269z"/>
			<path id="XMLID_349_" style="fill:#E0E0E0;" d="M437.032,82.133c6.73-1.748,11.633-6.212,13.183-12.773
				c1.55-6.561,4.889-9.961,4.889-9.961C440.798,64.69,437.149,77.164,437.032,82.133z"/>
		</g>
		<path id="Leavesz_1_" style="fill:#E0E0E0;" d="M421.301,182.502c3.228-3.2,5.384-7.139,7.297-11.221
			c2.514-5.353,4.92-10.785,7.033-16.324c0.206-0.536,0.394-1.084,0.596-1.629c0.894-0.014,3.501-1.223,3.842-1.412
			c0.864-0.506,1.677-1.131,2.332-1.888c2.131-2.426,2.546-7.004,5.438-8.553c0.182-0.106,0.287-0.51-0.029-0.447
			c-3.21,0.677-7.09,2.795-9.32,5.702c0.83-2.674,1.565-5.379,2.157-8.121c0.32-1.508,0.69-3.052,1.032-4.605
			c2.365-1.477,5.086-2.25,7.102-4.312c1.593-1.617,2.175-3.858,2.602-6.007c0.037-0.189-0.144-0.342-0.312-0.21
			c-1.387,1.127-2.803,2.088-4.423,2.852c-0.968,0.458-1.927,0.889-2.752,1.578c-0.481,0.397-0.969,0.932-1.372,1.524
			c0.145-1.022,0.25-2.035,0.318-3.073c0.706-2.046,1.894-3.577,2.428-5.736c0.155-0.629,0.286-1.265,0.377-1.907
			c0.086-0.613,0.079-1.201,0.109-1.816c0.071-1.43-0.217-2.933-0.483-4.333c-0.457-2.402-1.148-4.793-2.244-6.986
			c-0.176-0.359-0.531,0.107-0.5,0.339c0.026,0.223,0.043,0.451,0.055,0.67c0.098,1.64-0.06,3.266-0.451,4.855
			c-0.153,0.624-0.254,1.348-0.555,1.922c-0.13,0.248-0.26,0.418-0.334,0.703c-0.084,0.325-0.141,0.657-0.255,0.974
			c-0.132,0.366-0.211,0.754-0.273,1.138c-0.048,0.3-0.113,0.6-0.175,0.897c-0.026,0.124-0.032,0.376-0.118,0.47
			c-0.156-0.137-0.257-0.356-0.362-0.532c-0.137-0.228-0.28-0.449-0.403-0.687c-0.414-0.802-0.968-1.498-1.386-2.296
			c-0.471-0.9-0.92-1.814-1.468-2.671c-0.211-0.319-0.72-0.821-0.812-0.153c-0.08,0.583,0.011,1.257,0.056,1.842
			c0.019,0.384,0.052,0.773,0.081,1.153c0.05,0.594,0.059,1.198,0.109,1.792c0.135,1.756,0.545,3.628,1.166,5.277
			c0.289,0.774,0.588,1.587,0.976,2.31c0.903,1.694,1.9,3.352,2.635,5.133c0.233,0.578,0.434,1.161,0.596,1.753
			c-0.245,1.22-0.494,2.454-0.747,3.679c-0.031,0.05-0.061,0.077-0.097,0.118c-0.057,0.086-0.037,0.188,0.031,0.232
			c-0.262,1.274-0.532,2.553-0.839,3.828c-1.162,4.898-2.818,9.647-4.6,14.349c-0.07-0.482-0.163-0.964-0.21-1.423
			c-0.156-1.406-0.183-2.801-0.008-4.2c2.503-6.632,1.615-13.001-1.704-19.255c-0.148-0.284-0.492,0.008-0.524,0.227
			c-0.457,3.889-1.201,7.793-1.13,11.723c-0.652-2.468-1.455-4.924-2.2-7.309c-0.349-1.126-0.676-2.275-1.184-3.318
			c-0.005-0.009,0-0.022,0.004-0.036c0.051-0.161-0.063-0.513-0.075-0.689c-0.017-0.242-0.025-0.484-0.026-0.726
			c-0.005-1.044,0.032-2.113,0.05-3.162c0.011-0.646,0.018-1.28,0.004-1.926c-0.01-0.468-0.035-0.911-0.087-1.377
			c-0.094-0.85-0.251-1.65-0.578-2.441c-0.36-0.871-0.8-1.706-1.235-2.542c-0.656-1.261-1.434-2.432-2.172-3.643
			c-0.397-0.651-0.75-1.369-1.252-1.947c-0.243-0.279-0.424-0.605-0.648-0.899c-0.205-0.269-0.464-0.457-0.703-0.688
			c-0.109-0.124-0.242-0.055-0.344,0.054c-0.32,0.144-0.129,0.597-0.094,0.883c0.066,0.518-0.003,0.971-0.039,1.486
			c-0.027,0.533-0.086,1.048-0.123,1.585c-0.086,1.352-0.068,2.774,0.168,4.117c0.212,1.253,0.583,2.379,1.049,3.557
			c0.48,1.204,1.108,2.456,1.836,3.531c0.729,1.098,1.567,2.104,2.428,3.088c3.065,4.313,3.294,10.021,5.338,14.841
			c0.227,2.17,0.849,4.473,2.725,5.481c-0.189,1.023-0.159,2.1-0.081,3.119c0.065,0.992,0.119,2.136,0.336,3.161
			c-1.847,4.815-3.884,9.548-6.037,14.229c-0.697,1.5-1.393,3.001-2.143,4.484c-0.022-1.082-0.101-2.168-0.212-3.248
			c1.367-2.097,2.257-4.374,2.257-6.91c-0.001-1.172-0.132-2.378-0.275-3.542c-0.255-1.964-1.218-4.033-1.15-6.007
			c0.016-0.38-0.402-0.275-0.524-0.032c-3.191,6.652-0.674,13.684-0.547,20.628c-1.506,2.891-3.257,5.638-5.608,7.965
			C420.188,181.965,420.813,182.993,421.301,182.502z M442.812,111.145c0.285-1.208,0.36-2.43,0.34-3.66
			c0.46,1.227,0.831,2.486,1.146,3.758c0.334,1.348,0.681,2.669,0.875,4.05c0.075,0.536,0.142,1.083,0.135,1.625
			c-0.004,0.363-0.026,0.722-0.021,1.086c0.007,0.466-0.097,0.918-0.172,1.377c-0.086,0.529-0.298,0.992-0.454,1.492
			c-0.164,0.526-0.383,1.064-0.612,1.58c-0.454,1.025-0.97,2.028-1.296,3.104c0.098-0.31,0.023-0.823-0.031-1.145
			c-0.046-0.371-0.177-0.731-0.272-1.087c-0.09-0.337-0.171-0.671-0.237-1.011c-0.057-0.299-0.202-0.573-0.3-0.859
			c-0.189-0.554-0.373-1.115-0.502-1.687c-0.163-0.727-0.334-1.491-0.316-2.239c0.03-1.214,0.388-2.369,0.798-3.494
			C442.239,113.086,442.588,112.133,442.812,111.145z M437.732,119.758c-0.034-0.097-0.068-0.194-0.099-0.292
			c-0.109-0.342-0.23-0.686-0.306-1.039c-0.152-0.709-0.351-1.405-0.442-2.121c-0.042-0.329-0.051-0.662-0.078-0.993
			c-0.067-0.825-0.253-1.651-0.27-2.481c-0.003-0.133-0.07-0.727,0.155-0.645c0.17,0.063,0.366,0.58,0.434,0.713
			c0.507,0.98,1.076,1.928,1.585,2.908c0.272,0.525,0.532,1.047,0.774,1.587c0.656,1.467,1.451,2.857,1.942,4.399
			c0.179,0.561,0.339,1.086,0.438,1.666c0.05,0.312,0.091,0.629,0.118,0.942c0.161,1.675,0.044,3.358-0.261,5.027
			c0.058-0.323-0.234-0.926-0.346-1.229c-0.154-0.427-0.322-0.836-0.512-1.244c-0.347-0.732-0.743-1.451-1.076-2.179
			c-0.691-1.509-1.418-3.015-1.914-4.6C437.83,120.036,437.78,119.897,437.732,119.758z M442.357,130.541
			c0.937-1.862,2.829-2.948,4.712-3.836c0.755-0.347,1.514-0.686,2.214-1.14c0.89-0.587,1.295-1.823,1.218-0.216
			c-0.143,2.825-3.36,5.027-5.565,6.207c-1.1,0.594-2.177,0.951-3.083,1.614C442.032,132.3,442.206,131.42,442.357,130.541z
			 M426.994,127.156c-0.255-0.318-0.515-0.622-0.812-0.976c-0.862-1.029-1.631-2.184-2.259-3.413
			c-0.627-1.245-1.172-2.459-1.455-3.839c-0.373-1.818-0.7-3.639-0.613-5.5c0.013-0.278-0.091-2.617,0.363-2.518
			c0.327,0.071,0.791,0.867,0.948,1.103c1.902,2.858,3.958,5.876,4.382,9.361c0.12,0.988,0.241,2.023,0.199,3.011
			c-0.025,0.598-0.061,1.196-0.079,1.794c-0.009,0.298-0.014,0.597-0.01,0.895c0.002,0.149,0.005,0.298,0.011,0.447
			c0.004,0.088-0.027,0.34,0.023,0.41C427.489,127.654,427.253,127.394,426.994,127.156z M432.459,142.72
			c0.004-0.014,0.017-0.032,0.013-0.04c-0.044-0.214-0.101-0.432-0.144-0.646c-0.648-4.194,0.463-9.234,1.007-13
			c1.371,2.725,2.378,5.571,2.708,8.634c0.377,3.456-0.64,6.227-1.426,9.442C433.471,145.902,432.812,144.396,432.459,142.72z
			 M436.518,152.523c0.463-1.255,0.895-2.528,1.318-3.796c1.405-2.218,2.99-3.831,5.41-5.247c0.43-0.258,2.909-1.298,3.652-1.842
			c-0.391,0.44-1.227,1.348-1.244,1.357c-0.799,1.238-1.251,2.667-1.946,3.953c-0.978,1.827-2.241,3.43-4.108,4.412
			C438.615,151.872,437.541,152.126,436.518,152.523z M426.843,154.16c0.134,0.821,0.401,1.617,0.593,2.419
			c0.398,1.72,0.627,3.461,0.717,5.217c0.14,2.61-0.682,4.671-1.734,6.92C425.881,163.801,425.025,158.858,426.843,154.16z"/>
	</g>
</g>
<g id="Book">
	<g id="Books">
		<g id="XMLID_409_">
			<g id="XMLID_414_">
				<path id="XMLID_497_" d="M95.885,416.348l2.879-1.654c0,0-1.653-0.525-2.415-0.169
					C95.588,414.879,95.885,416.348,95.885,416.348z"/>
				<path id="XMLID_496_" d="M93.91,414.536c0,0,2.33-2.568,5.127,0c2.797,2.568,2.941,5.113,4.099,5.071s1.141-20.507,1.141-20.507
					l-11.024,10.254L93.91,414.536z"/>
				<path id="XMLID_494_" style="fill:#455A64;" d="M209.431,340.111l0.181-0.104l-1.772-1.023l-76.071-43.919l-110.85,71.74
					c-1.833,1.059-2.158,2.584-0.725,3.408l2.593,1.491l71.109,41.073l0.505-0.368L209.431,340.111z"/>
				<path id="XMLID_487_" style="fill:#27DEBF;" d="M103.386,389.41l-5.506-1.135v22.052c3.322,1.41,5.434,2.743,5.783,5.522
					L103.386,389.41z"/>
				<path id="XMLID_481_" style="fill:#EBEBEB;" d="M95.443,410.619l-70.442-40.671c-1.222-0.705-2.213-2.422-2.213-3.833v-21.738
					l71.123,41.421c0,0,0.848,3.076,3.37,4.047c2.522,0.971,0.599,1.946,0.599,1.946v18.537
					C95.702,410.07,95.443,410.619,95.443,410.619z"/>
				<path id="XMLID_478_" style="fill:#37474F;" d="M101.939,388.657c-0.728-0.422-1.303-0.447-1.303-0.051v0.69
					c0,0.767-1.163,0.728-2.606-0.102c-1.431-0.83-2.609-2.119-2.609-2.885v-0.692c0-0.396-0.98-1.277-2.194-1.98l114.612-65.669
					c0.702,0.406,1.775,1.031,1.775,1.031c0.296,0.29,0.436,0.782,0.436,0.949v0.69c0,0.767,1.163,2.057,2.593,2.887
					c1.444,0.831,2.606,0.869,2.606,0.102v-0.69c0-0.396,0.575-0.371,1.303,0.051L101.939,388.657z"/>
				<path id="XMLID_474_" style="fill:#455A64;" d="M209.431,319.102l0.181-0.104l-1.772-1.023l-76.071-43.92L20.92,338.066
					c-1.833,1.058-2.158,2.584-0.725,3.407l2.593,1.491l71.123,42.833L209.431,319.102z"/>
				<path id="XMLID_473_" style="fill:#455A64;" d="M215.27,322.264l-114.522,66.119l4.01,3.136l114.152-65.905
					c-0.495-1.173-1.007-1.792-1.528-2.13L215.27,322.264z"/>
				<g id="XMLID_440_">
					<path id="XMLID_468_" style="fill:#455A64;" d="M218.461,355.225c0.07-0.041,0.139-0.09,0.206-0.149
						c0.051-0.025,0.09-0.064,0.128-0.115c0.089-0.089,0.166-0.192,0.23-0.307c0.051-0.051,0.077-0.102,0.115-0.166
						c0.115-0.192,0.217-0.409,0.294-0.639c0.089-0.23,0.166-0.485,0.23-0.741c0.064-0.281,0.115-0.562,0.166-0.869
						c0.038-0.166,0.051-0.345,0.064-0.524c0.013-0.141,0.025-0.268,0.038-0.422c0.026-0.319,0.038-0.651,0.038-0.996v-18.92
						c0-2.115-0.418-4.233-1.061-5.767l-114.151,65.908l-0.482,29.641l114.147-65.914L218.461,355.225z"/>
					<path id="XMLID_441_" style="opacity:0.1;" d="M104.758,391.519L104.758,391.519c0,0,89.899-42.076,98.081-45.931
						c5.398-2.544,4.77,3.831,0.999,8.758c-3.015,3.94-29.483,26.346-29.483,26.346l29.369-16.958l14.698-8.488l0.038-0.021
						c0.07-0.041,0.139-0.09,0.206-0.149c0.051-0.025,0.09-0.064,0.128-0.115c0.089-0.089,0.166-0.192,0.23-0.307
						c0.051-0.051,0.077-0.102,0.115-0.166c0.115-0.192,0.217-0.409,0.294-0.639c0.089-0.23,0.166-0.485,0.23-0.741
						c0.064-0.281,0.115-0.562,0.166-0.869c0.038-0.166,0.051-0.345,0.064-0.524c0.013-0.141,0.025-0.268,0.038-0.422
						c0.026-0.319,0.038-0.651,0.038-0.996v-18.92c0-2.115-0.418-4.233-1.061-5.767L104.758,391.519z"/>
				</g>
				<g id="XMLID_415_">
					<g>
						<g id="XMLID_32_">
							<path id="XMLID_33_" style="fill:#37474F;" d="M105.816,397.292h-2.555c0-2.734-0.805-4.995-1.239-5.583
								c-0.562,0.435-1.278,0.69-2.095,0.69c-1.201,0-2.389-0.536-3.181-0.996c-1.035-0.6-2.185-1.52-2.951-2.593
								c-0.051-0.077-0.115-0.154-0.153-0.23c-0.46-0.677-0.741-1.431-0.767-2.185l-67.468-38.953l-2.287-1.329l-2.926-1.686
								c-0.6-0.345-0.894-0.818-0.894-1.316v-2.99c0,0.588,0.345,1.022,0.894,1.354l0.038,0.026l7.742,4.459l65.245,37.675
								c1.214,0.703,2.21,1.585,2.21,1.981v0.69c0,0.332,0.217,0.767,0.6,1.214c0.46,0.588,1.188,1.201,1.993,1.674
								c1.444,0.83,2.606,0.869,2.606,0.102v-0.69c0-0.396,0.575-0.371,1.303,0.051l1.29,0.754
								C104.654,390.227,105.816,393.766,105.816,397.292z"/>
						</g>
						<g id="XMLID_30_">
							<path id="XMLID_31_" style="fill:#37474F;" d="M103.261,397.292v18.92c0,0.268-0.013,0.537-0.026,0.792l-0.064,0.639
								c0,0.025,0,0.038-0.013,0.064c-0.23-2.031-2.172-3.845-3.858-4.804c-0.754-0.447-1.916-0.971-3.117-0.971
								c-0.894,0-1.699,0.32-2.287,0.843l-0.23-0.128c-0.153-0.089-0.294-0.179-0.447-0.268l-65.245-37.675
								c0,0-1.712-0.984-3.743-2.159c-0.345-0.204-0.715-0.409-1.073-0.626c-1.099-0.639-2.21-1.277-3.156-1.827
								c-0.434-0.319-0.702-0.716-0.702-1.227v0.817v2.172c0,0.422,0.217,0.831,0.651,1.15c0,0.013,0.013,0.013,0.026,0.025
								c0.37,0.217,0.767,0.434,1.162,0.677c0.243,0.141,0.486,0.281,0.729,0.422c0.434,0.242,0.856,0.498,1.252,0.728
								c0.281,0.166,0.537,0.319,0.779,0.447c0.204,0.115,0.383,0.23,0.549,0.319c0.587,0.345,0.958,0.562,0.958,0.562
								l51.831,29.908l16.545,9.556c1.175,0.69,2.133,0.933,2.197,0.575c0.011-0.05,0.013-0.109,0.013-0.122v-0.67
								c0-0.83,1.163-0.83,2.594,0c1.405,0.805,2.018,1.802,2.044,2.606v0.817c0,0.422,0.166,0.856,0.383,0.971
								c0.102,0.064,0.243,0.141,0.383,0.217c0.23,0.128,0.511,0.294,0.818,0.473c0.306,0.179,0.652,0.383,1.009,0.588
								c0.473,0.269,0.907,0.217,1.29-0.115c0.051-0.025,0.09-0.064,0.128-0.115c0.09-0.09,0.166-0.192,0.23-0.307v-0.013
								c0.051-0.051,0.077-0.089,0.115-0.153c0.115-0.192,0.217-0.409,0.294-0.639c0.089-0.23,0.166-0.485,0.23-0.741
								c0.064-0.281,0.115-0.562,0.166-0.869c0.039-0.166,0.051-0.345,0.064-0.523c0.013-0.141,0.025-0.268,0.038-0.422
								c0.025-0.319,0.038-0.652,0.038-0.996v-18.92H103.261z"/>
						</g>
					</g>
				</g>
			</g>
			<path id="XMLID_595_" style="opacity:0.1;" d="M218.906,325.608l-108.49,62.639L28.409,340.9c-1.226-0.703-1.226-1.853,0-2.555
				l107.354-61.987l72.067,41.61h0.013c0.702,0.409,1.776,1.035,1.776,1.035c0.294,0.281,0.434,0.779,0.434,0.945v0.69
				c0,0.767,1.163,2.057,2.594,2.887c0.077,0.051,0.153,0.077,0.23,0.115l2.389-1.38l1.137,0.652
				c0.051,0.025,0.089,0.038,0.153,0.077l-0.013,0.013l0.843,0.485C217.897,323.819,218.421,324.445,218.906,325.608z"/>
		</g>
		<g id="XMLID_443_">
			<path id="XMLID_408_" style="fill:#27DEBF;" d="M34.515,341.374l3.264-1.744l-2.973-0.711
				C34.2,339.609,34.163,340.442,34.515,341.374z"/>
			<path id="XMLID_582_" style="opacity:0.5;" d="M34.515,341.374l3.264-1.744l-2.973-0.711
				C34.2,339.609,34.163,340.442,34.515,341.374z"/>
			<g id="XMLID_393_">
				<path id="XMLID_406_" style="fill:#27DEBF;" d="M120.988,384.922c-1.833,1.059-4.805,1.059-6.638,0l-74.523-43.028
					l111.557-63.368l2.606-1.508L228.51,319c1.827,1.06,1.827,2.785,0,3.833L120.988,384.922z"/>
				<path id="XMLID_397_" style="fill:#27DEBF;" d="M93.006,304.687l-25.987,14.958l-16.824-9.713l-19.57,11.307
					c0,0,0,11.349,0,13.059s1.917,4.145,2.614,3.744c0,0,1.533,0.313,3.741,1.328c2.209,1.015,5.401,3.996,5.401,3.996l59.715-33.43
					L93.006,304.687z"/>
				<path id="XMLID_573_" style="opacity:0.15;" d="M93.006,304.687l-25.987,14.958l-16.824-9.713l-19.57,11.307
					c0,0,0,11.349,0,13.059s1.917,4.145,2.614,3.744c0,0,1.533,0.313,3.741,1.328c2.209,1.015,5.401,3.996,5.401,3.996l59.715-33.43
					L93.006,304.687z"/>
				<path style="fill:#37474F;" d="M41.362,322.81v14.175c-0.079-0.057-0.157-0.1-0.229-0.143c-0.794-0.457-1.981-0.994-3.183-0.994
					c-0.822,0-1.537,0.064-2.095,0.494v-16.714L41.362,322.81z"/>
				<path style="fill:#E0E0E0;" d="M45.017,341.855c-0.029-0.844-0.386-1.673-0.937-2.418c-0.265-0.372-0.579-0.722-0.915-1.051
					c-0.1-0.1-0.207-0.2-0.315-0.301c-0.136-0.114-0.272-0.229-0.408-0.343c-0.114-0.086-0.229-0.172-0.343-0.258
					c-0.243-0.179-0.493-0.343-0.736-0.493v-14.117l3.64,2.11v-0.072L45.017,341.855z"/>
				<path style="opacity:0.4;" d="M30.624,334.297c0,1.71,1.917,4.145,2.614,3.744h0.001l2.614-1.698v-10.777l-2.619-4.506
					l-1.427-0.507l-1.184,0.684C30.624,321.238,30.624,332.587,30.624,334.297z"/>
			</g>
			<path id="XMLID_567_" style="fill:#EBEBEB;" d="M117.668,366.865v16.175c-0.805,0-1.61-0.166-2.21-0.524l-8.176-4.714
				l-62.268-35.951l-0.013-16.942L117.668,366.865z"/>
			<path style="opacity:0.15;" d="M49.722,335.752l17.431,10.063c0,0-1.81-1.884-8.715-5.823
				C51.725,336.164,49.722,335.752,49.722,335.752z"/>
			<path id="XMLID_565_" style="fill:#F5F5F5;" d="M226.645,306.104v12.215c0,1.405-0.997,3.13-2.21,3.833l-96.392,55.651
				l-8.164,4.714c-0.6,0.358-1.406,0.524-2.21,0.524v-14.348L226.645,306.104z"/>
			<g id="XMLID_444_">
				<path id="XMLID_548_" style="fill:#27DEBF;" d="M151.383,257.506L39.827,321.921c0,0,0,0.664,0,1.495
					c0,0.831-1.162,1.137-2.593,0.307c-1.444-0.831-2.606-1.865-2.606-3.296l-0.14-1.418l113.665-65.616l0.46-0.268
					c0.115,0.217,0.192,0.46,0.192,0.69v0.69C148.803,255.334,149.952,256.663,151.383,257.506z"/>
				<path id="XMLID_391_" style="opacity:0.1;" d="M151.383,257.506L39.827,321.921c0,0,0,0.664,0,1.495
					c0,0.831-1.162,1.137-2.593,0.307c-1.444-0.831-2.606-1.865-2.606-3.296l-0.14-1.418l113.665-65.616l0.46-0.268
					c0.115,0.217,0.192,0.46,0.192,0.69v0.69C148.803,255.334,149.952,256.663,151.383,257.506z"/>
				<path id="XMLID_389_" style="fill:#27DEBF;" d="M114.349,364.949l-72.87-42.074c-0.926-0.485-1.772-0.875-2.128-0.687
					l0.476-0.267l111.557-64.414c0,0,0.655-0.376,1.304-0.752c0.719-0.417,2.293-0.184,3.515,0.522l72.307,41.75
					c1.827,1.061,1.827,2.785,0,3.833l-107.522,62.089C119.154,366.007,116.183,366.007,114.349,364.949z"/>
				<g>
					<path style="fill:#455A64;" d="M132.928,286.321l0.582-0.336l1.725,0.996l11.771-6.796l-1.725-0.995l0.582-0.336l6.575,3.795
						l-0.582,0.337l-1.832-1.058l-11.771,6.795l2.22,1.282c0.432,0.249,0.884,0.427,1.358,0.535
						c0.834,0.166,1.883,0.059,3.147-0.323l2.651-0.81l0.625,0.361l-4.764,2.651L132.928,286.321z"/>
					<path style="fill:#455A64;" d="M153.955,298.461l0.582-0.336l1.531,0.884l2.523-3.323l-4.291-2.478l-5.69,1.494l1.206,0.696
						c0.087,0.05,0.158,0.101,0.217,0.15c0.156,0.124,0.063,0.286-0.281,0.484l-3.966-2.289l0.582-0.337l1.379,0.797l17.074-4.405
						l1.596,0.92l-7.265,10.069l0.645,0.373c0.087,0.05,0.159,0.101,0.217,0.15c0.157,0.124,0.064,0.286-0.281,0.485
						L153.955,298.461z M162.018,291.193l-6.811,1.792l3.772,2.178L162.018,291.193z"/>
					<path style="fill:#455A64;" d="M171.15,308.389c-0.245-0.142-0.403-0.283-0.476-0.424c-0.115-0.232,0.094-0.701,0.626-1.406
						l3.729-4.842l-10.563,2.813l-0.431-0.248c-0.245-0.142-0.403-0.283-0.475-0.424c-0.115-0.232,0.094-0.701,0.626-1.406
						l6.553-8.563l-1.078-0.623l0.582-0.336l5.843,3.373l-0.582,0.336l-1.725-0.995l-6.035,7.392l7.867-2.103l2.608-3.397
						l5.001,2.887l-0.582,0.337l-1.703-1.009l-5.906,7.27l12.267-3.572l-1.725-0.996l0.582-0.336l3.557,2.054l-0.582,0.336
						l-1.078-0.622l-16.47,4.754L171.15,308.389z"/>
				</g>
				<g>
					<path style="fill:#FFFFFF;" d="M111.592,357.476c-0.123,0-0.247-0.032-0.357-0.095l-54.748-31.512
						c-0.221-0.127-0.358-0.363-0.358-0.619c0-0.255,0.136-0.492,0.358-0.62c1.046-0.604,1.671-1.686,1.669-2.893
						c-0.001-1.208-0.626-2.29-1.674-2.893c-0.221-0.127-0.358-0.363-0.358-0.619c0-0.255,0.136-0.492,0.358-0.62l91.383-52.76
						c0.221-0.127,0.494-0.127,0.715,0c3.53,2.038,7.917,2.039,11.448,0c0.221-0.127,0.495-0.127,0.715,0l54.653,31.554
						c0.221,0.128,0.358,0.364,0.358,0.62c0,0.256-0.136,0.492-0.358,0.619c-1.045,0.603-1.67,1.685-1.67,2.892
						c0.001,1.207,0.624,2.288,1.67,2.892c0.221,0.128,0.358,0.364,0.358,0.619c0,0.256-0.136,0.492-0.358,0.62l-91.299,52.711
						c-0.22,0.127-0.493,0.128-0.714,0.001c-3.529-2.031-7.91-2.028-11.434,0.008C111.839,357.444,111.715,357.476,111.592,357.476z
						 M58.137,325.169l53.461,30.771c3.778-2.02,8.354-2.023,12.135-0.009l90.015-51.97c-0.923-0.884-1.45-2.104-1.451-3.43
						c0-1.327,0.528-2.547,1.451-3.432l-53.369-30.812c-3.785,2.023-8.367,2.023-12.15,0l-90.097,52.017
						c0.925,0.884,1.453,2.104,1.454,3.432C59.588,323.063,59.06,324.283,58.137,325.169z"/>
				</g>
				<path id="XMLID_388_" style="fill:#27DEBF;" d="M148.611,253.124l-0.46,0.268L34.486,319.008c0,0-0.077-0.179-0.243-0.307
					c-0.102-0.064-0.23-0.128-0.383-0.217l-0.818-0.473c-0.306-0.179-0.652-0.383-1.009-0.588c-0.473-0.268-0.907-0.217-1.291,0.115
					c-0.051,0.025-0.089,0.064-0.127,0.115c-0.128,0.128-0.243,0.294-0.345,0.473c-0.115,0.192-0.217,0.409-0.294,0.639
					c-0.09,0.23-0.166,0.486-0.23,0.741c-0.064,0.281-0.115,0.562-0.166,0.869c-0.038,0.166-0.051,0.345-0.064,0.524
					c-0.013,0.141-0.025,0.268-0.038,0.421c-0.025,0.32-0.038,0.652-0.038,0.997v-3.194c0-1.763,1.494-4.05,3.321-5.11
					l107.532-62.089c1.84-1.06,4.484-1.239,5.915-0.422l1.354,0.792l0.051,0.026c0.089,0.064,0.32,0.192,0.575,0.332
					c0,0,0.013,0,0.013,0.013C148.355,252.754,148.509,252.92,148.611,253.124z"/>
				<path id="XMLID_371_" style="fill:#27DEBF;" d="M114.347,384.918l-4.497-2.606L42.382,343.36
					c-0.026-0.843-0.371-1.674-0.92-2.415c-0.767-1.073-1.916-1.993-2.951-2.593c-0.792-0.46-1.98-0.996-3.181-0.996
					c-0.818,0-1.533,0.256-2.095,0.69c-0.435-0.588-1.239-2.849-1.239-5.583H29.44c0,3.526,1.162,7.065,2.593,7.882l1.291,0.754
					c0.728,0.422,1.303,0.447,1.303,0.051v-0.69c0-0.767,1.163-0.728,2.606,0.102c1.431,0.831,2.593,2.121,2.593,2.887v0.69
					c0,0.396,0.997,1.277,2.21,1.98l65.245,37.675l7.065,4.076c0,0,0.013,0,0.013,0.013c0.92,0.511,2.108,0.779,3.309,0.779v-2.951
					C116.468,385.711,115.267,385.455,114.347,384.918z"/>
				<path id="XMLID_370_" style="opacity:0.3;" d="M114.347,384.918l-4.497-2.606L42.382,343.36
					c-0.026-0.843-0.371-1.674-0.92-2.415c-0.767-1.073-1.916-1.993-2.951-2.593c-0.792-0.46-1.98-0.996-3.181-0.996
					c-0.818,0-1.533,0.256-2.095,0.69c-0.435-0.588-1.239-2.849-1.239-5.583H29.44c0,3.526,1.162,7.065,2.593,7.882l1.291,0.754
					c0.728,0.422,1.303,0.447,1.303,0.051v-0.69c0-0.767,1.163-0.728,2.606,0.102c1.431,0.831,2.593,2.121,2.593,2.887v0.69
					c0,0.396,0.997,1.277,2.21,1.98l65.245,37.675l7.065,4.076c0,0,0.013,0,0.013,0.013c0.92,0.511,2.108,0.779,3.309,0.779v-2.951
					C116.468,385.711,115.267,385.455,114.347,384.918z"/>
				<path id="XMLID_453_" style="fill:#27DEBF;" d="M114.373,364.962c0,0-0.013-0.013-0.026-0.013l-4.497-2.606l-51.831-29.907
					l-16.544-9.556c-1.175-0.69-2.134-0.933-2.197-0.575c-0.013,0.013-0.013,0.026-0.013,0.039v0.754c0,0.83-1.163,0.83-2.594,0
					c-1.405-0.805-2.018-1.801-2.044-2.606v-0.818c0-0.422-0.166-0.856-0.383-0.971c-0.102-0.064-0.243-0.141-0.383-0.217
					c-0.23-0.128-0.511-0.294-0.818-0.473c-0.306-0.179-0.652-0.383-1.009-0.588c-0.473-0.268-0.907-0.217-1.291,0.115
					c-0.051,0.025-0.089,0.064-0.127,0.115c-0.09,0.089-0.166,0.191-0.23,0.306c-0.051,0.051-0.077,0.102-0.115,0.166
					c-0.115,0.192-0.217,0.409-0.294,0.639c-0.09,0.23-0.166,0.486-0.23,0.741c-0.064,0.281-0.115,0.562-0.166,0.869
					c-0.038,0.166-0.051,0.345-0.064,0.524c-0.013,0.141-0.025,0.268-0.038,0.421c-0.025,0.32-0.038,0.652-0.038,0.997v10.145h2.555
					v-10.145c0-0.268,0.013-0.536,0.026-0.792l0.064-0.638c0-0.026,0-0.039,0.013-0.064c0.23,2.031,2.172,3.846,3.858,4.804
					c0.754,0.447,1.916,0.971,3.118,0.971c0.894,0,1.699-0.319,2.287-0.843l0.23,0.128c0.153,0.09,0.294,0.179,0.447,0.268
					l65.245,37.675l7.065,4.076c0,0,0.013,0,0.013,0.013c0.013,0.013,0.026,0.013,0.051,0.025c0.907,0.498,2.082,0.754,3.258,0.754
					v-2.949C116.349,365.743,115.3,365.451,114.373,364.962z"/>
				<path id="XMLID_451_" style="opacity:0.3;" d="M114.373,364.962c0,0-0.013-0.013-0.026-0.013l-4.497-2.606l-51.831-29.907
					l-16.544-9.556c-1.175-0.69-2.134-0.933-2.197-0.575c-0.013,0.013-0.013,0.026-0.013,0.039v0.754c0,0.83-1.163,0.83-2.594,0
					c-1.405-0.805-2.018-1.801-2.044-2.606v-0.818c0-0.422-0.166-0.856-0.383-0.971c-0.102-0.064-0.243-0.141-0.383-0.217
					c-0.23-0.128-0.511-0.294-0.818-0.473c-0.306-0.179-0.652-0.383-1.009-0.588c-0.473-0.268-0.907-0.217-1.291,0.115
					c-0.051,0.025-0.089,0.064-0.127,0.115c-0.09,0.089-0.166,0.191-0.23,0.306c-0.051,0.051-0.077,0.102-0.115,0.166
					c-0.115,0.192-0.217,0.409-0.294,0.639c-0.09,0.23-0.166,0.486-0.23,0.741c-0.064,0.281-0.115,0.562-0.166,0.869
					c-0.038,0.166-0.051,0.345-0.064,0.524c-0.013,0.141-0.025,0.268-0.038,0.421c-0.025,0.32-0.038,0.652-0.038,0.997v10.145h2.555
					v-10.145c0-0.268,0.013-0.536,0.026-0.792l0.064-0.638c0-0.026,0-0.039,0.013-0.064c0.23,2.031,2.172,3.846,3.858,4.804
					c0.754,0.447,1.916,0.971,3.118,0.971c0.894,0,1.699-0.319,2.287-0.843l0.23,0.128c0.153,0.09,0.294,0.179,0.447,0.268
					l65.245,37.675l7.065,4.076c0,0,0.013,0,0.013,0.013c0.013,0.013,0.026,0.013,0.051,0.025c0.907,0.498,2.082,0.754,3.258,0.754
					v-2.949C116.349,365.743,115.3,365.451,114.373,364.962z"/>
				<path id="XMLID_368_" style="fill:#27DEBF;" d="M229.877,300.907v3.002c0,0.69-0.434,1.367-1.316,1.891l-0.051,0.026
					l-100.467,58.001l-7.052,4.076v0.013c0,0-0.013-0.013-0.013,0c-0.92,0.511-2.108,0.779-3.309,0.779v-2.951
					c1.201,0,2.402-0.255,3.322-0.792l4.485-2.593h0.013l103.022-59.496C229.486,302.295,229.873,301.632,229.877,300.907z"/>
				<path id="XMLID_367_" style="opacity:0.2;" d="M229.877,300.907v3.002c0,0.69-0.434,1.367-1.316,1.891l-0.051,0.026
					l-100.467,58.001l-7.052,4.076v0.013c0,0-0.013-0.013-0.013,0c-0.92,0.511-2.108,0.779-3.309,0.779v-2.951
					c1.201,0,2.402-0.255,3.322-0.792l4.485-2.593h0.013l103.022-59.496C229.486,302.295,229.873,301.632,229.877,300.907z"/>
				<path id="XMLID_366_" style="fill:#27DEBF;" d="M229.877,320.874v3.002c0,0.69-0.434,1.367-1.316,1.891l-0.051,0.026
					l-100.467,58.001l-7.052,4.076v0.013c0,0-0.013-0.013-0.013,0c-0.92,0.511-2.108,0.779-3.309,0.779v-2.951
					c1.201,0,2.402-0.255,3.322-0.792l4.485-2.593h0.013l103.022-59.496C229.486,322.262,229.873,321.599,229.877,320.874z"/>
				<path id="XMLID_344_" style="opacity:0.2;" d="M229.877,320.874v3.002c0,0.69-0.434,1.367-1.316,1.891l-0.051,0.026
					l-100.467,58.001l-7.052,4.076v0.013c0,0-0.013-0.013-0.013,0c-0.92,0.511-2.108,0.779-3.309,0.779v-2.951
					c1.201,0,2.402-0.255,3.322-0.792l4.485-2.593h0.013l103.022-59.496C229.486,322.262,229.873,321.599,229.877,320.874z"/>
			</g>
		</g>
		<g>
			<polygon style="fill:#27DEBF;" points="52.627,337.429 52.627,377.683 58.437,370.974 64.248,384.392 64.248,344.138 			"/>
			<polygon style="opacity:0.5;" points="52.627,337.429 52.627,377.683 58.437,370.974 64.248,384.392 64.248,344.138 			"/>
		</g>
		<g>
			<path style="fill:#27DEBF;" d="M78.773,389.75v10.923c0,3.62-1.931,6.964-5.065,8.774l-15.27,8.816l14.525-1.677l-2.905,8.386
				l15.27-8.816c3.135-1.81,5.066-5.155,5.066-8.774v-10.923L78.773,389.75z"/>
			<path style="opacity:0.5;" d="M78.773,389.75v10.923c0,3.62-1.931,6.964-5.065,8.774l-15.27,8.816l14.525-1.677l-2.905,8.386
				l15.27-8.816c3.135-1.81,5.066-5.155,5.066-8.774v-10.923L78.773,389.75z"/>
			<path style="opacity:0.15;" d="M75.393,387.802l17.43,10.064c0,0-1.81-1.884-8.715-5.823
				C77.396,388.215,75.393,387.802,75.393,387.802z"/>
		</g>
	</g>
</g>
<g id="Gavel">
	<g id="Mullet">
		<g id="Base">
			<g>
				<path style="fill:#27DEBF;" d="M454.143,334.287c-26.04-15.034-68.26-15.034-94.299,0c-13.023,7.519-19.489,17.37-19.465,27.223
					c0.007,3.047,0.007,7.151,0,10.199c-0.023,9.852,6.442,19.701,19.465,27.22c26.04,15.034,68.26,15.034,94.299,0
					c13.023-7.519,19.488-17.369,19.465-27.22c-0.007-3.048-0.007-7.151,0-10.199C473.633,351.657,467.167,341.807,454.143,334.287z
					"/>
				<path style="opacity:0.5;" d="M454.143,334.287c-26.04-15.034-68.26-15.034-94.299,0c-13.023,7.519-19.489,17.37-19.465,27.223
					c0.007,3.047,0.007,7.151,0,10.199c-0.023,9.852,6.442,19.701,19.465,27.22c26.04,15.034,68.26,15.034,94.299,0
					c13.023-7.519,19.488-17.369,19.465-27.22c-0.007-3.048-0.007-7.151,0-10.199C473.633,351.657,467.167,341.807,454.143,334.287z
					"/>
				<ellipse style="fill:#27DEBF;" cx="406.995" cy="361.51" rx="66.68" ry="38.498"/>
				<ellipse style="opacity:0.35;" cx="406.995" cy="361.51" rx="66.68" ry="38.498"/>
			</g>
			<g>
				<path style="fill:#27DEBF;" d="M442.923,328.054c-19.843-11.456-52.016-11.456-71.859,0
					c-9.924,5.73-14.852,13.236-14.833,20.744c0.006,2.322,0.005,4.434,0,6.756c-0.018,7.507,4.909,15.013,14.833,20.742
					c19.843,11.457,52.016,11.457,71.859,0c9.924-5.729,14.851-13.235,14.833-20.742c-0.006-2.322-0.006-4.434,0-6.756
					C457.775,341.291,452.848,333.784,442.923,328.054z"/>
				<path style="opacity:0.15;" d="M442.923,328.054c-19.843-11.456-52.016-11.456-71.859,0
					c-9.924,5.73-14.852,13.236-14.833,20.744c0.006,2.322,0.005,4.434,0,6.756c-0.018,7.507,4.909,15.013,14.833,20.742
					c19.843,11.457,52.016,11.457,71.859,0c9.924-5.729,14.851-13.235,14.833-20.742c-0.006-2.322-0.006-4.434,0-6.756
					C457.775,341.291,452.848,333.784,442.923,328.054z"/>
				<path style="fill:#455A64;" d="M371.065,328.055c-19.843,11.457-19.843,30.032,0,41.488c19.843,11.457,52.016,11.457,71.86,0
					c19.843-11.456,19.843-30.031,0-41.488C423.081,316.598,390.908,316.598,371.065,328.055z"/>
			</g>
		</g>
		<g id="Mallet">
			<path style="fill:#37474F;" d="M374.389,323.906c-5.925-3.94-95.952-48.551-103.87-52.903
				c-7.917-4.352-6.947-11.587-4.957-14.889c1.989-3.302,6.913-5.993,13.842-2.271c4.507,2.421,100.248,60.644,100.248,60.644
				S382.768,318.832,374.389,323.906z"/>
			<path style="fill:#263238;" d="M371.63,322.326l6.605-1.441c0.279-0.303,0.522-0.599,0.732-0.888
				C372.964,317.062,341.299,301.5,308,283.5c-36.922-19.958-43.968-24.978-40.734-29.381c-0.696,0.599-1.273,1.28-1.703,1.995
				c-1.989,3.302-2.96,10.537,4.957,14.889C277.833,275.023,355.191,313.387,371.63,322.326z"/>
			<g>
				<path style="fill:#37474F;" d="M445.482,276.009c-12.129-7.003-22.48-4.215-26.574,5.763c-0.782,1.906-3.784,9.192-4.508,10.983
					c-0.951,2.353-1.472,5.198-1.472,8.485c0,14.594,10.246,32.341,22.885,39.638c2.86,1.652,5.597,2.624,8.12,2.973
					c1.899,0.262,9.646,1.295,11.671,1.574c10.719,1.478,18.336-6.094,18.336-20.124
					C473.94,307.152,461.199,285.083,445.482,276.009z"/>
				<path style="fill:#263238;" d="M435.812,288.027c-12.639-7.297-22.885-1.382-22.885,13.213
					c0,14.594,10.246,32.341,22.885,39.638c12.639,7.297,22.885,1.382,22.885-13.213
					C458.697,313.071,448.451,295.324,435.812,288.027z"/>
			</g>
			<g>
				<g>
					<path style="fill:#27DEBF;" d="M407.026,289.951c4.446-2.548,10.568-2.18,17.341,1.73
						c13.599,7.851,24.622,26.945,24.622,42.647c0,7.845-2.76,13.341-7.214,15.907c-1.489,0.858-41.24,24.08-42.723,24.94
						c-4.45,2.582-10.594,2.226-17.394-1.7c-13.599-7.851-24.622-26.945-24.622-42.647c0-7.852,2.765-13.35,7.225-15.913
						C365.748,314.061,405.521,290.814,407.026,289.951z"/>
					<path style="opacity:0.3;" d="M407.026,289.951c4.446-2.548,10.568-2.18,17.341,1.73c13.599,7.851,24.622,26.945,24.622,42.647
						c0,7.845-2.76,13.341-7.214,15.907c-1.489,0.858-41.24,24.08-42.723,24.94c-4.45,2.582-10.594,2.226-17.394-1.7
						c-13.599-7.851-24.622-26.945-24.622-42.647c0-7.852,2.765-13.35,7.225-15.913
						C365.748,314.061,405.521,290.814,407.026,289.951z"/>
					<path style="opacity:0.15;" d="M369.531,362.767l76.254-44.283c2.03,5.306,3.204,10.753,3.204,15.845
						c0,7.845-2.76,13.341-7.213,15.907c-1.49,0.858-41.24,24.08-42.723,24.94c-4.45,2.582-10.594,2.227-17.394-1.7
						C377.245,370.927,373.112,367.183,369.531,362.767z"/>
				</g>
				<g>
					<path style="fill:#263238;" d="M381.661,316.598c-13.599-7.852-24.624-1.487-24.624,14.216
						c0,15.703,11.025,34.798,24.624,42.65c13.599,7.852,24.624,1.487,24.624-14.216
						C406.284,343.544,395.26,324.449,381.661,316.598z"/>
				</g>
			</g>
			<g>
				<path style="fill:#37474F;" d="M397.243,363.146c0-14.594-10.246-32.341-22.885-39.638c-3.065-1.77-5.989-2.76-8.66-3.038
					c-0.096-0.01-9.73-1.101-11.809-1.353c-10.543-1.277-18.003,6.284-18.003,20.169c0,18.148,12.741,40.217,28.458,49.291
					c11.977,6.915,22.22,4.284,26.418-5.39c0.848-1.954,4.037-9.327,4.814-11.091C396.651,369.654,397.243,366.651,397.243,363.146z
					"/>
				<path style="fill:#455A64;" d="M364.344,322.854c-15.717-9.074-28.458-1.718-28.458,16.43c0,18.148,12.741,40.217,28.458,49.291
					c15.717,9.074,28.458,1.718,28.458-16.43C392.802,353.997,380.061,331.928,364.344,322.854z"/>
			</g>
		</g>
	</g>
</g>
<g id="Character">
	<g id="Justice_1_">
		<g id="Stand">
			<g>
				<path id="XMLID_3564_" style="fill:#263238;" d="M316.305,396.749c-3.186-3.283-7.132-6.387-11.968-9.178
					c-28.353-16.37-74.322-16.37-102.675,0c-4.836,2.792-8.781,5.896-11.967,9.179l-9.298,3.748v16.714h0.001
					c0,10.727,7.088,21.455,21.265,29.639c28.353,16.37,74.322,16.37,102.675,0c14.176-8.185,21.264-18.912,21.264-29.64v-16.714
					L316.305,396.749z"/>
				<ellipse id="XMLID_3563_" style="fill:#37474F;" cx="253" cy="400.316" rx="72.602" ry="41.917"/>
				<path id="XMLID_3562_" style="fill:#455A64;" d="M253,360.313c19.062,0,36.955,4.269,50.381,12.021
					c13.096,7.561,20.308,17.499,20.308,27.983s-7.212,20.422-20.308,27.983c-13.427,7.752-31.319,12.021-50.381,12.021
					c-19.062,0-36.954-4.269-50.381-12.021c-13.096-7.561-20.308-17.499-20.308-27.983c0-10.484,7.213-20.422,20.308-27.983
					C216.045,364.582,233.938,360.313,253,360.313 M253,358.4c-18.58,0-37.161,4.092-51.337,12.277
					c-28.353,16.37-28.353,42.91,0,59.279c14.177,8.185,32.757,12.277,51.338,12.277c18.581,0,37.161-4.092,51.338-12.277
					c28.353-16.369,28.352-42.91-0.001-59.279C290.161,362.492,271.58,358.4,253,358.4L253,358.4z"/>
			</g>
			<g id="XMLID_3555_">
				<path id="XMLID_3559_" style="fill:#263238;" d="M305.423,378.003c-2.639-2.718-5.906-5.289-9.91-7.601
					c-23.479-13.556-61.546-13.556-85.025,0c-4.005,2.312-7.272,4.882-9.91,7.601l-7.699,2.561v14.383h0
					c0,8.883,5.87,17.767,17.609,24.544c23.479,13.556,61.546,13.556,85.025,0c11.74-6.778,17.609-15.661,17.609-24.545v-14.383
					L305.423,378.003z"/>
				<path id="XMLID_3556_" style="fill:#455A64;" d="M253,346.422c-15.387,0-30.773,3.389-42.512,10.167
					c-23.479,13.556-23.479,35.533,0,49.089c11.74,6.778,27.126,10.167,42.513,10.167c15.387,0,30.773-3.389,42.512-10.167
					c23.479-13.556,23.479-35.533,0-49.089C283.773,349.811,268.386,346.422,253,346.422L253,346.422z"/>
			</g>
		</g>
		<g id="Justice">
			<path id="Hair" style="fill:#263238;" d="M254.622,37.706c-8.564-2.961-20.471-0.81-25.071,5.643
				c-4.599,6.453-6.442,14.74-6.462,22.09s2.131,9.472-8.624,15.738s-3.63,18.634-7.932,24.549
				c-4.302,5.915-12.906,4.44-20.703,9.681c-7.797,5.241-9.41,17.248-6.453,22.537c2.958,5.289,3.764,13.261-1.882,14.048
				c-5.646,0.786-4.974-4.457-4.974-4.457s-3.495,5.108,2.554,10.217c6.049,5.108,14.519,1.478,17.88-2.42
				c0,0-4.571,11.158,4.436,21.51c9.007,10.351,24.691,4.167,24.691,4.167s5.35,10.715,24.476,7.912
				c19.126-2.803,27.507-38.428,25.669-59.265c-0.852-9.653-4.693-30.097-8.571-49.261C280.701,45.6,254.622,37.706,254.622,37.706z
				"/>
			<g id="Arm_5_">
				<path style="fill:#FFA8A7;" d="M349.917,63.754c-2.844,3.86-10.526,10.481-16.957,15.575
					c-5.885,4.661-13.572,10.094-13.572,10.094c-5.402-0.784-11.795-1.345-18.259-2.007c-7.502-0.768-15.128-0.101-16.644-1.32
					c-1.516-1.219-8.641-6.298-18.778-4.91l9.737,22.712c7.747,2.482,39.667,2.456,43.422,2.488c4.724,0.04,7.247,0.256,10.1-2.531
					c3.049-2.979,6.539-5.785,9.338-9.003c5.09-5.853,10.012-13.08,12.893-16.116L349.917,63.754z"/>
				<g>
					<path style="fill:#FFA8A7;" d="M342.815,71.05c4.067-4.163,6.181-5.741,5.643-10.151c-0.539-4.41-1.817-6.813-1.586-7.849
						c0.231-1.037,3.095-5.682,3.79-7.861s1.473-2.624,3.364-3.08c1.891-0.456,6-1.375,7.127-1.849c0,0,1.227,2.193-1.19,3.717
						c-1.078,0.68-2.609,1.687-2.609,1.687s1.715,1.617,2.53,2.291c0.815,0.674,0.755,1.312,0.042,3.928
						c0,0,1.226,0.362,1.507,1.249c0.281,0.887,0.056,1.898-0.129,2.726c0,0,0.786,0.256,1.229,0.998
						c0.443,0.742,0.018,2.917-0.618,4.789c-0.462,2.222-0.27,5.092-0.811,6.953c-0.541,1.862-3.133,3.745-4.932,4.889
						l-11.564,13.517l-13.284-6.395C331.325,80.608,339.838,74.098,342.815,71.05z"/>
					<path style="fill:#F28F8F;" d="M349.456,53.603c1.426-1.419,2.354-2.883,2.624-4.672c0.27-1.789,0.448-3.789,1.019-3.878
						c0.959-0.15,3.011,1.485,2.831,4.437c-0.171,2.815-1.09,6.193-1.086,7.005c0.005,0.813,0.913,2.615,1.669,3.989
						c0.755,1.375,1.646,5.144-1.518,8.638c0,0,2.101-1.076,3.058-4.289c0.957-3.213-1.253-6.07-1.804-7.496
						c-0.551-1.426-0.661-1.714-0.06-4.344c0.601-2.63,1.262-5.465-0.992-7.692c-2.255-2.227-3.005-0.933-3.247-0.07
						C351.708,46.094,351.756,51.418,349.456,53.603z"/>
					<path style="fill:#F28F8F;" d="M357.354,45.663l-1.677,1.1l0.628,0.394c0,0,0.937-0.84,2.505-0.146L357.354,45.663z"/>
					<path style="fill:#F28F8F;" d="M359.926,51.883c-0.206,0.868-1.011,3.519-1.167,4.057c-0.156,0.538-1.156,0.495-1.846-0.411
						c-0.69-0.906-0.902-1.562-0.894-2.563c0,0-0.345,1.62,0.5,2.813c0.845,1.193,1.782,1.247,2.324,1.009
						C359.385,56.55,359.471,53.733,359.926,51.883z"/>
					<path style="fill:#F28F8F;" d="M361.304,55.858c-0.146,0.653-0.497,1.513-0.936,3.311c-0.254,1.04-0.379,1.714-1.007,1.711
						c-0.628-0.003-1.849-1.174-1.848-2.405c0.001-1.231,0.237-2.116,0.237-2.116l-0.512-0.153c0,0-0.543,1.911-0.109,3.337
						c0.434,1.426,1.977,2.395,2.567,1.94c0.59-0.455,0.712-1.044,1.017-2.548C361.019,57.429,361.304,55.858,361.304,55.858z"/>
					<path style="fill:#F28F8F;" d="M359.846,60.964c-0.05,0.434,0.288,1.36,0.994,1.303c0.706-0.057,1.076-0.622,1.076-0.622
						s-0.195,0.941-1.115,1.009c-0.849,0.063-1.356-0.757-1.58-1.476L359.846,60.964z"/>
				</g>
			</g>
			<path id="Leg" style="fill:#FFA8A7;" d="M310.816,268.784c4.045-17.405,0.01-23.36-3.826-36.269
				c-4.643-15.621-11.951-28.638-16.14-43.866l-34.797,22.402c11.352,21.282,19.501,33.993,26.028,52.734
				c-3.846,10.143-8.24,16.94-9.197,29.151c-1,12.759,0.96,40.472-0.362,50.843c-1.322,10.371-4.331,12.811-4.054,16.22
				c0.458,5.648,5.598,6.802,7.832,8.108c5.671,3.314,6.471,7.499,10.881,10.938c4.41,3.439,11.833,3.545,16.432,1.637
				c5.595-2.321,5.251-5.246-0.536-7.35c-4.526-1.645-8.488-6.58-12.839-13.353c-3.446-5.364-5.298-6.81-2.386-17.744
				C291.938,326.889,306.771,286.189,310.816,268.784z"/>
			<g id="Dress_1_">
				<g id="Dress">
					<path style="fill:#27DEBF;" d="M308.29,278.042c-1.22,2.24-2.72,5.34-4.36,8.99c-0.01,0.01-0.01,0.03-0.02,0.04
						c-0.39,0.77-6.81,13.4-14.17,27.28c-7.6,14.33-19.61,43.3-19.61,43.3c-4.74,12.16-11.7,23.89-24.72,29.21
						c-18.95,7.74-43.61,4.81-48.8,0.13c0,0,0.04-9.71,5.44-11.97c4.91-2.06,6.56-2.4,14.3-4.81c-0.59-2.81-0.45-6.36,1.6-7.9
						c0,0,1.66-10.69,0-15.81c-1.65-5.12-4.35-8.98-1.21-12.56c0,0-2.59-16.63,0-26.9c2.59-10.28,5.35-11.04,5.62-18.5
						c0.28-7.47-4.08-26.75-5.62-34.74c-1.54-7.99-3.42-12.92,0-15.55c0,0-0.34-14.1,1.74-29.12c2.55-18.31,7.09-27.51,7.09-27.51
						s0.77-11.86,5.66-9.63c4.08-5.43,8.26-9.25,9.27-13.31c0.44-1.77-2.73-7.84-4.86-12.68c-0.15-0.35-0.3-0.69-0.45-1.01
						c-2.67,0-1.87-3.55-1.86-3.58c0,0,3.35-4.6,7.17-7.93c8.37-7.3,19.16-10.96,24.44-24.18c5.28-13.22-1.91-27.82-1.91-27.82
						c4.3-0.85,9.36-0.2,12.81,5.58c1.45,2.44,2.59,5.89,2.33,10.79c3.03,4.34,5.88,8.71,8.66,12.79
						c2.78,4.09,6.76,14.61-2.69,22.26l-1.72,19.05c1.91-2.25,4.07,4.26,3.26,9.68c0,0,2.95,0.35,3.6,5.14
						c0.38,2.75,5.24,27.54,8.54,32.23c3.31,4.68,7.71,8.4,6.06,14.25c0,0,9.36,27.88,11.02,38.07
						C316.55,261.512,314.9,265.922,308.29,278.042z"/>
					<path style="opacity:0.75;fill:#FFFFFF;" d="M314.896,251.325c-0.54-3.332-1.907-8.558-3.499-14.08
						c-3.279-11.365-7.517-23.992-7.517-23.992c0,0,0-0.001,0-0.001l0-0.001c0.079-0.279,0.131-0.548,0.183-0.817
						c1.037-5.384-3.091-8.975-6.243-13.432c-0.426-0.605-0.877-1.549-1.342-2.732c-2.581-6.563-5.559-20.64-6.719-26.778
						c-0.253-1.333-0.42-2.293-0.479-2.72c-0.65-4.79-3.6-5.14-3.6-5.14c0.277-1.854,0.201-3.83-0.088-5.545
						c-0.345-2.044-0.996-3.715-1.743-4.334c-0.458-0.378-0.951-0.363-1.429,0.199l0-0.005c-0.001,0.001-0.001,0.001-0.002,0.001
						l0.494-5.457l1.227-13.59c8.23-6.663,6.273-15.501,3.794-20.374c-0.367-0.72-0.745-1.355-1.103-1.882
						c-2.782-4.087-5.634-8.455-8.662-12.79c0.26-4.906-0.879-8.355-2.333-10.797c-0.351-0.589-0.722-1.112-1.104-1.599
						c-1.593-2.024-3.429-3.195-5.333-3.783c-2.125-0.653-4.33-0.595-6.366-0.192c0.044,0.09,7.172,14.637,1.908,27.816
						c-5.28,13.22-16.07,16.88-24.44,24.18c-3.82,3.33-7.17,7.93-7.17,7.93c-0.007,0.021-0.387,1.705,0.243,2.755
						c0.021,0.035,0.049,0.065,0.073,0.099c0.04,0.057,0.077,0.116,0.124,0.169c0.3,0.333,0.751,0.555,1.418,0.555
						c0,0.001,0.001,0.001,0.001,0.002c0,0,0.001,0,0.001,0c0.038,0.081,0.076,0.173,0.115,0.257
						c0.112,0.246,0.224,0.491,0.337,0.749c1.444,3.281,3.356,7.116,4.308,9.804c0.455,1.283,0.692,2.307,0.55,2.879
						c-0.099,0.398-0.237,0.794-0.394,1.189c-1.441,3.634-5.192,7.225-8.872,12.118c-0.001,0-0.001,0-0.001-0.001
						c-0.001,0.001-0.002,0.003-0.003,0.004c-0.916-0.418-1.688-0.341-2.337,0.06c-0.971,0.601-1.668,1.926-2.164,3.404
						c-0.002,0.005-0.004,0.01-0.005,0.015c-0.002,0.006-0.004,0.013-0.006,0.02c-0.816,2.454-1.084,5.313-1.137,5.984
						c-0.007,0.094-0.011,0.147-0.011,0.147l0,0c0,0,0,0.001,0,0.001s-2.479,5.039-4.802,15.049
						c-0.82,3.537-1.621,7.681-2.285,12.462c-0.871,6.273-1.318,12.383-1.544,17.377c-0.074,1.625-0.124,3.132-0.157,4.486
						c-0.11,4.446-0.042,7.26-0.042,7.26c-3.418,2.628-1.54,7.561,0,15.548c0.426,2.207,1.066,5.279,1.765,8.724
						c1.496,7.373,3.255,16.456,3.738,22.482c0.006,0.073,0.013,0.15,0.019,0.222c0.002,0.028,0.003,0.054,0.005,0.083
						c0.091,1.222,0.127,2.312,0.094,3.224c-0.017,0.467-0.044,0.908-0.08,1.326c-0.236,2.773-0.876,4.571-1.722,6.544
						c-1.066,2.49-2.463,5.258-3.819,10.633c-2.591,10.274,0,26.906,0,26.906c-0.982,1.119-1.393,2.264-1.444,3.467
						c-0.002,0.049,0.003,0.1,0.002,0.15c-0.003,0.192-0.005,0.384,0.009,0.579c0.004,0.053,0.014,0.107,0.019,0.16
						c0.219,2.412,1.617,5.069,2.628,8.201c1.652,5.12,0,15.81,0,15.81c-1.595,1.196-2.027,3.608-1.87,5.941
						c0.046,0.669,0.133,1.333,0.265,1.959c-7.74,2.41-9.39,2.75-14.3,4.81c-1.565,0.655-2.677,1.937-3.471,3.425
						c-1.937,3.638-1.965,8.513-1.965,8.547c1.428,1.285,4.329,2.436,8.171,3.272c4.024,0.875,9.081,1.405,14.584,1.374
						c8.368-0.049,17.751-1.393,26.042-4.779c1.387-0.567,2.692-1.221,3.946-1.926c10.515-5.913,16.536-16.423,20.773-27.285
						c0,0,12.01-28.97,19.61-43.3c7.36-13.88,13.78-26.51,14.17-27.28c0.01-0.01,0.01-0.03,0.02-0.04
						c0.492-1.094,0.969-2.132,1.432-3.119c0.08-0.17,0.158-0.338,0.237-0.505c0.099-0.209,0.196-0.413,0.293-0.617
						c0.872-1.83,1.681-3.444,2.394-4.752C314.896,265.921,316.548,261.514,314.896,251.325z"/>
				</g>
				<g id="Lights">
					<path style="opacity:0.15;fill:#FFFFFF;" d="M273.55,135.812c-1.54,3.97-8.8,10.69-18.2,7.78c-5.94-1.84-9.03-6-9.18-9.71
						c0.75-0.56,1.56-1.13,2.41-1.71c2.01-1.36,3.96-2.71,5.81-4.08c0.22,0.27,0.44,0.59,0.65,0.97c2.01,3.55,5.86,6.78,12.02,6.16
						C273.21,134.592,275.09,131.842,273.55,135.812z"/>
					<path style="opacity:0.15;fill:#FFFFFF;" d="M283.641,154.172c1.185,2.408,1.894,13.665-3.343,23.955
						c-5.237,10.29-14.045,20.203-23.753,24.677c-9.708,4.474-20.543-0.639-23.219-6.309c0,0,7.195,10.114,22.726,2.623
						c15.531-7.491,22.926-22.525,24.245-28.652C281.616,164.338,283.116,152.278,283.641,154.172z"/>
					<path style="opacity:0.15;fill:#FFFFFF;" d="M289.118,211.051c-1.164,11.947-6.996,35.757-18.835,47.557
						c-11.839,11.8-29.11,12.982-37.463,6.31c-8.354-6.673-1.464-5.557,4.556-4.347c6.02,1.21,18.661,2.111,30.5-8.272
						C279.714,241.916,288.088,221.32,289.118,211.051z"/>
					<path style="opacity:0.15;fill:#FFFFFF;" d="M297.459,201.822c2.389,2.805,5.896,6.679,3.734,12.619
						c-2.162,5.94-5.392,15.243-9.967,30.769c-4.576,15.525-6.568,31.502-17.167,42.773c-10.599,11.271-27.5,15.774-27.5,15.774
						s18.473-6.45,26.531-22.083c8.058-15.633,10.969-21.951,14.412-35.708C290.946,232.21,298.442,216.802,297.459,201.822z"/>
					<path style="opacity:0.1;fill:#FFFFFF;" d="M274.493,116.144c-2.276,3.823-1.004,11.392,3.107,14.099
						c2.062,1.358,5.934,0.888,8.866-2.749c3.151-3.909,2.628-9.682,1.64-10.779c-0.988-1.098-2.234,4.739-6.339,2.763
						C277.662,117.502,275.865,113.839,274.493,116.144z"/>
					<path style="opacity:0.25;fill:#FFFFFF;" d="M305.909,228.042c-2.39-2.573-6.626,10.365-6.795,16.271
						c-0.169,5.906,4.859,12.554,5.718,19.978c0.859,7.424-4.907,24.151-2.52,21.501c2.387-2.65,10.456-16.535,10.771-24.803
						C313.398,252.721,307.886,230.17,305.909,228.042z"/>
				</g>
				<g style="opacity:0.2;">
					<path d="M278.169,95.43c-0.13-2.936-0.788-5.265-1.67-7.112l-4.037,2.603c0,0,3.588,4.139,5.707,6.935V95.43z"/>
					<path d="M283.369,179.646c3.744-9.36,2.314-18.016,2.314-18.016c-1.436,15.548-6.643,24.919-13.897,32.992
						C271.785,194.622,279.26,189.918,283.369,179.646z"/>
					<path d="M269.098,295.076c0,0,12.414-4.256,20.217-26.956c8.827-25.677,8.892-34.418,16.594-48.687
						c-1.202-3.718-2.029-6.182-2.029-6.182c-7.648,17.627-12.505,36.579-17.929,55.401
						C280.532,287.457,269.098,295.076,269.098,295.076z"/>
					<path d="M265.155,323c25.119-17.336,37.739-47.82,37.739-47.82c-13.187,23.91-27.878,38.891-49.289,50.654
						c-12.858,7.064-23.335,9.355-29.807,9.557l0,0c-1.633-8.649,1.06-17.874,8.658-34.218c7.599-16.344-7.598-39.426-8.5-44.587
						c-0.337-1.933-0.094-3.328,0.341-4.318c3.114,2.789,7.143,4.911,12.091,5.804c11.791,2.129,32.455-3.908,42.479-23.253
						c10.101-19.493,10.25-43.068,10.25-43.068c-0.894,8.736-6.172,34.058-17.333,46.505c-11.161,12.447-23.115,15.93-31.466,15.908
						c-4.627-0.012-9.552-1.033-14.03-4.077c-4.154-11.944-1.861-41.817,0.002-48.124c0.638-2.158,1.35-3.484,2.014-4.31
						c0.837,1.811,1.918,3.657,3.348,5.511c6.318,8.19,22.087,6.318,29.939,0c0,0-15.44,7.957-26.312-1.521
						c-1.876-1.636-3.386-3.446-4.61-5.288l0,0c0,0-2.499-4.604-0.931-8.649c1.534-3.962,4.025-2.802,4.025-2.802v0
						c2.404,2.676,6.656,4.696,14.162,3.905c18.475-1.945,32.877-17.376,34.491-36.859c-4.083,20.47-18.971,30.441-33.8,33.601
						c-7.134,1.52-11.549-0.709-14.215-3.43c0.824-2.943,2.589-7.696,6.086-11.655c5.501-6.226,8.407-5.726,6.452-10.072
						c-1.789-3.975-5.935-14.655-8.627-19.613c2.033-2.234,5.253-5.211,10.262-8.607c10.877-7.375,20.064-14.077,20.794-28.85
						c0.729-14.773-6.343-21.836-6.343-21.836s7.192,14.595,1.912,27.813c-5.28,13.218-16.069,16.879-24.439,24.178
						c-3.822,3.333-7.175,7.933-7.175,7.933s-0.094,0.421-0.112,0.971c0,0.013-0.001,0.025-0.001,0.037
						c-0.007,0.264,0.004,0.553,0.052,0.843c0.005,0.029,0.011,0.057,0.017,0.086c0.021,0.112,0.049,0.221,0.083,0.33
						c0.011,0.035,0.021,0.07,0.033,0.104c0.048,0.133,0.103,0.262,0.175,0.381c0,0.001,0.001,0.002,0.001,0.003
						c0.021,0.035,0.049,0.065,0.073,0.099c0.019,0.027,0.04,0.053,0.059,0.081c0.022,0.028,0.039,0.059,0.063,0.085
						c0.001,0.001,0.001,0.002,0.002,0.003c0.051,0.056,0.112,0.104,0.172,0.154c0.028,0.023,0.051,0.05,0.081,0.072
						c0.066,0.047,0.144,0.084,0.22,0.122c0.034,0.017,0.061,0.039,0.097,0.054c0.105,0.044,0.223,0.076,0.348,0.102
						c0.014,0.003,0.024,0.008,0.038,0.011c0.141,0.026,0.295,0.04,0.462,0.04c0,0,0,0.001,0.001,0.002c0,0,0.001,0,0.001,0
						c0.038,0.081,0.076,0.173,0.115,0.257c0.112,0.246,0.224,0.491,0.337,0.749c1.444,3.281,3.356,7.116,4.307,9.804
						c0.455,1.283,0.693,2.307,0.55,2.879c-0.099,0.398-0.237,0.794-0.394,1.189c-1.441,3.634-5.192,7.225-8.872,12.118
						c0,0-0.001,0-0.001-0.001c-0.001,0.001-0.002,0.003-0.003,0.004c-0.916-0.418-1.688-0.341-2.337,0.06
						c-0.971,0.601-1.668,1.926-2.164,3.404c-0.002,0.005-0.004,0.01-0.005,0.015c-0.002,0.006-0.004,0.013-0.006,0.019
						c-0.816,2.454-1.083,5.313-1.137,5.984c-0.007,0.094-0.011,0.147-0.011,0.147c0,0,0,0,0,0.001v-0.001c0,0,0,0,0,0.001
						c0,0,0,0.001,0,0.001s-2.479,5.039-4.802,15.049c-0.82,3.537-1.621,7.681-2.285,12.462c-0.871,6.273-1.318,12.383-1.543,17.377
						c-0.073,1.625-0.124,3.132-0.157,4.486c-0.109,4.446-0.042,7.26-0.042,7.26c0,0,0,0,0,0c0,0,0,0,0,0c0,0,0,0,0,0
						c-3.417,2.628-1.54,7.561,0,15.548c0.426,2.207,1.066,5.279,1.765,8.724c0.117,0.577,0.236,1.168,0.356,1.764l0,0
						c0.757,3.771,1.548,7.869,2.188,11.716c0.024,0.145,0.047,0.288,0.071,0.433c0.06,0.368,0.12,0.734,0.177,1.096
						c0.031,0.194,0.06,0.386,0.09,0.577c0.047,0.307,0.094,0.611,0.138,0.912c0.032,0.217,0.064,0.433,0.095,0.647
						c0.039,0.27,0.076,0.535,0.112,0.799c0.031,0.228,0.063,0.457,0.092,0.681c0.031,0.234,0.059,0.462,0.087,0.692
						c0.03,0.242,0.061,0.486,0.089,0.721c0.02,0.17,0.036,0.332,0.055,0.499c0.066,0.6,0.124,1.181,0.17,1.735
						c0.007,0.085,0.017,0.176,0.023,0.26c0.004,0.043,0.007,0.086,0.011,0.129c0.029,0.378,0.052,0.741,0.07,1.093
						c0.006,0.117,0.01,0.228,0.015,0.341c0.01,0.243,0.018,0.481,0.022,0.709c0.002,0.104,0.004,0.208,0.005,0.308
						c0.002,0.312,0.001,0.615-0.009,0.895c-0.033,0.904-0.105,1.706-0.206,2.442c-0.014,0.1-0.03,0.194-0.045,0.291
						c-0.038,0.249-0.079,0.492-0.124,0.726c-0.022,0.113-0.045,0.223-0.068,0.333c-0.045,0.209-0.092,0.413-0.142,0.612
						c-0.028,0.111-0.056,0.223-0.085,0.332c-0.052,0.19-0.107,0.376-0.164,0.56c-0.032,0.105-0.063,0.213-0.097,0.317
						c-0.064,0.195-0.132,0.386-0.201,0.577c-0.09,0.25-0.185,0.499-0.284,0.747c-0.03,0.076-0.059,0.152-0.09,0.228
						c-0.093,0.227-0.188,0.455-0.287,0.686c-0.005,0.012-0.01,0.023-0.015,0.035c-0.553,1.291-1.196,2.662-1.874,4.43
						c-0.004,0.009-0.007,0.019-0.011,0.028c-0.151,0.394-0.304,0.808-0.458,1.246c-0.009,0.026-0.019,0.054-0.028,0.08
						c-0.151,0.43-0.302,0.881-0.455,1.36c-0.011,0.034-0.022,0.071-0.033,0.105c-0.152,0.481-0.305,0.985-0.457,1.521
						c-0.009,0.032-0.018,0.067-0.028,0.1c-0.155,0.547-0.31,1.122-0.464,1.733c-0.001,0.005-0.003,0.009-0.004,0.014
						c-0.002,0.006-0.003,0.013-0.005,0.02c-0.093,0.369-0.177,0.747-0.257,1.131c-0.026,0.126-0.05,0.254-0.075,0.381
						c-0.054,0.277-0.105,0.556-0.153,0.839c-0.023,0.139-0.047,0.277-0.069,0.418c-0.049,0.309-0.093,0.622-0.135,0.938
						c-0.014,0.104-0.029,0.205-0.042,0.309c-0.052,0.413-0.098,0.831-0.139,1.252c-0.012,0.12-0.021,0.242-0.032,0.363
						c-0.028,0.312-0.054,0.625-0.077,0.941c-0.011,0.156-0.022,0.311-0.032,0.468c-0.019,0.298-0.036,0.596-0.051,0.895
						c-0.007,0.144-0.015,0.287-0.021,0.431c-0.018,0.429-0.034,0.859-0.044,1.289c-0.001,0.061-0.002,0.121-0.003,0.182
						c-0.008,0.381-0.014,0.761-0.016,1.141c-0.001,0.146-0.001,0.292-0.001,0.438c0,0.305,0.001,0.609,0.004,0.913
						c0.001,0.143,0.003,0.286,0.005,0.428c0.005,0.353,0.012,0.703,0.021,1.052c0.002,0.077,0.003,0.155,0.005,0.232
						c0.012,0.431,0.027,0.857,0.045,1.278c0.004,0.094,0.009,0.187,0.013,0.28c0.015,0.334,0.031,0.664,0.048,0.991
						c0.006,0.11,0.012,0.22,0.018,0.329c0.019,0.342,0.04,0.678,0.061,1.01c0.004,0.06,0.008,0.121,0.012,0.181
						c0.055,0.821,0.116,1.605,0.18,2.346c0.004,0.042,0.007,0.083,0.011,0.125c0.03,0.341,0.06,0.673,0.091,0.993
						c0.001,0.014,0.003,0.03,0.004,0.045c0-0.002,0-0.005,0-0.007c0.306,3.168,0.633,5.273,0.633,5.273v0v0l0,0
						c-0.982,1.119-1.393,2.264-1.443,3.467c-0.002,0.049,0.003,0.1,0.002,0.15c-0.003,0.192-0.005,0.384,0.009,0.579
						c0.004,0.053,0.014,0.107,0.019,0.16c0.219,2.412,1.617,5.069,2.628,8.201c0.845,2.62,0.825,6.697,0.604,10.055l-0.001,0
						c-0.211,3.203-0.603,5.755-0.603,5.755c-1.595,1.196-2.027,3.608-1.87,5.941c0.046,0.669,0.134,1.333,0.265,1.959
						c-0.027,0.008-0.05,0.015-0.076,0.024c0.001,0,0,0,0.001,0c-7.681,2.399-9.332,2.728-14.225,4.779
						c-1.011,0.424-1.835,1.11-2.505,1.945c-2.907,3.618-2.932,10.036-2.932,10.036c0.001,0,0.001,0.001,0.002,0.002
						c0,0,0,0.002,0,0.002c0.159,0.144,0.342,0.286,0.537,0.426c0.006,0.004,0.013,0.009,0.019,0.013
						c0.188,0.134,0.394,0.266,0.613,0.396c0.025,0.015,0.051,0.029,0.077,0.044c0.207,0.12,0.427,0.239,0.661,0.355
						c0.033,0.017,0.067,0.033,0.101,0.05c0.235,0.115,0.482,0.228,0.741,0.339c0.035,0.015,0.069,0.03,0.104,0.045
						c0.275,0.116,0.562,0.229,0.862,0.34c0.022,0.008,0.043,0.016,0.064,0.024c0.979,0.358,2.086,0.689,3.307,0.987
						c0.089,0.022,0.181,0.042,0.271,0.063c0.305,0.072,0.614,0.143,0.932,0.211c0.137,0.029,0.278,0.058,0.417,0.086
						c0.281,0.058,0.565,0.114,0.854,0.168c0.16,0.03,0.322,0.059,0.485,0.088c0.288,0.051,0.58,0.1,0.875,0.147
						c0.162,0.026,0.324,0.052,0.488,0.078c0.335,0.051,0.677,0.099,1.022,0.146c0.126,0.017,0.249,0.035,0.377,0.052
						c0.946,0.122,1.922,0.228,2.93,0.314c-0.005-0.001-0.022-0.004-0.038-0.007c9.818,0.838,22.371-0.122,33.094-4.503
						c10.815-4.42,17.447-13.271,22.103-23.111l0.029-0.477c-3.75,8.69-18.145,21.895-39.3,23.577
						c-18.927,1.505-24.188-2.365-26.033-4.316c3.025-2.648,9.643-4.309,14.746-4.278c6.753,1.789,34.303,3.282,52.571-28.491
						c-5.314,5.906-16.037,20.289-39.724,24.658l-0.006-0.006c-2.656-1.727-4.817-4.263-5.224-6.865
						c-0.717-4.588,2.456-6.639,2.456-6.639c0-0.004,0-0.008,0-0.012c37.873-7.31,52.664-30.111,67.267-63.004
						c0,0-14.838,32.361-36.693,46.076c-13.244,8.312-24.258,11.21-31.176,12.183c-1.169-4.592-3.635-10.223-4.511-13.406
						c-0.443-1.61-0.315-3.015,0.025-4.158C229.813,339.205,245.595,336.499,265.155,323z"/>
					<path d="M277.259,131.493c0.116,0.418,1.987,6.641,6.375,7.084l0.511-5.674c4.064-3.291,5.64-7.111,5.899-10.723
						c-0.008,0.04-0.821,3.878-4.048,7.292c-2.122,2.245-5.058,3.802-8.756,2.003C277.246,131.482,277.252,131.487,277.259,131.493z
						 M283.187,133.31c-1.166,0.302-3.078,0.318-4.888-0.936C280.11,133.623,282.022,133.608,283.187,133.31z"/>
					<path d="M292.203,188.571c-0.012-0.796-0.041-1.508-0.087-2.112C292.15,187.162,292.177,187.866,292.203,188.571z"/>
					<path d="M279.421,249.002c-10.451,22.13-25.556,26.313-34.514,24.935c0,0,14.406,6.919,29.13-11.883
						c14.695-18.765,19.159-46.733,18.167-73.483C292.376,199.624,289.17,228.359,279.421,249.002z"/>
					<path d="M272.239,97.078c0,0,1.134,6.272,0.76,14.087c-0.344,7.196-2.765,14.087-2.765,14.087
						C274.936,118.15,275.315,104.668,272.239,97.078z"/>
					<path d="M278.169,125.253c0,0,3.084-7.581,0.699-18.886c-2.198-10.418-7.751-15.148-7.751-15.148
						c2.196,2.745,5.673,10.065,6.588,15.739C278.621,112.631,278.738,120.262,278.169,125.253z"/>
					<path d="M262.581,145.738c-6.078,0.782-12.736-1.075-16.898-7.52c0,0,3.964,15.412,16.574,14.851
						c12.61-0.56,13.209-18.968,13.209-18.968C273.925,140.131,270.138,144.766,262.581,145.738z"/>
				</g>
				<g id="Ties_1_">
					<g id="Ties">
						<path style="fill:#455A64;" d="M243.615,158.701c6.769,0,13.128-1.579,18.732-3.851c12.154-0.626,18.617-5.707,20.482-7.437
							l0.126-1.393c-0.107,0.018-0.209,0.064-0.287,0.15c-0.06,0.067-5.562,5.992-17.465,7.436
							c8.898-4.151,15.504-9.798,18.23-12.863l0.163-1.795c-1.739,2.595-9.91,10.214-21.395,14.908
							c-0.541,0.027-1.069,0.064-1.633,0.072c-12.631,0.183-20.761-3.053-23.225-4.193c0.214,0.463,0.424,0.922,0.633,1.379
							c3.252,1.364,10.544,3.79,21.38,3.819c-5.722,1.987-12.134,3.154-18.9,2.643c0.076,0.405,0.109,0.747,0.065,1.008
							C241.564,158.658,242.588,158.701,243.615,158.701z"/>
						<path style="fill:#455A64;" d="M282.42,151.952l0.2-2.27c0,0.01,0,0.01-0.01,0.01c-4.81,7.99-9.55,12.4-22.11,14.35
							c-9.02,1.39-15.19-0.09-18.49-2.19c-0.01,0-0.02-0.01-0.02-0.01c-0.77-0.49-1.38-1.01-1.84-1.54
							c-0.04-0.05-0.1-0.09-0.16-0.12c-0.14,0.31-0.29,0.61-0.45,0.92c0.53,0.58,1.2,1.14,2.02,1.66
							c1.48,1.35,10.17,6.66,23.41,6.66c-2.35,1.25-4.93,2.32-7.75,3.14c-12.22,3.54-19.81-0.82-23.36-3.89
							c-0.21,0.26-0.42,0.52-0.63,0.78c2.74,2.36,7.74,5.43,15.23,5.43c2.69,0,5.7-0.39,9.04-1.36c3.57-1.03,6.76-2.48,9.59-4.16
							c2.7-0.11,5.57-0.44,8.6-1.09c0.27-0.39,0.53-0.78,0.78-1.18c-2.48,0.54-5.35,0.99-7.62,1.16
							C276.51,163.172,280.82,156.652,282.42,151.952z M266.84,168.362c-8.17,0.29-14.78-1.51-19.11-3.31
							c1.75,0.34,3.73,0.54,5.96,0.54c2.11,0,4.43-0.17,6.96-0.57c9.87-1.53,15.15-4.68,19.27-9.69
							C277.46,159.622,273.12,164.592,266.84,168.362z"/>
						<path style="fill:#455A64;" d="M236.687,148.311c2.358,0.848,7.02,1.917,12.887,1.917c9.857,0,23.088-3.027,34.378-15.205
							l0.15-1.652c-18.916,21.433-43.809,15.665-48.019,13.614C236.279,147.422,236.482,147.865,236.687,148.311z"/>
					</g>
				</g>
			</g>
			<g id="Chest_2_">
				<g>
					<path id="XMLID_331_" style="fill:#F28F8F;" d="M225.569,134.485c-4.876-2.82-8.828-11.186-8.829-18.691
						c-0.001-4.224,1.253-7.278,3.214-8.636c1.525-1.059,3.485-1.096,5.617,0.139c4.879,2.811,8.83,11.178,8.829,18.691
						c0,3.514-0.866,6.218-2.295,7.812C230.491,135.603,228.158,135.977,225.569,134.485z"/>
				</g>
				<g>
					<path style="fill:#FFA8A7;" d="M263.028,81.487L263.028,81.487c-0.859,0.17-1.691,0.394-2.47,0.655
						c-0.545,0.252-1.186,0.568-1.893,0.927c-0.03-3.343-0.013-6.012-0.013-6.012l-20.464-0.055l0.065,15.088
						c-0.004,1.583-0.831,3.047-2.188,3.864c-2.747,1.654-7.314,4.408-9.015,5.462c-3.235,2.004-5.387,4.121-7.551,6.102
						l0.009,0.014c-1.699,1.494-2.769,4.374-2.769,8.263c0.001,7.505,3.953,15.871,8.829,18.691c0.242,0.14,0.479,0.247,0.716,0.354
						c0,0,0,0.002,0.001,0.003c3.254,1.782,5.243,3.609,7.038,6.57l0.002,0c0,0,3.353-4.6,7.175-7.933
						c8.37-7.299,19.159-10.961,24.439-24.178C270.22,96.082,263.028,81.487,263.028,81.487z"/>
				</g>
				<path style="fill:#F28F8F;" d="M259.914,100.24c-0.024-5.638-0.559-10.518-0.595-23.183h-0.666c0,0-0.043,6.972,0.135,12.492
					c-16.028-0.737-19.36-11.326-19.36-11.326c0.621,6.741,5.576,9.681,9.029,11.021c5.259,2.042,10.319,2.497,10.319,2.497
					s0.219,1.957,0.268,2.467c0.48,5.006,0.576,12.558-1.415,13.708C259.09,107.532,259.938,105.718,259.914,100.24z"/>
				<path style="fill:#F28F8F;" d="M259.568,89.547c0,0,3.398,0.178,5.825-1.463c0,0-0.772,1.989-5.825,2.321V89.547z"/>
				<path style="fill:#F28F8F;" d="M236.123,137.943c-2.434-1.74-5.694-0.822-8.201-2.132c0.13,0.084,0.25,0.171,0.375,0.256
					c0.102,0.069,0.207,0.139,0.306,0.209c0.251,0.177,0.492,0.359,0.727,0.543c0.054,0.042,0.112,0.083,0.165,0.126
					c0.284,0.228,0.556,0.464,0.818,0.706c0.067,0.062,0.129,0.127,0.195,0.19c0.19,0.182,0.376,0.367,0.557,0.558
					c0.09,0.096,0.179,0.196,0.267,0.295c0.15,0.168,0.298,0.34,0.442,0.516c0.091,0.111,0.182,0.224,0.271,0.338
					c0.14,0.181,0.278,0.369,0.414,0.56c0.082,0.115,0.166,0.228,0.247,0.347c0.173,0.254,0.343,0.52,0.512,0.792
					c0.035,0.057,0.071,0.107,0.106,0.164l0.002,0C233.326,141.411,234.445,139.878,236.123,137.943L236.123,137.943z"/>
			</g>
			<g id="Sword">
				<polygon id="XMLID_357_" style="fill:#EBEBEB;" points="273.174,338.365 200.581,237.189 194.609,241.377 265.447,343.779 
					283.689,361.523 				"/>
				<polyline id="XMLID_353_" style="fill:#E0E0E0;" points="265.447,343.779 263.863,333.325 197.595,239.283 194.609,241.377 				
					"/>
				<polygon id="XMLID_352_" style="fill:#FAFAFA;" points="273.174,338.365 263.863,333.325 265.447,343.779 283.689,361.523 				
					"/>
				<g>
					<path style="fill:#455A64;" d="M179.048,245.871c4.71-3.314,12.815-9.314,10.086-13.199
						c-2.426-3.452-14.489-20.683-16.277-23.238c-0.06,0.018-0.12,0.036-0.185,0.046c-1.581,0.343-3.001,0.046-3.684-0.941
						c-1.123-1.594,0.077-4.372,2.683-6.194c1.186-0.835,2.455-1.325,3.583-1.459c0.426-0.055,0.828-0.057,1.201-0.014
						c0.837,0.095,1.529,0.452,1.944,1.041c0.697,0.989,0.506,2.42-0.364,3.791c-0.032,0.053-0.074,0.105-0.108,0.159
						c1.786,2.548,13.862,19.772,16.292,23.237c2.732,3.898,11.126-1.703,15.831-5.008c4.705-3.305,6.226,0.608,2.342,3.336
						c-3.885,2.729-9.265,5.803-10.885,10.309c-1.527,4.224-1.48,4.98-1.467,5.057l0.004,0.014c-0.052-0.03-0.708-0.353-5.266-0.351
						c-4.777,0.003-9.498,4.014-13.383,6.743C177.51,251.928,174.343,249.176,179.048,245.871z"/>
					<polygon id="XMLID_348_" style="fill:#27DEBF;" points="193.691,233.757 197.587,234.736 197.339,238.951 193.29,237.753 					
						"/>
					<path style="fill:#37474F;" d="M181.394,249.204c3.884-2.735,8.606-6.745,13.386-6.748c4.558-0.006,5.213,0.316,5.264,0.354
						l-0.003-0.022l-1.699-2.412l-6.273-1.857l0.622-6.186l-16.969-24.218c0,0-0.938,0.11-1.52-0.092
						c-1.774-0.609-2.384-1.892-2.054-3.299c0.43-1.856,1.871-3.091,3.106-3.839c-1.128,0.134-2.398,0.625-3.583,1.459
						c-2.606,1.823-3.805,4.6-2.683,6.194c0.683,0.987,2.103,1.283,3.684,0.941c0.066-0.01,0.127-0.028,0.187-0.046
						c2.036,2.908,13.652,19.509,16.278,23.237c2.727,3.889-5.377,9.889-10.092,13.198
						C174.343,249.179,177.512,251.926,181.394,249.204z"/>
					<path id="XMLID_341_" style="opacity:0.6;fill:#FFFFFF;" d="M196.863,236.394l-0.132,1.251l-2.184-2.885l1.471,0.4
						C196.565,235.308,196.923,235.831,196.863,236.394z"/>
				</g>
				<polygon id="XMLID_337_" style="fill:#FFFFFF;" points="204.811,244.521 270.52,336.216 263.995,332.586 267.761,333.693 				
					"/>
				<polygon id="XMLID_313_" style="fill:#FFFFFF;" points="264.694,334.517 272.423,339.326 281.073,357.672 271.782,339.991 				
					"/>
			</g>
			<g id="Arm_4_">
				<path style="fill:#FFA8A7;" d="M227.052,101.415c-3.891,2.962-9.645,4.369-12.595,11.823c-2.95,7.454-2.721,11.076-3.827,14.292
					c-0.516,1.5-4.1,8.057-6.438,15c-2.673,7.94-5.844,17.132-6.729,19.099c-1.659,3.687-4.393,8.113-6.236,16.496
					c-1.844,8.383-3.724,27.34-4.462,32.134c-0.737,4.793-3.589,8.817-5.535,13.847c-2.203,5.695-1.895,7.661-1.157,9.136
					s2.167,1.511,3.089,3.17c0.922,1.659,1.718,1.103,2.455,2.537c0.737,1.434,1.643,0.126,1.643,0.126s6.765-8.078,8.446-9.054
					c0.909-0.527,1.534,0.4,1.534,0.4c1.079-0.014,2.361-0.407,3.72-0.943c0,0-0.554-2.598-1.844-6.47
					c-1.29-3.872-1.033-8.454,1.179-15.091c1.102-3.305,3.845-10.712,6.47-17.943c2.647-7.292,4.59-15.538,5.974-18.632
					c2.701-6.042,5.507-8.975,9.345-16.012c3.938-7.22,9.939-18.619,9.939-18.619s3.339-2.633,4.101-6.618
					C240.119,109.188,227.052,101.415,227.052,101.415z"/>
				<path style="fill:#F28F8F;" d="M232.023,136.713c0,0,2.93-2.612,2.667-12.593c0,0,3.5,8.094-0.884,14.827L232.023,136.713z"/>
			</g>
			<g id="Ribbon">
				<path style="fill:#27DEBF;" d="M234.071,77.57c-2.992,3.975-14.706,8.733-34.84,4.618c-19.145-3.912-43.683,2.612-47.339,24.178
					c0,0,3.715-6.274,9.038-7.561c0,0-4.794,9.796-1.819,21.619c0,0-0.675-13.286,12.407-23.347
					c9.647-7.419,18.379-6.804,38.667-5.86c20.289,0.944,25.364-6.941,28.004-14.217C237.318,77.978,235.885,78.174,234.071,77.57z"
					/>
				<path style="opacity:0.15;" d="M234.071,77.57c-2.992,3.975-14.706,8.733-34.84,4.618c-19.145-3.912-43.683,2.612-47.339,24.178
					c0,0,3.715-6.274,9.038-7.561c0,0-4.794,9.796-1.819,21.619c0,0-0.675-13.286,12.407-23.347
					c9.647-7.419,18.379-6.804,38.667-5.86c20.289,0.944,25.364-6.941,28.004-14.217C237.318,77.978,235.885,78.174,234.071,77.57z"
					/>
				<g style="opacity:0.15;">
					<g>
						<path d="M234.15,79.151c-1.305,1.334-2.965,2.274-4.634,3.084c-1.761,0.854-3.632,1.477-5.517,1.992
							c-1.63,0.446-3.3,0.778-4.98,0.97c-1.584,0.181-3.174,0.156-4.766,0.119c-4.343-0.101-8.605-0.466-12.879-1.244
							c-4.646-0.845-9.288-1.649-14.029-1.588c-5.612,0.073-11.031,1.628-15.915,4.36c-0.04,0.023-0.05,0.141,0.013,0.114
							c4.834-2.026,10.074-3.438,15.334-3.591c4.834-0.141,9.621,0.716,14.355,1.579c2.133,0.389,4.255,0.75,6.417,0.939
							c2.167,0.19,4.342,0.282,6.517,0.314c1.63,0.024,3.269,0.064,4.892-0.119c1.676-0.189,3.33-0.533,4.958-0.971
							c3.821-1.028,7.699-2.736,10.295-5.821C234.255,79.236,234.228,79.072,234.15,79.151L234.15,79.151z"/>
					</g>
					<g>
						<path d="M233.401,82.421c-0.65,0.843-1.54,1.561-2.396,2.18c-0.957,0.692-2.011,1.36-3.143,1.722
							c-2.445,0.782-4.95,1.361-7.508,1.588c-5.576,0.494-11.086-0.48-16.595-1.204c-1.517-0.199-3.041-0.365-4.567-0.47
							c-1.537-0.106-3.18-0.299-4.708-0.043c-0.124,0.021-0.134,0.296-0.007,0.316c1.538,0.237,3.119,0.217,4.667,0.377
							c1.484,0.153,2.96,0.35,4.438,0.551c2.827,0.386,5.646,0.838,8.486,1.119c2.804,0.278,5.633,0.382,8.443,0.14
							c2.509-0.216,5.136-0.672,7.43-1.755c1.2-0.567,2.328-1.269,3.354-2.112c0.818-0.672,1.627-1.402,2.16-2.327
							C233.483,82.454,233.456,82.35,233.401,82.421L233.401,82.421z"/>
					</g>
					<g>
						<path d="M188.188,86.109c-4.69-0.174-9.187,0.762-13.384,2.881c-4.292,2.166-8.411,5.063-11.207,9.041
							c-1.538,2.189-2.626,4.629-3.419,7.178c-0.038,0.122,0.093,0.323,0.167,0.143c1.777-4.351,4.324-8.275,7.945-11.313
							c3.744-3.14,8.09-5.783,12.881-6.919c2.297-0.544,4.643-0.705,6.995-0.801C188.257,86.315,188.281,86.113,188.188,86.109
							L188.188,86.109z"/>
					</g>
				</g>
				<path style="opacity:0.15;" d="M171.518,97.078c9.646-7.419,18.379-6.804,38.667-5.86s25.364-6.941,28.004-14.217
					c-0.872,0.976-2.305,1.172-4.118,0.568c-0.471,0.626-1.185,1.27-2.088,1.897c0.596,0.353,1.378,0.658,2.416,0.834
					c0,0-4.898,8.369-20.788,9.252c-15.889,0.883-26.726-4.009-42.094,5.946c-15.367,9.955-12.407,24.926-12.407,24.926
					S158.436,107.139,171.518,97.078z"/>
				<path style="opacity:0.1;" d="M160.93,98.806c0,0,0.663-2.02,2.08-4.366c0,0-8.846,3.769-11.118,11.926
					C151.892,106.367,155.607,100.093,160.93,98.806z"/>
			</g>
			<g id="Head_2_">
				<path style="fill:#37474F;" d="M276.839,49.626c0,0,0.949,1.989-0.764,2.322c-0.799,0.155-2.542-0.608-2.702-4.117
					c-0.232-5.06-3.641-8.833-10.893-10.281c-8.817-1.761-11.984,2.746-11.984,2.746l9.113,13.434l9.815,8.75
					c0,0,3.872,0.814,5.056-2.796c0.935-2.852-1.107-4.357-1.107-4.357s2.965,0.859,4.445-0.99
					C280.075,51.521,276.839,49.626,276.839,49.626z"/>
				<path style="fill:#FFA8A7;" d="M272.04,68.752c-0.47,15.29-4.27,20.92-13.23,20.8c-16.05-0.73-19.38-11.33-20.56-12.49
					l-0.06-0.06c-1.75,2.02-6.18,0.47-7.66-2.4c-1.6-3.11-1.34-6.76,1.54-8.2c1.66-0.84,4.37-0.94,5.85,1.35
					c1.06,1.65,0.49,3.84,2.29,3.41c1.48-0.35,1.29-5.13,1.29-5.13c3.32-0.71,5.17-4.19,4.21-8.26c0.96-4.44,6.21-10.27,13.9-4.04
					c0,0,2.06-5.69,7.27-4.27c2.04,0.56,5.03,4.62,5.15,11.19v0.01C272.11,63.232,272.13,65.962,272.04,68.752z"/>
				<g>
					<path id="XMLID_364_" style="fill:#263238;" d="M256.454,68.989c0.003,1.052-0.815,1.905-1.827,1.905
						c-1.013,0.001-1.836-0.852-1.839-1.904c-0.003-1.052,0.814-1.905,1.827-1.905C255.627,67.086,256.451,67.938,256.454,68.989z"
						/>
					<path id="XMLID_362_" style="fill:#263238;" d="M254.249,59.802l-4.278,2.542c-0.682-1.23-0.277-2.798,0.905-3.499
						C252.057,58.142,253.568,58.571,254.249,59.802z"/>
					<path id="XMLID_365_" style="fill:#263238;" d="M270.283,60.81l-4.633-1.816c0.553-1.294,2.038-1.936,3.317-1.434
						C270.246,58.061,270.835,59.516,270.283,60.81z"/>
					<path id="XMLID_360_" style="fill:#F28F8F;" d="M256.473,80.302l3.96,0.804c-0.198,1.13-1.245,1.866-2.339,1.644
						C257,82.528,256.275,81.432,256.473,80.302z"/>
					<path id="XMLID_358_" style="fill:#263238;" d="M269.328,66.034c0.003,1.052-0.814,1.905-1.827,1.905
						c-1.012,0-1.836-0.851-1.839-1.903c-0.003-1.051,0.815-1.905,1.827-1.905C268.501,64.129,269.324,64.982,269.328,66.034z"/>
					<polygon id="XMLID_354_" style="fill:#F28F8F;" points="260.433,65.44 261.928,77.057 267.796,74.882 					"/>
				</g>
				<g>
					<path style="fill:#455A64;" d="M250.496,40.297c-2.778-2.32-9.254-1.454-12.249-0.233c-3.574,1.457-6.159,2.601-8.255,7.317
						c-2.008,4.517-1.943,5.982-3.042,8.108c-0.391,0.756-1.243,1.627-2.077,1.795c-0.483,0.097-1.053-0.023-1.419,0.306
						c-0.206,0.185-0.288,0.472-0.317,0.747c-0.105,1.004-0.048,1.95,0.393,2.965c0.689,1.582,1.428,2.573,2.804,3.613
						c1.111,0.839,3.215,1.688,5.734,1.486c1.66-0.84,4.37-0.94,5.85,1.35c1.06,1.65,0.683,5.762,2.394,5.057
						c2.594-1.069,1.186-6.777,1.186-6.777c3.32-0.71,5.17-4.19,4.21-8.26c0.96-4.44,6.21-10.27,13.9-4.04
						C259.338,47.807,256.547,43.2,250.496,40.297z"/>
					<path style="fill:#37474F;" d="M245.248,58.224c0.205,1.229,1.942,6.473-3.004,8.005c-4.223,1.308-6.488-2.678-4.458-5.125
						c0,0,0.228,1.001,1.116,1.315c1.281,0.452,3.849-0.516,2.755-3.03L245.248,58.224z"/>
					<path style="fill:#37474F;" d="M258.393,52.837c-2.676-2.25-4.872-5.781-7.897-5.171c-6.825,1.377-4.787,10.106-4.787,10.106
						C246.618,53.57,251.369,48.131,258.393,52.837z"/>
				</g>
				<g>
					<path style="fill:#27DEBF;" d="M238.566,69.394c0,0,4.346,4.882,11.931,5.999c7.585,1.117,11.674-4.498,14.19-4.498
						l1.605,2.059c0,0,3.27,1.048,5.595-1.078c0,0,1.445-6.641,0.143-11.223c0,0-1.516-0.807-10.353-0.421
						c-8.28,0.362-17.274,2.133-26.767,5.657C236.56,66.164,237.794,66.954,238.566,69.394z"/>
					<path style="opacity:0.15;" d="M238.566,69.394c0,0,4.346,4.882,11.931,5.999c7.585,1.117,11.674-4.498,14.19-4.498
						l1.605,2.059c0,0,3.27,1.048,5.595-1.078c0,0,1.445-6.641,0.143-11.223c0,0-1.516-0.807-10.353-0.421
						c-8.28,0.362-17.274,2.133-26.767,5.657C236.56,66.164,237.794,66.954,238.566,69.394z"/>
					<g>
						<path style="opacity:0.15;" d="M271.887,71.875c0,0,0.473-2.182,0.633-4.905c-0.206,1.293-0.611,3.116-1.316,3.685
							c-1.129,0.912-3.706,1.086-5.139,0.24c-1.433-0.846-3.858-3.181-3.858-3.181l2.481,3.181l1.605,2.059
							C266.292,72.953,269.562,74.001,271.887,71.875z"/>
						<g style="opacity:0.15;">
							<g>
								<path d="M237.557,66.356c1.376-0.193,2.564,0.285,3.878,0.592c1.144,0.267,2.311,0.433,3.484,0.487
									c1.159,0.053,2.323,0.009,3.475-0.132c1.018-0.125,3.22-1.147,3.048-1.135c-0.609,0.044-1.214,0.264-1.814,0.381
									c-0.606,0.118-1.217,0.209-1.83,0.272c-1.189,0.122-2.389,0.14-3.582,0.054c-1.179-0.085-2.329-0.275-3.486-0.515
									c-1.031-0.215-2.151-0.471-3.169-0.077C237.539,66.291,237.522,66.361,237.557,66.356L237.557,66.356z"/>
							</g>
							<g>
								<path d="M238.461,67.5c1.746,0.968,3.64,1.806,5.532,2.444c1.689,0.569,3.713,1.16,5.479,0.661
									c0.029-0.008,0.063-0.092,0.019-0.098c-0.9-0.123-1.808-0.153-2.705-0.3c-1.007-0.165-1.991-0.436-2.954-0.771
									c-1.79-0.623-3.514-1.522-5.349-2.003C238.454,67.426,238.436,67.486,238.461,67.5L238.461,67.5z"/>
							</g>
							<path d="M271.391,66.331c-1.203,0.039-2.394,0.048-3.577-0.209c-1.14-0.248-2.249-0.633-3.403-0.815
								c-1.919-0.302-3.618,0.216-5.425,0.818c-2.022,0.673-4.035,1.344-6.112,1.829c-2.035,0.475-4.141,0.881-6.23,0.586
								c-0.009-0.001-0.016,0.021-0.005,0.022c2.091,0.317,4.19,0.454,6.292,0.13c2.016-0.311,3.98-0.921,5.912-1.562
								c0.888-0.295,1.76-0.644,2.664-0.89c1.115-0.303,2.201-0.324,3.344-0.14c1.035,0.167,2.056,0.416,3.095,0.559
								c1.2,0.165,2.248,0.044,3.442-0.12C271.463,66.529,271.474,66.329,271.391,66.331L271.391,66.331z"/>
							<path d="M270.661,63.67c-1.019-0.059-1.892-0.591-2.844-0.921c-0.856-0.297-1.719-0.616-2.607-0.8
								c-1.906-0.394-3.89-0.43-5.788,0.026c-1.899,0.456-3.755,1.119-5.638,1.64c-2.014,0.557-4.017,1.19-6.09,1.498
								c-0.006,0.001-0.011,0.015-0.004,0.015c2.101-0.181,4.195-0.305,6.265-0.734c1.91-0.396,3.724-1.117,5.608-1.602
								c1.929-0.497,3.884-0.533,5.847-0.219c0.884,0.141,1.733,0.282,2.587,0.559c0.85,0.276,1.736,0.707,2.644,0.667
								C270.69,63.797,270.712,63.673,270.661,63.67L270.661,63.67z"/>
							<path d="M261.1,70.13c-1.352,0.554-2.635,1.232-3.983,1.794c-1.306,0.545-2.658,0.921-4.054,1.153
								c-1.369,0.228-2.755,0.193-4.138,0.145c-1.316-0.046-2.699-0.684-3.863-1.244c-0.022-0.01-0.042,0.043-0.025,0.056
								c1.229,0.91,2.621,1.318,4.069,1.73c1.371,0.39,2.809,0.35,4.206,0.132c1.411-0.22,2.783-0.726,4.046-1.387
								c1.294-0.677,2.401-1.673,3.758-2.252C261.168,70.236,261.17,70.101,261.1,70.13L261.1,70.13z"/>
						</g>
						<path style="opacity:0.15;" d="M238.566,69.394c0,0,2.352,2.631,6.602,4.472c-3.096-1.633-5.486-4.651-5.36-5.659
							c0.127-1.013,0.708-1.112,3.515-2.129c2.396-0.868,2.439-2.253,2.38-3.509c-3.516,0.859-7.116,1.954-10.794,3.319
							C236.56,66.164,237.794,66.954,238.566,69.394z"/>
					</g>
				</g>
				<g>
					<path style="fill:#455A64;" d="M245.71,57.772c0.205,1.229,1.942,6.473-3.004,8.005c-4.223,1.308-6.488-2.678-4.458-5.125
						c0,0,0.025,1.892,0.913,2.205c1.281,0.452,3.893-0.58,2.497-3.468L245.71,57.772z"/>
					<path style="fill:#37474F;" d="M240.231,62.446c0.725-0.29,1.418-1.383,0.665-3.641c-0.753-2.258-3.402-7.639,0.271-11.206
						c0,0-2.041,2.332-1.207,6.345c0.456,2.195,2.919,5.445,1.873,7.898C241.318,62.691,240.231,62.446,240.231,62.446z"/>
				</g>
			</g>
			<g id="Scale">
				<g>
					<g>
						<g>
							<path style="fill:#27DEBF;" d="M312.501,174.861c-0.1,7,5.862,10.691,13.094,10.691c7.231,0,13.094-3.69,13.094-10.691
								H312.501z"/>
							<path style="opacity:0.3;" d="M312.501,174.861c-0.1,7,5.862,10.691,13.094,10.691c7.231,0,13.094-3.69,13.094-10.691
								H312.501z"/>
							<path style="fill:#27DEBF;" d="M316.336,180.206c-5.113-2.952-5.113-7.739,0-10.691c5.113-2.952,13.404-2.952,18.517,0
								c5.113,2.952,5.114,7.739,0,10.691C329.741,183.158,321.45,183.158,316.336,180.206z"/>
							<path style="opacity:0.1;" d="M317.002,180.553c4.919,2.479,12.267,2.479,17.186,0c1.746-2.062,1.144-4.619-1.825-6.333
								c-3.738-2.158-9.799-2.158-13.537,0C315.858,175.934,315.256,178.491,317.002,180.553z"/>
						</g>
						
							<line style="fill:none;stroke:#37474F;stroke-width:0.4559;stroke-linecap:round;stroke-linejoin:round;stroke-miterlimit:10;" x1="325.595" y1="139.649" x2="322.217" y2="182.166"/>
						
							<line style="fill:none;stroke:#37474F;stroke-width:0.4559;stroke-linecap:round;stroke-linejoin:round;stroke-miterlimit:10;" x1="338.238" y1="172.896" x2="325.595" y2="139.649"/>
						
							<line style="fill:none;stroke:#37474F;stroke-width:0.4559;stroke-linecap:round;stroke-linejoin:round;stroke-miterlimit:10;" x1="316.336" y1="169.515" x2="325.595" y2="139.649"/>
					</g>
					<g>
						<g>
							<path style="fill:#27DEBF;" d="M373.21,140.223c-0.1,7,5.862,10.691,13.094,10.691c7.232,0,13.094-3.69,13.094-10.691H373.21
								z"/>
							<path style="opacity:0.3;" d="M373.21,140.223c-0.1,7,5.862,10.691,13.094,10.691c7.232,0,13.094-3.69,13.094-10.691H373.21z
								"/>
							<path style="fill:#27DEBF;" d="M377.045,145.568c-5.113-2.952-5.114-7.739,0-10.691c5.113-2.952,13.404-2.952,18.517,0
								c5.113,2.952,5.113,7.739,0,10.691C390.449,148.521,382.159,148.521,377.045,145.568z"/>
							<path style="opacity:0.1;" d="M377.711,145.916c4.919,2.479,12.267,2.479,17.186,0c1.746-2.062,1.144-4.619-1.825-6.333
								c-3.738-2.158-9.799-2.158-13.537,0C376.567,141.296,375.965,143.854,377.711,145.916z"/>
						</g>
						
							<line style="fill:none;stroke:#37474F;stroke-width:0.4559;stroke-linecap:round;stroke-linejoin:round;stroke-miterlimit:10;" x1="386.304" y1="105.012" x2="382.926" y2="147.528"/>
						
							<line style="fill:none;stroke:#37474F;stroke-width:0.4559;stroke-linecap:round;stroke-linejoin:round;stroke-miterlimit:10;" x1="398.946" y1="138.259" x2="386.304" y2="105.012"/>
						
							<line style="fill:none;stroke:#37474F;stroke-width:0.4559;stroke-linecap:round;stroke-linejoin:round;stroke-miterlimit:10;" x1="377.045" y1="134.877" x2="386.304" y2="105.012"/>
					</g>
				</g>
				<g>
					<g>
						<path style="fill:#455A64;" d="M387.779,95.102c-0.176,0.658-0.518,1.317-1.213,1.78c-0.34,0.219-0.844,0.41-1.42,0.247
							c-0.586-0.187-0.901-0.601-1.102-0.99c-0.379-0.8-0.37-1.566-0.278-2.279c0.1-0.715,0.328-1.4,0.655-2.027
							c0.322-0.617,0.714-1.213,1.251-1.733c0.539-0.502,1.193-1.02,2.201-1.117c0.495-0.045,1.082,0.097,1.517,0.414
							c0.4,0.291,0.699,0.657,0.912,1.038c0.409,0.765,0.532,1.538,0.564,2.273c0.038,1.471-0.323,2.85-0.918,4.124
							c-0.595,1.244-1.375,2.422-2.516,3.4c-0.282,0.239-0.611,0.478-0.931,0.663c-0.305,0.167-0.599,0.352-0.917,0.501
							c-0.632,0.303-1.29,0.574-1.974,0.756c-1.362,0.389-2.776,0.52-4.114,0.471c-2.691-0.089-5.129-0.6-7.498-0.795
							c-2.365-0.204-4.664-0.189-6.911,0.245c-4.49,0.841-8.731,3.156-12.509,6.028c-3.794,2.889-7.102,6.457-10.254,10.194
							c-3.15,3.752-6.055,7.764-9.416,11.568c-1.688,1.888-3.502,3.768-5.832,5.185c-0.527,0.335-1.309,0.757-2.176,0.859
							c-0.869,0.136-1.942-0.122-2.643-0.79c-0.761-0.695-0.999-1.56-1.122-2.31c-0.099-0.764-0.042-1.488,0.086-2.18
							c0.282-1.387,0.801-2.637,1.659-3.781c0.432-0.561,0.954-1.079,1.636-1.462c0.347-0.183,0.738-0.335,1.189-0.377
							c0.445-0.047,0.963,0.054,1.366,0.323c0.421,0.261,0.707,0.707,0.833,1.094c0.136,0.398,0.17,0.78,0.165,1.146
							c-0.016,0.732-0.194,1.409-0.466,2.037c-0.279,0.616-0.64,1.225-1.181,1.705c-0.27,0.237-0.585,0.449-0.973,0.568
							c-0.379,0.125-0.905,0.088-1.261-0.21l-0.007-0.006c-0.166-0.139-0.188-0.386-0.049-0.552
							c0.132-0.158,0.363-0.185,0.529-0.068c0.265,0.189,0.738-0.04,1.089-0.429c0.358-0.385,0.6-0.893,0.78-1.425
							c0.167-0.53,0.264-1.085,0.227-1.596c-0.023-0.516-0.233-0.948-0.451-1.013c-0.225-0.122-0.575-0.054-0.969,0.201
							c-0.385,0.257-0.746,0.646-1.037,1.09c-0.578,0.879-0.966,2.012-1.093,3.065c-0.062,0.531-0.056,1.063,0.038,1.526
							c0.095,0.453,0.288,0.841,0.484,0.964c0.422,0.337,1.111,0.239,2.037-0.449c1.853-1.28,3.471-3.074,5.007-4.939
							c6.01-7.604,11.41-16.38,19.612-22.769c2.033-1.59,4.197-3.045,6.552-4.202c2.341-1.172,4.87-2.096,7.517-2.534
							c2.64-0.471,5.359-0.424,7.917-0.068c2.565,0.331,4.99,0.93,7.262,1.091c1.137,0.079,2.228,0.053,3.271-0.178
							c0.526-0.102,1.031-0.278,1.531-0.478c0.251-0.097,0.491-0.232,0.74-0.345c0.224-0.111,0.407-0.227,0.609-0.376
							c0.792-0.587,1.493-1.471,2.021-2.431c0.519-0.935,0.857-2.011,0.889-3.026c0.015-0.501-0.058-0.987-0.214-1.332
							c-0.078-0.168-0.179-0.29-0.27-0.379c-0.064-0.056-0.112-0.083-0.236-0.09c-0.248-0.019-0.696,0.196-1.061,0.518
							c-0.379,0.32-0.711,0.753-0.99,1.217c-0.276,0.456-0.475,0.956-0.579,1.464c-0.109,0.5-0.1,1.036,0.04,1.373
							c0.058,0.168,0.182,0.263,0.19,0.277c0.027,0.024,0.171,0.047,0.368-0.032c0.396-0.147,0.84-0.52,1.245-0.946l0.014-0.015
							c0.129-0.136,0.344-0.141,0.48-0.012C387.779,94.857,387.81,94.986,387.779,95.102z"/>
					</g>
					<path style="fill:#455A64;" d="M349.718,107.259c0,4.594,2.326,4.757,6.238,2.499c3.912-2.259,6.238-5.108,6.238-9.702
						L349.718,107.259z"/>
					<path style="fill:#27DEBF;" d="M358.843,95.441c-0.426,2.141-1.603,4.652-2.89,5.395c-1.287,0.743-2.456-0.425-2.882-2.073
						c0.205-2.003,1.413-4.143,2.882-4.991S358.645,93.66,358.843,95.441z"/>
					<path style="fill:#455A64;" d="M355.953,90.014c-2.337,1.349-4.232,4.97-4.232,8.097c0,3.116,1.895,5.654,4.232,4.305
						c2.345-1.354,4.24-6.08,4.24-9.196C360.193,90.092,358.298,88.66,355.953,90.014z M355.953,91.593
						c1.69-0.975,3.056,0.057,3.056,2.31c0,0.463-0.055,0.99-0.166,1.538c-0.197-1.781-1.421-2.517-2.89-1.669
						s-2.677,2.988-2.882,4.991c-0.103-0.425-0.166-0.873-0.166-1.336C352.905,95.174,354.271,92.564,355.953,91.593z"/>
					<polygon id="XMLID_342_" style="fill:#27DEBF;" points="355.964,95.734 357.297,97.042 355.949,100.064 354.616,98.574 					
						"/>
					<path id="XMLID_312_" style="opacity:0.6;fill:#FFFFFF;" d="M356.506,98.135l-0.425,0.888l-0.057-2.429l0.495,0.516
						C356.703,97.3,356.697,97.735,356.506,98.135z"/>
					<path style="fill:none;stroke:#455A64;stroke-width:0.9117;stroke-miterlimit:10;" d="M357.573,87.175
						c0-1.568-0.725-2.42-1.62-1.904c-0.895,0.516-1.62,2.206-1.62,3.774s0.725,2.42,1.62,1.904
						C356.847,90.433,357.573,88.743,357.573,87.175z"/>
					<path style="fill:#455A64;" d="M355.953,101.58c-5.868,3.388-12.677,6.819-14.878,10.669s-1.699,7.081-1.699,7.081
						L355.953,101.58z"/>
					<path style="fill:#455A64;" d="M355.953,101.58c5.868-3.388,12.677-7.819,14.878-6.511c2.201,1.308,1.699,5.119,1.699,5.119
						L355.953,101.58z"/>
					<path style="fill:#27DEBF;" d="M371.161,97.867c-1.988-0.295-6.531,0.019-8.967,1.193c0,0,4.792-3.17,7.448-2.841
						C371.403,96.436,371.161,97.867,371.161,97.867z"/>
					<path style="fill:#27DEBF;" d="M340.737,115.432c1.988-2.59,6.531-7.522,8.967-9.161c0,0-4.792,2.363-7.448,5.759
						C340.496,114.28,340.737,115.432,340.737,115.432z"/>
					<g>
						<path style="fill:#455A64;" d="M331.419,123.545c-0.259,0.775-0.246,1.647-0.043,2.363c0.081,0.352,0.261,0.673,0.406,0.744
							c0.067,0.033,0.082-0.014,0.076-0.045c-0.013-0.026,0.026-0.059,0.099-0.102c0.373-0.203,0.782-0.951,1.457-1.311
							c0.691-0.397,1.459-0.806,2.59-0.982c0.098-0.017,0.191,0.049,0.208,0.148c0.001,0.008,0.002,0.019,0.002,0.027
							c0.019,1.147-0.367,2.03-0.94,2.813c-0.591,0.788-1.547,1.219-2.868,1.447c-0.347,0.037-0.756,0.041-1.179-0.137
							c-0.416-0.166-0.754-0.494-0.936-0.814c-0.336-0.655-0.325-1.217-0.282-1.723c0.064-0.509,0.203-0.974,0.394-1.413
							c0.185-0.437,0.437-0.855,0.795-1.176c0.057-0.051,0.145-0.046,0.196,0.011c0.035,0.038,0.044,0.091,0.029,0.137
							L331.419,123.545z"/>
					</g>
					<g>
						<path style="fill:#455A64;" d="M380.615,94.877c0.303,0.019,0.517,0.246,0.66,0.443c0.143,0.21,0.24,0.434,0.315,0.66
							c0.154,0.454,0.225,0.926,0.242,1.405c0.017,0.954-0.211,1.945-0.74,2.845c-0.262,0.447-0.564,0.903-0.948,1.305
							c-0.387,0.393-0.884,0.686-1.416,0.789c-0.529,0.107-1.067,0.116-1.57-0.028c-0.502-0.12-0.973-0.365-1.378-0.768
							c-0.072-0.072-0.072-0.188-0.001-0.26c0.004-0.004,0.01-0.009,0.014-0.013c0.852-0.719,1.466-1.107,1.963-1.488
							c0.253-0.177,0.485-0.306,0.768-0.403c0.283-0.095,0.581-0.23,0.818-0.449c0.469-0.436,0.871-1.04,1.136-1.73
							c0.14-0.344,0.242-0.714,0.276-1.084c0.028-0.358,0.02-0.774-0.193-0.954l-0.042-0.036c-0.056-0.047-0.063-0.131-0.016-0.186
							C380.534,94.891,380.575,94.875,380.615,94.877z"/>
					</g>
					
						<path style="fill:none;stroke:#455A64;stroke-width:0.9117;stroke-linecap:round;stroke-linejoin:round;stroke-miterlimit:10;" d="
						M327.38,136.652c0,1.314-0.799,2.841-1.785,3.41c-0.986,0.569-1.785-0.035-1.785-1.349c0-1.314,0.799-2.841,1.785-3.41
						C326.581,134.734,327.38,135.337,327.38,136.652z"/>
					
						<path style="fill:none;stroke:#455A64;stroke-width:0.9117;stroke-linecap:round;stroke-linejoin:round;stroke-miterlimit:10;" d="
						M384.519,103.663c0,1.314,0.799,1.918,1.785,1.349c0.986-0.569,1.785-2.096,1.785-3.41c0-1.314-0.799-1.918-1.785-1.349
						C385.318,100.822,384.519,102.348,384.519,103.663z"/>
				</g>
				
					<path style="fill:none;stroke:#37474F;stroke-width:0.4559;stroke-linecap:round;stroke-linejoin:round;stroke-miterlimit:10;" d="
					M355.953,86.135V54.241c-1.081,1.098-5.172-0.499-4.94-3.404"/>
			</g>
		</g>
	</g>
</g>
</svg>
