<?xml version="1.0" encoding="UTF-8" standalone="no"?>
<svg
   width="748.45276"
   height="81.216591"
   viewBox="0 0 748.45276 81.216591"
   version="1.1"
   id="svg2"
   xmlns="http://www.w3.org/2000/svg"
   xmlns:svg="http://www.w3.org/2000/svg">
  <defs
     id="defs2" />
  <g
     id="g2"
     transform="matrix(0.82453391,0,0,0.82453391,-22.394341,-66.374978)">
    <path
       d="m 324.56,176.11 -0.36,-0.69 -0.43,-0.93 -0.16,-0.42 -0.01,-0.52 0.04,-0.23 0.44,-0.3 1.2,-0.4 0.65,-0.17 2.09,-0.22 1.14,-0.08 2.82,-0.05 1.46,-0.01 3.23,0.09 1.63,0.07 3.3,0.2 1.63,0.12 3.06,0.3 1.47,0.16 2.49,0.37 1.14,0.19 1.59,0.42 0.33,0.11 0.42,0.22 0.27,0.33 v 0.13 l -0.3,0.76 -0.74,1.51 -0.23,0.44 -0.69,0.6 -0.22,0.13 -0.59,0.21 -0.32,0.1 -0.87,0.14 -0.48,0.07 -1.22,0.09 -0.67,0.04 -1.66,0.06 -0.9,0.02 -2.18,0.02 -3.94,0.01 h -12.94 l -1.49,-2.89 M 69,176.43 l -0.89,-0.19 -2.36,-0.33 -1.25,-0.17 -2.81,-0.27 -1.43,-0.12 -2.91,-0.18 -4.1,-0.12 -1.07,-0.01 -1.78,-0.02 -0.84,-0.01 -1.36,-0.04 -0.63,-0.03 -1,-0.07 -0.46,-0.05 -0.69,-0.12 -0.62,-0.13 -0.56,-0.47 -0.24,-1.08 v -0.65 l 0.66,-0.99 1.92,-0.99 0.19,-0.05 0.63,-0.08 0.36,-0.03 0.92,-0.06 0.99,-0.04 2.65,-0.04 1.42,-0.01 3.25,0.04 1.66,0.03 3.49,0.11 1.74,0.05 3.37,0.16 1.64,0.08 2.9,0.19 1.36,0.1 2.09,0.22 0.46,0.06 0.69,0.11 0.68,0.18 0.54,0.23 0.55,0.99 0.09,0.3 0.06,0.74 -0.1,1.37 -0.12,0.82 -0.25,1.04 -0.09,0.22 -0.29,0.29 -0.16,0.13 -0.49,0.12 -0.28,0.04 -0.77,-0.03 -0.44,-0.04 -1.14,-0.17 -0.62,-0.11 -1.59,-0.32 -0.86,-0.17 M 513,176.68 v -0.42 l -0.48,-1.14 -1.14,-1.6 -0.44,-0.44 -0.53,-0.87 -0.06,-0.89 0.16,-0.16 0.87,-0.27 0.52,-0.13 1.47,-0.2 0.79,-0.09 1.91,-0.14 1,-0.05 2.18,-0.06 2.23,-0.04 4.62,0.15 1.11,0.06 2.07,0.18 2.71,0.36 1.39,0.25 1.99,0.43 0.88,0.21 1.13,0.41 0.47,0.22 0.43,0.48 0.06,0.89 -0.09,0.34 -0.35,0.48 -0.22,0.21 -0.73,0.26 -0.42,0.1 -1.26,0.05 -2.65,-0.09 -1.25,-0.08 -3.11,0.11 -1.61,0.09 -3.41,0.39 -1.68,0.22 -3.11,0.59 -0.73,0.16 -1.31,0.34 -1.66,0.54 -0.6,0.24 -0.73,-0.09 -0.28,-0.14 m -416.64,-5.06 -0.89,-0.42 -2.02,-0.82 -1.04,-0.4 -2.27,-0.79 -2.33,-0.76 -5.14,-1.36 -2.61,-0.64 -5.33,-0.99 -7.64,-0.96 -1.09,-0.09 -1.88,-0.18 -0.88,-0.1 -1.47,-0.22 -0.69,-0.12 -1.07,-0.26 -0.49,-0.13 -0.7,-0.31 -0.3,-0.16 -0.33,-0.36 -0.12,-0.18 0.02,-0.42 0.06,-0.22 0.37,-0.48 0.93,-0.8 0.18,-0.13 0.58,-0.23 0.32,-0.1 0.82,-0.15 0.88,-0.14 2.38,-0.1 1.28,-0.02 3.04,0.13 1.58,0.09 3.49,0.34 3.57,0.38 7.6,1.28 1.87,0.35 3.61,0.81 5.01,1.36 0.67,0.2 1.13,0.37 0.54,0.17 0.88,0.32 0.83,0.31 1,0.56 0.41,0.27 0.32,0.58 -0.09,1.06 -0.16,0.52 0.06,1.42 0.59,2 0.34,0.63 0.25,0.77 0.02,0.16 -0.1,0.17 -0.07,0.07 -0.32,0.01 -0.19,-0.01 -0.56,-0.17 -0.32,-0.1 -0.84,-0.33 -0.45,-0.19 -1.15,-0.52 -0.61,-0.28 m 211.69,-0.44 0.07,-0.13 -0.07,-0.44 -0.06,-0.24 -0.33,-0.63 -1.7,-2.2 -2.64,-2.76 3.78,-1.11 1.35,-0.4 3.17,-0.7 1.65,-0.33 3.64,-0.55 1.87,-0.26 3.98,-0.4 2.01,-0.18 4.16,-0.24 4.17,-0.2 8.25,0.11 2,0.07 3.8,0.28 5.23,0.63 1.22,0.19 2.01,0.33 0.94,0.16 1.52,0.29 0.7,0.14 1.08,0.28 0.5,0.14 0.72,0.3 0.32,0.16 0.43,0.36 0.18,0.18 0.2,0.45 0.03,1.81 -0.07,0.73 0.13,1.57 0.54,1.78 0.17,0.28 0.17,0.38 0.05,0.16 -0.09,0.15 -0.08,0.05 -0.37,-0.06 -0.89,-0.31 -0.26,-0.1 -1.15,-0.32 -0.66,-0.17 -1.77,-0.4 -0.95,-0.2 -2.17,-0.45 -3.45,-0.65 -1.3,-0.23 -2.84,-0.35 -1.45,-0.15 -3.07,-0.2 -3.11,-0.16 -6.57,0.12 -3.29,0.14 -6.4,0.68 -1.55,0.2 -2.97,0.51 -4.14,0.92 -0.99,0.25 -1.76,0.4 -0.83,0.17 -1.34,0.23 -0.6,0.09 -0.77,0.02 -0.3,-0.01 m 187.08,-2.48 -0.09,-0.79 -0.04,-1.14 0.01,-0.51 0.22,-0.73 0.15,-0.32 0.57,-0.49 1.32,-0.65 0.66,-0.26 1.55,-0.47 0.81,-0.23 1.77,-0.39 1.82,-0.38 4.05,-0.49 2.04,-0.2 4.12,-0.1 5.69,0.33 1.25,0.16 2,0.34 0.92,0.17 1.35,0.35 0.59,0.17 0.7,0.35 0.27,0.18 0.06,0.34 -0.06,0.16 -0.59,0.32 -0.37,0.15 -1.23,0.29 -0.69,0.14 -1.86,0.24 -3.51,0.3 -2,0.13 -4.36,0.66 -2.19,0.38 -4.23,1.04 -2.05,0.55 -3.46,1.24 -0.79,0.31 -1.32,0.64 -1.52,0.94 -0.2,0.16 -0.33,0.04 -0.16,-0.03 -0.27,-0.35 -0.13,-0.22 -0.21,-0.75 -0.1,-0.42 m -206.71,-6.45 0.16,-0.59 -0.03,-1.09 -0.47,-1.02 -0.25,-0.15 -0.39,-0.49 -0.27,-0.77 v -0.07 l 0.21,-0.16 0.13,-0.09 0.47,-0.21 0.52,-0.22 1.69,-0.55 0.95,-0.29 2.39,-0.66 1.27,-0.34 2.89,-0.71 2.99,-0.72 6.63,-1.41 1.64,-0.33 3.22,-0.6 4.5,-0.75 0.55,-0.08 1.34,-0.16 0.7,-0.07 1.6,-0.13 1.66,-0.13 3.96,-0.2 2.06,-0.09 4.5,-0.12 2.28,-0.05 4.72,-0.04 2.35,-0.01 4.6,0.04 2.26,0.03 4.16,0.12 2,0.07 3.39,0.21 0.79,0.06 1.37,0.13 1.71,0.22 5,0.79 0.31,4.39 0.32,4.38 -3.32,-0.67 -3.23,-0.66 -5.74,-1.01 -2.77,-0.46 -5.08,-0.66 -2.49,-0.28 -4.75,-0.34 -7.13,-0.19 h -1.63 l -3.01,0.05 -1.47,0.04 -2.76,0.13 -2.69,0.16 -4.94,0.59 -2.45,0.35 -4.89,1.06 -7.94,2.19 -2.3,0.7 -4.44,1.27 -1.02,0.29 -1.7,0.44 -1.78,0.43 -0.65,0.12 -0.88,0.11 -0.38,0.03 -0.42,-0.15 -0.16,-0.11 -0.06,-0.46 v -0.27 M 109,164.4 l -0.72,-0.32 -1.9,-0.68 -1.01,-0.35 -2.38,-0.73 -1.23,-0.37 -2.73,-0.74 -1.4,-0.37 -2.95,-0.73 -2.99,-0.72 -6.09,-1.26 -1.49,-0.29 -2.85,-0.49 -3.95,-0.58 -0.9,-0.11 -1.56,-0.21 -0.74,-0.11 -1.24,-0.19 -0.58,-0.1 -0.96,-0.19 -0.44,-0.09 -0.69,-0.18 -0.62,-0.19 -0.53,-0.39 0.08,-0.66 0.28,-0.35 0.27,-0.85 -0.15,-1.11 -0.11,-0.18 0.05,-0.29 0.08,-0.14 0.4,-0.21 0.24,-0.09 0.72,-0.13 0.4,-0.05 0.99,-0.06 1.06,-0.03 2.82,0.15 1.51,0.1 3.5,0.4 1.82,0.23 3.94,0.62 1.99,0.33 4.1,0.81 2.04,0.42 4,0.96 5.59,1.58 0.98,0.31 1.6,0.51 0.74,0.24 1.19,0.42 0.55,0.21 0.85,0.37 0.38,0.18 0.56,0.37 0.49,0.38 0.39,0.94 0.18,2.08 0.02,0.97 0.01,1.51 v 0.32 l -0.01,0.43 -0.02,0.26 h -0.02 l -0.29,-0.13 -0.19,-0.09 -0.59,-0.25 -0.64,-0.29 m 155.02,-2.46 -0.06,-1.03 -0.14,-1.76 -0.07,-0.83 -0.18,-1.39 -0.1,-0.65 -0.22,-1.08 -0.39,-1.31 -0.18,-0.48 0.31,-0.75 1.48,-0.73 0.3,-0.07 1.3,-0.32 0.74,-0.18 1.99,-0.51 1.06,-0.28 2.43,-0.63 3.86,-1.02 3,-0.8 6.28,-1.43 3.18,-0.69 6.57,-1.2 3.31,-0.58 6.78,-0.96 3.4,-0.45 6.9,-0.72 6.91,-0.66 13.85,-0.55 3.44,-0.07 6.77,0.07 9.94,0.4 1.2,0.08 2.18,0.13 1.06,0.07 1.89,0.12 1.83,0.12 2.88,0.23 1.32,0.11 1.97,0.24 0.88,0.13 1.22,0.31 0.52,0.17 0.61,0.43 0.24,0.23 0.15,0.59 0.03,0.31 -0.17,0.8 -0.44,1.48 -0.26,0.85 -0.43,1.13 -0.22,0.48 -0.54,0.51 -0.3,0.2 -0.89,0.06 -2.01,-0.25 -0.24,-0.04 -0.74,-0.1 -0.4,-0.05 -1.03,-0.13 -1.09,-0.13 -2.84,-0.31 -1.51,-0.15 -3.41,-0.34 -5.36,-0.5 -3.32,-0.3 -6.71,-0.26 -3.37,-0.08 -6.79,0.18 -3.4,0.15 -6.87,0.62 -3.45,0.36 -6.93,1.06 -3.48,0.59 -6.99,1.49 -3.51,0.8 -7.05,1.94 -3.53,1.02 -7.09,2.36 -10.69,4.04 -5.25,2.14 -0.13,-2.23 M 464,162.81 v -0.29 l -0.19,-0.47 -0.12,-0.23 -0.44,-0.36 -0.26,-0.16 -0.7,-0.25 -1.36,-0.24 -3.07,-0.31 4.68,-6 1.39,-1.79 2.56,-3.79 1.23,-1.92 2.15,-3.89 1.02,-1.95 1.65,-3.81 1.8,-5.43 1.29,-5.04 2.31,1.87 0.54,0.44 0.71,0.72 0.3,0.36 0.26,0.84 0.07,0.46 -0.12,1.32 -0.57,2.93 -0.15,0.71 -0.55,1.84 -0.31,0.96 -0.78,2.14 -2.75,6.29 -1.05,2.07 -2.38,4.1 -0.59,0.99 -1.18,1.85 -0.58,0.9 -1.09,1.59 -0.53,0.75 -0.95,1.24 -0.45,0.56 -0.73,0.79 -0.33,0.33 -0.45,0.24 -0.18,0.04 m 33.9,-4.03 v -0.91 l 0.41,-1.27 0.16,-0.29 0.5,-0.44 0.29,-0.21 0.8,-0.32 0.44,-0.15 1.17,-0.21 0.63,-0.1 1.59,-0.12 0.86,-0.05 2.08,-0.06 3.75,-0.04 h 1.62 l 2.46,0.08 1.13,0.05 1.66,0.22 0.75,0.13 1.08,0.4 1.23,0.86 0.42,0.42 0.39,0.57 0.04,0.13 -0.07,0.21 -0.07,0.09 -0.33,0.17 -0.21,0.07 -0.63,0.13 -0.35,0.07 -0.98,0.12 -0.53,0.05 -1.35,0.12 -2.51,0.2 -2.18,0.16 -4.15,0.48 -0.95,0.12 -1.55,0.24 -1.6,0.33 -0.78,0.23 -1.26,0.36 -0.59,0.17 -0.93,0.25 -0.43,0.1 -0.64,0.11 -0.29,0.04 -0.41,-0.04 -0.36,-0.07 -0.25,-0.64 -0.07,-0.4 m -386.49,-6.63 -0.83,-0.26 -2.41,-0.65 -1.3,-0.33 -3.08,-0.72 -9.88,-2.03 -1.58,-0.28 -3.06,-0.55 -1.48,-0.27 -2.64,-0.48 -1.23,-0.23 -1.92,-0.35 -0.42,-0.08 -0.66,-0.12 -0.67,-0.13 -0.4,-0.08 -0.58,-0.22 -0.26,-0.13 -0.32,-0.35 -0.13,-0.19 -0.07,-0.5 0.13,-0.96 0.11,-0.41 0.34,-0.59 0.21,-0.27 0.65,-0.34 0.38,-0.15 1.12,-0.15 2.35,-0.07 h 1.08 l 2.85,0.21 1.51,0.14 3.48,0.42 1.8,0.24 3.83,0.58 1.93,0.31 3.89,0.7 1.93,0.36 3.66,0.75 1.77,0.38 3.14,0.75 1.48,0.38 2.32,0.7 0.52,0.17 0.84,0.32 0.91,0.44 0.23,0.15 0.31,0.45 0.14,0.25 0.13,0.6 0.1,0.63 -0.26,1.42 -0.19,0.69 -0.71,1.12 -0.2,0.23 -0.46,0.32 -0.76,0.18 -0.22,-0.01 -0.89,-0.18 -0.5,-0.11 -1.31,-0.33 -1.39,-0.36 m 64.83,-3 -0.49,-0.58 -1.19,-0.73 -1.54,-0.22 -0.33,0.12 -0.48,0.14 -0.21,0.05 -0.2,-0.04 -0.07,-0.05 0.1,-0.26 0.09,-0.15 0.43,-0.5 0.25,-0.28 0.79,-0.77 0.43,-0.42 1.17,-1.08 0.63,-0.57 1.58,-1.41 2.85,-2.51 1.2,-1.04 2.62,-2.17 1.34,-1.09 2.86,-2.22 2.9,-2.22 6.26,-4.42 3.16,-2.18 6.39,-4.07 9.19,-5.34 1.26,-0.67 1.99,-0.99 0.9,-0.44 1.29,-0.52 0.56,-0.2 0.59,-0.08 0.22,0.02 -0.08,0.35 -0.12,0.22 -0.74,0.75 -0.46,0.43 -1.39,1.13 -0.78,0.61 -2.04,1.49 -3.76,2.62 -2.8,1.9 -5.78,4.34 -2.88,2.22 -5.52,4.63 -1.34,1.15 -2.52,2.28 -1.23,1.13 -2.27,2.18 -1.1,1.08 -1.93,2.03 -2.46,2.8 -0.62,0.76 -1.17,1.39 -0.56,0.67 -0.98,1.1 -0.46,0.51 -0.68,0.7 -0.56,0.45 -0.14,0.01 -0.75,-0.59 -0.42,-0.37 M 499,149.62 v -0.74 l 0.15,-0.97 0.07,-0.2 0.27,-0.28 0.15,-0.12 0.48,-0.13 0.28,-0.05 0.76,0.01 0.43,0.02 1.11,0.13 0.61,0.08 1.53,0.25 2.83,0.48 0.91,0.16 1.53,0.33 0.71,0.17 1.13,0.33 0.51,0.17 0.72,0.32 0.31,0.15 0.3,0.3 0.09,0.14 -0.13,0.25 -0.12,0.12 -0.57,0.19 -0.35,0.08 -1.02,0.12 -2.07,0.07 h -1.2 l -2.8,0.18 -0.68,0.06 -1.26,0.14 -1.56,0.24 -0.71,0.15 -0.98,0.12 -0.43,0.03 -0.51,-0.18 -0.21,-0.13 -0.19,-0.58 -0.07,-0.34 m -237.77,-2.66 -0.58,-0.94 -0.58,-1.57 -0.2,-0.74 0.21,-1.22 0.21,-0.57 1.01,-0.9 2.43,-1.02 1.26,-0.34 2.72,-0.67 1.39,-0.33 2.97,-0.65 3.03,-0.64 6.67,-1.23 3.42,-0.6 7.26,-1.11 3.68,-0.53 7.59,-0.97 3.82,-0.46 7.68,-0.78 3.82,-0.37 7.51,-0.58 3.71,-0.26 7.09,-0.34 9.88,-0.21 h 1.59 l 3.77,0.08 1.96,0.06 4.29,0.17 4.35,0.19 8.89,0.57 2.13,0.15 3.91,0.31 1.86,0.16 3.14,0.31 0.72,0.08 1.25,0.16 0.59,0.07 0.94,0.15 0.43,0.07 0.61,0.13 0.48,0.19 0.09,0.09 0.07,0.44 0.02,0.25 -0.06,0.71 -0.64,2.66 -0.17,0.51 -0.28,0.83 -0.15,0.39 -0.37,0.59 -0.21,0.27 -0.64,0.37 -0.37,0.16 -1.09,0.17 -0.61,0.07 -1.72,-0.02 -0.95,-0.03 -2.52,-0.18 -0.69,-0.05 -1.56,-0.14 -0.82,-0.08 -1.82,-0.17 -0.95,-0.09 -2.11,-0.21 -3.52,-0.34 -2.53,-0.25 -5.57,-0.36 -2.86,-0.15 -6.08,-0.18 -3.08,-0.06 h -6.38 l -3.21,0.02 -6.48,0.17 -3.24,0.1 -6.38,0.33 -3.16,0.19 -6.09,0.49 -2.99,0.26 -5.58,0.63 -7.61,1.12 -3.21,0.56 -6.66,1.29 -3.29,0.65 -6.18,1.34 -1.48,0.33 -2.71,0.64 -1.31,0.31 -2.31,0.59 -1.09,0.28 -1.79,0.51 -1.99,0.65 -0.37,0.14 -0.94,-0.36 -0.47,-0.27 M 127,146.39 l -0.86,-0.27 -2.28,-0.62 -1.22,-0.32 -2.84,-0.68 -1.47,-0.35 -3.21,-0.72 -1.64,-0.35 -3.37,-0.7 -3.39,-0.69 -6.43,-1.17 -1.51,-0.26 -2.7,-0.41 -3.35,-0.44 -0.93,-0.09 -1.69,-0.21 -0.8,-0.1 -1.33,-0.21 -0.61,-0.1 -0.84,-0.18 L 86,138.3 v -0.12 l 0.32,-0.79 0.78,-1.58 0.26,-0.49 0.57,-0.63 0.33,-0.27 1.08,-0.27 0.32,-0.04 0.83,-0.04 0.45,-0.01 1.13,0.04 0.61,0.02 1.48,0.1 2.69,0.2 0.88,0.07 2.07,0.23 1.09,0.12 2.46,0.34 1.27,0.18 2.78,0.44 1.43,0.22 3.05,0.53 3.12,0.55 6.83,1.33 10.71,2.27 0.42,0.09 0.59,0.28 0.26,0.16 0.3,0.49 0.12,0.29 0.07,0.83 -0.12,1.74 -0.11,0.94 -0.29,1.22 -0.19,0.51 -0.74,0.41 -0.23,0.06 -0.62,-0.01 -0.34,-0.03 -0.87,-0.19 -0.47,-0.11 -1.17,-0.33 -0.63,-0.19 m 370.23,-3.55 -0.5,-0.13 -0.68,-0.61 -0.29,-0.33 -0.24,-0.78 -0.06,-0.38 0.26,-0.63 1.01,-0.41 0.17,0.01 0.59,0.16 0.33,0.1 0.82,0.32 2.84,1.37 3.5,1.92 -3,-0.08 -0.83,-0.02 -1.8,-0.16 -0.86,-0.1 m -260.95,-4.77 0.24,-0.84 0.46,-1.4 0.11,-0.3 0.17,-0.44 0.18,-0.34 0.03,-0.03 0.33,-0.11 0.2,-0.06 0.64,-0.17 0.35,-0.09 0.92,-0.22 0.49,-0.12 1.16,-0.26 1.22,-0.28 2.99,-0.65 1.57,-0.34 3.49,-0.73 3.55,-0.73 7.34,-1.46 1.75,-0.34 3.21,-0.61 4.04,-0.72 1.24,-0.21 2.94,-0.43 1.53,-0.21 3.22,-0.41 1.61,-0.2 3.1,-0.34 4.11,-0.38 0.94,-0.07 1.6,-0.11 0.76,-0.05 1.25,-0.06 0.59,-0.02 0.94,-0.01 h 0.44 l 0.68,0.05 0.63,0.06 0.61,0.32 0.31,0.78 v 0.27 l -0.26,0.47 -0.17,0.22 -0.6,0.38 -0.35,0.18 -0.98,0.31 -1.89,0.38 -2.83,0.43 -5.46,0.88 -2.69,0.44 -5.19,0.9 -2.55,0.45 -4.89,0.91 -2.4,0.46 -4.56,0.92 -2.24,0.46 -4.21,0.93 -2.06,0.47 -3.84,0.92 -1.87,0.46 -3.44,0.93 -4.68,1.37 -4.66,1.45 0.88,-3.06 m -105.56,-1.98 -0.55,-0.14 -1.36,-0.31 -0.72,-0.15 -1.66,-0.35 -1.72,-0.35 -4.05,-0.76 -12.94,-2.16 -15,-2.24 3.5,-2.2 0.77,-0.48 1.32,-0.66 0.66,-0.28 1.43,-0.31 0.77,-0.11 1.98,-0.01 0.55,0.02 1.28,0.07 2.24,0.16 1.09,0.08 2.49,0.25 1.29,0.14 2.78,0.33 2.83,0.34 5.89,0.84 1.44,0.21 2.77,0.44 1.35,0.22 2.47,0.44 1.19,0.21 2.02,0.41 2.39,0.55 0.77,0.21 1.09,0.4 0.47,0.21 0.62,0.56 0.26,0.31 0.29,0.88 0.25,1.89 0.04,0.51 0.05,0.83 0.02,0.39 -0.05,0.58 -0.05,0.26 -0.25,0.36 -0.15,0.15 -0.53,0.13 -0.31,0.04 -0.9,-0.08 -0.5,-0.06 -1.37,-0.27 -0.75,-0.16 -1.91,-0.46 -1.03,-0.25 m 282.44,-3.05 -0.76,-0.16 -1.75,-0.35 -0.9,-0.18 -2.01,-0.38 -2.05,-0.39 -4.56,-0.81 -2.31,-0.4 -4.66,-0.77 -6.5,-1.01 -1.99,-0.29 -3.67,-0.55 -1.74,-0.27 -2.93,-0.48 -0.68,-0.11 -1.15,-0.19 -0.54,-0.1 -0.85,-0.15 -0.39,-0.07 -0.52,-0.11 -0.36,-0.11 -0.09,-0.09 0.25,-0.76 0.84,-1.6 0.31,-0.5 0.62,-0.66 0.35,-0.28 1.05,-0.28 0.31,-0.05 0.79,-0.05 0.42,-0.01 1.05,0.02 0.56,0.02 1.37,0.09 2.49,0.18 1.47,0.11 3.35,0.29 1.72,0.16 3.71,0.36 3.77,0.38 7.84,0.86 1.92,0.22 3.7,0.44 1.81,0.22 3.32,0.43 1.6,0.21 2.77,0.39 3.32,0.52 0.74,0.13 1.21,0.22 0.57,0.1 0.9,0.19 0.42,0.1 0.63,0.17 0.28,0.09 0.37,0.19 0.32,0.19 0.01,0.46 -0.7,0.97 -0.42,0.47 -0.67,1.38 -0.46,2.04 v 0.63 l -0.12,0.79 -0.08,0.15 -0.35,0.19 -0.21,0.07 -0.69,0.02 -0.4,-0.01 -1.17,-0.16 -0.65,-0.1 -1.76,-0.33 -0.96,-0.19 -2.47,-0.52 -1.34,-0.28 m -277.53,-7.12 -1.13,-0.24 -3.03,-0.54 -1.61,-0.27 -3.64,-0.54 -1.86,-0.26 -3.81,-0.49 -5.42,-0.6 -1.18,-0.11 -2.16,-0.21 -1.04,-0.1 -1.88,-0.19 -1.81,-0.18 -2.89,-0.3 -1.33,-0.15 -2.01,-0.25 -0.91,-0.13 -1.28,-0.23 -0.55,-0.12 -0.67,-0.24 -0.27,-0.13 -0.19,-0.28 -0.05,-0.15 0.15,-0.34 0.47,-0.62 0.28,-0.35 0.89,-0.46 0.28,-0.1 0.71,-0.14 0.39,-0.07 1,-0.08 0.55,-0.03 1.36,-0.02 0.73,-0.01 1.8,0.03 0.95,0.03 2.3,0.08 4.08,0.17 3.5,0.16 7.5,0.58 1.86,0.16 3.65,0.35 1.79,0.18 3.4,0.39 1.65,0.19 2.98,0.41 1.42,0.2 2.4,0.4 1.12,0.19 1.66,0.38 1.5,0.51 0.42,0.26 0.46,0.73 0.17,0.38 -0.04,0.86 -0.09,0.42 -0.51,0.83 -1.26,1.03 -0.54,0.29 -0.92,0.41 -0.79,0.2 -0.05,-0.02 -0.73,-0.17 -0.45,-0.11 -1.41,-0.31 -0.78,-0.17 -1.91,-0.42 -1,-0.22 m 100.09,-0.88 -0.22,-0.83 -0.21,-1.11 -0.04,-0.48 0.3,-0.6 0.24,-0.26 1.02,-0.31 2.58,-0.42 0.7,-0.09 1.67,-0.2 0.87,-0.09 1.97,-0.2 2.04,-0.19 4.73,-0.39 2.44,-0.18 5.2,-0.36 2.62,-0.17 5.22,-0.29 2.57,-0.14 4.78,-0.22 1.15,-0.05 2.13,-0.07 1.04,-0.04 1.87,-0.05 0.89,-0.02 1.55,-0.01 0.73,-0.01 1.17,0.02 0.53,0.01 0.73,0.06 0.55,0.13 0.16,0.16 0.19,0.29 0.06,0.13 -0.1,0.25 -0.09,0.12 -0.48,0.22 -0.29,0.11 -0.96,0.23 -0.55,0.12 -1.55,0.25 -0.85,0.13 -2.22,0.3 -1.21,0.15 -3.01,0.37 -5.5,0.64 -1.99,0.23 -4.4,0.56 -2.23,0.28 -4.47,0.62 -2.19,0.31 -4,0.6 -0.95,0.15 -1.71,0.28 -2.24,0.38 -1.21,0.22 -1.98,0.35 -0.93,0.16 -1.48,0.24 -0.68,0.1 -1.06,0.13 -0.48,0.05 -0.71,0.01 -0.65,-0.02 -0.59,-0.4 -0.23,-0.27 m 181.97,-4.05 -0.96,-0.18 -2.47,-0.41 -1.31,-0.21 -3.03,-0.45 -1.56,-0.22 -3.43,-0.47 -1.75,-0.24 -3.66,-0.47 -3.69,-0.46 -7.39,-0.85 -1.8,-0.19 -3.38,-0.35 -4.61,-0.42 -0.99,-0.08 -1.73,-0.22 -0.82,-0.11 -1.37,-0.26 -0.64,-0.13 -0.98,-0.27 -0.44,-0.14 -0.54,-0.28 -0.22,-0.13 -0.08,-0.25 0.03,-0.12 0.42,-0.2 0.28,-0.09 0.97,-0.13 2.11,-0.08 h 0.39 l 1.23,0.02 0.68,0.02 1.75,0.05 0.93,0.03 2.2,0.08 1.14,0.05 2.55,0.1 2.62,0.11 5.94,0.27 3.04,0.13 6.27,0.31 3.12,0.15 5.92,0.31 1.42,0.07 2.68,0.15 1.3,0.07 2.35,0.13 1.13,0.07 1.95,0.12 0.91,0.06 1.46,0.1 0.66,0.04 0.89,0.08 0.59,0.09 0.06,0.04 -0.06,0.31 -0.05,0.18 -0.23,0.54 -1.22,2.12 -1.87,2.88 -6.71,-1.27 m -286.29,-6.42 -0.34,-0.05 -0.95,-0.11 -0.51,-0.06 -1.24,-0.13 -1.31,-0.13 -3.29,-0.27 -1.72,-0.14 -3.79,-0.27 -5.82,-0.36 -2.24,-0.12 -3.8,-0.29 -1.79,-0.15 -2.84,-0.33 -0.65,-0.09 -1.1,-0.18 -0.52,-0.09 -0.83,-0.18 -0.39,-0.1 -0.55,-0.19 -0.52,-0.3 -0.21,-0.2 -0.01,-0.36 0.06,-0.17 0.53,-0.29 0.35,-0.14 1.13,-0.23 0.65,-0.1 1.79,-0.18 0.97,-0.08 2.47,-0.12 1.32,-0.05 3.2,-0.07 1.7,-0.03 3.97,-0.02 6.88,0.01 1.89,0.01 3.18,0.05 1.5,0.03 2.47,0.09 1.16,0.06 1.87,0.18 0.87,0.1 1.38,0.29 0.64,0.16 1.01,0.43 0.47,0.23 0.75,0.59 1.8,2.54 0.21,0.39 0.2,0.56 0.06,0.24 -0.15,0.29 -0.13,0.12 -0.58,0.1 h -1.41 l -0.39,-0.02 -1.09,-0.09 -0.59,-0.06 -1.37,-0.15 -1.41,-0.16 m 107.15,-2.79 0.18,-0.61 0.36,-1.01 0.19,-0.47 0.49,-0.75 0.27,-0.34 0.75,-0.5 0.42,-0.22 1.17,-0.29 0.64,-0.12 1.72,-0.11 0.94,-0.03 2.42,0.06 1.31,0.05 3.26,0.19 5.99,0.4 2.31,0.16 4.35,0.3 2.1,0.14 3.62,0.23 0.84,0.05 1.47,0.09 0.7,0.04 1.15,0.07 0.54,0.02 0.78,0.04 0.69,0.02 h 0.48 l 0.76,0.41 0.51,0.98 v 0.18 l -0.31,0.33 -0.22,0.16 -0.82,0.28 -0.48,0.13 -1.42,0.25 -0.8,0.12 -2.11,0.23 -1.16,0.11 -2.91,0.2 -1.56,0.11 -3.8,0.2 -2.02,0.1 -4.78,0.21 -1.26,0.05 -2.72,0.1 -4.4,0.17 -1.25,0.04 -2.07,0.07 -0.97,0.03 -1.54,0.03 -0.71,0.01 -1.08,-0.03 -0.5,-0.02 -0.7,-0.09 -0.3,-0.06 -0.39,-0.17 -0.16,-0.09 -0.14,-0.26 -0.09,-0.29 m 155.42,-2.25 -1.55,-0.03 -2.6,-0.07 -1.22,-0.04 -2.01,-0.08 -0.93,-0.04 -1.49,-0.1 -0.68,-0.05 -1.04,-0.13 -0.48,-0.08 -0.67,-0.17 -0.3,-0.1 -0.38,-0.23 -0.4,-0.97 v -0.2 l 0.13,-0.34 0.09,-0.17 0.42,-0.28 0.26,-0.14 0.84,-0.23 0.48,-0.12 1.39,-0.2 0.77,-0.1 2.06,-0.2 1.13,-0.1 2.87,-0.2 1.55,-0.1 3.8,-0.22 1.02,-0.06 2.23,-0.12 3.65,-0.19 3.13,-0.17 5.75,-0.23 1.38,-0.05 2.56,-0.08 1.23,-0.03 2.23,-0.04 1.07,-0.02 h 1.83 0.86 l 1.38,0.03 0.63,0.02 0.86,0.07 0.63,0.14 0.23,0.23 0.07,1.15 -0.47,2.13 -0.25,0.65 -0.48,0.87 -0.29,0.37 -1,0.4 -0.31,0.07 -0.81,0.1 -0.45,0.03 -1.15,0.03 -0.62,0.01 -1.56,-0.02 -2.87,-0.07 -0.6,-0.01 -1.44,-0.04 -0.75,-0.02 -1.7,-0.04 -1.74,-0.04 -4,-0.09 -2.04,-0.05 -4.22,-0.1 -2.09,-0.05 M 113.01,108 l 0.02,-0.37 0.44,-0.68 0.28,-0.34 0.96,-0.62 0.54,-0.3 1.44,-0.54 0.77,-0.26 1.89,-0.46 0.99,-0.22 2.28,-0.37 1.2,-0.17 2.65,-0.27 1.37,-0.12 2.99,-0.16 4.8,-0.1 h 0.85 1.41 l 0.66,0.01 1.07,0.03 0.5,0.03 0.78,0.08 0.36,0.04 0.55,0.14 0.5,0.16 0.5,0.58 0.43,1.36 0.46,2.46 -15.35,0.29 -2.11,0.04 -3.85,0.04 -1.83,0.01 -3.05,-0.02 -0.69,-0.01 -1.18,-0.03 -0.56,-0.02 -0.86,-0.04 -0.39,-0.02 -0.51,-0.06 -0.2,-0.02 m 160.67,-0.82 -1.07,-0.03 -1.9,-0.06 -0.91,-0.04 -1.57,-0.08 -0.74,-0.04 -1.26,-0.1 -0.59,-0.05 -0.96,-0.11 -0.45,-0.07 -0.69,-0.13 -0.31,-0.07 -0.44,-0.17 -0.44,-0.58 0.1,-0.34 0.34,-1.33 0.54,-2.31 0.14,-0.65 0.29,-0.87 0.17,-0.36 0.53,-0.39 0.32,-0.14 1.02,-0.02 2.36,0.26 2.01,0.28 4.57,0.77 2.3,0.41 4.47,0.9 1.07,0.22 1.96,0.43 0.94,0.22 1.62,0.4 0.76,0.19 1.16,0.34 1.12,0.41 0.76,0.41 0.8,0.88 0.29,0.44 -0.09,0.79 -0.16,0.37 -0.91,0.51 -2.19,0.24 -0.22,-0.01 -0.67,-0.03 -0.37,-0.02 -0.93,-0.04 -0.98,-0.05 -2.56,-0.09 -1.36,-0.05 -3.06,-0.1 -1.57,-0.05 m 124.69,-4.68 0.14,-0.71 0.7,-1.27 1.3,-1.12 0.3,-0.09 1.26,-0.27 0.72,-0.14 1.94,-0.34 1.04,-0.18 2.43,-0.4 1.27,-0.19 2.74,-0.42 2.78,-0.41 5.66,-0.77 1.36,-0.18 2.51,-0.3 3.25,-0.36 0.79,-0.07 1.32,-0.12 0.61,-0.06 1,-0.06 0.93,-0.04 1.12,0.13 0.46,0.1 0.49,0.51 0.45,1.28 0.15,0.64 0.43,1.62 0.63,2.18 0.16,0.5 0.04,0.69 -0.07,0.29 -0.72,0.35 -0.25,0.08 -0.72,0.1 -0.4,0.05 -1.05,0.06 -0.57,0.03 -1.44,0.04 -2.65,0.05 -1.14,0.02 -2.97,0.08 -1.56,0.05 -3.48,0.13 -1.77,0.07 -3.56,0.16 -4.99,0.25 -11.13,0.64 0.49,-2.6 M 314,100 v -0.08 l 0.45,-0.15 0.3,-0.07 1.03,-0.13 0.59,-0.06 1.61,-0.11 0.87,-0.05 2.16,-0.09 1.15,-0.04 2.7,-0.07 1.42,-0.04 3.22,-0.04 1.68,-0.03 3.73,-0.02 6.15,-0.02 h 2.22 l 4.04,0.02 1.95,0.01 3.48,0.03 1.67,0.03 2.93,0.05 1.39,0.03 2.36,0.08 1.11,0.05 1.79,0.09 0.83,0.06 1.21,0.12 0.54,0.06 0.63,0.14 0.29,0.23 -0.05,0.08 -0.54,0.14 -0.35,0.07 -1.12,0.13 -0.64,0.06 -1.67,0.11 -0.9,0.05 -2.2,0.09 -1.16,0.05 -2.7,0.07 -1.41,0.03 -3.16,0.05 -1.65,0.02 -3.61,0.03 -5.9,0.02 h -2.12 l -3.88,-0.02 -1.89,-0.01 -3.4,-0.04 -1.63,-0.02 -2.9,-0.06 -1.38,-0.03 -2.38,-0.08 -1.12,-0.04 -1.85,-0.1 -0.85,-0.05 -1.29,-0.12 -0.58,-0.07 -0.73,-0.13 -0.29,-0.07 m -194,-1.76 0.06,-0.28 0.51,-0.57 0.32,-0.29 0.96,-0.57 0.52,-0.28 1.28,-0.52 0.67,-0.26 1.47,-0.45 1.51,-0.42 3.1,-0.48 0.75,-0.08 1.36,-0.02 1.73,0.2 0.43,0.11 0.66,0.34 0.29,0.19 0.39,0.45 0.33,0.47 -0.06,1.08 -0.14,0.52 -0.92,0.86 -0.28,0.19 -0.71,0.25 -1.25,0.17 h -0.36 l -1.08,0.05 -0.59,0.04 -1.4,0.1 -4.55,0.46 -1.23,0.15 -1.66,0.15 -0.73,0.04 -0.84,-0.1 -0.34,-0.08 -0.24,-0.41 -0.07,-0.24 m 158.16,-1.35 -0.75,-0.14 -1.24,-0.32 -0.57,-0.16 -0.9,-0.35 -0.41,-0.18 -0.55,-0.36 -0.23,-0.18 -0.2,-0.36 -0.05,-0.17 0.16,-0.34 0.12,-0.16 0.53,-0.29 0.31,-0.13 0.89,-0.23 1.77,-0.24 0.96,-0.08 2.45,0.28 1.26,0.19 2.49,0.66 1.19,0.36 1.78,0.82 0.37,0.2 0.47,0.4 0.23,0.56 -0.08,0.32 -0.76,0.42 -0.48,0.16 -1.54,0.12 -0.85,0.02 -2.25,-0.19 -1.21,-0.14 M 402,94.62 v -0.38 l 0.37,-0.89 0.88,-1.13 0.22,-0.18 0.77,-0.41 0.43,-0.21 1.16,-0.45 0.62,-0.23 1.47,-0.47 0.77,-0.24 1.72,-0.49 1.77,-0.48 4.01,-0.92 6.19,-1.15 0.75,-0.12 1.29,-0.18 0.61,-0.09 1.03,-0.12 0.97,-0.1 1.37,0.02 0.61,0.04 0.91,0.32 1.21,0.86 0.51,0.46 0.81,0.94 0.55,1.01 v 0.09 l -0.54,0.24 -0.36,0.12 -1.13,0.25 -0.62,0.13 -1.57,0.24 -2.68,0.32 -0.95,0.1 -2.38,0.32 -1.24,0.18 -2.71,0.45 -1.36,0.24 -2.71,0.53 -3.72,0.81 -1.21,0.29 -1.96,0.47 -0.92,0.22 -1.42,0.33 -0.65,0.15 -0.96,0.19 -0.44,0.08 -0.6,0.07 -0.26,0.01 -0.31,-0.06 -0.13,-0.04 -0.12,-0.18 -0.09,-0.21 M 409,85.3 v -0.45 l 0.65,-0.86 0.41,-0.42 1.3,-0.78 0.71,-0.37 1.72,-0.64 0.9,-0.3 1.91,-0.46 0.96,-0.2 1.89,-0.23 0.91,-0.08 1.62,0.05 0.75,0.07 1.13,0.38 0.88,0.99 0.06,0.29 -0.31,0.5 -0.24,0.25 -0.99,0.47 -0.6,0.23 -1.82,0.49 -3.82,0.8 -0.78,0.15 -1.37,0.25 -0.65,0.11 -1.11,0.18 -1.05,0.16 -1.41,0.11 -0.61,0.02 -0.67,-0.16 -0.26,-0.12 z"
       id="path1-1"
       style="fill:#f3b905;fill-opacity:1" />
    <path
       d="m 455.37,98.42 0.39,0.51 0.75,0.89 0.37,0.42 0.64,0.65 0.31,0.29 0.47,0.34 0.42,0.09 0.11,-0.1 h 0.47 l 0.28,0.04 0.78,0.25 0.42,0.15 1,0.46 0.52,0.24 1.15,0.62 1.18,0.66 2.49,1.62 3.39,2.59 0.49,0.43 1.11,1.15 0.56,0.61 1.16,1.38 0.56,0.7 1.06,1.44 1.34,2.04 0.59,1.01 0.83,1.69 0.37,0.84 0.45,1.74 0.19,0.92 0.19,2.29 0.03,0.63 0.03,1.45 0.02,2.54 v 0.97 l -0.01,0.3 -0.29,-0.36 -0.71,-0.72 -0.54,-0.44 -2.31,-1.87 -1.29,5.04 -1.8,5.43 -1.65,3.81 -1.02,1.95 -2.15,3.89 -1.23,1.92 -2.56,3.79 -1.39,1.79 -4.68,6 3.07,0.31 1.36,0.24 0.7,0.25 0.26,0.16 0.44,0.36 0.12,0.23 0.19,0.47 v 0.29 l 0.1,0.4 0.18,-0.04 0.45,-0.24 0.33,-0.33 0.73,-0.79 0.43,-0.53 -0.17,0.23 -3.49,4.46 -5.78,6.6 -0.74,0.8 -1.24,1.31 -0.58,0.61 -0.98,0.97 -0.46,0.45 -0.81,0.69 -0.39,0.32 -0.73,0.45 -0.72,0.41 -1.55,0.31 -0.43,0.05 -0.99,0.04 -1.77,0.02 h -0.75 l -1.35,-0.04 -0.64,-0.03 -1.07,-0.1 -0.49,-0.05 -0.67,-0.12 -0.27,-0.07 -0.15,-0.15 v -0.04 l 0.17,-0.24 0.11,-0.14 0.38,-0.43 0.43,-0.47 1.38,-1.42 0.77,-0.77 1.91,-1.89 3.27,-3.13 3.07,-2.91 5.38,-5.77 1.28,-1.43 2.36,-2.85 1.15,-1.42 2.09,-2.81 1.02,-1.4 1.83,-2.76 0.88,-1.38 1.56,-2.7 0.75,-1.35 1.29,-2.64 0.61,-1.32 1.01,-2.57 0.47,-1.28 0.73,-2.49 0.33,-1.23 0.45,-2.4 0.19,-1.19 0.16,-2.31 0.04,-1.14 -0.12,-2.2 -0.1,-1.08 -0.42,-2.09 -0.25,-1.02 -0.71,-1.96 -0.4,-0.97 -1.01,-1.83 -1.86,-2.58 -0.78,-0.93 -2.13,-2.02 -1.11,-1.01 -2.34,-1.84 -0.57,-0.42 -1.07,-0.74 -0.52,-0.35 -0.9,-0.53 -0.42,-0.23 -0.67,-0.26 -0.63,-0.03 -0.05,0.03 -0.48,0.06 -0.3,0.04 -0.94,0.08 -0.52,0.04 -1.35,0.09 -0.72,0.04 -1.7,0.1 -0.89,0.04 -2,0.1 -1.03,0.05 -2.24,0.09 -7.41,0.27 -0.76,0.02 0.24,-0.07 0.72,-0.35 0.07,-0.29 -0.04,-0.69 -0.16,-0.5 -0.63,-2.18 -0.43,-1.62 -0.15,-0.64 -0.45,-1.28 -0.49,-0.51 h -0.01 l 1.18,-0.08 14.02,-0.6 m 44.51,72.23 -0.15,0.32 -0.22,0.73 -0.01,0.51 0.04,1.14 0.09,0.79 0.16,1.16 0.1,0.42 0.21,0.75 0.13,0.22 0.27,0.35 0.16,0.03 0.33,-0.04 0.2,-0.16 1.52,-0.94 1.32,-0.64 0.79,-0.31 2.01,-0.72 -3.22,1.45 -5.69,3.61 -0.91,0.69 -1.51,1.01 -0.73,0.45 -1.35,0.59 -0.68,0.25 -1.47,0.26 -2.6,0.14 h -0.67 l -1.21,-0.07 -0.58,-0.05 -0.96,-0.15 -0.44,-0.09 -0.6,-0.21 -0.24,-0.11 -0.14,-0.25 v -0.21 l 0.38,-0.61 0.24,-0.34 0.8,-0.82 0.44,-0.43 1.13,-0.97 0.6,-0.5 1.38,-1.05 1.42,-1.05 3.22,-2.08 4.7,-2.55 1.45,-0.67 0.77,-0.27 m -189.95,2.57 1.7,2.2 0.33,0.63 0.06,0.24 0.07,0.44 -0.07,0.13 0.05,0.18 0.3,0.01 0.77,-0.02 0.6,-0.09 1.34,-0.23 0.83,-0.17 1.76,-0.4 0.99,-0.25 4.14,-0.92 2.97,-0.51 1.55,-0.2 2.2,-0.24 -5.63,0.88 -3.1,0.56 -5.99,1.59 -8.49,3.1 -1.42,0.62 -2.36,0.9 -1.13,0.4 -2.12,0.51 -1.08,0.21 -2.38,0.23 -4.39,0.11 h -1.11 l -2.03,-0.07 -0.96,-0.04 -1.61,-0.15 -0.73,-0.08 -1,-0.2 -0.41,-0.1 -0.23,-0.24 v -0.17 l 0.56,-0.55 0.36,-0.31 1.2,-0.79 0.67,-0.41 1.7,-0.96 0.91,-0.49 2.1,-1.06 2.17,-1.07 4.98,-2.21 7.47,-2.93 1.19,-0.41 0.8,-0.25 m -14.78,-6.23 -0.52,0.22 -0.47,0.21 -0.13,0.09 -0.21,0.16 v 0.07 l 0.27,0.77 0.39,0.49 0.25,0.15 0.47,1.02 0.03,1.09 -0.16,0.59 -0.2,0.84 v 0.27 l 0.06,0.46 0.16,0.11 0.42,0.15 0.38,-0.03 0.88,-0.11 0.65,-0.12 1.78,-0.43 1.7,-0.44 1.02,-0.29 0.76,-0.21 -0.95,0.34 -2.05,0.78 -4.03,1.8 -2.01,0.94 -4,2.12 -6.03,3.57 -6.51,4.11 -11.89,-0.03 -1.38,-0.01 -2.29,-0.01 -1.07,-0.01 -1.73,-0.03 -0.79,-0.02 -1.21,-0.06 -0.55,-0.03 -0.76,-0.1 -0.34,-0.05 -0.37,-0.15 -0.14,-0.08 -0.05,-0.2 0.02,-0.22 0.77,-0.66 0.48,-0.37 1.61,-1 0.91,-0.52 2.34,-1.24 1.24,-0.64 2.89,-1.4 1.5,-0.71 3.27,-1.48 3.33,-1.49 7.04,-2.9 1.73,-0.69 3.34,-1.26 4.66,-1.65 4.11,-1.37 2.18,-0.6 m -26.29,-6.56 -0.31,0.75 0.18,0.48 0.39,1.31 0.22,1.08 0.1,0.65 0.18,1.39 0.07,0.83 0.14,1.76 0.06,1.03 0.13,2.23 5.25,-2.14 0.75,-0.28 -2.08,0.86 -7.23,3.39 -10.9,5.68 -11.71,6.52 h -17.29 l -2.77,-0.01 -1.31,-0.01 -2.18,-0.03 -1.02,-0.02 -1.65,-0.06 -0.77,-0.03 -1.17,-0.09 -0.53,-0.05 -0.75,-0.13 -0.33,-0.07 -0.39,-0.16 -0.15,-0.09 -0.07,-0.22 -0.01,-0.11 0.18,-0.26 0.11,-0.14 0.43,-0.36 0.25,-0.19 0.69,-0.47 0.74,-0.49 2.13,-1.24 1.15,-0.65 2.81,-1.5 1.48,-0.77 3.29,-1.66 3.38,-1.68 7.35,-3.42 1.82,-0.83 3.54,-1.54 4.96,-2.05 4.06,-1.61 8.06,-2.89 4.02,-1.39 5.39,-1.66 m 244.88,19.09 0.53,0.87 0.44,0.44 1.14,1.6 0.48,1.14 v 0.42 l 0.14,0.86 0.28,0.14 0.73,0.09 -1.2,0.28 -0.78,0.17 -1.77,0.27 -1.82,0.24 -3.82,0.23 -0.91,0.03 -1.69,-0.01 -0.81,-0.02 -1.35,-0.11 -0.61,-0.08 -0.85,-0.22 -0.35,-0.13 -0.19,-0.34 v -0.18 l 0.27,-0.45 0.18,-0.23 0.59,-0.53 0.66,-0.54 2.06,-1.21 1.12,-0.62 2.7,-1.19 4.35,-1.53 0.43,-0.13 m -154.36,3.36 1.17,0.32 2.21,0.65 1.06,0.32 1.84,0.61 0.86,0.29 1.27,0.5 1.04,0.54 0.07,0.08 -0.35,0.13 -0.26,0.07 -1.01,0.12 -0.58,0.05 -1.62,0.11 -0.89,0.04 -2.21,0.09 -1.18,0.04 -2.77,0.07 -1.45,0.03 -3.3,0.05 -1.72,0.02 -3.8,0.02 -1.23,0.01 1.96,-0.02 0.9,-0.02 1.66,-0.06 0.67,-0.04 1.22,-0.09 0.48,-0.07 0.87,-0.14 0.32,-0.1 0.59,-0.21 0.22,-0.13 0.69,-0.6 0.23,-0.44 0.74,-1.51 0.3,-0.76 v -0.13 l -0.27,-0.33 -0.03,-0.02 m -30.06,-1 -0.04,0.23 0.01,0.52 0.16,0.42 0.43,0.93 0.36,0.69 1.45,2.82 -1.25,-0.02 -3.06,-0.06 -1.47,-0.03 -2.54,-0.07 -1.2,-0.04 -1.98,-0.1 -0.92,-0.05 -1.38,-0.11 -0.62,-0.06 -0.75,-0.12 -0.29,-0.07 -0.09,-0.14 0.08,-0.12 0.6,-0.42 0.36,-0.23 1.05,-0.55 4.22,-1.89 1.03,-0.41 2.54,-0.67 1.33,-0.31 2.27,-0.35 m -60.19,-32.04 -2.43,1.02 -1.01,0.9 -0.21,0.57 -0.21,1.22 0.2,0.74 0.58,1.57 0.58,0.94 0.8,0.99 0.47,0.27 0.94,0.36 0.37,-0.14 1.99,-0.65 1.79,-0.51 1.09,-0.28 2.31,-0.59 1.31,-0.31 2.71,-0.64 1.48,-0.33 2.12,-0.46 -7.69,1.88 -5.53,1.45 -10.87,3.44 -5.41,1.82 -10.67,4.2 -5.31,2.19 -10.5,4.95 -15.58,8.29 -1.12,0.64 -1.89,1.07 -0.89,0.51 -1.46,0.8 -0.69,0.38 -1.08,0.56 -0.51,0.26 -0.76,0.35 -0.35,0.15 -0.5,0.15 -0.22,0.05 -0.29,-0.02 -0.24,-0.06 -0.07,-0.55 V 178 l 0.23,-1.02 0.14,-0.58 0.47,-1.54 0.51,-1.63 1.41,-3.94 0.36,-0.98 0.73,-1.87 0.36,-0.91 0.67,-1.58 0.32,-0.74 0.54,-1.1 0.57,-0.88 0.16,-0.13 0.93,-0.49 0.55,-0.28 1.55,-0.72 0.83,-0.39 1.97,-0.86 3.2,-1.35 2.99,-1.23 6.41,-2.41 3.26,-1.19 6.86,-2.29 3.47,-1.14 7.2,-2.16 3.63,-1.06 7.43,-1.99 7.46,-1.95 2.94,-0.63 m 99.35,23.96 1.29,0.34 2.83,0.83 1.44,0.44 2.98,0.98 2.98,1 5.64,2.13 1.32,0.52 2.33,0.98 1.09,0.48 1.75,0.83 0.78,0.4 0.97,0.61 0.19,0.14 0.19,0.22 0.01,0.25 -0.11,0.1 -0.59,0.31 -0.35,0.16 -0.99,0.39 -3.8,1.26 -1.11,0.33 -1.65,0.41 -0.75,0.16 -1.16,0.08 h -0.55 l -1,-0.25 -1.68,-0.75 -2.43,-1.27 -5.36,-2.1 -2.74,-0.98 -0.25,-0.06 0.07,-0.12 -0.05,-0.16 -0.17,-0.38 -0.17,-0.28 -0.54,-1.78 -0.13,-1.57 0.07,-0.73 -0.03,-1.81 -0.2,-0.45 -0.18,-0.18 -0.43,-0.36 -0.32,-0.16 -0.67,-0.28 m -184.04,-13.99 1.19,0.73 0.49,0.58 1,1.08 0.42,0.37 0.75,0.59 0.14,-0.01 0.56,-0.45 0.03,-0.03 -0.09,0.11 -2.17,2.75 -3.81,5.64 -4.88,8.63 -3.66,7.4 h -11.99 l 2.16,-4.25 0.78,-1.54 1.77,-3.08 0.93,-1.54 2.05,-3.07 2.12,-3.06 5.03,-6.08 2.64,-3.02 1.74,-1.73 0.04,0.03 0.2,0.04 0.21,-0.05 0.48,-0.14 0.33,-0.12 m -101.57,15.91 5.33,0.99 2.61,0.64 5.14,1.36 2.33,0.76 2.27,0.79 1.04,0.4 2.02,0.82 0.89,0.42 1.48,0.69 0.61,0.28 1.15,0.52 0.45,0.19 0.84,0.33 0.32,0.1 0.56,0.17 0.19,0.01 0.32,-0.01 0.07,-0.07 0.1,-0.17 -0.02,-0.16 -0.25,-0.77 -0.34,-0.63 -0.59,-2 -0.06,-1.42 0.16,-0.52 0.09,-1.06 -0.32,-0.58 -0.41,-0.27 -0.84,-0.47 5.19,1.88 2.61,1 4.91,2.25 6.78,3.7 4,2.47 -8.5,-0.13 -0.97,-0.01 -1.66,-0.05 -0.8,-0.02 -1.38,-0.09 -1.33,-0.1 -2.2,-0.43 -1.09,-0.27 -2.27,-0.9 -0.61,-0.26 -1.36,-0.64 -0.71,-0.35 -1.62,-0.82 -1.67,-0.85 -3.75,-1.56 -1.93,-0.75 -4.21,-1.35 -2.15,-0.65 -4.55,-1.14 -2.31,-0.53 -4.78,-0.89 -0.11,-0.02 m 7.31,6.44 7.65,2.59 6,2.34 -8.24,0.29 -1.14,0.04 -2.71,-0.05 -1.4,-0.04 -2.96,-0.19 -0.69,-0.06 0.1,-0.08 0.29,-0.29 0.09,-0.22 0.25,-1.04 0.12,-0.82 0.1,-1.37 -0.06,-0.74 -0.09,-0.3 -0.46,-0.83 M 44.66,171.38 44,172.37 v 0.65 l 0.24,1.08 0.56,0.47 0.62,0.13 0.69,0.12 0.46,0.05 1,0.07 0.63,0.03 1.36,0.04 0.84,0.01 1.78,0.02 1.07,0.01 4.1,0.12 2.91,0.18 1.43,0.12 2.81,0.27 1.25,0.17 2.08,0.29 -2,-0.26 -1.56,-0.18 -3.52,-0.3 -1.79,-0.14 -3.66,-0.18 -5.16,-0.12 -1.35,0.01 -2.4,0.02 -1.16,0.02 -2.06,0.07 -1.99,0.07 -3.27,0.3 -1.57,0.18 -2.86,0.56 -4.48,1.21 -0.48,0.15 -0.67,0.16 -0.28,0.06 -0.3,-0.02 -0.11,-0.03 0.05,-0.21 0.06,-0.13 0.36,-0.41 0.16,-0.16 0.82,-0.51 0.49,-0.27 1.35,-0.66 0.72,-0.34 1.7,-0.73 2.76,-1.1 1.43,-0.53 2.57,-0.79 1.28,-0.36 2.74,-0.49 0.72,-0.11 1.36,-0.15 m 493.36,1.76 1.6,0.45 2.97,1.07 4.02,1.86 0.53,0.29 0.8,0.49 0.35,0.22 0.43,0.33 0.17,0.15 0.02,0.14 -0.48,-0.03 -2.96,-0.74 -6.25,-0.93 -3.14,-0.37 -6.22,-0.2 h -1.52 l -2.96,0.13 -1.45,0.09 -2.76,0.31 -1.35,0.19 -2.5,0.5 -3.37,0.95 -0.58,0.21 -0.29,0.07 0.6,-0.24 1.66,-0.54 1.31,-0.34 0.73,-0.16 3.11,-0.59 1.68,-0.22 3.41,-0.39 1.61,-0.09 3.11,-0.11 1.25,0.08 2.65,0.09 1.26,-0.05 0.42,-0.1 0.73,-0.26 0.22,-0.21 0.35,-0.48 0.09,-0.34 -0.06,-0.89 -0.43,-0.48 -0.47,-0.22 -0.79,-0.29 m -425.4,-13.13 4.82,1.71 2.36,0.85 4.27,1.68 1.02,0.41 1.86,0.8 0.91,0.39 1.61,0.75 0.76,0.36 1.31,0.68 0.61,0.33 0.95,0.6 0.43,0.28 0.56,0.5 0.34,0.61 v 0.15 l -0.19,0.41 -0.12,0.22 -0.39,0.53 -0.43,0.55 -1.2,1.2 -0.62,0.58 -1.24,0.94 -0.29,0.19 -0.5,0.27 -0.58,0.17 -0.26,-0.01 -0.99,-0.48 -0.53,-0.29 -1.16,-0.84 -0.45,-0.36 -1.36,-0.85 -0.74,-0.45 -1.86,-0.99 -0.98,-0.51 -2.22,-1.08 -1.15,-0.54 -2.45,-1.1 -2.48,-1.09 -5.08,-2 -1.24,-0.47 -2.33,-0.81 -1.22,-0.37 0.82,0.22 1.23,0.37 2.38,0.73 1.01,0.35 1.9,0.68 0.72,0.32 1.85,0.8 0.64,0.29 0.59,0.25 0.19,0.09 0.29,0.13 h 0.02 l 0.02,-0.26 0.01,-0.43 v -0.32 l -0.01,-1.51 -0.02,-0.97 -0.18,-2.08 -0.39,-0.94 -0.49,-0.38 -0.46,-0.3 m 260.1,-3.77 11.58,2.59 3.32,0.88 6.73,2.13 1.64,0.54 3.12,1.09 1.53,0.55 2.77,1.06 1.33,0.52 2.28,0.98 1.07,0.47 1.64,0.82 0.72,0.39 0.85,0.62 0.23,0.63 -0.06,0.06 -0.68,0.29 -0.41,0.17 -1.25,0.48 -0.68,0.25 -1.66,0.61 -2.78,0.99 -7.04,2.46 -6.34,-2.86 -2.44,-1.09 -4.8,-1.95 -2.39,-0.93 -4.75,-1.62 -2.37,-0.78 -4.74,-1.31 -2.37,-0.62 -4.76,-1.01 -0.57,-0.11 3.7,0.65 3.23,0.66 3.32,0.67 -0.61,-8.55 m -304.38,15.51 2.93,0.11 2.8,0.33 -1.98,-0.13 -1.64,-0.08 -3.37,-0.16 -1.74,-0.05 -2.75,-0.09 1.16,-0.01 h 1.61 m 285.25,-0.61 1.45,0.15 2.84,0.35 1.3,0.23 0.37,0.07 -3.34,-0.47 -3.08,-0.36 m 176.89,0.7 1.7,0.07 0.39,0.03 -4.33,-0.14 m -0.17,0 -2.18,0.04 h -0.05 l 1.25,-0.06 m -189.47,-0.62 -2.06,0.17 2.45,-0.26 3.29,-0.14 0.77,-0.01 m 8.91,0.05 2.5,0.16 -6.28,-0.26 -1.23,-0.02 1.9,-0.04 m 179.52,-5.68 1.83,0.13 3.67,0.52 1.83,0.3 3.63,0.84 5.33,1.62 5.46,1.95 -5,-0.69 -0.69,-0.09 -2.04,-0.17 -1.11,-0.08 -2.63,-0.13 -8.53,-0.19 h -2.92 l -5.27,0.49 -0.34,0.04 4.31,-0.65 2,-0.13 3.51,-0.3 1.86,-0.24 0.69,-0.14 1.23,-0.29 0.37,-0.15 0.59,-0.32 0.06,-0.16 -0.06,-0.34 -0.27,-0.18 -0.7,-0.35 -0.59,-0.17 -1.35,-0.35 -0.92,-0.17 -2,-0.34 -1.25,-0.16 -4.96,-0.29 0.6,-0.01 m 2.83,-7.48 3.98,1.07 0.97,0.3 1.78,0.57 0.85,0.27 1.41,0.49 0.65,0.23 0.88,0.36 0.56,0.31 v 0.06 l -0.77,0.05 -0.5,0.02 -1.6,-0.02 -0.88,-0.01 -2.22,-0.08 -3.79,-0.18 -2.99,-0.16 -5.95,0.27 -2.94,0.23 -5.58,1.01 -1.36,0.29 -2.57,0.71 -1.26,0.37 -2.35,0.87 -1.14,0.45 -2.08,1.01 -2.77,1.66 -0.58,0.41 -1.07,0.72 -0.51,0.33 -0.84,0.53 -0.39,0.23 -0.52,0.28 -0.22,0.11 -0.12,-0.03 v -0.05 l 0.16,-0.47 0.1,-0.28 0.32,-0.84 1.4,-3.38 0.33,-0.75 0.71,-1.31 0.38,-0.63 0.87,-1.06 0.46,-0.51 1.08,-0.85 0.57,-0.4 1.35,-0.67 0.72,-0.31 1.69,-0.5 0.89,-0.23 2.08,-0.37 0.83,-0.13 -0.58,0.24 -0.29,0.21 -0.5,0.44 -0.16,0.29 -0.41,1.27 v 0.91 l -0.01,1.36 0.07,0.4 0.25,0.64 0.36,0.07 0.41,0.04 0.29,-0.04 0.64,-0.11 0.43,-0.1 0.93,-0.25 0.59,-0.17 1.26,-0.36 0.78,-0.23 1.6,-0.33 1.55,-0.24 0.95,-0.12 4.15,-0.48 2.18,-0.16 2.51,-0.2 1.35,-0.12 0.53,-0.05 0.98,-0.12 0.35,-0.07 0.63,-0.13 0.21,-0.07 0.33,-0.17 0.07,-0.09 0.07,-0.21 -0.04,-0.13 -0.39,-0.57 -0.42,-0.42 -1.23,-0.86 -0.94,-0.35 m -143.27,-11.98 6.19,0.84 3.08,0.44 6.09,1.08 3.04,0.57 6.06,1.34 3.04,0.7 6.09,1.6 9.24,2.72 1.01,0.32 1.84,0.57 0.88,0.27 1.58,0.49 1.52,0.48 2.32,0.76 1.04,0.35 1.42,0.59 0.61,0.28 0.59,0.5 0.2,0.25 -0.17,0.5 -0.18,0.25 -0.86,0.58 -0.51,0.31 -1.48,0.75 -2.86,1.39 -7.55,3.75 -11.45,-4.58 -2.69,-1.07 -5.28,-1.92 -2.63,-0.92 -5.19,-1.61 -2.6,-0.76 -5.18,-1.32 -2.59,-0.62 -5.24,-1.04 -2.64,-0.48 -5.37,-0.76 -2.7,-0.36 -5.57,-0.51 -2.81,-0.22 -5.83,-0.27 -9.13,-0.14 -3.95,0.01 -7.74,0.37 -3.84,0.24 -7.55,0.85 -3.76,0.48 -5.78,1.04 2.23,-0.47 3.48,-0.59 6.93,-1.06 3.45,-0.36 6.87,-0.62 3.4,-0.15 6.79,-0.18 3.37,0.08 6.71,0.26 3.32,0.3 5.36,0.5 3.41,0.34 1.51,0.15 2.84,0.31 1.09,0.13 1.03,0.13 0.4,0.05 0.74,0.1 0.24,0.04 2.01,0.25 0.89,-0.06 0.3,-0.2 0.54,-0.51 0.22,-0.48 0.43,-1.13 0.26,-0.85 0.44,-1.48 0.17,-0.8 -0.03,-0.31 -0.15,-0.59 -0.24,-0.23 -0.61,-0.43 -0.52,-0.17 -0.66,-0.17 m -312.61,17.25 -0.82,0.15 -0.32,0.1 -0.58,0.23 -0.18,0.13 -0.93,0.8 -0.37,0.48 -0.06,0.22 -0.02,0.42 0.12,0.18 0.33,0.36 0.3,0.16 0.7,0.31 0.49,0.13 1.07,0.26 0.04,0.01 -2.28,-0.16 -2.45,-0.14 -4.8,-0.05 -6.96,0.28 -1.2,0.1 -2.2,0.13 -1.05,0.05 -1.74,0.05 -0.8,0.01 -1.09,-0.04 -0.69,-0.16 v -0.11 l 0.44,-0.27 0.29,-0.14 0.96,-0.31 0.54,-0.16 1.39,-0.33 0.75,-0.18 1.74,-0.35 1.82,-0.35 4.36,-0.67 6.96,-0.84 2.58,-0.24 3.88,-0.1 m 59.55,-10.62 7.76,2.51 1.88,0.62 3.5,1.19 1.68,0.58 2.86,1.03 0.65,0.24 1.14,0.44 0.53,0.21 0.86,0.35 0.39,0.17 0.54,0.26 0.4,0.28 0.07,0.11 -0.14,0.43 -0.11,0.24 -0.43,0.65 -2.13,2.36 -3.21,3.03 -8.92,-4.28 -1.96,-0.95 -4.26,-1.77 -2.18,-0.86 -4.65,-1.61 -2.37,-0.78 -5.01,-1.44 -2.54,-0.69 -1.78,-0.42 0.05,0.01 3.08,0.72 1.3,0.33 2.41,0.65 0.83,0.26 3.33,1.01 1.39,0.36 1.31,0.33 0.5,0.11 0.89,0.18 0.22,0.01 0.76,-0.18 0.46,-0.32 0.2,-0.23 0.71,-1.12 0.19,-0.69 0.26,-1.42 -0.1,-0.63 -0.13,-0.6 -0.14,-0.25 -0.31,-0.45 -0.14,-0.09 m 209.65,12.23 -4.16,0.24 -2.01,0.18 -3.98,0.4 -1.87,0.26 -0.96,0.14 2.44,-0.44 1.44,-0.21 3.32,-0.3 1.72,-0.13 3.74,-0.14 0.7,-0.02 m 11.82,-2.94 4.75,0.34 2.49,0.28 0.43,0.06 -4.52,-0.39 -2.47,-0.17 -5.05,-0.14 -7.77,0.11 -2.55,0.1 -4.87,0.38 -2.41,0.22 -4.61,0.64 -2.27,0.35 -2.59,0.54 0.47,-0.13 4.89,-1.06 2.45,-0.35 4.94,-0.59 2.69,-0.16 2.76,-0.13 1.47,-0.04 3.01,-0.05 h 1.63 m 19.45,1.47 1.21,0.2 -2.43,-0.36 m -54.01,-2.67 1.56,-0.4 0.77,-0.16 m -231.98,-5.96 -0.24,0.09 -0.4,0.21 -0.08,0.14 -0.05,0.29 0.11,0.18 0.15,1.11 -0.27,0.85 -0.28,0.35 -0.08,0.66 0.53,0.39 0.62,0.19 0.69,0.18 0.44,0.09 0.96,0.19 0.58,0.1 1.24,0.19 0.74,0.11 1.56,0.21 0.9,0.11 3.95,0.58 0.53,0.1 -2.42,-0.37 -3.27,-0.43 -6.87,-0.52 -1.76,-0.11 -3.68,-0.14 -5.79,-0.11 -15.5,-0.12 6,-1.92 1.09,-0.36 2.62,-0.59 1.36,-0.29 3.07,-0.45 1.58,-0.21 3.4,-0.31 1.73,-0.13 3.6,-0.16 3.29,-0.11 m 315.42,-17.86 5.67,0.62 11.21,1.65 5.58,0.9 11.03,2.21 16.31,3.95 1.79,0.48 3.27,0.9 1.56,0.44 2.63,0.74 0.6,0.17 1.03,0.3 0.48,0.15 0.77,0.23 0.34,0.11 0.47,0.15 0.33,0.13 0.04,0.04 -0.4,0.41 -0.27,0.25 -0.92,0.75 -0.52,0.41 -1.33,0.99 -2.3,1.66 -6,4.2 -9.26,-2.96 -3.51,-1.13 -7,-2.02 -3.5,-0.97 -7.01,-1.72 -3.52,-0.83 -7.06,-1.44 -3.54,-0.68 -7.16,-1.15 -3.59,-0.54 -7.27,-0.87 -0.6,-0.07 1.48,0.14 0.82,0.08 1.56,0.14 0.69,0.05 2.52,0.18 0.95,0.03 1.72,0.02 0.61,-0.07 1.09,-0.17 0.37,-0.16 0.64,-0.37 0.21,-0.27 0.37,-0.59 0.15,-0.39 0.28,-0.83 0.17,-0.51 0.64,-2.66 0.06,-0.71 -0.02,-0.25 -0.07,-0.44 -0.09,-0.09 -0.48,-0.19 -0.61,-0.13 -0.43,-0.07 -0.94,-0.15 -0.59,-0.07 -1,-0.13 m 115.33,13.98 0.83,0.05 0.05,0.01 -0.2,0.03 -0.48,0.13 -0.15,0.12 -0.27,0.28 -0.07,0.2 -0.15,0.97 v 0.74 l 0.02,1.07 0.07,0.34 0.19,0.58 0.21,0.13 0.51,0.18 0.43,-0.03 0.98,-0.12 0.71,-0.15 1.56,-0.24 1.26,-0.14 0.68,-0.06 2.8,-0.18 h 0.87 l -0.15,0.02 -3.09,0.3 -2.18,0.16 -4.48,0.71 -1.04,0.19 -1.8,0.41 -2,0.63 -3.56,1.48 0.59,-2.7 0.13,-0.63 0.25,-1.04 0.11,-0.48 0.24,-0.78 0.24,-0.73 0.61,-0.83 0.36,-0.33 1.1,-0.27 2.52,-0.11 h 0.68 m -235.46,-11.49 -4.33,0.96 -8.28,2.11 -4.08,1.08 -7.77,2.36 -3.81,1.21 -7.22,2.61 -10.17,4.16 -1.49,0.67 -2.68,1.15 -1.28,0.54 -2.09,0.85 -0.96,0.38 -1.27,0.44 -0.26,0.09 -0.31,0.07 -0.13,0.02 -0.03,-0.06 0.04,-0.09 0.31,-0.57 0.18,-0.35 0.55,-0.98 2.18,-3.84 2.96,-5.17 12.04,-3.5 4.35,-1.27 9,-2.34 2.58,-0.65 -0.14,0.05 -0.03,0.03 -0.18,0.34 -0.17,0.44 -0.11,0.3 -0.46,1.4 -0.24,0.84 -0.88,3.06 4.66,-1.45 4.68,-1.37 3.44,-0.93 1.87,-0.46 3.84,-0.92 2.06,-0.47 4.21,-0.93 2.24,-0.46 4.56,-0.92 0.29,-0.06 m -125.28,10.68 11.68,3.64 -3.47,2.87 -0.95,0.79 -1.79,1.22 -0.4,0.26 -0.66,0.34 -0.66,0.2 -0.14,-0.01 -0.84,-0.25 -0.5,-0.16 -1.43,-0.51 -0.77,-0.28 -1.83,-0.69 -0.95,-0.36 -2.04,-0.81 -2.08,-0.83 -4.52,-1.58 -2.32,-0.78 -4.94,-1.45 -2.52,-0.71 -5.2,-1.29 1.38,0.33 2.84,0.68 1.22,0.32 2.28,0.62 0.86,0.27 1.52,0.47 0.63,0.19 1.17,0.33 0.47,0.11 0.87,0.19 0.34,0.03 0.62,0.01 0.23,-0.06 0.74,-0.41 0.19,-0.51 0.29,-1.22 0.11,-0.94 0.12,-1.74 -0.07,-0.83 -0.12,-0.29 -0.19,-0.3 m -50.76,10.34 4.84,0.67 1.84,0.32 3.4,0.79 -0.2,-0.04 -4.1,-0.81 -1.99,-0.33 -3.83,-0.6 m 263.98,0.77 4.09,0.11 5.15,0.43 -1.1,-0.04 -4.16,-0.12 -2.26,-0.03 -4.6,-0.04 -2.35,0.01 -4.72,0.04 -2.28,0.05 -4.5,0.12 -2.06,0.09 -3.14,0.16 1.27,-0.15 8.3,-0.52 4.15,-0.19 m -51.61,-4.96 -6.28,1.43 -3,0.8 -3.86,1.02 -2.43,0.63 -1.06,0.28 -1.82,0.46 3.32,-0.98 8.01,-2.05 4,-0.98 5.33,-1.09 m 221.38,1.75 1.27,0.33 0.57,0.16 0.79,0.3 0.5,0.4 v 0.11 l -0.15,0.05 -0.06,-0.08 -0.3,-0.3 -0.31,-0.15 -0.72,-0.32 -0.51,-0.17 -1.13,-0.33 -0.39,-0.09 m -432.07,-5.77 4.34,0.16 -1.18,0.03 -1.12,0.15 -0.38,0.15 -0.65,0.34 -0.21,0.27 -0.34,0.59 -0.11,0.41 -0.13,0.96 0.07,0.5 0.13,0.19 0.32,0.35 0.26,0.13 0.58,0.22 0.4,0.08 0.67,0.13 0.66,0.12 0.42,0.08 1.92,0.35 1.23,0.23 0.26,0.04 -2.22,-0.33 -2.95,-0.41 -6.06,-0.66 -9.27,-0.76 -12.5,-0.79 6.66,-1.23 1.63,-0.3 3.56,-0.44 1.83,-0.2 3.91,-0.23 1.99,-0.1 4.17,-0.04 m 403.04,-7.73 -0.4,2.25 -0.26,1.11 -0.88,2.37 -0.26,0.64 -0.63,1.42 -1.15,2.46 -1.12,2.36 -0.02,0.03 0.02,-0.04 2.75,-6.29 0.78,-2.14 0.31,-0.96 0.55,-1.84 0.15,-0.71 0.18,-0.93 m -182.28,10.71 -6.06,1.11 1.23,-0.25 4.03,-0.78 2.95,-0.45 m -190.23,1.32 0.17,0.04 -0.31,-0.07 m 35.22,-14.43 8.21,2.1 1.97,0.52 3.61,0.99 1.72,0.48 2.92,0.88 0.67,0.21 1.17,0.38 0.55,0.18 0.9,0.32 0.42,0.16 0.59,0.26 0.52,0.31 0.08,0.08 -0.15,0.38 -0.12,0.22 -0.5,0.59 -0.56,0.62 -1.71,1.48 -0.88,0.73 -1.74,1.19 -0.4,0.25 -0.67,0.33 -0.68,0.15 -0.07,-0.02 -0.5,-0.18 -0.31,-0.11 -0.91,-0.35 -0.98,-0.37 -2.68,-1.05 -0.85,-0.34 -1.94,-0.68 -1.01,-0.35 -2.21,-0.69 -2.28,-0.69 -5.28,-1.39 -2.73,-0.69 -6.02,-1.34 -3.08,-0.66 -6.53,-1.27 -5.85,-1.09 6.72,1.12 4.05,0.76 1.72,0.35 1.66,0.35 0.72,0.15 1.36,0.31 0.55,0.14 2.56,0.63 1.03,0.25 1.91,0.46 0.75,0.16 1.37,0.27 0.5,0.06 0.9,0.08 0.31,-0.04 0.53,-0.13 0.15,-0.15 0.25,-0.36 0.05,-0.26 0.05,-0.58 -0.02,-0.39 -0.05,-0.83 -0.04,-0.51 -0.25,-1.89 -0.29,-0.88 -0.26,-0.31 -0.62,-0.56 -0.47,-0.21 -0.25,-0.09 m 165.51,12.53 -4.91,0.7 2.13,-0.33 4.07,-0.58 1.18,-0.12 m 185.85,-4.89 0.38,0.09 0.94,0.33 0.5,0.19 1.2,0.52 0.44,0.21 -0.48,-0.13 -0.17,-0.01 -1.01,0.41 -0.26,0.63 0.06,0.38 0.24,0.78 0.29,0.33 0.68,0.61 0.5,0.13 1.26,0.25 0.86,0.1 0.92,0.08 -0.12,-0.01 -1.72,-0.14 -0.92,-0.09 -2.28,-0.23 -0.72,-0.07 -1.07,-0.21 -0.49,-0.11 -0.67,-0.32 -0.29,-0.17 -0.33,-0.47 L 493,141 v -0.77 l 0.31,-0.95 0.22,-0.39 0.92,-0.19 h 0.28 m -312.25,4.83 0.08,-0.07 0.11,-0.09 m 107.31,0.06 2.66,-0.51 3.21,-0.56 1.89,-0.28 m 136.29,-12.93 5.44,1 2.64,0.5 4.7,0.97 1.12,0.23 2.05,0.46 0.98,0.23 1.77,0.43 0.84,0.22 1.44,0.39 0.68,0.2 1.08,0.36 0.5,0.17 0.69,0.31 0.55,0.4 0.1,0.16 -0.11,0.55 -0.1,0.3 -0.44,0.77 -0.5,0.81 -1.62,1.87 -0.85,0.92 -1.77,1.52 -0.42,0.32 -0.75,0.44 -0.9,0.28 h -0.23 l -0.67,-0.13 -0.36,-0.07 -0.87,-0.24 -0.89,-0.27 -1.9,-0.75 -0.55,-0.24 -1.35,-0.51 -0.72,-0.25 -1.65,-0.54 -1.72,-0.54 -4.23,-1.14 -2.22,-0.58 -5.1,-1.19 -0.76,-0.18 0.4,0.08 0.65,0.1 1.17,0.16 0.4,0.01 0.69,-0.02 0.21,-0.07 0.35,-0.19 0.08,-0.15 0.12,-0.79 v -0.63 l 0.46,-2.04 0.67,-1.38 0.42,-0.47 0.7,-0.97 -0.01,-0.46 -0.32,-0.19 -0.37,-0.19 -0.28,-0.09 -0.26,-0.07 m -128.18,12.17 -4.23,0.52 2.86,-0.42 5.58,-0.63 2.99,-0.26 0.75,-0.06 m -223.8,-6.05 -0.72,0.18 -0.33,0.27 -0.57,0.63 -0.26,0.49 -0.78,1.58 -0.32,0.79 v 0.12 l 0.53,0.22 0.84,0.18 0.61,0.1 1.33,0.21 0.8,0.1 1.69,0.21 0.93,0.09 3.35,0.44 2.7,0.41 1.51,0.26 3.32,0.61 -10.51,-1.51 -17.1,-1.5 -1.7,-0.08 -2.81,-0.14 -1.31,-0.07 -2.09,-0.12 -0.95,-0.06 -1.43,-0.12 -0.63,-0.06 -0.84,-0.13 -0.35,-0.06 -0.3,-0.15 -0.1,-0.07 0.16,-0.18 0.12,-0.09 0.55,-0.23 1.18,-0.39 0.77,-0.24 2.08,-0.42 1.12,-0.2 2.67,-0.34 1.39,-0.15 3.1,-0.25 1.59,-0.11 3.38,-0.14 3.42,-0.12 m 265.03,4.91 6.08,0.18 2.86,0.15 5.57,0.36 2.53,0.25 1.7,0.16 -5.26,-0.42 -3.74,-0.27 -7.61,-0.32 -8.89,-0.15 h 3.68 m -245.38,-4.15 3.13,0.37 6.76,1.09 3.45,0.6 7.24,1.54 0.45,0.1 -0.79,-0.17 -6.83,-1.33 -3.12,-0.55 -3.05,-0.53 -1.43,-0.22 -2.78,-0.44 -1.27,-0.18 -2.46,-0.34 h -0.05 m 102.97,-7.52 -3.16,2.18 -6.26,4.42 -2.9,2.22 -1.98,1.54 3.52,-2.81 7.72,-5.49 3.96,-2.71 2.69,-1.64 m 111.66,7.36 -3.82,0.37 -7.68,0.78 -3.82,0.46 -7.59,0.97 -3.68,0.53 -5.17,0.79 0.27,-0.05 10.93,-1.66 5.91,-0.79 11.78,-1.17 5.88,-0.51 1.89,-0.1 M 131.66,121 l 2.01,0.12 3.88,0.33 1.94,0.18 3.94,0.48 1.99,0.25 4.23,0.65 2.17,0.34 4.74,0.83 7.94,1.49 1.49,0.29 2.6,0.52 1.24,0.26 2.12,0.47 1.01,0.23 1.68,0.43 0.8,0.22 1.28,0.4 0.6,0.2 0.92,0.39 0.42,0.2 0.6,0.38 0.26,0.2 0.3,0.39 0.17,0.62 v 0.08 l -0.29,0.31 -0.19,0.19 -0.57,0.48 -0.64,0.51 -1.71,1.24 -0.86,0.6 -1.59,1.01 -0.35,0.21 -0.55,0.28 -0.48,0.15 -0.03,-0.01 -0.49,-0.17 -0.3,-0.11 -0.93,-0.32 -0.51,-0.18 -1.24,-0.44 -0.66,-0.23 -1.44,-0.51 -2.15,-0.77 -4.57,-1.41 -2.33,-0.68 -4.93,-1.25 -0.16,-0.04 0.59,-0.15 0.92,-0.41 0.54,-0.29 1.26,-1.03 0.51,-0.83 0.09,-0.42 0.04,-0.86 -0.17,-0.38 -0.46,-0.73 -0.42,-0.26 -1.5,-0.51 -1.66,-0.38 -1.12,-0.19 -2.4,-0.4 -1.42,-0.2 -2.98,-0.41 -1.65,-0.19 -3.4,-0.39 -1.79,-0.18 -3.65,-0.35 -1.86,-0.16 -1.87,-0.14 m 120.33,2.51 -0.7,0.09 -2.58,0.42 -1.02,0.31 -0.24,0.26 -0.3,0.6 0.04,0.48 0.21,1.11 0.22,0.83 0.24,0.89 0.23,0.27 0.59,0.4 0.65,0.02 0.71,-0.01 0.48,-0.05 1.06,-0.13 0.68,-0.1 1.48,-0.24 0.93,-0.16 1.98,-0.35 1.21,-0.22 2.24,-0.38 1.71,-0.28 0.95,-0.15 3.5,-0.52 -1.29,0.19 -7.04,1.2 -21.22,4.17 -1.92,0.42 -3.61,0.81 -1.74,0.39 -3.02,0.71 -0.7,0.16 -1.23,0.3 -0.59,0.14 -0.96,0.24 -0.45,0.12 -0.66,0.18 -0.61,0.18 -0.29,0.11 -0.34,0.02 -0.12,-0.02 0.01,-0.29 0.04,-0.18 0.36,-0.62 0.23,-0.36 0.72,-0.99 0.77,-1.03 1.27,-1.69 0.6,-0.78 1.04,-1.26 0.51,-0.58 0.93,-0.9 0.46,-0.41 0.94,-0.61 0.49,-0.28 1.09,-0.39 0.57,-0.17 1.36,-0.25 0.72,-0.11 1.75,-0.17 3.21,-0.25 1.24,-0.09 3.08,-0.23 1.61,-0.13 3.51,-0.27 1.77,-0.14 3.5,-0.29 0.67,-0.05 m 159.15,9.58 2.05,0.39 0.44,0.08 -2.32,-0.43 -1.37,-0.25 m -310.34,-6.05 2.44,0.02 -0.18,0.04 -0.66,0.28 -1.32,0.66 -0.77,0.48 -3.5,2.2 15,2.24 4.69,0.79 -13.01,-1.93 -3.41,-0.45 -6.67,-0.76 -9.56,-0.85 -1.02,-0.07 -1.73,-0.13 -0.81,-0.07 -1.34,-0.12 -0.62,-0.06 -0.97,-0.12 -0.45,-0.06 -0.63,-0.13 -0.28,-0.06 -0.32,-0.14 -0.12,-0.07 -0.03,-0.15 0.82,-0.55 0.18,-0.08 0.72,-0.14 0.42,-0.07 1.16,-0.12 0.63,-0.07 1.55,-0.11 0.83,-0.05 1.91,-0.09 0.99,-0.05 2.22,-0.07 1.14,-0.03 2.48,-0.06 8.23,-0.06 m 217.06,-1.54 2.92,0.11 4.02,0.3 8,0.86 -10,0.8 -5.16,0.42 -10.04,1.05 -4.97,0.55 -9.65,1.33 -4.77,0.69 -9.23,1.59 -0.62,0.12 1.97,-0.37 2.55,-0.45 5.19,-0.9 2.69,-0.44 5.46,-0.88 2.83,-0.43 1.89,-0.38 0.98,-0.31 0.35,-0.18 0.6,-0.38 0.17,-0.22 0.26,-0.47 v -0.27 l -0.31,-0.78 -0.61,-0.32 -0.63,-0.06 -0.68,-0.05 h -0.44 l -0.94,0.01 -0.59,0.02 -1.25,0.06 -0.76,0.05 -1.6,0.11 -0.94,0.07 3.96,-0.42 7.55,-0.54 1.83,-0.11 3.48,-0.13 1.7,-0.05 3.22,-0.01 m -55.83,6.57 -3.55,0.73 -1.18,0.25 3.64,-0.78 1.31,-0.25 m 111.18,0.2 5.73,0.34 3.36,0.32 -3.42,-0.27 -2.13,-0.15 -4.1,-0.26 m 11.87,-8.19 0.56,0.02 -0.32,0.26 -0.62,0.66 -0.31,0.5 -0.84,1.6 -0.25,0.76 0.09,0.09 0.36,0.11 0.52,0.11 0.39,0.07 0.85,0.15 0.54,0.1 1.15,0.19 0.68,0.11 2.93,0.48 1.74,0.27 3.67,0.55 1.99,0.29 6.5,1.01 4.66,0.77 2.31,0.4 0.85,0.15 -5.68,-0.95 -19.14,-2.71 -2.37,-0.28 -4,-0.48 -1.89,-0.22 -3.17,-0.37 -1.5,-0.17 -2.49,-0.27 -1.18,-0.13 -1.97,-0.19 -0.94,-0.09 -1.61,-0.13 -0.78,-0.06 -1.4,-0.09 -4.2,-0.14 -0.61,-0.02 -1.02,-0.02 -0.48,-0.02 -0.75,-0.04 -0.68,-0.04 -0.64,-0.14 -0.21,-0.09 0.22,-0.26 1.17,-0.6 0.22,-0.1 0.79,-0.17 0.45,-0.09 1.23,-0.15 0.66,-0.07 1.6,-0.12 0.85,-0.06 1.93,-0.1 2,-0.1 4.77,-0.12 2.48,-0.04 5.41,-0.02 m 38.64,-5.54 8.91,0.39 4.42,0.19 8.51,0.41 2.06,0.1 3.92,0.2 1.91,0.09 3.54,0.2 1.72,0.09 3.06,0.18 1.46,0.08 2.49,0.17 1.16,0.07 1.8,0.14 1.84,0.19 0.77,0.1 1.18,0.23 0.53,0.13 0.72,0.29 0.31,0.15 0.29,0.37 0.01,0.65 -0.07,0.19 -0.19,0.62 -0.09,0.34 -0.22,0.86 -0.62,2.92 -0.19,1.01 -0.4,1.3 -0.11,0.27 -0.33,0.39 -0.17,0.16 -0.49,0.18 -0.27,0.07 -0.71,-0.01 -0.39,-0.02 -1,-0.18 -0.55,-0.11 -1.35,-0.33 -2.49,-0.66 -0.97,-0.25 -2.58,-0.61 -1.38,-0.31 -3.28,-0.69 -1.71,-0.35 -3.81,-0.74 -1.96,-0.37 -2.81,-0.52 1.87,-2.87 1.22,-2.12 0.23,-0.54 0.05,-0.18 0.06,-0.31 -0.06,-0.04 -0.59,-0.09 -0.89,-0.08 -0.66,-0.04 -1.46,-0.1 -0.91,-0.06 -1.95,-0.12 -1.13,-0.07 -2.35,-0.13 -1.3,-0.07 -2.68,-0.15 -1.42,-0.07 -5.92,-0.31 -3.12,-0.15 -2.59,-0.13 m -162.02,-13.98 -0.12,0.12 -0.1,0.07 -0.4,0.25 -0.46,0.28 -1.61,0.88 -0.9,0.49 -2.33,1.23 -4.07,2.08 -4.15,2.09 -7.84,4.4 -3.85,2.22 -7.22,4.64 -3.53,2.35 -6.12,4.54 1.07,-0.82 5.78,-4.34 2.8,-1.9 3.76,-2.62 2.04,-1.49 0.78,-0.61 1.39,-1.13 0.46,-0.43 0.74,-0.75 0.12,-0.22 0.08,-0.35 -0.22,-0.02 -0.59,0.08 -0.56,0.2 -1.29,0.52 -0.27,0.14 3.38,-1.77 14.37,-6.69 1.12,-0.48 2.1,-0.87 1.01,-0.42 1.72,-0.68 0.8,-0.31 1.17,-0.43 0.9,-0.25 m -134.06,23.07 2.38,0.17 4.3,0.49 6.54,1.03 1.53,0.28 2.05,0.43 -0.65,-0.12 -1.35,-0.22 -2.77,-0.44 -1.44,-0.21 -5.89,-0.84 -2.83,-0.34 -1.88,-0.23 m 282.66,-2.82 1.15,0.07 2.1,0.16 2.82,0.28 2.8,0.32 5.91,0.77 2.98,0.4 3.46,0.52 -1.86,-0.24 -1.81,-0.22 -3.7,-0.44 -1.92,-0.22 -7.84,-0.86 -3.77,-0.38 -3.6,-0.35 m 25.87,-0.96 3.03,0.45 1.31,0.21 2.47,0.41 0.96,0.18 5.88,1.11 -0.52,-0.09 -4.22,-0.76 -8.74,-1.46 -1.49,-0.24 m -313.25,-2.01 -0.28,0.35 -0.47,0.62 -0.15,0.34 0.05,0.15 0.19,0.28 0.27,0.13 0.67,0.24 0.55,0.12 1.28,0.23 0.91,0.13 2.01,0.25 1.33,0.15 1.68,0.18 -5.24,-0.36 -10.25,-0.49 -1.6,-0.05 -2.82,-0.12 -1.34,-0.06 -2.32,-0.13 -1.09,-0.07 -1.83,-0.13 -0.85,-0.07 -1.34,-0.14 -0.61,-0.08 -0.88,-0.14 -0.38,-0.07 -0.41,-0.15 -0.15,-0.07 0.04,-0.14 0.07,-0.07 0.48,-0.14 0.29,-0.07 0.91,-0.13 0.51,-0.07 1.33,-0.12 0.71,-0.06 1.74,-0.11 0.92,-0.06 2.14,-0.09 1.12,-0.05 2.53,-0.08 1.31,-0.04 2.91,-0.06 1.5,-0.03 3.28,-0.05 1.95,-0.01 m 242.83,-19.66 1.65,-0.02 3.16,-0.05 1.41,-0.03 2.7,-0.07 1.16,-0.05 2.2,-0.09 0.9,-0.05 1.67,-0.11 0.64,-0.06 1.12,-0.13 0.35,-0.07 0.54,-0.14 0.05,-0.08 -0.29,-0.23 -0.63,-0.14 -0.54,-0.06 -1.21,-0.12 -0.83,-0.06 -1.79,-0.09 -1.11,-0.05 -2.36,-0.08 -1.39,-0.03 -2.93,-0.05 -1.67,-0.03 -3.48,-0.03 -1.95,-0.01 -4.04,-0.02 h -2.22 l -6.15,0.02 -3.73,0.02 -1.68,0.03 -3.22,0.04 -1.42,0.04 -2.7,0.07 -1.15,0.04 -2.16,0.09 -0.87,0.05 -1.61,0.11 -0.59,0.06 -1.03,0.13 -0.3,0.07 -0.45,0.15 V 100 l 0.15,0.16 0.29,0.07 0.73,0.13 0.58,0.07 1.29,0.12 0.85,0.05 1.85,0.1 1.12,0.04 2.38,0.08 1.38,0.03 2.9,0.06 1.63,0.02 3.4,0.04 1.89,0.01 3.88,0.02 H 325 v 21 l -12.25,0.01 h -2.37 l -5.24,0.18 -2.69,0.13 -5.8,0.41 -2.96,0.23 -1.52,0.15 0.77,-0.1 0.85,-0.13 1.55,-0.25 0.55,-0.12 0.96,-0.23 0.29,-0.11 0.48,-0.22 0.09,-0.12 0.1,-0.25 -0.06,-0.13 -0.19,-0.29 -0.16,-0.16 -0.55,-0.13 -0.73,-0.06 -0.53,-0.01 -1.17,-0.02 -0.73,0.01 -1.55,0.01 -0.89,0.02 -1.87,0.05 -1.04,0.04 -2.13,0.07 -1.15,0.05 -3.71,0.17 3.65,-0.24 2.11,-0.13 3.84,-0.24 1.86,-0.12 3.36,-0.21 1.62,-0.11 2.92,-0.19 1.4,-0.09 2.5,-0.18 1.21,-0.08 2.12,-0.17 1.02,-0.08 1.78,-0.15 0.85,-0.08 1.47,-0.15 0.7,-0.08 1.2,-0.16 1.14,-0.15 1.6,-0.34 0.7,-0.18 0.95,-0.4 0.42,-0.22 0.58,-0.52 0.75,-0.93 0.25,-0.35 0.51,-1.11 0.25,-0.62 0.47,-1.51 1.01,-5.16 0.67,-6.25 h -12.17 l -0.3,7.25 -0.29,7.25 -31.8,1.14 -3.77,0.13 1.48,-0.07 3.8,-0.2 1.56,-0.11 2.91,-0.2 1.16,-0.11 2.11,-0.23 0.8,-0.12 1.42,-0.25 0.48,-0.13 0.82,-0.28 0.22,-0.16 0.31,-0.33 v -0.18 l -0.51,-0.98 -0.76,-0.41 h -0.48 l -0.69,-0.02 -0.78,-0.04 -0.54,-0.02 -1.15,-0.07 -0.7,-0.04 -1.47,-0.09 -0.84,-0.05 -3.62,-0.23 -2.1,-0.14 -0.63,-0.05 1.47,0.1 2.1,0.13 3.81,0.22 1.83,0.11 3.28,0.16 1.57,0.07 2.75,0.1 1.3,0.05 2.2,0.04 1.04,0.01 1.65,-0.02 0.76,-0.01 1.11,-0.08 1.03,-0.19 0.62,-0.24 1.27,-1.19 0.62,-0.68 1.11,-1.81 0.52,-0.94 0.74,-2.05 0.49,-2.94 v -0.44 l -0.26,-0.62 -0.2,-0.28 -0.95,-0.36 -0.3,-0.08 -0.8,-0.13 -0.44,-0.06 -1.1,-0.11 -0.6,-0.05 -1.46,-0.08 -2.64,-0.13 -0.97,-0.04 -2.48,-0.2 -1.31,-0.11 -2.99,-0.31 -3.07,-0.34 -6.71,-0.88 -1.65,-0.23 -3.15,-0.48 -1.53,-0.23 -2.75,-0.47 -1.3,-0.22 -2.12,-0.43 -2.22,-0.55 -0.32,-0.1 -0.32,-0.23 -0.11,-0.11 0.06,-0.24 0.07,-0.12 0.4,-0.24 0.24,-0.11 0.68,-0.23 0.75,-0.22 2.17,-0.33 3.88,-0.25 h 0.78 l 0.6,0.05 -0.8,0.07 -1.77,0.24 -0.89,0.23 -0.31,0.13 -0.53,0.29 -0.12,0.16 -0.16,0.34 0.05,0.17 0.2,0.36 0.23,0.18 0.55,0.36 0.41,0.18 0.9,0.35 0.57,0.16 1.24,0.32 0.75,0.14 2.91,0.49 1.21,0.14 2.25,0.19 0.85,-0.02 1.54,-0.12 0.48,-0.16 0.76,-0.42 0.08,-0.32 -0.23,-0.56 -0.47,-0.4 -0.37,-0.2 -0.08,-0.04 0.37,0.12 6,2.47 95,0.01 8,-4.01 2.3,-1.16 4.94,-2.01 0.48,-0.18 -0.75,0.4 -0.22,0.18 -0.88,1.13 -0.37,0.89 v 0.38 l -0.04,0.75 0.09,0.21 0.12,0.18 0.13,0.04 0.31,0.06 0.26,-0.01 0.6,-0.07 0.44,-0.08 0.96,-0.19 0.65,-0.15 1.42,-0.33 0.92,-0.22 1.96,-0.47 1.21,-0.29 3.72,-0.81 2.71,-0.53 1.36,-0.24 2.71,-0.45 1.24,-0.18 2.38,-0.32 0.95,-0.1 2.68,-0.32 1.57,-0.24 0.62,-0.13 1.13,-0.25 0.36,-0.12 0.54,-0.24 v -0.09 l -0.55,-1.01 -0.81,-0.94 -0.51,-0.46 -1.21,-0.86 -0.91,-0.32 -0.61,-0.04 -0.53,-0.01 h 0.02 l 0.87,-0.07 1.5,-0.11 0.71,-0.05 1.22,-0.04 1.17,-0.03 1.82,0.18 0.88,0.13 1.69,0.58 3.03,1.41 0.72,0.36 1.31,0.69 0.62,0.32 1.04,0.57 0.47,0.26 0.65,0.38 0.41,0.3 v 0.04 l -0.64,0.03 -0.4,0.01 -1.32,-0.01 -0.73,-0.01 -1.83,-0.06 -3.13,-0.12 -2.63,-0.12 -5.37,0.17 -2.73,0.15 -5.73,0.75 -2.94,0.45 -6.35,1.36 -1.64,0.38 -3.43,0.89 -5.43,1.51 -2.1,0.62 -3.88,1.01 -1.88,0.46 -3.51,0.73 -1.71,0.33 -3.23,0.45 -4.64,0.41 -0.99,0.05 -1.66,0.1 -0.78,0.04 -1.28,0.11 -0.6,0.05 -0.94,0.12 -0.44,0.07 -0.66,0.15 -0.6,0.17 -0.55,0.49 -0.25,1.09 v 0.77 l 0.26,1.34 0.18,0.65 0.64,1.11 0.37,0.52 1.03,0.88 0.56,0.41 1.45,0.65 0.77,0.29 1.88,0.43 1,0.19 2.34,0.23 1.23,0.08 2.82,0.03 4.78,-0.19 3.45,-0.21 7.42,-0.43 3.76,-0.22 7.75,-0.42 3.88,-0.2 7.66,-0.38 3.77,-0.19 7.14,-0.32 1.73,-0.08 3.3,-0.14 1.61,-0.07 3.02,-0.12 1.47,-0.06 2.69,-0.1 1.3,-0.04 2.3,-0.08 1.11,-0.03 1.87,-0.05 0.88,-0.02 1.38,-0.02 h 0.63 l 0.84,0.01 0.61,0.06 0.23,0.15 0.54,1.05 0.65,2.11 0.15,0.76 0.46,1.74 0.67,2.13 0.16,0.42 0.11,0.56 0.01,0.24 -0.31,0.25 -0.22,0.09 -0.86,-0.02 -2.07,-0.26 -0.27,-0.04 -0.76,-0.09 -0.41,-0.05 -1.02,-0.09 -1.08,-0.1 -2.74,-0.21 -1.44,-0.11 -3.21,-0.2 -4.97,-0.26 -3.18,-0.15 -6.73,-0.3 -3.4,-0.15 -5.05,-0.21 1.34,0.03 0.75,0.02 1.44,0.04 0.6,0.01 2.87,0.07 1.56,0.02 0.62,-0.01 1.15,-0.03 0.45,-0.03 0.81,-0.1 0.31,-0.07 1,-0.4 0.29,-0.37 0.48,-0.87 0.25,-0.65 0.47,-2.13 -0.07,-1.15 -0.23,-0.23 -0.63,-0.14 -0.86,-0.07 -0.63,-0.02 -1.38,-0.03 h -0.86 -1.83 l -1.07,0.02 -2.23,0.04 -1.23,0.03 -2.56,0.08 -1.38,0.05 -5.75,0.23 -3.13,0.17 -3.65,0.19 -2.23,0.12 -1.02,0.06 -3.8,0.22 -1.55,0.1 -2.87,0.2 -1.13,0.1 -2.06,0.2 -0.77,0.1 -1.39,0.2 -0.48,0.12 -0.84,0.23 -0.26,0.14 -0.42,0.28 -0.09,0.17 -0.13,0.34 v 0.2 l 0.4,0.97 0.38,0.23 0.3,0.1 0.14,0.03 -0.35,-0.01 -2.83,-0.1 -4.94,-0.15 -1.16,-0.04 -2.09,-0.05 -1.01,-0.03 -1.75,-0.04 -0.84,-0.02 -1.38,-0.03 -1.62,-0.01 L 370,113 v -12 h -12.28 l 0.61,5.13 0.15,1.24 0.35,2.07 0.2,0.98 0.55,1.59 0.31,0.75 0.86,1.17 0.48,0.54 1.3,0.82 0.71,0.37 1.86,0.52 1.01,0.23 2.53,0.29 1.37,0.12 3.33,0.12 6.04,0.06 h 0.79 l 2.14,0.03 1.14,0.02 0.52,0.01 -0.33,0.01 -0.97,0.13 -0.28,0.09 -0.42,0.2 -0.03,0.12 0.08,0.25 0.22,0.13 0.54,0.28 0.44,0.14 0.98,0.27 0.64,0.13 1.37,0.26 0.82,0.11 1.73,0.22 0.99,0.08 4.61,0.42 3.38,0.35 1.31,0.14 -4.58,-0.28 -2.79,-0.15 -6,-0.21 -9.43,-0.15 -20.24,-0.1 L 356,101 h -15.56 l 5.9,-0.02 m -201.5,11.78 2.32,0.07 3.86,0.19 1.81,0.11 2.97,0.27 1.4,0.15 2.27,0.39 1.06,0.22 1.75,0.55 0.83,0.3 1.41,0.74 0.68,0.4 1.26,0.98 1.9,1.76 0.54,0.54 0.87,0.88 0.4,0.42 0.59,0.65 0.25,0.3 0.3,0.43 0.11,0.2 -0.01,0.24 -0.05,0.1 -0.32,0.07 -0.2,0.01 -0.65,-0.08 -0.36,-0.06 -0.98,-0.22 -0.53,-0.12 -1.32,-0.32 -1.42,-0.35 -3.27,-0.68 -1.7,-0.33 -3.77,-0.63 -1.93,-0.31 -4.18,-0.57 -2.14,-0.28 -4.5,-0.51 -4.58,-0.49 -9.79,-0.76 -14.99,-0.72 -2.99,-0.08 -5.43,-0.18 -1.29,-0.05 -2.37,-0.09 -1.15,-0.04 -2.03,-0.09 -0.97,-0.04 -1.64,-0.08 -0.77,-0.05 -1.19,-0.07 -0.53,-0.04 -0.67,-0.06 -0.38,-0.08 0.09,-0.1 0.47,-0.18 0.28,-0.1 0.8,-0.18 0.45,-0.09 1.12,-0.19 0.59,-0.09 1.4,-0.18 1.46,-0.18 3.59,-0.34 1.89,-0.16 3.47,-0.24 -0.26,0.1 -0.53,0.29 -0.06,0.17 0.01,0.36 0.21,0.2 0.52,0.3 0.55,0.19 0.39,0.1 0.83,0.18 0.52,0.09 1.1,0.18 0.65,0.09 2.84,0.33 1.79,0.15 3.8,0.29 2.24,0.12 5.82,0.36 3.79,0.27 1.72,0.14 3.29,0.27 1.31,0.13 1.24,0.13 0.51,0.06 0.95,0.11 0.34,0.05 2.94,0.41 1.41,0.16 1.37,0.15 0.59,0.06 1.09,0.09 0.39,0.02 h 1.41 l 0.58,-0.1 0.13,-0.12 0.15,-0.29 -0.06,-0.24 -0.2,-0.56 -0.21,-0.39 -1.8,-2.54 -0.75,-0.59 -0.47,-0.23 -1.01,-0.43 -0.64,-0.16 -1.38,-0.29 -0.87,-0.1 -0.93,-0.09 m 68.48,9.05 0.47,-0.29 4.32,-2.54 0.77,-0.4 m 48.5,-7.11 h -0.07 l -3.26,-0.19 -1.31,-0.05 -2.42,-0.06 -0.94,0.03 -1.72,0.11 -0.64,0.12 -1.17,0.29 -0.42,0.22 -0.75,0.5 -0.27,0.34 -0.49,0.75 -0.19,0.47 -0.36,1.01 -0.18,0.61 -0.26,0.9 0.09,0.29 0.14,0.26 0.16,0.09 0.39,0.17 0.3,0.06 0.7,0.09 0.5,0.02 1.08,0.03 0.71,-0.01 1.54,-0.03 0.97,-0.03 2.07,-0.07 1.25,-0.04 1.09,-0.04 -2.51,0.11 -1.93,0.08 -3.59,0.17 -1.75,0.09 -3.13,0.16 -1.5,0.08 -2.57,0.14 -1.21,0.08 -1.9,0.12 -1.99,0.17 -0.94,0.1 -1.53,0.13 -0.7,0.05 -1.06,0.01 -0.48,-0.01 -0.59,-0.14 -0.24,-0.1 -0.13,-0.32 v -0.19 l 0.34,-0.55 0.22,-0.3 0.81,-0.79 0.46,-0.43 1.26,-1.07 2.43,-1.95 3.78,-2.99 m 43.36,-6.51 1.78,0.44 3.29,0.87 1.58,0.43 2.71,0.83 1.26,0.41 1.9,0.74 0.42,0.18 0.64,0.32 0.64,0.44 0.3,0.29 0.15,0.34 -0.45,0.13 -0.13,-0.02 -1.03,-0.1 -0.62,-0.06 -1.83,-0.16 -0.99,-0.08 -2.39,-0.19 -1.25,-0.1 -2.71,-0.21 -0.69,-0.05 -1.64,-0.1 -0.22,-0.02 1.99,-0.22 0.91,-0.51 0.16,-0.37 0.09,-0.79 -0.29,-0.44 -0.8,-0.88 -0.76,-0.41 -1.12,-0.41 -1.16,-0.34 -0.57,-0.15 m -144.56,-0.23 1.02,0.01 1.67,0.04 0.79,0.03 1.27,0.09 0.6,0.05 0.96,0.16 0.91,0.17 1.32,0.65 1.99,1.54 3.13,2.75 -27.96,0.03 h -1.54 -2.83 -1.38 -2.51 -1.21 l -2.2,-0.01 h -1.06 l -1.91,-0.01 -0.91,-0.01 -1.63,-0.02 -0.78,-0.01 -1.36,-0.03 -1.3,-0.02 -1.86,-0.08 -0.82,-0.05 -1,-0.12 -0.4,-0.06 -0.26,-0.17 -0.04,-0.09 0.37,-0.21 0.25,-0.12 0.88,-0.27 1,-0.3 2.3,-0.56 1.2,-0.28 2.65,-0.52 2.73,-0.5 3.95,-0.55 -1.41,0.35 -0.77,0.26 -1.44,0.54 -0.54,0.3 -0.96,0.62 -0.28,0.34 -0.44,0.68 -0.02,0.37 0.11,0.07 0.2,0.02 0.51,0.06 0.39,0.02 0.86,0.04 0.56,0.02 1.18,0.03 0.69,0.01 3.05,0.02 1.83,-0.01 3.85,-0.04 2.11,-0.04 15.35,-0.29 -0.46,-2.46 -0.43,-1.36 -0.5,-0.58 -0.5,-0.16 -0.55,-0.14 -0.36,-0.04 -0.78,-0.08 -0.5,-0.03 -0.97,-0.03 0.72,-0.02 h 1.3 m 123.19,-3.78 1.13,0.08 0.12,0.01 -0.22,0.01 -0.32,0.14 -0.53,0.39 -0.17,0.36 -0.29,0.87 -0.14,0.65 -0.54,2.31 -0.34,1.33 -0.1,0.34 0.44,0.58 0.44,0.17 0.31,0.07 0.69,0.13 0.45,0.07 0.96,0.11 0.59,0.05 1.26,0.1 0.74,0.04 h 0.03 l -2.67,-0.05 -1.56,-0.01 -2.69,-0.05 -1.28,-0.02 -2.16,-0.06 -1.02,-0.03 -1.66,-0.08 -0.78,-0.04 -1.22,-0.1 -0.56,-0.06 -0.81,-0.13 -0.36,-0.06 -0.45,-0.17 -0.19,-0.08 -0.13,-0.2 0.12,-0.34 0.28,-0.34 0.23,-0.78 -0.22,-0.94 -0.2,-0.23 0.02,-0.15 0.62,0.24 0.16,0.09 0.6,-0.04 0.34,-0.05 0.86,-0.29 3.04,-1.64 0.87,-0.59 1.38,-0.8 0.67,-0.34 1.32,-0.35 0.7,-0.13 1.75,-0.01 m 139.19,1.47 -0.7,1.27 -0.14,0.71 -0.49,2.6 11.13,-0.64 4.99,-0.25 3.56,-0.16 1.77,-0.07 3.48,-0.13 1.08,-0.04 -1.74,0.08 -4.72,0.22 -9.29,0.52 -2.28,0.13 -4.39,0.29 -2.16,0.14 -4.07,0.3 -1.99,0.15 -3.67,0.3 -4.93,0.45 -0.86,0.09 -1.33,0.08 -0.6,0.03 -0.78,-0.04 -0.33,-0.03 -0.24,-0.17 -0.05,-0.1 0.31,-0.29 0.23,-0.17 0.87,-0.42 0.5,-0.24 1.44,-0.56 0.78,-0.3 2,-0.71 3.64,-1.22 1.42,-0.47 3.11,-0.88 1.59,-0.44 3.42,-0.81 0.47,-0.11 m -122.78,1.95 1.05,0.24 -0.24,-0.05 -2.98,-0.6 m -154.17,-5.7 -0.67,0.26 -1.28,0.52 -0.52,0.28 -0.96,0.57 -0.32,0.29 -0.51,0.57 -0.06,0.28 -0.11,0.77 0.07,0.24 0.24,0.41 0.34,0.08 0.66,0.08 -1.61,0.15 -2.54,0.27 -0.59,0.08 -1.04,0.08 -0.49,0.02 -0.76,-0.02 -0.35,-0.03 -0.41,-0.12 -0.15,-0.08 0.02,-0.21 0.07,-0.12 0.63,-0.4 0.38,-0.22 1.13,-0.56 0.62,-0.29 1.49,-0.64 2.48,-0.99 2,-0.75 2.59,-0.63 m 148.65,4.87 h 0.03 -0.04 m -136.67,-5.41 0.73,0.17 1.33,0.46 1.72,0.9 2.93,1.98 -11,0.67 -3.03,0.19 -4.64,0.35 0.32,-0.04 4.55,-0.46 1.4,-0.1 0.59,-0.04 1.08,-0.05 h 0.36 l 1.25,-0.17 0.71,-0.25 0.28,-0.19 0.92,-0.86 0.14,-0.52 0.06,-1.08 -0.33,-0.47 -0.39,-0.45 -0.29,-0.19 -0.12,-0.06 m 282.98,2.35 -1.21,0.18 1.01,-0.16 0.46,-0.06 m -5.11,-8.32 0.69,-0.19 1.17,-0.24 m 2.24,-0.45 2.04,-0.41 0.59,-0.08 m -6.43,-5.61 -1.72,0.64 -0.71,0.37 -1.3,0.78 -0.41,0.42 -0.65,0.86 v 0.45 l 0.11,0.43 0.26,0.12 0.67,0.16 0.61,-0.02 1.41,-0.11 1.05,-0.16 1.11,-0.18 0.65,-0.11 0.71,-0.13 -3.93,0.83 -1.16,0.25 -2.13,0.49 -2.76,0.67 -0.52,0.14 -0.78,0.14 -0.34,0.06 -0.43,-0.03 -0.18,-0.03 -0.1,-0.2 -0.02,-0.12 0.19,-0.37 0.1,-0.16 0.59,-0.5 0.35,-0.28 0.99,-0.66 3.87,-2.19 0.72,-0.37 1.64,-0.62 0.85,-0.3 1.84,-0.49 0.23,-0.06 m 10.98,-0.81 0.81,0.09 1.41,0.31 1.7,0.68 0.48,0.28 0.58,0.37 0.23,0.17 0.07,0.19 -0.03,0.08 -0.48,0.07 -1.35,0.05 -0.29,0.01 -1.12,0.13 -0.64,0.09 -1.69,0.27 -0.9,0.15 -2.09,0.37 -1.09,0.2 -2.34,0.45 -0.17,0.03 2.17,-0.45 1.82,-0.49 0.6,-0.23 0.99,-0.47 0.24,-0.25 0.31,-0.5 -0.06,-0.29 -0.88,-0.99 -1.13,-0.38 -0.75,-0.07 -0.48,-0.01 0.6,-0.05 z"
       id="path1-2"
       style="fill:#f09806;fill-opacity:1" />
  </g>
  <path
     d="m 630.57469,57.330875 0.11,0.15 0.16,0.48 0.07,0.27 0.11,0.75 0.04,0.42 0.06,1.08 0.02,0.59 0.01,1.47 0.01,0.79 -0.03,1.92 -0.07,3.43 -0.03,1.21 -0.06,2.07 -0.03,0.98 -0.08,1.65 -0.04,0.78 -0.1,1.27 -0.05,0.59 -0.12,0.94 -0.07,0.44 -0.16,0.65 -0.08,0.29 -0.19,0.4 -0.77,0.48 h -0.28 l -0.45,-0.32 -0.21,-0.23 -0.34,-0.84 -0.16,-0.5 -0.25,-1.46 -0.31,-3 -0.5,-6.34 -3.29,6.69 -0.48,0.97 -0.82,1.59 -0.39,0.72 -0.69,1.08 -0.34,0.47 -0.61,0.55 -0.3,0.21 -0.59,0.01 -0.29,-0.06 -0.62,-0.52 -0.31,-0.33 -0.71,-1.08 -0.36,-0.61 -0.84,-1.65 -1.48,-3.11 -2.88,-6.24 -0.29,7.25 -0.06,1.39 -0.16,2.08 -0.08,0.94 -0.25,1.29 -0.13,0.56 -0.36,0.64 -0.71,0.35 h -0.3 l -0.44,-0.49 -0.09,-0.18 -0.16,-0.53 -0.07,-0.3 -0.12,-0.81 -0.05,-0.44 -0.08,-1.13 -0.04,-0.61 -0.05,-1.48 -0.02,-0.8 -0.03,-1.89 -0.01,-1 v -2.34 -1.88 l 0.06,-3.07 0.04,-1.42 0.16,-2.18 0.1,-0.98 0.29,-1.29 0.17,-0.53 0.45,-0.42 0.26,-0.1 0.65,0.45 0.35,0.33 0.87,1.3 0.47,0.75 1.12,2.14 2.01,4.13 4.32,9.23 4.28,-9.23 0.7,-1.49 1.24,-2.48 0.6,-1.14 1.05,-1.75 0.5,-0.78 0.82,-0.99 0.96,-0.6 h 0.35 m 35.41,0.09 0.87,0.07 1.33,0.29 0.61,0.18 1.02,0.57 1.49,1.25 0.67,0.68 0.9,1.1 0.38,0.52 0.34,0.95 0.11,0.47 -0.17,1.01 -0.78,1.81 -0.36,0.68 -0.02,1.43 0.05,0.39 0.3,0.85 0.74,1.48 0.35,0.62 0.46,0.99 0.2,0.47 0.15,0.83 0.03,0.41 -0.14,0.83 -0.54,1.45 -0.37,0.82 -1.13,1.28 -0.63,0.58 -1.72,0.84 -0.94,0.37 -2.43,0.44 -4.57,0.25 h -5.43 v -24 h 7.32 m 68.53,0.24 0.13,0.16 0.35,0.53 0.37,0.59 1.05,1.88 0.56,1.03 1.29,2.5 0.66,1.3 1.38,2.8 0.68,1.41 1.31,2.78 0.63,1.36 1.09,2.44 0.49,1.15 0.71,1.77 0.14,0.39 0.19,0.59 0.12,0.58 v 0.14 l -0.42,0.21 -1.02,0.15 h -0.21 l -0.69,-0.69 -0.39,-0.44 -0.97,-1.46 -0.51,-0.82 -1.16,-2.09 -1.84,-3.68 -4.34,-9.17 -4.26,9.17 -0.68,1.47 -1.24,2.44 -0.6,1.14 -1.04,1.74 -0.5,0.78 -0.82,1 -0.95,0.61 h -0.44 l -0.53,-0.37 -0.19,-0.22 0.08,-0.66 0.91,-2.29 2.26,-5.13 1.15,-2.56 2.34,-4.83 0.57,-1.14 1.04,-2.02 0.51,-0.95 0.87,-1.56 0.41,-0.71 0.63,-0.96 0.6,-0.6 h 0.06 m -280.35,0 2.04,0.55 1.05,0.33 2.08,0.98 0.99,0.52 1.53,1.12 0.32,0.27 0.43,0.52 0.28,0.7 v 0.38 l -0.58,0.43 -0.36,0.16 h -1.03 l -0.54,-0.05 -1.12,-0.4 -1.37,-1.01 -0.37,-0.45 -1.21,-0.58 -0.66,-0.24 -1.53,-0.15 -0.78,-0.02 -1.55,0.29 -1.99,0.93 -0.54,0.42 -0.92,0.95 -0.43,0.49 -0.68,1.07 -0.62,1.09 -0.53,2.38 -0.14,1.21 0.46,2.4 0.17,0.59 0.55,1.13 1.11,1.6 0.69,0.81 1.71,1.08 0.89,0.45 1.92,0.36 0.97,0.09 1.88,-0.39 2.52,-1.44 0.53,-0.48 1.03,-0.51 0.49,-0.18 0.8,0.05 0.35,0.09 0.38,0.56 -0.12,1.35 -0.07,0.19 -0.37,0.44 -0.22,0.23 -0.61,0.49 -0.65,0.5 -1.74,0.99 -0.89,0.48 -1.8,0.73 -2.18,0.48 -0.19,-0.01 -0.58,-0.12 -0.31,-0.08 -0.77,-0.25 -0.8,-0.28 -1.75,-0.79 -0.64,-0.32 -1.14,-0.77 -0.54,-0.41 -0.92,-0.93 -0.88,-0.96 -1.17,-2.26 -0.49,-1.18 -0.43,-2.51 -0.12,-1.27 0.28,-2.52 0.22,-1.25 0.94,-2.31 0.55,-1.11 1.56,-1.86 0.85,-0.85 2.14,-1.18 0.57,-0.25 1.24,-0.31 2,-0.2 m 247.79,0.47 0.1,0.17 0.16,0.52 0.08,0.29 0.12,0.8 0.05,0.44 0.08,1.12 0.04,0.6 0.05,1.5 0.02,0.79 0.03,1.91 0.01,3.39 v 1.37 l -0.02,2.35 -0.02,1.1 -0.06,1.85 -0.04,0.86 -0.1,1.37 -0.06,0.64 -0.16,0.95 -0.09,0.42 -0.22,0.56 -0.12,0.23 -0.29,0.2 -0.15,0.06 -0.36,-0.13 -0.2,-0.09 -0.44,-0.41 -0.05,-0.04 -0.09,-0.32 -0.04,-0.2 -0.08,-0.59 -0.08,-0.66 -0.13,-1.99 -0.06,-1.08 -0.09,-2.66 -0.05,-4.46 v -1.17 l 0.01,-2.01 0.01,-0.96 0.04,-1.6 0.02,-0.75 0.07,-1.23 0.03,-0.57 0.1,-0.9 0.06,-0.42 0.14,-0.61 0.07,-0.28 0.19,-0.38 0.76,-0.45 h 0.31 m -168.61,0.45 0.2,0.32 0.29,1.28 0.07,0.38 0.11,0.97 0.05,0.52 0.09,1.27 0.04,0.67 0.07,1.59 0.1,2.8 0.28,10.25 5.82,0.3 0.99,0.05 1.57,0.16 0.71,0.08 1.03,0.23 0.44,0.13 0.5,0.3 0.18,0.55 -0.06,0.17 -0.62,0.3 -0.39,0.15 -1.14,0.27 -0.62,0.13 -1.49,0.21 -0.77,0.1 -1.64,0.15 -1.66,0.12 -3.01,-0.01 -0.67,-0.03 -1.04,-0.14 -0.45,-0.08 -0.47,-0.27 -0.05,-0.04 -0.09,-0.33 -0.05,-0.2 -0.09,-0.59 -0.08,-0.66 -0.14,-2 -0.07,-1.1 -0.08,-2.66 -0.06,-4.46 v -1.16 l 0.01,-1.99 0.01,-0.94 0.04,-1.6 0.02,-0.74 0.07,-1.23 0.03,-0.58 0.1,-0.91 0.06,-0.41 0.13,-0.63 0.08,-0.29 0.18,-0.39 0.74,-0.46 h 0.29 m -34.28,0.18 3.43,1.28 0.7,0.36 1.43,1.36 0.71,0.76 1.25,1.87 0.59,0.96 0.85,1.99 0.56,2.67 v 0.87 l -0.52,1.97 -0.33,1 -1.06,2.01 -0.57,0.98 -1.41,1.74 -2.3,1.97 -0.97,0.59 -1.54,0.76 -0.73,0.31 -1.34,0.21 -0.68,0.04 -1.48,-0.31 -0.79,-0.22 -1.97,-0.81 -0.98,-0.43 -1.66,-1.33 -0.77,-0.74 -1.21,-1.88 -0.55,-1 -0.7,-2.32 -0.44,-3.89 v -0.85 l 0.14,-1.37 0.1,-0.65 0.42,-1.13 0.25,-0.56 0.79,-1.12 1.7,-1.87 0.95,-0.95 1.94,-1.31 0.98,-0.55 2.02,-0.51 1.03,-0.16 m 83.13,0.24 0.59,0.11 1.1,0.44 0.54,0.26 1.1,0.78 1.82,1.65 0.73,0.73 1.04,1.21 0.46,0.58 0.57,1.14 0.24,0.59 0.24,1.37 0.12,2.66 v 1.44 l -0.37,2.43 -0.26,1.14 -0.92,1.89 -0.53,0.88 -1.52,1.43 -3,1.72 -1,0.41 -1.39,0.53 -0.63,0.21 -1.01,0.1 -0.51,-0.01 -1.13,-0.32 -0.62,-0.22 -1.73,-0.75 -1.12,-0.48 -1.77,-1.24 -0.8,-0.67 -1.18,-1.65 -0.52,-0.88 -0.62,-2.14 -0.37,-3.82 v -1.06 l 0.12,-1.6 0.09,-0.74 0.39,-1.22 0.24,-0.59 0.79,-1.13 1.77,-1.94 0.66,-0.66 1.16,-0.99 0.56,-0.44 1.08,-0.6 0.55,-0.26 1.14,-0.29 1.95,-0.16 h 0.72 m 84.78,13 v 4.99 l 0.06,1.31 0.07,0.56 0.36,0.63 0.23,0.25 0.89,0.19 2.17,0.07 h 1.04 l 2.28,-0.46 0.54,-0.14 0.98,-0.35 0.45,-0.19 0.71,-0.42 0.66,-0.46 0.85,-0.78 0.35,-0.38 0.24,-0.71 0.05,-0.37 -0.34,-0.78 -1.16,-1.39 -0.24,-0.24 -0.72,-0.41 -0.4,-0.19 -0.99,-0.3 -3.65,-0.43 m -171.29,-10 -0.84,0.19 -0.43,0.13 -0.92,0.4 -2.5,1.73 -0.62,0.63 -0.88,1.41 -0.38,0.73 -0.41,1.55 -0.15,0.78 0.02,1.6 0.07,0.79 0.43,1.56 0.26,0.76 0.81,1.42 0.45,0.69 1.15,1.2 0.61,0.57 1.47,0.9 2.52,0.9 0.04,0.01 0.3,-0.1 0.18,-0.07 0.52,-0.23 0.57,-0.25 1.52,-0.76 0.81,-0.42 1.2,-0.89 0.53,-0.46 0.71,-1.13 0.31,-0.61 0.33,-1.57 0.18,-3.09 v -1.05 l -0.64,-2.04 -0.41,-0.98 -1.28,-1.7 -0.7,-0.78 -1.7,-1.11 -2.77,-0.71 m 80.04,0 -1.84,0.72 -0.88,0.45 -1.51,1.45 -0.7,0.8 -0.98,1.93 -0.63,3.18 v 0.67 l 0.15,1.18 0.11,0.57 0.39,1.05 0.23,0.51 0.68,1.01 1.36,1.56 0.81,0.81 1.26,1.07 0.6,0.45 1.04,0.4 0.52,0.12 1.12,-0.19 0.59,-0.17 1.46,-0.73 0.84,-0.45 1.3,-1 0.59,-0.52 0.84,-1.22 0.37,-0.64 0.44,-1.54 0.27,-2.77 0.01,-1.13 -0.61,-2.15 -0.39,-1.03 -1.25,-1.75 -0.69,-0.8 -1.7,-1.12 -2.84,-0.72 m 87.13,0.08 -0.52,0.06 -0.6,0.35 -0.24,0.23 -0.19,0.83 -0.08,2 v 3.56 l 4.75,-0.31 1.04,-0.06 1.46,-0.18 0.65,-0.1 0.84,-0.32 0.35,-0.19 0.41,-0.58 0.17,-0.33 0.17,-0.93 0.1,-0.74 -0.2,-1.14 -0.17,-0.52 -0.8,-0.75 -0.49,-0.32 -1.48,-0.39 -3.05,-0.23 -0.91,-0.01"
     fill="rgba(240,152,6,1)"
     id="path1"
     style="fill:#f09806;fill-opacity:1" />
  <path
     d="m 458.3518,1.0841889 0.23354,0.233533 0.62874,0.826346 0.68263,0.934129 1.83234,3.071848 0.97005,1.68862 2.22754,4.1676601 1.14971,2.15568 2.35328,4.7425 1.18562,2.38921 2.22755,4.76047 1.07783,2.33534 1.85031,4.25746 0.86227,2.01198 1.18562,3.23352 0.2515,0.71857 0.32335,1.14969 0.19761,1.22155 v 0.82635 l -0.21557,1.09581 -0.12575,0.46707 -0.46707,0.35928 -0.26945,0.10779 -0.71857,-0.35928 -0.3952,-0.2515 -0.93414,-1.04191 -0.50299,-0.61078 -1.18563,-1.72455 -0.61077,-0.93412 -1.36527,-2.38922 -0.71856,-1.27544 -1.56286,-3.01796 -2.53294,-5.2455 -7.77843,-16.61673 -7.81435,16.11374 -0.86227,1.76048 -1.63473,3.17962 -0.80838,1.52695 -1.50898,2.67664 -0.73652,1.27544 -1.36527,2.15569 -0.6467,0.98802 -1.16767,1.58084 -0.55689,0.7006 -0.93412,0.95208 -0.4491,0.39522 -0.68263,0.28742 -0.32336,0.0718 -0.3952,-0.41317 -0.16169,-0.28743 -0.0899,-1.14969 v -0.21557 l 0.19761,-0.79042 0.12575,-0.46706 0.44909,-1.23952 0.48503,-1.3473 1.56287,-3.71856 0.84431,-1.99401 2.08383,-4.61676 1.07784,-2.37125 2.33533,-4.9401 1.16765,-2.46107 2.33534,-4.72455 1.13173,-2.28143 2.0479,-3.9520901 0.97005,-1.83233 1.52695,-2.604781 0.34132,-0.556886 0.52095,-0.736525 0.52095,-0.53892102 0.12575,-0.03593 m 63.50286,0.86227402 0.82634,0.736525 2.19162,2.353284 1.16766,1.29342 2.65867,3.26945 4.22155,5.5868101 1.41916,1.97605 2.67664,3.61076 1.29341,1.70659 2.22754,2.85629 1.04192,1.31136 1.52694,1.77845 1.22155,1.13173 h 0.14371 l 0.26946,-1.07785 0.12576,-0.70059 0.21556,-2.26347 0.0899,-1.23952 0.12575,-3.1437 0.0899,-5.33533 v -2.35328 l 0.14371,-3.8083701 0.0899,-1.77844 0.30539,-2.65868 0.1976,-1.20359 0.50299,-1.562871 1.00599,-1.16766102 0.43114,-0.143713 0.64671,0.84431002 0.14371,0.323353 0.23353,0.988021 0.12575,0.556881 0.17964,1.49102 0.0899,0.80838 0.14372,2.02994 0.0539,1.07784 0.0899,2.6407101 0.036,1.38323 0.0539,3.26945 0.0179,5.6946 v 2.98204 l -0.10779,5.44309 -0.0718,2.58682 -0.23353,4.31137 -0.14371,1.97605 -0.32336,2.6946 -0.0718,0.53892 -0.17964,0.71856 -0.28743,0.44911 h -0.10779 l -0.43113,-0.32336 -0.23354,-0.19761 -0.7006,-0.71856 -0.75449,-0.79041 -2.19161,-2.56886 -1.18563,-1.41916 -2.80238,-3.57484 -4.61676,-6.07184 -11.60476,-15.6826 -0.52096,15.6826 -0.0539,1.81436 -0.14372,3.08982 -0.0899,1.47305 -0.19761,2.42515 -0.0899,1.14969 -0.25149,1.81437 -0.14373,0.82634 -0.32334,1.23953 -0.17965,0.55688 -0.41317,0.68263 -0.21557,0.28742 -0.50299,0.19761 -0.53892,0.0718 -1.41916,-1.16766 -0.0899,-0.0718 -0.16167,-0.57486 -0.0718,-0.35928 -0.14371,-1.05987 -0.14372,-1.18563 -0.23353,-3.57484 -0.10779,-1.94011 -0.16168,-4.77844 -0.0899,-8.01195 v -2.02994 l 0.0179,-3.50299 0.0179,-1.67065 0.0718,-2.83832 0.036,-1.3293401 0.12575,-2.20957 0.0539,-1.04192 0.17964,-1.65269 0.1976,-1.52694 0.57485,-1.652691 1.23952,-0.89821102 h 0.34132 m 95.65847,0.01796 1.27544,0.01796 2.11976,0.07186 2.01197,0.08982 2.65868,0.32335202 1.14969,0.215569 1.2036,0.610777 0.6467,1.347304 v 0.53892 l -0.55688,0.79042 -0.39521,0.34131 -1.59881,0.48503 -0.93412,0.19761 -2.91017,0.21557 -6.17964,0.12574 H 601.54315 V 18.455355 h 10.67063 l 2.58682,0.12575 1.14971,0.10779 1.61676,0.34132 0.7006,0.21556 0.79041,0.62874 0.4491,1.27546 v 0.50299 l -0.4491,0.77245 -0.30539,0.35928 -1.18562,0.46707 -0.7006,0.21557 -2.06587,0.23353 -4.27544,0.14371 h -8.98201 v 14.37122 h 15.07182 l 3.68263,0.12575 1.63472,0.0718 2.20957,0.34131 0.9521,0.21557 1.04192,0.61078 0.55688,1.32934 v 0.53891 l -0.6467,0.80839 -0.46707,0.34132 -1.88622,0.48503 -1.13173,0.19759 -3.53892,0.21558 -1.00599,0.036 -2.38921,0.0539 -4.20358,0.0179 H 596.1539 V 0.49136788 h 16.81433 m 59.10166,0.84431802 0.17965,0.305389 0.28742,0.934129 0.14371,0.520956 0.21557,1.437125 0.0899,0.79042 0.14372,2.01197 0.0718,1.07784 0.0899,2.6946101 0.036,1.41915 0.0539,3.43113 0.0179,6.08981 v 2.46107 l -0.036,4.22155 -0.036,1.97604 -0.10779,3.32335 -0.0718,1.5449 -0.17964,2.46107 -0.10779,1.14971 -0.28743,1.70658 -0.16168,0.75449 -0.3952,1.00598 -0.21557,0.41317 -0.52096,0.35928 -0.26946,0.10779 -0.64671,-0.23354 -0.35928,-0.16167 -0.79041,-0.73652 -0.0899,-0.0718 -0.16168,-0.57486 -0.0718,-0.35928 -0.14371,-1.05987 -0.14371,-1.18563 -0.23353,-3.57484 -0.10779,-1.94011 -0.16167,-4.77844 -0.0899,-8.01196 v -2.10179 l 0.0179,-3.61077 0.0179,-1.72454 0.0718,-2.87425 0.036,-1.3473001 0.12574,-2.20958 0.0539,-1.02395 0.17965,-1.61676 0.10779,-0.75449 0.2515,-1.095807 0.12575,-0.502993 0.34131,-0.682633 1.36527,-0.80839002 h 0.55688 m 64.47291,0.215576 3.71856,1.00598702 5.2455,3.10778 0.79041,0.68263 1.16767,1.20359 0.52095,0.59281 0.68264,1.00599 0.28742,0.48503 0.21557,0.79042 0.0718,0.35928 -0.21557,0.5029901 -0.16167,0.21557 -0.61078,0.21557 -0.35928,0.0539 -1.00598,-0.12575 -0.53893,-0.12575 -1.36527,-0.50299 -2.40718,-1.2395201 -1.67065,-1.00599 -3,-1.22155 -1.45508,-0.46707 -2.67664,-0.17964 -1.32933,0.0359 -2.58683,0.86228 -4.00598,2.47903 -1.50898,1.1856301 -2.11975,2.67664 -0.93414,1.38323 -0.98802,3.05389 -0.34132,1.58083 0.17965,3.44909 1.54491,5.56886 0.52095,1.22155 1.23952,2.08383 0.6467,0.97006 1.50899,1.58084 0.77245,0.73652 1.68862,1.07783 0.88024,0.46707 1.85029,0.55689 0.9521,0.21556 1.97604,0.036 1.00598,-0.0539 2.0479,-0.50299 1.02395,-0.32336 2.06586,-1.05988 3.08982,-2.20958 1.1497,-0.98802 1.76047,-0.66466 2.24551,0.88023 0.68263,0.68264 0.41318,1.40119 0.0539,0.71856 -0.82635,1.47305 -0.57484,0.73653 -2.02994,1.49101 -4.41916,2.22754 -1.68862,0.71856 -2.65868,0.89821 -1.23951,0.37724 -2.11976,0.26946 -1.04191,0.0539 -2.06587,-0.35928 -1.07783,-0.2515 -2.51497,-0.95208 -1.3473,-0.53893 -2.69461,-2.06586 -1.31138,-1.16766 -2.42514,-2.98204 -1.13173,-1.56287 -1.83233,-3.48502 -1.76048,-5.29938 -0.41317,-2.20958 0.25149,-4.18563 0.28743,-2.0479 1.47305,-3.71855 0.86228,-1.7964 2.42514,-3.0898101 1.31137,-1.45509 3.12574,-2.33532 1.63473,-1.041919 3.59281,-1.365267 1.81437,-0.55688402 3.79041,-0.269461"
     style="fill:#f09806;fill-opacity:1;stroke-width:1.79641"
     id="path1-7" />
</svg>
