<svg version="1.2" xmlns="http://www.w3.org/2000/svg" viewBox="0 0 500 300" width="500" height="300">
    <title>NotFoundDecoration-svg</title>
    <defs>
        <linearGradient id="g1" x2="1" gradientUnits="userSpaceOnUse"
            gradientTransform="matrix(0,-24.054,225.855,0,271.414,254.342)">
            <stop offset="0" stop-color="#ffffff" stop-opacity="1" />
            <stop offset="1" stop-color="#ffffff" stop-opacity="0" />
        </linearGradient>
    </defs>
    <style>
        .s0 {
            fill: #b5dfea
        }

        .s1 {
            opacity: .5;
            fill: #90cedd
        }

        .s2 {
            fill: #79c9e8
        }

        .s3 {
            fill: #d7f0f9
        }

        .s4 {
            fill: #0582c1
        }

        .s5 {
            fill: #ffffff
        }

        .s6 {
            fill: #ffbf4d
        }

        .s7 {
            fill: #00668e
        }

        .s8 {
            fill: #05556d
        }

        .s9 {
            fill: #f98d3d
        }

        .s10 {
            fill: #ed701b
        }

        .s11 {
            fill: none
        }

        .s12 {
            fill: #efaa3a
        }

        .s13 {
            opacity: .3;
            fill: #f98d2b
        }

        .s14 {
            fill: #49b4d6
        }

        .s15 {
            fill: #ff9f50
        }

        .s16 {
            fill: #f77e2d
        }

        .s17 {
            opacity: .5;
            fill: url(#g1)
        }
    </style>
    <path id="Layer" class="s0"
        d="m453.1 286.6c6.9 0 12.6-5.6 12.7-12.6 0.5-34.6 3.3-85.7-61.9-99.8-52.8-11.5-21.5-105.3-163.7-99.3-102.1 4.4-75 90.4-154.3 97.6-52.9 4.8-53.3 71.6-51.3 102.2 0.5 6.7 6 11.9 12.7 11.9 0 0 405.8 0 405.8 0z" />
    <g id="Layer">
        <path id="Layer" class="s1"
            d="m403.9 174.2c-52.8-11.5-21.5-105.3-163.7-99.3-24.3 1.1-41.3 6.7-54.1 14.9q6.5-0.9 13.8-1.2c142.2-6.1 110.9 87.8 163.7 99.2 64.5 14 62.5 64.1 61.9 98.8h27.6c6.9 0 12.6-5.6 12.7-12.6 0.5-34.6 3.3-85.7-61.9-99.8z" />
    </g>
    <g id="Layer">
        <g id="Layer">
            <path id="Layer" class="s3"
                d="m340.8 70.9l-167-19.4c-7.1-0.9-13.6 4.2-14.4 11.4l-12.5 106.7c-0.8 7.2 4.3 13.6 11.5 14.5l166.9 19.4c7.1 0.9 13.6-4.2 14.4-11.4l12.5-106.7c0.8-7.2-4.3-13.6-11.4-14.5z" />
            <path id="Layer" class="s4"
                d="m351 95.9l1.2-10.5c0.8-7.2-4.3-13.6-11.4-14.5l-167-19.4c-7.1-0.9-13.6 4.2-14.4 11.4l-1.2 10.5z" />
            <g id="Layer">
                <path id="Layer" fill-rule="evenodd" class="s2"
                    d="m185.2 138.1l21.1-37.3c1.4-2.4 4.1-3.7 6.8-3.4 3.7 0.4 6.4 3.8 6 7.6l-4.4 37.7h0.2c2.6 0.3 4.4 2.7 4.1 5.3-0.3 2.6-2.6 4.4-5.2 4.1h-0.2l-0.8 6.9c-0.4 2.8-2.9 4.8-5.7 4.4-2.8-0.3-4.8-2.8-4.5-5.6l0.8-6.9-15.2-1.8c-2.6-0.3-4.5-2.6-4.2-5.2l0.4-3.5q0.2-1.2 0.8-2.3zm19.4 2.8l2.7-23.4c0-0.2-0.2-0.3-0.3-0.1l-12.5 22c-0.2 0.4 0.1 0.9 0.5 1l8.9 1c0.3 0.1 0.6-0.2 0.7-0.5z" />
                <path id="Layer" fill-rule="evenodd" class="s2"
                    d="m278.6 149l21.1-37.3c1.4-2.4 4-3.7 6.8-3.4 3.7 0.4 6.4 3.8 6 7.6l-4.4 37.7h0.2c2.6 0.3 4.4 2.7 4.1 5.3-0.3 2.6-2.6 4.4-5.2 4.1h-0.2l-0.8 6.9c-0.4 2.8-2.9 4.8-5.7 4.4-2.8-0.3-4.8-2.8-4.5-5.6l0.8-6.9-15.2-1.8c-2.6-0.3-4.5-2.6-4.2-5.2l0.4-3.5q0.2-1.2 0.8-2.3zm19.4 2.8l2.7-23.4c0-0.2-0.2-0.3-0.3-0.1l-12.5 22.1c-0.2 0.3 0.1 0.8 0.5 0.9l8.9 1c0.3 0.1 0.6-0.2 0.7-0.5z" />
                <path id="Layer" fill-rule="evenodd" class="s2"
                    d="m236.6 116.1c1.2-10.5 7.5-15.9 17.6-14.7 10.2 1.2 15 7.9 13.8 18.4l-4 34.3c-1.2 10.5-7.5 15.9-17.6 14.7-10.2-1.2-15-7.9-13.8-18.4zm6.3 36.1c-0.6 4.7 1.3 6.7 4.6 7.1 3.3 0.4 5.5-1.1 6.1-5.8l4.1-35.6c0.6-4.7-1.3-6.7-4.6-7.1-3.3-0.4-5.5 1.1-6.1 5.8z" />
            </g>
            <g id="Layer">
                <path id="Layer" class="s5"
                    d="m177.8 66.2c-0.2 1.9-1.9 3.3-3.8 3.1-1.9-0.2-3.3-2-3.1-3.9 0.2-1.9 2-3.3 3.9-3.1 1.9 0.3 3.3 2 3 3.9z" />
                <path id="Layer" class="s2"
                    d="m194.6 68.2c-0.2 1.9-2 3.3-3.9 3-1.9-0.2-3.3-1.9-3.1-3.8 0.3-2 2-3.3 3.9-3.1 1.9 0.2 3.3 1.9 3.1 3.9z" />
                <path id="Layer" class="s6"
                    d="m212 70.2c-0.3 1.9-2 3.3-3.9 3.1-1.9-0.3-3.3-2-3.1-3.9 0.2-1.9 2-3.3 3.9-3.1 1.9 0.2 3.3 2 3.1 3.9z" />
            </g>
        </g>
    </g>
    <g id="Layer">
        <path id="Layer" class="s7"
            d="m144.8 191.8c0 0-2.3 10-1.9 20.2 0.4 9.2-0.7 69.3-0.7 69.3h7.3c0 0 10.5-47.1 10.9-50.8 0.4-3.7 5.6-40.9 5.6-40.9z" />
        <path id="Layer" class="s4"
            d="m149.7 189c0 0 1.7 12.9 4.5 22 2.9 9.2 17.1 70.3 17.1 70.3h7.3c0 0-1.4-47.1-1.9-50.8-0.5-3.7-4.2-40.9-4.2-40.9z" />
        <path id="Layer" class="s4"
            d="m171.9 281.3v5.1h13.9c0.8 0 1.1-1 0.5-1.4-2.1-1.4-5.3-3.3-8.4-3.7 0 0-6 0-6 0z" />
        <path id="Layer" class="s4"
            d="m142.5 281.3v5.1h14c0.8 0 1.1-1 0.5-1.4-2.1-1.4-5.4-3.3-8.4-3.7 0 0-6.1 0-6.1 0z" />
        <g id="Layer">
            <path id="Layer" class="s7"
                d="m167.8 129.3c0 0 4.8-7.4-0.7-8.1-4.3-0.5-6 0.8-6 0.8 0 0-4.9-0.6-7.6 1.7-1.8 1.6-8.5 13.9 2.3 18.4 10.9 4.4 8.6-7 8.6-7z" />
            <path id="Layer" class="s8"
                d="m167.1 121.2c-4.3-0.5-6 0.8-6 0.8 0 0-4.9-0.6-7.6 1.7-1.8 1.6-8.5 13.9 2.3 18.4 5.1 2.1 7.3 0.7 8.2-1.4-10.3 2.9-11.4-9.5-9.7-13.1 1.7-3.6 5.9-1.9 5.9-1.9 1.6-4.1 6.9-3.7 9.1-3.3-0.4-0.6-1.1-1-2.2-1.2z" />
            <path id="Layer" class="s9"
                d="m161 132.8c0 0-1.4-1.4-2.5 0-1.1 1.4-0.3 4.7 1.4 4.8 0 0-0.5 4.7-4.1 4.5v3.7h8.4v-2.8c0 0 5.2-2.2 5-6.4-0.2-4.3-1.4-7.3-1.4-7.3 0 0-2.9 3.2-6.8 3.5z" />
            <path id="Layer" class="s10"
                d="m162.3 144.2c0.8 0.3 0.7 0.8 0.7 1.6h1.2v-2.8c0 0-2 0.6-5-1.1 0 0 1.7 1.7 3.1 2.3z" />
        </g>
        <path id="Layer" class="s9"
            d="m164 126c0 0-4.3-1.7-4.8-0.4-0.4 0.8 0.5 1.5 1.6 2.3l-1 0.2c-0.2 0-0.3 0.3-0.1 0.4 0.3 0.3 1 0.4 2.7 0.5z" />
        <g id="Layer">
            <path id="Layer" class="s11" d="m138.2 173.1l5.8 18.7-0.1-0.9 0.1 0.9 2-27.3z" />
            <path id="Layer" fill-rule="evenodd" class="s6"
                d="m195.2 139.1c-2.2 2.5-8.5 10.6-21.6 21l0.4 36.4h-0.3c-8.2 1.8-23.7 0.6-28.6 0.1-1-0.1-1.5-0.1-1.5-0.1v-0.2l-1.7-2.5-15.1-22.2c0 0 9-14 14.3-20.1 5.9-6.8 13.4-5.9 13.4-5.9l10.4 0.1q1.2 0 2.3-0.5c3.4-1.5 13.4-6.1 14.2-6.8 1.4-1.2-19.2-9.2-19.2-9.2l1.9-3.4c0 0 22.6 4.9 30.9 11.1 0.7 0.5 0.8 1.5 0.2 2.2zm-50.6 44.4l1.4-19.1-7.8 8.7 4.7 10.2 1.4 3.2z" />
        </g>
        <path id="Layer" class="s12" d="m142.9 183.3l1.4 3.2-0.7 9.8-1.7-2.5z" />
        <path id="Layer" class="s13"
            d="m170.1 158.8c-1.4 1-1.1 10-1.4 15.6-0.6 9.4-1.2 17.6-0.8 22.9 2.2-0.2 4.2-0.4 5.8-0.8h0.3l-0.4-36.4c13.1-10.4 19.4-18.5 21.6-21 0.6-0.7 0.5-1.7-0.2-2.2 0 0-10.4 11.3-24.9 21.9z" />
        <path id="Layer" class="s7"
            d="m176.7 230.5c-0.3-2.7-2.4-22.8-3.5-33.8l-5.3 0.6c0 0 7.8 63.3 8.3 84h2.4c0 0-1.4-47.1-1.9-50.8z" />
        <g id="Layer">
            <path id="Layer" class="s4"
                d="m142.9 133.9l-1.6-2.9c0.8-1.5 1.2-3.2 1.2-5 0-6-4.8-10.8-10.7-10.8-6 0-10.8 4.8-10.8 10.8 0 5.9 4.8 10.7 10.8 10.7 3 0 5.7-1.2 7.6-3.2z" />
            <g id="Layer">
                <path id="Layer" class="s5"
                    d="m126.2 125h0.4v1.5c0 0.5 0.1 0.6 0.4 0.6 0.3 0 0.5-0.1 0.7-0.4v-1.7h0.4v2.4h-0.3l-0.1-0.3c-0.2 0.2-0.5 0.4-0.8 0.4-0.5 0-0.7-0.3-0.7-1 0 0 0-1.5 0-1.5z" />
                <path id="Layer" fill-rule="evenodd" class="s5"
                    d="m129.9 127.7v0.8h-0.5v-3.5h0.4v0.3c0.3-0.2 0.5-0.4 0.8-0.4 0.7 0 1 0.5 1 1.3 0 0.8-0.5 1.3-1.1 1.3q-0.3 0-0.6-0.3zm0.6-0.5c0.4 0 0.7-0.3 0.7-0.9 0-0.6-0.2-1-0.7-1q-0.3 0.1-0.6 0.4v1.3c0.2 0.2 0.4 0.2 0.6 0.2z" />
                <path id="Layer" class="s5"
                    d="m132.7 126.9c0.2 0.2 0.4 0.3 0.7 0.3 0.3 0 0.5-0.2 0.5-0.4 0-0.3-0.3-0.4-0.6-0.5-0.3-0.1-0.7-0.3-0.7-0.7 0-0.4 0.3-0.7 0.9-0.7 0.3 0 0.5 0.2 0.7 0.3l-0.2 0.3c-0.1-0.2-0.3-0.2-0.5-0.2-0.4 0-0.5 0.1-0.5 0.3 0 0.2 0.3 0.3 0.6 0.4 0.3 0.2 0.7 0.3 0.7 0.8 0 0.4-0.3 0.7-0.9 0.7-0.3 0-0.7-0.1-0.9-0.3z" />
                <path id="Layer" class="s5"
                    d="m135.6 126.9c0.2 0 0.3 0.1 0.3 0.3 0 0.2-0.1 0.3-0.3 0.3-0.2 0-0.3-0.1-0.3-0.3 0-0.2 0.1-0.3 0.3-0.3z" />
                <path id="Layer" class="s5"
                    d="m137.4 126.9c0.1 0 0.3 0.1 0.3 0.3 0 0.2-0.2 0.3-0.3 0.3-0.2 0-0.3-0.1-0.3-0.3 0-0.2 0.1-0.3 0.3-0.3z" />
            </g>
        </g>
    </g>
    <g id="Layer">
        <g id="Layer">
            <g id="Layer">
                <path id="Layer" class="s2"
                    d="m101.5 263.5c0 0-2.2-2.1-0.7-10.1 1.5-8.1 5.4-15.8 3.5-24.5-1.9-8.7-16.7-30.6-16.8-32.1 0-1.5-4.6 25.5 3.1 36.2 7.7 10.6 8.6 14.3 8.3 19.9-0.4 5.6 0 10.1 0.9 11.4z" />
                <path id="Layer" class="s14"
                    d="m100.1 247.4c-0.9 3.5-1.4 12.5 0 14.7q0.2 0.2 0.6-0.3c-0.4-1.5-0.7-4.1 0.1-8.4 1.5-8.1 5.4-15.8 3.5-24.5-1.9-8.7-16.7-30.6-16.8-32.1 0 0 2.2 18.3 9.8 30.9 5.4 9 3.7 16.1 2.8 19.7z" />
            </g>
            <g id="Layer">
                <path id="Layer" class="s2"
                    d="m104.3 262.9c0 0-4.4-10.8 3-20.3 7.4-9.4 19.2-21.5 19.4-26.3 0 0 3 22.8-6.6 29.2-9.6 6.5-16.3 7.5-14.7 17.4z" />
                <path id="Layer" class="s14"
                    d="m114.6 240.9c-10.7 7.8-11.6 16.8-9.9 21q0.2 0.5 0.7 0.6c-1.4-9.5 5.2-10.6 14.7-17 9.6-6.4 6.6-29.2 6.6-29.2 0 0-1.4 16.8-12.1 24.6z" />
            </g>
            <g id="Layer">
                <path id="Layer" class="s2"
                    d="m97.1 263.2c0 0 1.4-5.8 0.6-12-0.7-6.2-7.2-9.7-13.3-16.3-3.1-3.4-4-21.2-2.1-22.9 0 0-10.7 13-9.1 22.5 1.7 9.5 19.2 15.7 20.8 20.3 1.6 4.6 1.5 8.4 1.5 8.4z" />
                <g id="Layer">
                    <path id="Layer" class="s14"
                        d="m78.7 217.1c-3.6 9.6 0.1 21.2 11.8 28.4 8.7 5.4 6 16.4 6 16.4l1.4-4.4c0.1-1.8 0.1-4-0.2-6.3-0.7-6.2-7.2-9.7-13.3-16.3-3-3.2-4-20-2.3-22.7-0.5 0.7-1.9 2.5-3.4 4.9z" />
                    <path id="Layer" class="s14" d="m82.1 212.2q0.2-0.2 0.2-0.2-0.1 0.1-0.2 0.2z" />
                </g>
            </g>
            <g id="Layer">
                <path id="Layer" class="s2"
                    d="m106.5 262.5c0 0 2.5-9.4 8.7-10.6 6.2-1.3 13.4-10.4 13.8-12.3 0 0.1-1.1 17.4-22.5 22.9z" />
                <path id="Layer" class="s14"
                    d="m114.9 255c-3.8 1.9-5.4 4.4-6 6.8 19.1-6.2 20.1-22.1 20.1-22.1-0.1 0.3-0.5 1-1 1.8-1.9 3.2-6.4 10.1-13.1 13.5z" />
            </g>
        </g>
        <path id="Layer" class="s6" d="m119.9 259h-32.5l3.9 24.3c0.3 1.8 1.9 3.2 3.7 3.2h17.3c1.9 0 3.5-1.4 3.8-3.2z" />
        <path id="Layer" class="s15" d="m119.3 263l0.6-4h-32.5l0.7 4z" />
        <path id="Layer" class="s15"
            d="m112.1 259l-3.9 24.3c-0.3 1.8-1.9 3.2-3.7 3.2h7.8c1.9 0 3.5-1.4 3.8-3.2l3.8-24.3z" />
    </g>
    <g id="Layer">
        <path id="Layer" class="s6" d="m197.2 215.7h146.9v29.9h-146.9z" />
        <path id="Layer" class="s13" d="m197.2 215.7h146.9v7.3h-146.9z" />
        <path id="Layer" class="s16" d="m210 215.7h13.4l-3.6 7.3h-13.4z" />
        <path id="Layer" class="s16" d="m240.2 215.7h13.4l-3.6 7.3h-13.4z" />
        <path id="Layer" class="s16" d="m270.4 215.7h13.4l-3.6 7.3h-13.4z" />
        <path id="Layer" class="s16" d="m300.6 215.7h13.4l-3.6 7.3h-13.4z" />
        <path id="Layer" class="s16" d="m344.1 215.7v0.2l-3.5 7.1h-13.4l3.6-7.3z" />
        <path id="Layer" class="s2" d="m215.5 245.6h10.3v40.8h-10.3z" />
        <path id="Layer" class="s14" d="m223.5 245.6h2.3v40.8h-2.3z" />
        <path id="Layer" class="s2" d="m316.2 245.6h10.4v40.8h-10.4z" />
        <path id="Layer" class="s14" d="m323.5 245.6h3.1v40.8h-3.1z" />
        <path id="Layer" class="s14" d="m215.5 245.6h10.3v5.1h-10.3z" />
        <path id="Layer" class="s14" d="m316.2 245.6h10.4v5.1h-10.4z" />
        <path id="Layer" class="s2" d="m215.5 211.1h10.3v4.6h-10.3z" />
        <path id="Layer" class="s14" d="m223.5 211.1h2.3v4.6h-2.3z" />
        <path id="Layer" class="s2" d="m316.2 211.1h10.4v4.6h-10.4z" />
        <path id="Layer" class="s14" d="m323.5 211.1h3.1v4.6h-3.1z" />
        <path id="Layer" class="s14" d="m215.5 215.1h10.3v0.6h-10.3z" />
        <path id="Layer" class="s14" d="m316.2 215.1h10.4v0.6h-10.4z" />
        <g id="Layer">
            <g id="Layer">
                <path id="Layer" class="s4" d="m223.4 215.7l-14.8 29.9h-11.4v-4.1l12.8-25.8z" />
                <path id="Layer" class="s4" d="m240.2 215.7l-14.8 29.9h13.4l14.8-29.9z" />
                <path id="Layer" class="s4" d="m283.8 215.7l-14.8 29.9h-13.4l14.8-29.9z" />
                <path id="Layer" class="s4" d="m314 215.7l-14.8 29.9h-13.4l14.8-29.9z" />
                <path id="Layer" class="s4" d="m330.8 215.7l-14.8 29.9h13.4l14.7-29.7z" />
            </g>
        </g>
        <g id="Layer">
            <g id="Layer">
                <path id="Layer" class="s7" d="m223.4 215.7l-3.6 7.3h-13.4l3.6-7.3z" />
                <path id="Layer" class="s7" d="m253.6 215.7l-3.6 7.3h-13.4l3.6-7.3z" />
                <path id="Layer" class="s7" d="m283.8 215.7l-3.6 7.3h-13.4l3.6-7.3z" />
                <path id="Layer" class="s7" d="m314 215.7l-3.6 7.3h-13.4l3.6-7.3z" />
                <path id="Layer" class="s7" d="m344.1 215.9l-3.5 7.1h-13.4l3.6-7.3z" />
            </g>
        </g>
        <path id="Layer" class="s17" d="m201.3 228.7h140.2v14.9h-140.2z" />
        <path id="Layer" class="s6"
            d="m221.9 213.7c-5.1 0.8-9.8-2.6-10.6-7.6-0.9-5 2.6-9.8 7.6-10.6 5-0.8 9.8 2.6 10.6 7.6 0.8 5.1-2.6 9.8-7.6 10.6z" />
        <path id="Layer" class="s4"
            d="m224.6 204.6c0-2.3-1.9-4.2-4.2-4.2-2.3 0-4.2 1.9-4.2 4.2 0 2.3 1.9 4.2 4.2 4.2 2.3 0 4.2-1.9 4.2-4.2z" />
        <path id="Layer" class="s6"
            d="m322.8 213.7c-5 0.8-9.8-2.6-10.6-7.6-0.8-5 2.6-9.8 7.7-10.6 5-0.8 9.7 2.6 10.5 7.6 0.9 5.1-2.5 9.8-7.6 10.6z" />
        <path id="Layer" class="s4"
            d="m325.5 204.6c0-2.3-1.8-4.2-4.1-4.2-2.4 0-4.2 1.9-4.2 4.2 0 2.3 1.8 4.2 4.2 4.2 2.3 0 4.1-1.9 4.1-4.2z" />
    </g>
    <g id="Layer">
        <path id="Layer" class="s6"
            d="m399.7 283.3h-46.8l7.2-17.4 2.9-7 0.8-1.9 1.2-3.1 0.3-0.7 2.9-7 0.5-1.2 5.1-12.4c0.9-2.2 4.1-2.2 5 0l5.1 12.4 0.5 1.2 2.9 7 0.3 0.7 1.3 3.1 0.8 1.9 2.9 7z" />
        <path id="Layer" class="s13" d="m356 275.8l-3.1 7.5h46.8l-3.1-7.5z" />
        <path id="Layer" class="s2" d="m349.2 278.8h53.6v7.6h-53.6z" />
        <path id="Layer" class="s14" d="m391.2 278.8h11.6v7.6h-11.6z" />
        <g id="Layer">
            <path id="Layer" class="s13"
                d="m397.9 278.8h-6.7l-5.3-12.9-2.8-7-0.8-1.9-1.3-3.1-0.3-0.6-2.9-7-0.5-1.3-4.3-10.4 0.8-2c0.9-2.2 4.1-2.2 5 0l5.1 12.4 0.5 1.3 2.9 7 0.3 0.6 1.3 3.1 0.8 1.9 2.9 7z" />
            <g id="Layer">
                <path id="Layer" class="s4" d="m387.3 253.2h-22l2.9-7h16.2z" />
                <path id="Layer" class="s4" d="m392.6 265.9h-32.5l2.9-7h26.7z" />
                <path id="Layer" class="s7" d="m387.3 253.2h-6.6l-2.9-7h6.6z" />
                <path id="Layer" class="s7" d="m392.6 265.9h-6.7l-2.8-7h6.6z" />
            </g>
        </g>
    </g>
    <g id="Layer">
        <path id="Layer" class="s3"
            d="m101.6 113.2c3.5 0 6.5-2.5 7-6q0.1-0.9 0.1-1.9c0-7.7-6.3-13.9-14-13.9q-0.4 0-0.9 0c-0.6-7.6-7-13.6-14.8-13.6-8.2 0-14.8 6.7-14.8 14.8q0 0.6 0 1.1c-2.3-1.3-5-2-7.9-1.8-7.4 0.3-13.5 6.3-14.1 13.7q0 0.1 0 0.2c-0.2 4 3 7.4 7.1 7.4 0 0 52.3 0 52.3 0z" />
        <path id="Layer" class="s3"
            d="m434.7 124.2c11 0 11.6-16.6 0.6-17.2q-0.4 0-0.9 0c-2 0-3.9 0.3-5.6 0.9-1.5-9-9.3-15.9-18.7-15.9-9.6 0-17.6 7.2-18.8 16.5-2.3-1.1-4.8-1.7-7.5-1.7q-2.3 0-4.4 0.5c-9.7 2.5-7.6 16.9 2.3 16.9 0 0 53 0 53 0z" />
        <path id="Layer" class="s3"
            d="m302.1 42.3c11.1 0 11.7-16.6 0.7-17.1q-0.5 0-0.9 0c-2 0-3.9 0.3-5.7 0.8-1.5-8.9-9.3-15.8-18.7-15.8-9.6 0-17.5 7.2-18.7 16.4-2.3-1.1-4.9-1.7-7.6-1.7q-2.2 0-4.3 0.6c-9.7 2.5-7.7 16.8 2.3 16.8z" />
        <path id="Layer" class="s6"
            d="m126.4 73c-14.6 0-26.4-11.8-26.4-26.4 0-14.7 11.8-26.5 26.4-26.5 14.7 0 26.5 11.8 26.5 26.5 0 14.6-11.8 26.4-26.5 26.4z" />
        <path id="Layer" class="s15"
            d="m126.7 20.1c7.2 4.7 11.9 12.9 11.9 22.1 0 14.6-11.8 26.5-26.4 26.5q-0.2 0-0.3 0c4.2 2.7 9.2 4.3 14.5 4.3 14.7 0 26.5-11.8 26.5-26.4 0-14.6-11.7-26.4-26.2-26.5z" />
    </g>
</svg>