<svg xmlns="http://www.w3.org/2000/svg" xmlns:xlink="http://www.w3.org/1999/xlink" xmlns:lucid="lucid" width="1485.79" height="803.08"><g transform="translate(-24.840710671066063 -169.51037742127164)" lucid:page-tab-id="0_0"><path d="M0 0h1870.87v1322.84H0z" fill="#fff"/><path d="M547.27 197a6 6 0 0 1 6-6H982.2a6 6 0 0 1 6 6v108a6 6 0 0 1-6 6H553.27a6 6 0 0 1-6-6z" stroke="#5e5e5e" stroke-width="3" fill="#fff"/><use xlink:href="#a" transform="matrix(1,0,0,1,559.2717890489355,203.01037742127164) translate(31.584130061728416 39.78801777777778)"/><use xlink:href="#b" transform="matrix(1,0,0,1,559.2717890489355,203.01037742127164) translate(119.20288734567902 39.78801777777778)"/><use xlink:href="#c" transform="matrix(1,0,0,1,559.2717890489355,203.01037742127164) translate(223.86340685185183 39.78801777777778)"/><use xlink:href="#d" transform="matrix(1,0,0,1,559.2717890489355,203.01037742127164) translate(150.91536458333331 72.80919680555556)"/><path d="M795.43 357.1a6 6 0 0 1 6-6h428.93a6 6 0 0 1 6 6v108a6 6 0 0 1-6 6H801.43a6 6 0 0 1-6-6z" stroke="#5e5e5e" stroke-width="3" fill="#fff"/><use xlink:href="#e" transform="matrix(1,0,0,1,807.4332615138076,363.08742547271277) translate(114.89941203703705 39.78801777777778)"/><use xlink:href="#f" transform="matrix(1,0,0,1,807.4332615138076,363.08742547271277) translate(211.03905043209878 39.78801777777778)"/><use xlink:href="#g" transform="matrix(1,0,0,1,807.4332615138076,363.08742547271277) translate(118.22222222222221 72.80919680555556)"/><use xlink:href="#h" transform="matrix(1,0,0,1,807.4332615138076,363.08742547271277) translate(224.20095486111111 72.80919680555556)"/><path d="M294.5 357.1a6 6 0 0 1 6-6h428.93a6 6 0 0 1 6 6v108a6 6 0 0 1-6 6H300.5a6 6 0 0 1-6-6z" stroke="#5e5e5e" stroke-width="3" fill="#fff"/><use xlink:href="#i" transform="matrix(1,0,0,1,306.50218313593814,363.08742547271277) translate(119.24592209876543 39.78801777777778)"/><use xlink:href="#j" transform="matrix(1,0,0,1,306.50218313593814,363.08742547271277) translate(206.95074888888888 39.78801777777778)"/><use xlink:href="#k" transform="matrix(1,0,0,1,306.50218313593814,363.08742547271277) translate(130.53233506944446 72.80919680555556)"/><path d="M795.43 837.1a6 6 0 0 1 6-6h428.93a6 6 0 0 1 6 6v108a6 6 0 0 1-6 6H801.43a6 6 0 0 1-6-6z" stroke="#5e5e5e" stroke-width="3" fill="#fff"/><use xlink:href="#l" transform="matrix(1,0,0,1,807.4332615138076,843.0874254727128) translate(122.47352858024692 39.78801777777778)"/><use xlink:href="#m" transform="matrix(1,0,0,1,807.4332615138076,843.0874254727128) translate(208.4569652469136 39.78801777777778)"/><use xlink:href="#g" transform="matrix(1,0,0,1,807.4332615138076,843.0874254727128) translate(44.828125 72.80919680555556)"/><use xlink:href="#n" transform="matrix(1,0,0,1,807.4332615138076,843.0874254727128) translate(150.8068576388889 72.80919680555556)"/><use xlink:href="#o" transform="matrix(1,0,0,1,807.4332615138076,843.0874254727128) translate(181.49262152777777 72.80919680555556)"/><use xlink:href="#p" transform="matrix(1,0,0,1,807.4332615138076,843.0874254727128) translate(289.4353298611111 72.80919680555556)"/><path d="M174.5 517.1a6 6 0 0 1 6-6h428.93a6 6 0 0 1 6 6v108a6 6 0 0 1-6 6H180.5a6 6 0 0 1-6-6z" stroke="#5e5e5e" stroke-width="3" fill="#fff"/><g><use xlink:href="#q" transform="matrix(1,0,0,1,186.50218313593814,523.0874254727128) translate(93.29596598765434 39.78801777777778)"/><use xlink:href="#r" transform="matrix(1,0,0,1,186.50218313593814,523.0874254727128) translate(224.03554586419753 39.78801777777778)"/><use xlink:href="#s" transform="matrix(1,0,0,1,186.50218313593814,523.0874254727128) translate(159.09136284722223 72.80919680555556)"/></g><path d="M547.27 677.1a6 6 0 0 1 6-6H982.2a6 6 0 0 1 6 6v108a6 6 0 0 1-6 6H553.27a6 6 0 0 1-6-6z" stroke="#5e5e5e" stroke-width="3" fill="#fff"/><g><use xlink:href="#a" transform="matrix(1,0,0,1,559.2717890489355,683.0874254727128) translate(83.05369475308643 39.78801777777778)"/><use xlink:href="#t" transform="matrix(1,0,0,1,559.2717890489355,683.0874254727128) translate(170.67245203703703 39.78801777777778)"/><use xlink:href="#u" transform="matrix(1,0,0,1,559.2717890489355,683.0874254727128) translate(258.37727882716047 39.78801777777778)"/><use xlink:href="#v" transform="matrix(1,0,0,1,559.2717890489355,683.0874254727128) translate(91.04665798611111 72.80919680555556)"/><use xlink:href="#n" transform="matrix(1,0,0,1,559.2717890489355,683.0874254727128) translate(190.76453993055554 72.80919680555556)"/><use xlink:href="#w" transform="matrix(1,0,0,1,559.2717890489355,683.0874254727128) translate(221.45030381944443 72.80919680555556)"/></g><path d="M915.43 517.1a6 6 0 0 1 6-6h428.93a6 6 0 0 1 6 6v108a6 6 0 0 1-6 6H921.43a6 6 0 0 1-6-6z" stroke="#5e5e5e" stroke-width="3" fill="#fff"/><g><use xlink:href="#a" transform="matrix(1,0,0,1,927.4332615138075,523.0874254727128) translate(89.89622049382717 39.78801777777778)"/><use xlink:href="#x" transform="matrix(1,0,0,1,927.4332615138075,523.0874254727128) translate(177.51497777777777 39.78801777777778)"/><use xlink:href="#u" transform="matrix(1,0,0,1,927.4332615138075,523.0874254727128) translate(251.53475308641976 39.78801777777778)"/><use xlink:href="#y" transform="matrix(1,0,0,1,927.4332615138075,523.0874254727128) translate(162.44422743055554 72.80919680555556)"/></g><path d="M294.5 837.1a6 6 0 0 1 6-6h428.93a6 6 0 0 1 6 6v108a6 6 0 0 1-6 6H300.5a6 6 0 0 1-6-6z" stroke="#5e5e5e" stroke-width="3" fill="#fff"/><g><use xlink:href="#z" transform="matrix(1,0,0,1,306.50218313593814,843.0874254727128) translate(98.0297888271605 39.78801777777778)"/><use xlink:href="#A" transform="matrix(1,0,0,1,306.50218313593814,843.0874254727128) translate(200.4525011728395 39.78801777777778)"/><use xlink:href="#g" transform="matrix(1,0,0,1,306.50218313593814,843.0874254727128) translate(85.52365451388889 72.80919680555556)"/><use xlink:href="#n" transform="matrix(1,0,0,1,306.50218313593814,843.0874254727128) translate(191.50238715277777 72.80919680555556)"/><use xlink:href="#B" transform="matrix(1,0,0,1,306.50218313593814,843.0874254727128) translate(222.18815104166666 72.80919680555556)"/></g><path d="M46.34 677a6 6 0 0 1 6-6h428.93a6 6 0 0 1 6 6v108a6 6 0 0 1-6 6H52.34a6 6 0 0 1-6-6z" stroke="#5e5e5e" stroke-width="3" fill="#fff"/><g><use xlink:href="#C" transform="matrix(1,0,0,1,58.34071067106606,683.0103774212716) translate(83.05369475308643 27.788017777777778)"/><use xlink:href="#D" transform="matrix(1,0,0,1,58.34071067106606,683.0103774212716) translate(150.1018400617284 27.788017777777778)"/><use xlink:href="#E" transform="matrix(1,0,0,1,58.34071067106606,683.0103774212716) translate(237.720597345679 27.788017777777778)"/><use xlink:href="#v" transform="matrix(1,0,0,1,58.34071067106606,683.0103774212716) translate(24.054470486111086 60.80919680555556)"/><use xlink:href="#n" transform="matrix(1,0,0,1,58.34071067106606,683.0103774212716) translate(123.77235243055551 60.80919680555556)"/><use xlink:href="#F" transform="matrix(1,0,0,1,58.34071067106606,683.0103774212716) translate(154.4581163194444 60.80919680555556)"/><use xlink:href="#G" transform="matrix(1,0,0,1,58.34071067106606,683.0103774212716) translate(319.876953125 60.80919680555556)"/><use xlink:href="#H" transform="matrix(1,0,0,1,58.34071067106606,683.0103774212716) translate(382.083984375 60.80919680555556)"/><use xlink:href="#I" transform="matrix(1,0,0,1,58.34071067106606,683.0103774212716) translate(155.72764756944446 86.6772523611111)"/></g><path d="M1048.2 677a6 6 0 0 1 6-6h428.93a6 6 0 0 1 6 6v108a6 6 0 0 1-6 6H1054.2a6 6 0 0 1-6-6z" stroke="#5e5e5e" stroke-width="3" fill="#fff"/><g><use xlink:href="#J" transform="matrix(1,0,0,1,1060.202867426805,683.0103774212716) translate(47.20574543209878 39.78801777777778)"/><use xlink:href="#K" transform="matrix(1,0,0,1,1060.202867426805,683.0103774212716) translate(155.5672537037037 39.78801777777778)"/><use xlink:href="#L" transform="matrix(1,0,0,1,1060.202867426805,683.0103774212716) translate(271.761087037037 39.78801777777778)"/><use xlink:href="#v" transform="matrix(1,0,0,1,1060.202867426805,683.0103774212716) translate(105.375 72.80919680555556)"/><use xlink:href="#M" transform="matrix(1,0,0,1,1060.202867426805,683.0103774212716) translate(205.09288194444443 72.80919680555556)"/></g><defs><path d="M240 0l2-218c-23 76-54 145-80 218h-23L58-218 59 0H30v-248h44l77 211c21-75 51-140 76-211h43V0h-30" id="N"/><path d="M141-36C126-15 110 5 73 4 37 3 15-17 15-53c-1-64 63-63 125-63 3-35-9-54-41-54-24 1-41 7-42 31l-33-3c5-37 33-52 76-52 45 0 72 20 72 64v82c-1 20 7 32 28 27v20c-31 9-61-2-59-35zM48-53c0 20 12 33 32 33 41-3 63-29 60-74-43 2-92-5-92 41" id="O"/><path d="M114-163C36-179 61-72 57 0H25l-1-190h30c1 12-1 29 2 39 6-27 23-49 58-41v29" id="P"/><path d="M34 0v-190h32V0H34zM24-211c8-23 27-35 38-54h36v5l-58 49H24" id="Q"/><g id="a"><use transform="matrix(0.0860695061728395,0,0,0.0860695061728395,0,0)" xlink:href="#N"/><use transform="matrix(0.0860695061728395,0,0,0.0860695061728395,25.734782345679008,0)" xlink:href="#O"/><use transform="matrix(0.0860695061728395,0,0,0.0860695061728395,42.94868358024691,0)" xlink:href="#P"/><use transform="matrix(0.0860695061728395,0,0,0.0860695061728395,53.19095481481481,0)" xlink:href="#Q"/><use transform="matrix(0.0860695061728395,0,0,0.0860695061728395,61.79790543209876,0)" xlink:href="#O"/></g><path d="M212-179c-10-28-35-45-73-45-59 0-87 40-87 99 0 60 29 101 89 101 43 0 62-24 78-52l27 14C228-24 195 4 139 4 59 4 22-46 18-125c-6-104 99-153 187-111 19 9 31 26 39 46" id="R"/><path d="M210-169c-67 3-38 105-44 169h-31v-121c0-29-5-50-35-48C34-165 62-65 56 0H25l-1-190h30c1 10-1 24 2 32 10-44 99-50 107 0 11-21 27-35 58-36 85-2 47 119 55 194h-31v-121c0-29-5-49-35-48" id="S"/><path d="M24-231v-30h32v30H24zM24 0v-190h32V0H24" id="T"/><path d="M24 0v-261h32V0H24" id="U"/><g id="b"><use transform="matrix(0.0860695061728395,0,0,0.0860695061728395,0,0)" xlink:href="#R"/><use transform="matrix(0.0860695061728395,0,0,0.0860695061728395,22.29200209876543,0)" xlink:href="#O"/><use transform="matrix(0.0860695061728395,0,0,0.0860695061728395,39.50590333333333,0)" xlink:href="#S"/><use transform="matrix(0.0860695061728395,0,0,0.0860695061728395,65.24068567901233,0)" xlink:href="#T"/><use transform="matrix(0.0860695061728395,0,0,0.0860695061728395,72.04017666666665,0)" xlink:href="#U"/><use transform="matrix(0.0860695061728395,0,0,0.0860695061728395,78.83966765432098,0)" xlink:href="#O"/></g><path d="M135-143c-3-34-86-38-87 0 15 53 115 12 119 90S17 21 10-45l28-5c4 36 97 45 98 0-10-56-113-15-118-90-4-57 82-63 122-42 12 7 21 19 24 35" id="V"/><path d="M59-47c-2 24 18 29 38 22v24C64 9 27 4 27-40v-127H5v-23h24l9-43h21v43h35v23H59v120" id="W"/><path d="M100-194c63 0 86 42 84 106H49c0 40 14 67 53 68 26 1 43-12 49-29l28 8c-11 28-37 45-77 45C44 4 14-33 15-96c1-61 26-98 85-98zm52 81c6-60-76-77-97-28-3 7-6 17-6 28h103" id="X"/><path d="M117-194c89-4 53 116 60 194h-32v-121c0-31-8-49-39-48C34-167 62-67 57 0H25l-1-190h30c1 10-1 24 2 32 11-22 29-35 61-36" id="Y"/><path d="M100-194c62-1 85 37 85 99 1 63-27 99-86 99S16-35 15-95c0-66 28-99 85-99zM99-20c44 1 53-31 53-75 0-43-8-75-51-75s-53 32-53 75 10 74 51 75" id="Z"/><g id="c"><use transform="matrix(0.0860695061728395,0,0,0.0860695061728395,0,0)" xlink:href="#R"/><use transform="matrix(0.0860695061728395,0,0,0.0860695061728395,22.29200209876543,0)" xlink:href="#O"/><use transform="matrix(0.0860695061728395,0,0,0.0860695061728395,39.50590333333333,0)" xlink:href="#V"/><use transform="matrix(0.0860695061728395,0,0,0.0860695061728395,54.998414444444435,0)" xlink:href="#W"/><use transform="matrix(0.0860695061728395,0,0,0.0860695061728395,63.605365061728385,0)" xlink:href="#X"/><use transform="matrix(0.0860695061728395,0,0,0.0860695061728395,80.81926629629629,0)" xlink:href="#U"/><use transform="matrix(0.0860695061728395,0,0,0.0860695061728395,87.61875728395061,0)" xlink:href="#U"/><use transform="matrix(0.0860695061728395,0,0,0.0860695061728395,94.41824827160495,0)" xlink:href="#O"/><use transform="matrix(0.0860695061728395,0,0,0.0860695061728395,111.63214950617285,0)" xlink:href="#Y"/><use transform="matrix(0.0860695061728395,0,0,0.0860695061728395,128.84605074074074,0)" xlink:href="#Z"/><use transform="matrix(0.0860695061728395,0,0,0.0860695061728395,146.05995197530865,0)" xlink:href="#V"/></g><path d="M561-1462c316 1 514 118 514 428 0 320-205 463-540 465H385V0H199v-1462h362zm322 438c-3-205-121-279-338-279H385v576h129c227 2 372-71 369-297" id="aa"/><path d="M352-897c71-121 155-243 362-219 24 3 45 5 62 8l-24 168c-258-57-396 105-396 348V0H174v-1098h148l22 201h8" id="ab"/><path d="M944-53C850-7 748 24 608 20c-333-9-495-220-495-561 0-264 92-451 269-538 104-51 258-51 363-3 158 72 246 228 248 455v113H301c6 236 86 371 309 375 139 2 240-31 334-76v162zM797-662c-2-176-59-305-234-305-171 0-246 129-258 305h492" id="ac"/><path d="M481-967c-140-5-232 63-189 190 66 110 246 141 360 208 97 57 179 119 179 268C831-65 655 18 414 20 275 21 175-1 90-49v-166c89 44 194 82 324 86 154 5 272-60 229-214-87-145-336-165-454-283-49-49-83-106-83-201 0-211 164-288 381-291 135-2 236 33 330 76l-63 147c-79-33-167-68-273-72" id="ad"/><path d="M356 0H174v-1098h182V0zm-90-1280c-65 0-106-43-106-115 0-74 40-114 106-114 70 0 105 42 107 114 2 71-44 115-107 115" id="ae"/><path d="M856-958c-21-183-9-398-12-598h182V0H879l-27-147h-8C781-52 689 20 530 20c-307 0-417-246-417-567 0-260 76-450 247-535 51-25 108-36 170-36 155 1 249 69 314 160h12zm-12 452c5-254-32-463-281-461-90 0-153 39-199 109-81 124-82 504 0 624 45 66 110 103 201 103 222 0 275-157 279-375" id="af"/><path d="M674-1118c257 0 369 132 368 401V0H860v-707c-1-164-59-259-217-260-230-2-287 167-287 398V0H174v-1098h148l26 148h10c61-100 160-168 316-168" id="ag"/><path d="M860-39C784 1 712 22 594 20c-333-6-481-218-481-563 0-354 148-568 489-575 100-2 211 26 277 59l-54 154c-63-26-137-53-223-53-235 0-301 158-301 413 0 251 67 400 293 406 107 3 193-30 266-62v162" id="ah"/><path d="M528-1118c261 0 396 106 396 366V0H793l-37-152h-8C675-50 588 23 412 20 205 16 94-97 94-307c0-109 39-193 116-252s194-91 351-96l184-7c13-190-36-305-217-305-119 0-209 41-292 82l-64-137c93-49 217-96 356-96zM283-305c0 117 66 178 176 178 189 0 281-117 284-311v-99c-222 12-460-2-460 232" id="ai"/><g id="d"><use transform="matrix(0.010850694444444444,0,0,0.010850694444444444,0,0)" xlink:href="#aa"/><use transform="matrix(0.010850694444444444,0,0,0.010850694444444444,12.803819444444445,0)" xlink:href="#ab"/><use transform="matrix(0.010850694444444444,0,0,0.010850694444444444,21.668836805555557,0)" xlink:href="#ac"/><use transform="matrix(0.010850694444444444,0,0,0.010850694444444444,33.56119791666667,0)" xlink:href="#ad"/><use transform="matrix(0.010850694444444444,0,0,0.010850694444444444,43.587239583333336,0)" xlink:href="#ae"/><use transform="matrix(0.010850694444444444,0,0,0.010850694444444444,49.3381076388889,0)" xlink:href="#af"/><use transform="matrix(0.010850694444444444,0,0,0.010850694444444444,62.35894097222223,0)" xlink:href="#ac"/><use transform="matrix(0.010850694444444444,0,0,0.010850694444444444,74.25130208333334,0)" xlink:href="#ag"/><use transform="matrix(0.010850694444444444,0,0,0.010850694444444444,87.33723958333334,0)" xlink:href="#ah"/><use transform="matrix(0.010850694444444444,0,0,0.010850694444444444,97.62369791666666,0)" xlink:href="#ae"/><use transform="matrix(0.010850694444444444,0,0,0.010850694444444444,103.37456597222224,0)" xlink:href="#ai"/></g><path d="M30-248c118-7 216 8 213 122C240-48 200 0 122 0H30v-248zM63-27c89 8 146-16 146-99s-60-101-146-95v194" id="aj"/><g id="e"><use transform="matrix(0.0860695061728395,0,0,0.0860695061728395,0,0)" xlink:href="#aj"/><use transform="matrix(0.0860695061728395,0,0,0.0860695061728395,22.29200209876543,0)" xlink:href="#O"/><use transform="matrix(0.0860695061728395,0,0,0.0860695061728395,39.50590333333333,0)" xlink:href="#Y"/><use transform="matrix(0.0860695061728395,0,0,0.0860695061728395,56.71980456790123,0)" xlink:href="#T"/><use transform="matrix(0.0860695061728395,0,0,0.0860695061728395,63.51929555555555,0)" xlink:href="#X"/><use transform="matrix(0.0860695061728395,0,0,0.0860695061728395,80.73319679012346,0)" xlink:href="#U"/></g><path d="M140-251c81 0 123 46 123 126C263-46 219 4 140 4 59 4 17-45 17-125s42-126 123-126zm0 227c63 0 89-41 89-101s-29-99-89-99c-61 0-89 39-89 99S79-25 140-24" id="ak"/><g id="f"><use transform="matrix(0.0860695061728395,0,0,0.0860695061728395,0,0)" xlink:href="#ak"/><use transform="matrix(0.0860695061728395,0,0,0.0860695061728395,24.09946172839506,0)" xlink:href="#V"/><use transform="matrix(0.0860695061728395,0,0,0.0860695061728395,39.59197283950617,0)" xlink:href="#Z"/><use transform="matrix(0.0860695061728395,0,0,0.0860695061728395,56.80587407407407,0)" xlink:href="#P"/><use transform="matrix(0.0860695061728395,0,0,0.0860695061728395,67.04814530864196,0)" xlink:href="#T"/><use transform="matrix(0.0860695061728395,0,0,0.0860695061728395,73.84763629629629,0)" xlink:href="#Z"/></g><path d="M559-1319c-187 0-306 130-241 307 59 162 301 189 444 275 120 72 207 159 207 346 0 287-202 407-496 411-140 2-280-22-369-69v-178c102 46 224 84 369 86 190 2 310-62 313-232 3-135-71-183-163-233-80-44-231-93-309-144-115-76-191-176-191-362 0-255 180-366 438-371 154-3 280 33 383 80l-67 156c-83-36-199-72-318-72" id="al"/><path d="M371-324c1 116 27 195 135 195 53 0 108-9 149-21v138C608 8 544 19 477 20c-210 0-290-128-289-344v-637H33v-81l155-78 78-230h105v252h276v137H371v637" id="am"/><path d="M356 0H174v-1098h182V0zm222-1548c-72 109-173 223-272 307H185v-27c64-89 124-197 174-301h219v21" id="an"/><g id="g"><use transform="matrix(0.010850694444444444,0,0,0.010850694444444444,0,0)" xlink:href="#al"/><use transform="matrix(0.010850694444444444,0,0,0.010850694444444444,11.534288194444445,0)" xlink:href="#ac"/><use transform="matrix(0.010850694444444444,0,0,0.010850694444444444,23.426649305555554,0)" xlink:href="#ah"/><use transform="matrix(0.010850694444444444,0,0,0.010850694444444444,33.713107638888886,0)" xlink:href="#ab"/><use transform="matrix(0.010850694444444444,0,0,0.010850694444444444,42.578125,0)" xlink:href="#ac"/><use transform="matrix(0.010850694444444444,0,0,0.010850694444444444,54.47048611111112,0)" xlink:href="#am"/><use transform="matrix(0.010850694444444444,0,0,0.010850694444444444,62.00086805555555,0)" xlink:href="#ai"/><use transform="matrix(0.010850694444444444,0,0,0.010850694444444444,73.79557291666667,0)" xlink:href="#ab"/><use transform="matrix(0.010850694444444444,0,0,0.010850694444444444,82.66059027777779,0)" xlink:href="#an"/><use transform="matrix(0.010850694444444444,0,0,0.010850694444444444,88.41145833333334,0)" xlink:href="#ai"/></g><path d="M514-1118c47 0 108 8 143 20h363v113l-197 27c38 48 67 125 66 213-4 257-181 374-455 348-45 28-94 61-94 131 0 77 74 84 152 84h176c211 2 338 93 338 297 0 293-238 377-543 377-242 0-426-75-426-306C37 22 143-50 276-84c-52-23-98-81-96-154 3-105 57-142 133-192-112-51-190-152-190-309 0-250 139-376 391-379zM424-18c-132 0-215 62-215 198 0 137 110 174 254 174 124 0 217-20 279-58s92-93 92-165C834-67 606-18 424-18zm82-969c-142 0-205 90-205 242 0 146 68 227 207 227 142 0 203-80 203-230 0-154-61-239-205-239" id="ao"/><path d="M356 0H174v-1556h182V0" id="ap"/><g id="h"><use transform="matrix(0.010850694444444444,0,0,0.010850694444444444,0,0)" xlink:href="#ao"/><use transform="matrix(0.010850694444444444,0,0,0.010850694444444444,11.512586805555555,0)" xlink:href="#ac"/><use transform="matrix(0.010850694444444444,0,0,0.010850694444444444,23.404947916666664,0)" xlink:href="#ag"/><use transform="matrix(0.010850694444444444,0,0,0.010850694444444444,36.490885416666664,0)" xlink:href="#ac"/><use transform="matrix(0.010850694444444444,0,0,0.010850694444444444,48.38324652777778,0)" xlink:href="#ab"/><use transform="matrix(0.010850694444444444,0,0,0.010850694444444444,57.03125,0)" xlink:href="#ai"/><use transform="matrix(0.010850694444444444,0,0,0.010850694444444444,68.82595486111111,0)" xlink:href="#ap"/></g><path d="M205 0l-28-72H64L36 0H1l101-248h38L239 0h-34zm-38-99l-47-123c-12 45-31 82-46 123h93" id="aq"/><path d="M177-190C167-65 218 103 67 71c-23-6-38-20-44-43l32-5c15 47 100 32 89-28v-30C133-14 115 1 83 1 29 1 15-40 15-95c0-56 16-97 71-98 29-1 48 16 59 35 1-10 0-23 2-32h30zM94-22c36 0 50-32 50-73 0-42-14-75-50-75-39 0-46 34-46 75s6 73 46 73" id="ar"/><g id="i"><use transform="matrix(0.0860695061728395,0,0,0.0860695061728395,0,0)" xlink:href="#aq"/><use transform="matrix(0.0860695061728395,0,0,0.0860695061728395,20.656681481481478,0)" xlink:href="#Y"/><use transform="matrix(0.0860695061728395,0,0,0.0860695061728395,37.87058271604938,0)" xlink:href="#ar"/><use transform="matrix(0.0860695061728395,0,0,0.0860695061728395,55.084483950617276,0)" xlink:href="#T"/><use transform="matrix(0.0860695061728395,0,0,0.0860695061728395,61.8839749382716,0)" xlink:href="#X"/></g><path d="M84 4C-5 8 30-112 23-190h32v120c0 31 7 50 39 49 72-2 45-101 50-169h31l1 190h-30c-1-10 1-25-2-33-11 22-28 36-60 37" id="as"/><g id="j"><use transform="matrix(0.0860695061728395,0,0,0.0860695061728395,0,0)" xlink:href="#N"/><use transform="matrix(0.0860695061728395,0,0,0.0860695061728395,25.734782345679008,0)" xlink:href="#as"/><use transform="matrix(0.0860695061728395,0,0,0.0860695061728395,42.94868358024691,0)" xlink:href="#P"/><use transform="matrix(0.0860695061728395,0,0,0.0860695061728395,53.19095481481481,0)" xlink:href="#T"/><use transform="matrix(0.0860695061728395,0,0,0.0860695061728395,59.99044580246913,0)" xlink:href="#U"/><use transform="matrix(0.0860695061728395,0,0,0.0860695061728395,66.78993679012345,0)" xlink:href="#U"/><use transform="matrix(0.0860695061728395,0,0,0.0860695061728395,73.58942777777777,0)" xlink:href="#Z"/></g><path d="M965-1462h198L674 0H487L0-1462h197l295 927c36 110 62 223 88 334 24-116 56-225 92-340" id="at"/><path d="M356-950c63-97 155-168 314-168 308 0 417 247 417 567 0 259-75 450-246 535-51 25-108 36-171 36-155-1-249-68-314-159h-12c22 193 8 420 12 631H174v-1590h148l26 148h8zm0 358c-4 254 32 463 281 461 90 0 153-39 199-109 81-124 82-503 0-624-45-67-110-103-201-103-222 0-275 157-279 375" id="au"/><g id="k"><use transform="matrix(0.010850694444444444,0,0,0.010850694444444444,0,0)" xlink:href="#at"/><use transform="matrix(0.010850694444444444,0,0,0.010850694444444444,12.61935763888889,0)" xlink:href="#ae"/><use transform="matrix(0.010850694444444444,0,0,0.010850694444444444,18.370225694444443,0)" xlink:href="#ah"/><use transform="matrix(0.010850694444444444,0,0,0.010850694444444444,28.656684027777775,0)" xlink:href="#ac"/><use transform="matrix(0.010850694444444444,0,0,0.010850694444444444,40.549045138888886,0)" xlink:href="#au"/><use transform="matrix(0.010850694444444444,0,0,0.010850694444444444,53.56987847222221,0)" xlink:href="#ab"/><use transform="matrix(0.010850694444444444,0,0,0.010850694444444444,62.43489583333333,0)" xlink:href="#ac"/><use transform="matrix(0.010850694444444444,0,0,0.010850694444444444,74.32725694444444,0)" xlink:href="#ad"/><use transform="matrix(0.010850694444444444,0,0,0.010850694444444444,84.35329861111111,0)" xlink:href="#ae"/><use transform="matrix(0.010850694444444444,0,0,0.010850694444444444,90.10416666666666,0)" xlink:href="#af"/><use transform="matrix(0.010850694444444444,0,0,0.010850694444444444,103.125,0)" xlink:href="#ac"/><use transform="matrix(0.010850694444444444,0,0,0.010850694444444444,115.0173611111111,0)" xlink:href="#ag"/><use transform="matrix(0.010850694444444444,0,0,0.010850694444444444,128.10329861111111,0)" xlink:href="#ah"/><use transform="matrix(0.010850694444444444,0,0,0.010850694444444444,138.38975694444446,0)" xlink:href="#ae"/><use transform="matrix(0.010850694444444444,0,0,0.010850694444444444,144.140625,0)" xlink:href="#ai"/></g><path d="M153-248C145-148 188 4 80 4 36 3 13-21 6-62l32-5c4 25 16 42 43 43 27 0 39-20 39-49v-147H72v-28h81" id="av"/><g id="l"><use transform="matrix(0.0860695061728395,0,0,0.0860695061728395,0,0)" xlink:href="#av"/><use transform="matrix(0.0860695061728395,0,0,0.0860695061728395,15.49251111111111,0)" xlink:href="#Z"/><use transform="matrix(0.0860695061728395,0,0,0.0860695061728395,32.70641234567901,0)" xlink:href="#P"/><use transform="matrix(0.0860695061728395,0,0,0.0860695061728395,42.948683580246914,0)" xlink:href="#ar"/><use transform="matrix(0.0860695061728395,0,0,0.0860695061728395,60.16258481481482,0)" xlink:href="#X"/></g><path d="M160-131c35 5 61 23 61 61C221 17 115-2 30 0v-248c76 3 177-17 177 60 0 33-19 50-47 57zm-97-11c50-1 110 9 110-42 0-47-63-36-110-37v79zm0 115c55-2 124 14 124-45 0-56-70-42-124-44v89" id="aw"/><path d="M96-169c-40 0-48 33-48 73s9 75 48 75c24 0 41-14 43-38l32 2c-6 37-31 61-74 61-59 0-76-41-82-99-10-93 101-131 147-64 4 7 5 14 7 22l-32 3c-4-21-16-35-41-35" id="ax"/><g id="m"><use transform="matrix(0.0860695061728395,0,0,0.0860695061728395,0,0)" xlink:href="#aw"/><use transform="matrix(0.0860695061728395,0,0,0.0860695061728395,20.656681481481478,0)" xlink:href="#O"/><use transform="matrix(0.0860695061728395,0,0,0.0860695061728395,37.87058271604938,0)" xlink:href="#ax"/><use transform="matrix(0.0860695061728395,0,0,0.0860695061728395,53.36309382716049,0)" xlink:href="#ax"/><use transform="matrix(0.0860695061728395,0,0,0.0860695061728395,68.8556049382716,0)" xlink:href="#O"/></g><g id="n"><use transform="matrix(0.010850694444444444,0,0,0.010850694444444444,0,0)" xlink:href="#af"/><use transform="matrix(0.010850694444444444,0,0,0.010850694444444444,13.020833333333332,0)" xlink:href="#ac"/></g><path d="M113-551c0-340 147-567 481-567 325 0 475 233 475 567 0 342-147 571-481 571-325 0-475-235-475-571zm477-416c-231 0-289 166-289 416s60 420 291 420 289-170 289-420c0-251-60-416-291-416" id="ay"/><g id="o"><use transform="matrix(0.010850694444444444,0,0,0.010850694444444444,0,0)" xlink:href="#ab"/><use transform="matrix(0.010850694444444444,0,0,0.010850694444444444,8.86501736111111,0)" xlink:href="#ac"/><use transform="matrix(0.010850694444444444,0,0,0.010850694444444444,20.75737847222222,0)" xlink:href="#ap"/><use transform="matrix(0.010850694444444444,0,0,0.010850694444444444,26.50824652777778,0)" xlink:href="#ai"/><use transform="matrix(0.010850694444444444,0,0,0.010850694444444444,38.302951388888886,0)" xlink:href="#ah"/><use transform="matrix(0.010850694444444444,0,0,0.010850694444444444,48.58940972222221,0)" xlink:href="#ae"/><use transform="matrix(0.010850694444444444,0,0,0.010850694444444444,54.34027777777778,0)" xlink:href="#ay"/><use transform="matrix(0.010850694444444444,0,0,0.010850694444444444,67.1657986111111,0)" xlink:href="#ag"/><use transform="matrix(0.010850694444444444,0,0,0.010850694444444444,80.2517361111111,0)" xlink:href="#ac"/><use transform="matrix(0.010850694444444444,0,0,0.010850694444444444,92.14409722222221,0)" xlink:href="#ad"/></g><path d="M563-131c230 1 287-166 287-397v-570h182V0H885l-27-147h-10C788-46 687 18 532 20c-259 3-368-141-368-401v-717h182v707c0 164 60 259 217 260zm319-1417c-72 109-173 223-272 307H489v-27c64-89 124-197 174-301h219v21" id="az"/><path d="M356-954c63-96 155-164 314-164 308 0 417 247 417 567 0 259-75 450-246 535-51 25-108 36-171 36-155-1-249-68-314-159h-12L307 0H174v-1556h182c-2 202 5 412-8 602h8zm0 403c1 237 46 421 281 420 90 0 153-39 199-109 81-124 82-503 0-624-45-67-110-103-201-103-236 0-279 179-279 416" id="aA"/><g id="p"><use transform="matrix(0.010850694444444444,0,0,0.010850694444444444,0,0)" xlink:href="#au"/><use transform="matrix(0.010850694444444444,0,0,0.010850694444444444,13.020833333333332,0)" xlink:href="#az"/><use transform="matrix(0.010850694444444444,0,0,0.010850694444444444,26.106770833333332,0)" xlink:href="#aA"/><use transform="matrix(0.010850694444444444,0,0,0.010850694444444444,39.127604166666664,0)" xlink:href="#ap"/><use transform="matrix(0.010850694444444444,0,0,0.010850694444444444,44.87847222222222,0)" xlink:href="#ae"/><use transform="matrix(0.010850694444444444,0,0,0.010850694444444444,50.62934027777778,0)" xlink:href="#ah"/><use transform="matrix(0.010850694444444444,0,0,0.010850694444444444,60.91579861111112,0)" xlink:href="#ai"/><use transform="matrix(0.010850694444444444,0,0,0.010850694444444444,72.71050347222223,0)" xlink:href="#ad"/></g><path d="M185-189c-5-48-123-54-124 2 14 75 158 14 163 119 3 78-121 87-175 55-17-10-28-26-33-46l33-7c5 56 141 63 141-1 0-78-155-14-162-118-5-82 145-84 179-34 5 7 8 16 11 25" id="aB"/><g id="q"><use transform="matrix(0.0860695061728395,0,0,0.0860695061728395,0,0)" xlink:href="#aB"/><use transform="matrix(0.0860695061728395,0,0,0.0860695061728395,20.656681481481478,0)" xlink:href="#O"/><use transform="matrix(0.0860695061728395,0,0,0.0860695061728395,37.87058271604938,0)" xlink:href="#Y"/><use transform="matrix(0.0860695061728395,0,0,0.0860695061728395,55.084483950617276,0)" xlink:href="#W"/><use transform="matrix(0.0860695061728395,0,0,0.0860695061728395,63.691434567901226,0)" xlink:href="#T"/><use transform="matrix(0.0860695061728395,0,0,0.0860695061728395,70.49092555555555,0)" xlink:href="#O"/><use transform="matrix(0.0860695061728395,0,0,0.0860695061728395,87.70482679012345,0)" xlink:href="#ar"/><use transform="matrix(0.0860695061728395,0,0,0.0860695061728395,104.91872802469135,0)" xlink:href="#Z"/></g><path d="M233-177c-1 41-23 64-60 70L243 0h-38l-65-103H63V0H30v-248c88 3 205-21 203 71zM63-129c60-2 137 13 137-47 0-61-80-42-137-45v92" id="aC"/><path d="M141-36C126-15 110 5 73 4 37 3 15-17 15-53c-1-64 63-63 125-63 3-35-9-54-41-54-24 1-41 7-42 31l-33-3c5-37 33-52 76-52 45 0 72 20 72 64v82c-1 20 7 32 28 27v20c-31 9-61-2-59-35zM48-53c0 20 12 33 32 33 41-3 63-29 60-74-43 2-92-5-92 41zm25-158c8-23 27-35 38-54h36v5l-58 49H73" id="aD"/><g id="r"><use transform="matrix(0.0860695061728395,0,0,0.0860695061728395,0,0)" xlink:href="#aC"/><use transform="matrix(0.0860695061728395,0,0,0.0860695061728395,22.29200209876543,0)" xlink:href="#Z"/><use transform="matrix(0.0860695061728395,0,0,0.0860695061728395,39.50590333333333,0)" xlink:href="#S"/><use transform="matrix(0.0860695061728395,0,0,0.0860695061728395,65.24068567901233,0)" xlink:href="#aD"/><use transform="matrix(0.0860695061728395,0,0,0.0860695061728395,82.45458691358023,0)" xlink:href="#Y"/></g><path d="M958 0H199v-1462h759v164H385v452h535v162H385v520h573V0" id="aE"/><path d="M1319-1118c249 0 353 136 352 401V0h-182v-707c-1-161-53-260-205-260-210 0-270 149-270 361V0H831v-707c-1-161-52-259-204-260-224-2-270 173-271 398V0H174v-1098h148l26 148h10c58-100 152-168 304-168 166 0 269 60 317 182h8c63-108 168-182 332-182" id="aF"/><path d="M356 158c-1 205-86 331-290 334-58 0-97-8-134-25V319c35 13 67 21 115 21 98-1 127-68 127-170v-1268h182V158zm-90-1438c-65 0-106-43-106-115 0-74 40-114 106-114 70 0 105 42 107 114 2 71-44 115-107 115" id="aG"/><g id="s"><use transform="matrix(0.010850694444444444,0,0,0.010850694444444444,0,0)" xlink:href="#aE"/><use transform="matrix(0.010850694444444444,0,0,0.010850694444444444,11.729600694444445,0)" xlink:href="#aF"/><use transform="matrix(0.010850694444444444,0,0,0.010850694444444444,31.640625,0)" xlink:href="#aA"/><use transform="matrix(0.010850694444444444,0,0,0.010850694444444444,44.66145833333333,0)" xlink:href="#ai"/><use transform="matrix(0.010850694444444444,0,0,0.010850694444444444,56.45616319444444,0)" xlink:href="#aG"/><use transform="matrix(0.010850694444444444,0,0,0.010850694444444444,62.20703125,0)" xlink:href="#ai"/><use transform="matrix(0.010850694444444444,0,0,0.010850694444444444,74.00173611111111,0)" xlink:href="#af"/><use transform="matrix(0.010850694444444444,0,0,0.010850694444444444,87.02256944444444,0)" xlink:href="#ai"/></g><path d="M30-248c87 1 191-15 191 75 0 78-77 80-158 76V0H30v-248zm33 125c57 0 124 11 124-50 0-59-68-47-124-48v98" id="aH"/><g id="t"><use transform="matrix(0.0860695061728395,0,0,0.0860695061728395,0,0)" xlink:href="#aH"/><use transform="matrix(0.0860695061728395,0,0,0.0860695061728395,20.656681481481478,0)" xlink:href="#O"/><use transform="matrix(0.0860695061728395,0,0,0.0860695061728395,37.87058271604938,0)" xlink:href="#as"/><use transform="matrix(0.0860695061728395,0,0,0.0860695061728395,55.084483950617276,0)" xlink:href="#U"/><use transform="matrix(0.0860695061728395,0,0,0.0860695061728395,61.8839749382716,0)" xlink:href="#O"/></g><path d="M24-231v-30h32v30H24zM-9 49c24 4 33-6 33-30v-209h32V24c2 40-23 58-65 49V49" id="aI"/><g id="u"><use transform="matrix(0.0860695061728395,0,0,0.0860695061728395,0,0)" xlink:href="#N"/><use transform="matrix(0.0860695061728395,0,0,0.0860695061728395,25.734782345679008,0)" xlink:href="#X"/><use transform="matrix(0.0860695061728395,0,0,0.0860695061728395,42.94868358024691,0)" xlink:href="#aI"/><use transform="matrix(0.0860695061728395,0,0,0.0860695061728395,49.74817456790123,0)" xlink:href="#Q"/><use transform="matrix(0.0860695061728395,0,0,0.0860695061728395,58.35512518518518,0)" xlink:href="#O"/></g><path d="M606-1462c446 9 670 266 670 717 0 479-236 740-711 745H199v-1462h407zM547-160c362-1 533-208 532-579-1-354-145-561-493-564H385v1143h162" id="aJ"/><path d="M113-551c0-340 147-567 481-567 325 0 475 233 475 567 0 342-147 571-481 571-325 0-475-235-475-571zm477-416c-231 0-289 166-289 416s60 420 291 420 289-170 289-420c0-251-60-416-291-416zm276-581c-72 109-173 223-272 307H473v-27c64-89 124-197 174-301h219v21" id="aK"/><g id="v"><use transform="matrix(0.010850694444444444,0,0,0.010850694444444444,0,0)" xlink:href="#aJ"/><use transform="matrix(0.010850694444444444,0,0,0.010850694444444444,15.201822916666666,0)" xlink:href="#ae"/><use transform="matrix(0.010850694444444444,0,0,0.010850694444444444,20.95269097222222,0)" xlink:href="#ab"/><use transform="matrix(0.010850694444444444,0,0,0.010850694444444444,29.817708333333332,0)" xlink:href="#ac"/><use transform="matrix(0.010850694444444444,0,0,0.010850694444444444,41.71006944444444,0)" xlink:href="#ah"/><use transform="matrix(0.010850694444444444,0,0,0.010850694444444444,51.99652777777778,0)" xlink:href="#ah"/><use transform="matrix(0.010850694444444444,0,0,0.010850694444444444,62.2829861111111,0)" xlink:href="#ae"/><use transform="matrix(0.010850694444444444,0,0,0.010850694444444444,68.03385416666666,0)" xlink:href="#aK"/><use transform="matrix(0.010850694444444444,0,0,0.010850694444444444,80.85937499999999,0)" xlink:href="#ag"/></g><path d="M563-131c230 1 287-166 287-397v-570h182V0H885l-27-147h-10C788-46 687 18 532 20c-259 3-368-141-368-401v-717h182v707c0 164 60 259 217 260" id="aL"/><g id="w"><use transform="matrix(0.010850694444444444,0,0,0.010850694444444444,0,0)" xlink:href="#au"/><use transform="matrix(0.010850694444444444,0,0,0.010850694444444444,13.020833333333332,0)" xlink:href="#aL"/><use transform="matrix(0.010850694444444444,0,0,0.010850694444444444,26.106770833333332,0)" xlink:href="#aA"/><use transform="matrix(0.010850694444444444,0,0,0.010850694444444444,39.127604166666664,0)" xlink:href="#ap"/><use transform="matrix(0.010850694444444444,0,0,0.010850694444444444,44.87847222222222,0)" xlink:href="#ae"/><use transform="matrix(0.010850694444444444,0,0,0.010850694444444444,50.62934027777778,0)" xlink:href="#ah"/><use transform="matrix(0.010850694444444444,0,0,0.010850694444444444,60.91579861111112,0)" xlink:href="#ae"/><use transform="matrix(0.010850694444444444,0,0,0.010850694444444444,66.66666666666667,0)" xlink:href="#af"/><use transform="matrix(0.010850694444444444,0,0,0.010850694444444444,79.6875,0)" xlink:href="#ai"/><use transform="matrix(0.010850694444444444,0,0,0.010850694444444444,91.48220486111111,0)" xlink:href="#af"/></g><path d="M100-194c63 0 86 42 84 106H49c0 40 14 67 53 68 26 1 43-12 49-29l28 8c-11 28-37 45-77 45C44 4 14-33 15-96c1-61 26-98 85-98zm52 81c6-60-76-77-97-28-3 7-6 17-6 28h103zm-74-98c8-23 27-35 38-54h36v5l-58 49H78" id="aM"/><g id="x"><use transform="matrix(0.0860695061728395,0,0,0.0860695061728395,0,0)" xlink:href="#av"/><use transform="matrix(0.0860695061728395,0,0,0.0860695061728395,15.49251111111111,0)" xlink:href="#Z"/><use transform="matrix(0.0860695061728395,0,0,0.0860695061728395,32.70641234567901,0)" xlink:href="#V"/><use transform="matrix(0.0860695061728395,0,0,0.0860695061728395,48.198923456790126,0)" xlink:href="#aM"/></g><path d="M625 0H438v-1298H20v-164h1022v164H625V0" id="aN"/><g id="y"><use transform="matrix(0.010850694444444444,0,0,0.010850694444444444,0,0)" xlink:href="#aN"/><use transform="matrix(0.010850694444444444,0,0,0.010850694444444444,10.199652777777779,0)" xlink:href="#ac"/><use transform="matrix(0.010850694444444444,0,0,0.010850694444444444,22.09201388888889,0)" xlink:href="#ad"/><use transform="matrix(0.010850694444444444,0,0,0.010850694444444444,32.11805555555556,0)" xlink:href="#ay"/><use transform="matrix(0.010850694444444444,0,0,0.010850694444444444,44.943576388888886,0)" xlink:href="#ab"/><use transform="matrix(0.010850694444444444,0,0,0.010850694444444444,53.80859375,0)" xlink:href="#ac"/><use transform="matrix(0.010850694444444444,0,0,0.010850694444444444,65.70095486111111,0)" xlink:href="#ab"/><use transform="matrix(0.010850694444444444,0,0,0.010850694444444444,74.56597222222223,0)" xlink:href="#an"/><use transform="matrix(0.010850694444444444,0,0,0.010850694444444444,80.31684027777779,0)" xlink:href="#ai"/></g><path d="M137 0h-34L2-248h35l83 218 83-218h36" id="aO"/><g id="z"><use transform="matrix(0.0860695061728395,0,0,0.0860695061728395,0,0)" xlink:href="#aO"/><use transform="matrix(0.0860695061728395,0,0,0.0860695061728395,18.33280481481481,0)" xlink:href="#O"/><use transform="matrix(0.0860695061728395,0,0,0.0860695061728395,35.546706049382706,0)" xlink:href="#U"/><use transform="matrix(0.0860695061728395,0,0,0.0860695061728395,42.34619703703703,0)" xlink:href="#X"/><use transform="matrix(0.0860695061728395,0,0,0.0860695061728395,59.56009827160493,0)" xlink:href="#P"/><use transform="matrix(0.0860695061728395,0,0,0.0860695061728395,69.80236950617282,0)" xlink:href="#T"/><use transform="matrix(0.0860695061728395,0,0,0.0860695061728395,76.60186049382715,0)" xlink:href="#O"/></g><path d="M9 0v-24l116-142H16v-24h144v24L44-24h123V0H9" id="aP"/><g id="A"><use transform="matrix(0.0860695061728395,0,0,0.0860695061728395,0,0)" xlink:href="#N"/><use transform="matrix(0.0860695061728395,0,0,0.0860695061728395,25.734782345679008,0)" xlink:href="#O"/><use transform="matrix(0.0860695061728395,0,0,0.0860695061728395,42.94868358024691,0)" xlink:href="#P"/><use transform="matrix(0.0860695061728395,0,0,0.0860695061728395,53.19095481481481,0)" xlink:href="#W"/><use transform="matrix(0.0860695061728395,0,0,0.0860695061728395,61.79790543209876,0)" xlink:href="#T"/><use transform="matrix(0.0860695061728395,0,0,0.0860695061728395,68.59739641975308,0)" xlink:href="#Y"/><use transform="matrix(0.0860695061728395,0,0,0.0860695061728395,85.81129765432098,0)" xlink:href="#X"/><use transform="matrix(0.0860695061728395,0,0,0.0860695061728395,103.02519888888888,0)" xlink:href="#aP"/></g><g id="B"><use transform="matrix(0.010850694444444444,0,0,0.010850694444444444,0,0)" xlink:href="#au"/><use transform="matrix(0.010850694444444444,0,0,0.010850694444444444,13.020833333333332,0)" xlink:href="#ap"/><use transform="matrix(0.010850694444444444,0,0,0.010850694444444444,18.771701388888886,0)" xlink:href="#ai"/><use transform="matrix(0.010850694444444444,0,0,0.010850694444444444,30.56640625,0)" xlink:href="#ag"/><use transform="matrix(0.010850694444444444,0,0,0.010850694444444444,43.65234375,0)" xlink:href="#ac"/><use transform="matrix(0.010850694444444444,0,0,0.010850694444444444,55.54470486111112,0)" xlink:href="#ai"/><use transform="matrix(0.010850694444444444,0,0,0.010850694444444444,67.33940972222223,0)" xlink:href="#ah"/><use transform="matrix(0.010850694444444444,0,0,0.010850694444444444,77.62586805555556,0)" xlink:href="#ae"/><use transform="matrix(0.010850694444444444,0,0,0.010850694444444444,83.37673611111111,0)" xlink:href="#aK"/><use transform="matrix(0.010850694444444444,0,0,0.010850694444444444,96.20225694444444,0)" xlink:href="#ag"/></g><path d="M30 0v-248h33v221h125V0H30" id="aQ"/><g id="C"><use transform="matrix(0.0860695061728395,0,0,0.0860695061728395,0,0)" xlink:href="#aQ"/><use transform="matrix(0.0860695061728395,0,0,0.0860695061728395,17.2139012345679,0)" xlink:href="#T"/><use transform="matrix(0.0860695061728395,0,0,0.0860695061728395,24.01339222222222,0)" xlink:href="#Y"/><use transform="matrix(0.0860695061728395,0,0,0.0860695061728395,41.22729345679012,0)" xlink:href="#O"/></g><g id="D"><use transform="matrix(0.0860695061728395,0,0,0.0860695061728395,0,0)" xlink:href="#N"/><use transform="matrix(0.0860695061728395,0,0,0.0860695061728395,25.734782345679008,0)" xlink:href="#O"/><use transform="matrix(0.0860695061728395,0,0,0.0860695061728395,42.94868358024691,0)" xlink:href="#P"/><use transform="matrix(0.0860695061728395,0,0,0.0860695061728395,53.19095481481481,0)" xlink:href="#Q"/><use transform="matrix(0.0860695061728395,0,0,0.0860695061728395,61.79790543209876,0)" xlink:href="#O"/></g><path d="M63-220v92h138v28H63V0H30v-248h175v28H63" id="aR"/><g id="E"><use transform="matrix(0.0860695061728395,0,0,0.0860695061728395,0,0)" xlink:href="#aR"/><use transform="matrix(0.0860695061728395,0,0,0.0860695061728395,18.84922185185185,0)" xlink:href="#P"/><use transform="matrix(0.0860695061728395,0,0,0.0860695061728395,29.091493086419757,0)" xlink:href="#O"/><use transform="matrix(0.0860695061728395,0,0,0.0860695061728395,46.30539432098765,0)" xlink:href="#Y"/><use transform="matrix(0.0860695061728395,0,0,0.0860695061728395,63.51929555555555,0)" xlink:href="#ax"/><use transform="matrix(0.0860695061728395,0,0,0.0860695061728395,79.01180666666666,0)" xlink:href="#Z"/></g><g id="F"><use transform="matrix(0.010850694444444444,0,0,0.010850694444444444,0,0)" xlink:href="#ab"/><use transform="matrix(0.010850694444444444,0,0,0.010850694444444444,8.86501736111111,0)" xlink:href="#ac"/><use transform="matrix(0.010850694444444444,0,0,0.010850694444444444,20.75737847222222,0)" xlink:href="#ad"/><use transform="matrix(0.010850694444444444,0,0,0.010850694444444444,30.78342013888889,0)" xlink:href="#au"/><use transform="matrix(0.010850694444444444,0,0,0.010850694444444444,43.804253472222214,0)" xlink:href="#ay"/><use transform="matrix(0.010850694444444444,0,0,0.010850694444444444,56.62977430555554,0)" xlink:href="#ag"/><use transform="matrix(0.010850694444444444,0,0,0.010850694444444444,69.71571180555554,0)" xlink:href="#ad"/><use transform="matrix(0.010850694444444444,0,0,0.010850694444444444,79.74175347222221,0)" xlink:href="#ai"/><use transform="matrix(0.010850694444444444,0,0,0.010850694444444444,91.53645833333333,0)" xlink:href="#aA"/><use transform="matrix(0.010850694444444444,0,0,0.010850694444444444,104.55729166666666,0)" xlink:href="#ae"/><use transform="matrix(0.010850694444444444,0,0,0.010850694444444444,110.30815972222221,0)" xlink:href="#ap"/><use transform="matrix(0.010850694444444444,0,0,0.010850694444444444,116.05902777777777,0)" xlink:href="#ae"/><use transform="matrix(0.010850694444444444,0,0,0.010850694444444444,121.80989583333333,0)" xlink:href="#af"/><use transform="matrix(0.010850694444444444,0,0,0.010850694444444444,134.83072916666666,0)" xlink:href="#ai"/><use transform="matrix(0.010850694444444444,0,0,0.010850694444444444,146.62543402777777,0)" xlink:href="#af"/></g><g id="G"><use transform="matrix(0.010850694444444444,0,0,0.010850694444444444,0,0)" xlink:href="#ad"/><use transform="matrix(0.010850694444444444,0,0,0.010850694444444444,10.026041666666666,0)" xlink:href="#ay"/><use transform="matrix(0.010850694444444444,0,0,0.010850694444444444,22.8515625,0)" xlink:href="#ah"/><use transform="matrix(0.010850694444444444,0,0,0.010850694444444444,33.13802083333333,0)" xlink:href="#ae"/><use transform="matrix(0.010850694444444444,0,0,0.010850694444444444,38.888888888888886,0)" xlink:href="#ai"/><use transform="matrix(0.010850694444444444,0,0,0.010850694444444444,50.68359375,0)" xlink:href="#ap"/></g><path d="M27 330c86 20 214 16 264-33 71-68 94-188 135-287L10-1098h189c90 262 188 517 271 785 16 51 28 106 34 161h6c80-333 196-630 293-946h188L557 143c-67 180-135 346-375 349-60 1-110-8-155-17V330" id="aS"/><use transform="matrix(0.010850694444444444,0,0,0.010850694444444444,0,0)" xlink:href="#aS" id="H"/><g id="I"><use transform="matrix(0.010850694444444444,0,0,0.010850694444444444,0,0)" xlink:href="#ab"/><use transform="matrix(0.010850694444444444,0,0,0.010850694444444444,8.86501736111111,0)" xlink:href="#ac"/><use transform="matrix(0.010850694444444444,0,0,0.010850694444444444,20.75737847222222,0)" xlink:href="#ah"/><use transform="matrix(0.010850694444444444,0,0,0.010850694444444444,31.043836805555554,0)" xlink:href="#ab"/><use transform="matrix(0.010850694444444444,0,0,0.010850694444444444,39.908854166666664,0)" xlink:href="#ac"/><use transform="matrix(0.010850694444444444,0,0,0.010850694444444444,51.80121527777778,0)" xlink:href="#ai"/><use transform="matrix(0.010850694444444444,0,0,0.010850694444444444,63.595920138888886,0)" xlink:href="#ah"/><use transform="matrix(0.010850694444444444,0,0,0.010850694444444444,73.88237847222221,0)" xlink:href="#ae"/><use transform="matrix(0.010850694444444444,0,0,0.010850694444444444,79.63324652777777,0)" xlink:href="#aK"/><use transform="matrix(0.010850694444444444,0,0,0.010850694444444444,92.45876736111111,0)" xlink:href="#ag"/></g><path d="M85-194c31 0 48 13 60 33l-1-100h32l1 261h-30c-2-10 0-23-3-31C134-8 116 4 85 4 32 4 16-35 15-94c0-66 23-100 70-100zm9 24c-40 0-46 34-46 75 0 40 6 74 45 74 42 0 51-32 51-76 0-42-9-74-50-73" id="aT"/><g id="J"><use transform="matrix(0.0860695061728395,0,0,0.0860695061728395,0,0)" xlink:href="#aq"/><use transform="matrix(0.0860695061728395,0,0,0.0860695061728395,20.656681481481478,0)" xlink:href="#Y"/><use transform="matrix(0.0860695061728395,0,0,0.0860695061728395,37.87058271604938,0)" xlink:href="#aT"/><use transform="matrix(0.0860695061728395,0,0,0.0860695061728395,55.084483950617276,0)" xlink:href="#P"/><use transform="matrix(0.0860695061728395,0,0,0.0860695061728395,65.32675518518518,0)" xlink:href="#X"/><use transform="matrix(0.0860695061728395,0,0,0.0860695061728395,82.54065641975308,0)" xlink:href="#O"/></g><path d="M137-103V0h-34v-103L8-248h37l75 118 75-118h37" id="aU"/><path d="M141 0L90-78 38 0H4l68-98-65-92h35l48 74 47-74h35l-64 92 68 98h-35" id="aV"/><g id="K"><use transform="matrix(0.0860695061728395,0,0,0.0860695061728395,0,0)" xlink:href="#aU"/><use transform="matrix(0.0860695061728395,0,0,0.0860695061728395,18.33280481481481,0)" xlink:href="#O"/><use transform="matrix(0.0860695061728395,0,0,0.0860695061728395,35.546706049382706,0)" xlink:href="#S"/><use transform="matrix(0.0860695061728395,0,0,0.0860695061728395,61.281488395061714,0)" xlink:href="#T"/><use transform="matrix(0.0860695061728395,0,0,0.0860695061728395,68.08097938271604,0)" xlink:href="#U"/><use transform="matrix(0.0860695061728395,0,0,0.0860695061728395,74.88047037037036,0)" xlink:href="#X"/><use transform="matrix(0.0860695061728395,0,0,0.0860695061728395,92.09437160493826,0)" xlink:href="#aV"/></g><g id="L"><use transform="matrix(0.0860695061728395,0,0,0.0860695061728395,0,0)" xlink:href="#aw"/><use transform="matrix(0.0860695061728395,0,0,0.0860695061728395,20.656681481481478,0)" xlink:href="#as"/><use transform="matrix(0.0860695061728395,0,0,0.0860695061728395,37.87058271604938,0)" xlink:href="#P"/><use transform="matrix(0.0860695061728395,0,0,0.0860695061728395,48.11285395061728,0)" xlink:href="#ar"/><use transform="matrix(0.0860695061728395,0,0,0.0860695061728395,65.32675518518518,0)" xlink:href="#Z"/><use transform="matrix(0.0860695061728395,0,0,0.0860695061728395,82.54065641975308,0)" xlink:href="#V"/></g><path d="M944-53C850-7 748 24 608 20c-333-9-495-220-495-561 0-264 92-451 269-538 104-51 258-51 363-3 158 72 246 228 248 455v113H301c6 236 86 371 309 375 139 2 240-31 334-76v162zM797-662c-2-176-59-305-234-305-171 0-246 129-258 305h492zm71-886c-72 109-173 223-272 307H475v-27c64-89 124-197 174-301h219v21" id="aW"/><g id="M"><use transform="matrix(0.010850694444444444,0,0,0.010850694444444444,0,0)" xlink:href="#ai"/><use transform="matrix(0.010850694444444444,0,0,0.010850694444444444,11.79470486111111,0)" xlink:href="#ah"/><use transform="matrix(0.010850694444444444,0,0,0.010850694444444444,22.081163194444443,0)" xlink:href="#ai"/><use transform="matrix(0.010850694444444444,0,0,0.010850694444444444,33.87586805555556,0)" xlink:href="#af"/><use transform="matrix(0.010850694444444444,0,0,0.010850694444444444,46.896701388888886,0)" xlink:href="#aW"/><use transform="matrix(0.010850694444444444,0,0,0.010850694444444444,58.7890625,0)" xlink:href="#aF"/><use transform="matrix(0.010850694444444444,0,0,0.010850694444444444,78.70008680555556,0)" xlink:href="#ae"/><use transform="matrix(0.010850694444444444,0,0,0.010850694444444444,84.45095486111111,0)" xlink:href="#ah"/><use transform="matrix(0.010850694444444444,0,0,0.010850694444444444,94.73741319444444,0)" xlink:href="#ai"/></g></defs></g></svg>