<?xml version="1.0" encoding="utf-8"?>
<!-- Generator: Adobe Illustrator 27.5.0, SVG Export Plug-In . SVG Version: 6.00 Build 0)  -->
<svg version="1.1" xmlns="http://www.w3.org/2000/svg" xmlns:xlink="http://www.w3.org/1999/xlink" x="0px" y="0px"
	 viewBox="0 0 500 500" style="enable-background:new 0 0 500 500;" xml:space="preserve">
<g id="Background_Simple">
	<g>
		<path style="fill:#92E3A9;" d="M380.696,30.77c0,0-305.368,53.826-367.782,90.823c-32,18.968,62.398,343.057,84.31,351.543
			c21.912,8.486,328.75-3.176,345.488-14.229C459.45,447.855,490.255,73.2,485.124,51.231
			C479.992,29.262,455.063,14.834,380.696,30.77z"/>
		<path style="opacity:0.7;fill:#FFFFFF;" d="M380.696,30.77c0,0-305.368,53.826-367.782,90.823
			c-32,18.968,62.398,343.057,84.31,351.543c21.912,8.486,328.75-3.176,345.488-14.229C459.45,447.855,490.255,73.2,485.124,51.231
			C479.992,29.262,455.063,14.834,380.696,30.77z"/>
	</g>
</g>
<g id="Puzzle">
	<g>
		<path style="fill:#263238;stroke:#263238;stroke-linecap:round;stroke-linejoin:round;stroke-miterlimit:10;" d="M388.792,214.906
			v90.028c-4.449,0.695-15.174,2.38-19.837,3.156c-5.947,0.999-18.339,0-15.37-5.947c2.978-5.947,3.477-19.338-8.425-20.327
			c-11.902-0.99-13.391,7.435-8.924,15.37c4.458,7.935-2.478,11.902-12.401,11.403c-6.134-0.312-17.572-0.802-29.278-0.437
			c2.175-17.492,4.77-36.473,2.505-38.738c-3.967-3.967-13.391,4.467-18.838,1.988c-5.456-2.478-8.924-15.37-2.978-19.337
			c5.947-3.967,11.902,0.99,17.35,1.489c5.456,0.49,6.446-0.999,7.444-6.945c0.58-3.459-0.865-20.185-2.461-34.155
			c24.473,0.071,37.525-1.427,36.179,4.903c-1.489,6.936-5.956,17.349,2.478,21.317c8.425,3.967,15.861,0.99,16.859-6.446
			c0.99-7.436-6.945-14.381-1.988-18.348C353.826,211.706,371.639,213.408,388.792,214.906z"/>
		<path style="fill:#92E3A9;stroke:#263238;stroke-linecap:round;stroke-linejoin:round;stroke-miterlimit:10;" d="M178.557,351.731
			c-1.489,8.924,6.936,14.871,12.393,11.893c5.456-2.969,13.881-5.447,13.881,3.477c0,4.6-0.526,18.179-1.034,30.241h-89.208
			v-90.581c3.343,0.339,8.167,0.285,14.381-1.15c12.892-2.969,22.315-5.947,21.326,2.479c-0.998,8.434-6.446,20.826,5.447,21.825
			c11.902,0.99,15.37-5.456,14.38-13.89c-0.99-8.425,1.489-14.381,9.424-13.382c4.021,0.499,14.916,2.024,25.596,3.459
			c0.758,14.158,1.899,27.816,1.676,31.249c-0.499,7.435-5.456,8.425-12.401,6.446C187.482,341.808,180.046,342.807,178.557,351.731
			z"/>
		<path style="fill:#92E3A9;stroke:#263238;stroke-linecap:round;stroke-linejoin:round;stroke-miterlimit:10;" d="M299.884,246.792
			c-0.999,5.95-1.989,7.439-7.448,6.949c-5.45-0.5-11.409-5.459-17.359-1.49s-2.48,16.868,2.979,19.348
			c5.45,2.48,14.879-5.959,18.848-1.989c2.266,2.266-0.33,21.257-2.507,38.758c-7.234,0.223-14.567,0.785-20.811,1.927
			c-16.369,2.979-15.378-5.459-11.908-12.899c3.479-7.44-0.491-15.878-13.389-13.889c-12.899,1.98-8.439,9.919-5.959,17.359
			c2.48,7.439-6.449,8.929-13.389,8.439c-3.434-0.25-13.621-1.579-24.004-2.988c-0.892-16.556-1.267-33.808,1.677-36.207
			c5.459-4.469,8.43,3.97,15.378,2.979c6.949-0.999,8.929-5.459,7.44-15.378c-1.49-9.928-8.43-8.938-15.878-5.959
			c-7.439,2.979-11.9,0-12.399-8.43c-0.285-4.826,1.053-18.563,2.444-30.837c5.825,0.401,11.24,0.571,15.414,0.071
			c12.408-1.481,25.797-1.98,26.297,4.469c0.499,6.449-5.459,10.419-4.469,16.369c0.999,5.959,13.398,9.429,19.848,3.969
			c6.449-5.459-3.97-15.869,0.5-22.318c4.46-6.449-0.5-2.979,28.768-2.489c2.596,0.045,5.085,0.062,7.466,0.062
			C299.019,226.596,300.464,243.331,299.884,246.792z"/>
	</g>
</g>
<g id="Hand_6">
	<g>
		<path style="fill:#FFFFFF;stroke:#263238;stroke-linecap:round;stroke-linejoin:round;stroke-miterlimit:10;" d="M240.094,464.742
			c0,0-1.081-9.004-4.322-21.249c-3.241-12.245-10.805-24.13-10.805-29.893c0-5.763,11.885-39.617,13.326-41.778
			s9.364-15.126,11.525-14.406c2.161,0.72,3.241,3.962,3.241,3.962s5.042-6.483,7.923-5.402c2.881,1.081,2.161,3.241,2.161,3.241
			s5.763-0.72,7.203,1.801c1.441,2.521,0.36,5.762,0.36,5.762s5.402,3.602,5.402,7.563s-2.521,33.134-2.521,35.295
			c0,2.161,2.881,18.008,1.081,28.452s-3.602,16.207-3.602,16.207l1.801,11.165L240.094,464.742z"/>
		<path style="fill:#263238;stroke:#263238;stroke-linecap:round;stroke-linejoin:round;stroke-miterlimit:10;" d="M311.941,368.378
			c-5.956,0.499-8.434-6.936-13.89-3.468c-5.456,3.468-5.456,5.456-4.957,14.871c0.357,6.776,1.738,16.11,2.487,20.827h-91.785
			c0.508-12.063,1.034-25.641,1.034-30.241c0-8.924-8.425-6.446-13.881-3.477c-5.456,2.978-13.881-2.969-12.393-11.893
			c1.489-8.924,8.924-9.923,15.861-7.935c6.945,1.979,11.902,0.99,12.401-6.446c0.223-3.433-0.918-17.091-1.676-31.249
			c10.377,1.409,20.559,2.737,23.991,2.987c6.936,0.49,15.861-0.999,13.382-8.434c-2.479-7.435-6.936-15.37,5.956-17.349
			c12.892-1.988,16.859,6.446,13.382,13.881c-3.468,7.435-4.458,15.87,11.902,12.892c6.241-1.141,13.569-1.703,20.8-1.926
			c-1.632,13.106-3.022,25.373-1.961,29.198c2.487,8.924,7.444,9.415,12.401,7.436c4.957-1.979,13.881-2.479,15.37,5.946
			C321.855,362.431,317.888,367.887,311.941,368.378z"/>
		<path style="fill:#FFFFFF;stroke:#263238;stroke-linecap:round;stroke-linejoin:round;stroke-miterlimit:10;" d="M236.852,422.964
			c0,0,0.36-10.444,1.801-15.126c1.441-4.682,4.322-13.326,4.682-18.368c0.36-5.042-1.441-13.686,2.521-12.965
			s7.203,5.402,8.283,11.525c1.081,6.123-2.161,15.486-1.801,18.008c0.36,2.521,7.203,9.724,7.923,16.207
			c0.72,6.483-0.36,14.046-0.72,15.847"/>
		<polygon style="fill:#FFFFFF;stroke:#263238;stroke-linecap:round;stroke-linejoin:round;stroke-miterlimit:10;" points="
			236.132,460.06 279.71,460.06 279.71,480.588 236.132,478.788 		"/>
		
			<rect x="234.691" y="478.788" style="fill:#263238;stroke:#263238;stroke-linecap:round;stroke-linejoin:round;stroke-miterlimit:10;" width="50.421" height="21.823"/>
	</g>
</g>
<g id="Hand_5">
	<g>
		<path style="fill:#92E3A9;stroke:#263238;stroke-linecap:round;stroke-linejoin:round;stroke-miterlimit:10;" d="M399.049,311.951
			l-10.875,91.766l-92.563-10.969c-0.189-4.772-0.462-14.204-0.019-20.974c0.612-9.408,0.846-11.382,6.673-14.184
			c5.826-2.802,7.413,4.874,13.385,5.079c5.963,0.213,10.545-4.739,10.059-13.289c-0.487-8.542-9.408-9.096-14.564-7.714
			c-5.155,1.382-10.02,0.312-11.44-8.843c-0.604-3.923,2.221-15.942,5.384-28.764c11.668,1.014,22.969,2.848,29.023,3.879
			c9.795,1.664,17.15-1.46,13.657-9.864c-3.502-8.405-1.032-16.597,10.671-14.213c11.703,2.383,9.631,15.623,5.974,21.177
			c-3.648,5.556,8.541,8.006,14.564,7.714C383.7,312.529,394.549,312.118,399.049,311.951z"/>
		<g>
			<path style="fill:#D6D6D6;stroke:#263238;stroke-linecap:round;stroke-linejoin:round;stroke-miterlimit:10;" d="
				M417.674,328.408c0,0,10.668,3.855,16.016,2.668c5.348-1.187,9.816-3.589,9.816-3.589l-10.069-8.273l-12.079,4.302
				L417.674,328.408z"/>
			<path style="fill:#D6D6D6;stroke:#263238;stroke-linecap:round;stroke-linejoin:round;stroke-miterlimit:10;" d="
				M499.805,282.939c-13.844,4.44-25.055,8.704-26.944,9.299c-4.116,1.296-24.04-0.085-29.171-0.905
				c-5.131-0.82-27.997-11.542-31.629-10.92c-3.632,0.622-4.04-0.12-6.332,1.994c-2.292,2.114-21.499,20.692-22.642,23.14
				c-1.143,2.448-8.221,20.86-8.924,25.258c-0.703,4.398-0.981,8.487,0.626,9.721c1.607,1.234,3.489,1.685,5.239,0.612
				c1.75-1.073,2.685-3.63,3.828-6.078c1.143-2.448,0.97-4.656,0.97-4.656s9.649,6.88,11.432,7.014
				c1.783,0.135,4.699-1.654,4.699-1.654s2.873,0.835,4.447,0.861c1.574,0.026,11.237-0.233,13.987-1.447
				c2.75-1.214,5.001-4.011,5.027-5.586c0.026-1.574-0.505-4.365-0.505-4.365l8.074-2.543c0,0,12.013,9.964,20.901,8.904
				c8.889-1.059,16.347-4.452,17.464-5.326c1.117-0.874,4.6-1.971,4.6-1.971l24.852-2.838V282.939z"/>
			<path style="fill:none;stroke:#263238;stroke-linecap:round;stroke-linejoin:round;stroke-miterlimit:10;" d="M415.836,312.286
				c0,0-12.036,10.403-11.596,12.353c0.44,1.95,1.895,6.016,3.443,7.616c1.548,1.6,3.929,3.635,5.92,3.878s5.116-1.437,5.675-3.527
				c0.56-2.09-0.106-3.099-0.106-3.099"/>
			<path style="fill:none;stroke:#263238;stroke-linecap:round;stroke-linejoin:round;stroke-miterlimit:10;" d="M416.562,331.721
				c0,0,6.792-4.401,7.352-6.492"/>
			<path style="fill:none;stroke:#263238;stroke-linecap:round;stroke-linejoin:round;stroke-miterlimit:10;" d="M407.28,302.8
				c0,0-15.267,8.985-15.37,11.975c-0.102,2.99,0.922,13.978,1.995,15.729c0,0,2.862,4.667,7.052,5.262"/>
			<path style="fill:none;stroke:#263238;stroke-linecap:round;stroke-linejoin:round;stroke-miterlimit:10;" d="M403.93,292.719
				c0,0-18.076,10.565-19.509,11.539c-1.434,0.974-2.603,4.996-2.347,8.57c0.255,3.574,0.799,11.929,1.081,13.929
				c0.282,1.999,0.739,2.899,1.672,3.65"/>
			<path style="fill:none;stroke:#263238;stroke-linecap:round;stroke-linejoin:round;stroke-miterlimit:10;" d="M420.379,285.276
				c0,0-3.281-1.577-5.723,0.062c-2.442,1.639-3.884,3.137-3.884,3.137"/>
			<path style="fill:none;stroke:#263238;stroke-linecap:round;stroke-linejoin:round;stroke-miterlimit:10;" d="M427.311,294.577
				c-0.613-1.324-5.189-0.831-6.432,1.678"/>
			<path style="fill:none;stroke:#263238;stroke-linecap:round;stroke-linejoin:round;stroke-miterlimit:10;" d="M431.344,304.618
				c0,0-2.307-0.143-3.641,1.147s-1.334,1.29-1.334,1.29"/>
		</g>
	</g>
</g>
<g id="Hand_4">
	<g>
		<path style="fill:#92E3A9;stroke:#263238;stroke-linecap:round;stroke-linejoin:round;stroke-miterlimit:10;" d="M400.297,96.81
			l7.116,92.974c-17.217-0.184-35.109-0.523-37.654,1.854c-4.64,4.334,3.802,10.653,3.383,18.143
			c-0.428,7.49-7.615,11.027-16.318,7.714c-8.712-3.312-5.053-14.036-4.098-21.066c0.859-6.414-12.041-3.925-36.448-2.128
			c-1.903-9.913-3.787-18.407-4.505-19.604c-1.712-2.855-3.38-11.678,0.801-15.476c4.188-3.808,12.592,2.014,16.924,0.198
			c4.34-1.825,5.138-4.372,4.992-12.82c-0.154-8.438-8.631-8.791-13.308-4.946c-4.678,3.836-12.551,4.94-13.46-6.928
			c-0.661-8.64,0.313-23.478,0.899-30.899L400.297,96.81z"/>
		<g>
			<path style="fill:#FFFFFF;stroke:#263238;stroke-linecap:round;stroke-linejoin:round;stroke-miterlimit:10;" d="M495.821-0.122
				c-19.467,18.15-44.947,41.877-47.316,43.937c-3.878,3.371-30.612,4.738-32.412,4.836c-1.8,0.098-9.572-1.735-9.572-1.735
				s-8.106,1.976-9.271,2.13c-1.165,0.154-19.289,5.475-21.459,5.413c-2.17-0.062-6.67,0.183-6.306,1.878
				c0.363,1.695,0.308,2.33,2.261,3.397c1.954,1.067,6.823,0.982,6.823,0.982s-12.256,6.987-15.117,7.504
				c-2.86,0.517-8.839,0.121-8.483,3.351c0.357,3.23,6.071,3.731,8.561,3.054c2.49-0.677,18.975-6.27,18.975-6.27
				s-11.042,7.733-14.753,9.199c-3.711,1.466-9.697,2.605-10.652,3.289c-0.956,0.684-2.795,9.991,7.913,6.068
				c10.708-3.924,21.855-11.392,21.855-11.392s-5.105,5.694-5.377,7.334c-0.222,1.34-2.219,10.881-3.506,15.855l9.885-0.79
				c2.248-4.063,4.293-8.773,4.659-9.619c0.481-1.109,12.004-9.952,12.004-9.952l5.839-3.839c0,0,5.953,6.536,5.786,8.44
				c-0.167,1.905-1.882,6.872-3.639,9.405c-1.758,2.533-5.112,7.229-9.353,8.905s-9.255,10.705-9.052,12.77
				c0.203,2.065,3.986,8.538,7.124,4.847c3.139-3.691,23.861-22.604,31.814-25.745c7.953-3.142,21.066-12.612,25.272-18.258
				c4.205-5.645,8.028-8.381,8.028-8.381l33.633-17.048V-0.122H495.821z"/>
			<path style="fill:#FFFFFF;stroke:#263238;stroke-linecap:round;stroke-linejoin:round;stroke-miterlimit:10;" d="M386.867,75.519
				c0,0,8.496-6.421,14.668-14.069"/>
			<path style="fill:#FFFFFF;stroke:#263238;stroke-linecap:round;stroke-linejoin:round;stroke-miterlimit:10;" d="M382.505,68.355
				c0,0,10.296-6.519,14.927-12.639"/>
			<path style="fill:#FFFFFF;stroke:#263238;stroke-linecap:round;stroke-linejoin:round;stroke-miterlimit:10;" d="M378.568,60.717
				c0,0,13.248-3.701,18.828-8.97"/>
		</g>
	</g>
</g>
<g id="Hand_3">
	<g>
		<path style="fill:#FFFFFF;stroke:#263238;stroke-linecap:round;stroke-linejoin:round;stroke-miterlimit:10;" d="M289.167,117.301
			c-0.72-3.241-2.521-5.762-2.521-5.762s1.801,0.72,0.36-3.602c-1.441-4.322-14.046-20.168-14.046-20.168s2.521-18.008,0.72-25.211
			c-1.801-7.203-5.042-11.525-5.042-11.525l1.012-50.491h-33.651c0.058,17.809,10.883,41.382,2.387,68.138
			c-1.667,5.251-5.762,19.808-3.962,25.211c1.801,5.402,13.326,27.372,15.847,29.172c2.521,1.801,25.571,12.245,29.533,11.885
			c3.962-0.36,3.241-4.322,2.881-5.762c-0.36-1.441-0.36-1.441-0.36-1.441s5.762,1.441,6.123-1.441
			c0.36-2.881-2.161-5.042-2.161-5.042S289.887,120.542,289.167,117.301z"/>
		<path style="fill:#263238;stroke:#263238;stroke-linecap:round;stroke-linejoin:round;stroke-miterlimit:10;" d="M322.097,148.329
			c-0.499,8.434-1.489,10.912-5.956,12.401c-4.458,1.48-12.393-4.966-16.859-1.489c-4.458,3.468-3.468,12.392-1.979,15.37
			c0.624,1.248,1.855,9.86,2.996,19.89c-2.38,0-4.868-0.018-7.462-0.062c-29.251-0.49-24.295-3.958-28.752,2.487
			c-4.467,6.446,5.947,16.85-0.499,22.306c-6.446,5.456-18.838,1.988-19.837-3.967c-0.99-5.947,4.966-9.914,4.467-16.36
			c-0.499-6.446-13.881-5.947-26.283-4.467c-4.173,0.499-9.584,0.33-15.406-0.071c1.034-9.192,2.095-17.563,2.514-20.746
			c0.99-7.444,1.988-13.89-1.489-16.859c-3.468-2.978-15.861,5.447-20.327,3.468c-4.458-1.988-5.456-17.358,0.99-22.806
			c6.446-5.456,13.391,1.979,16.369,1.48c2.969-0.49,4.458,0,4.957-7.436c0.383-5.795-1.944-21.237-2.978-27.763h93.006
			c-1.15,7.355-3.254,22.075-3.254,30.741c0,11.902,7.935,11.403,12.892,7.935C314.162,138.905,322.587,139.903,322.097,148.329z"/>
		<path style="fill:#FFFFFF;stroke:#263238;stroke-linecap:round;stroke-linejoin:round;stroke-miterlimit:10;" d="M249.91,85.247
			c0,0,6.123,23.05,6.843,24.851c0.72,1.801,3.962,7.203,5.762,10.444c1.801,3.241,7.563-0.36,8.284-5.042
			s-6.483-16.207-6.483-16.207l-1.08-8.644c0,0,6.843-8.283,6.843-15.847s-7.203-15.847-7.203-15.847"/>
	</g>
</g>
<g id="Hand_2">
	<g>
		<path style="fill:#A3A3A3;stroke:#263238;stroke-linecap:round;stroke-linejoin:round;stroke-miterlimit:10;" d="M70.028,97.12
			c0,0,15.65,0.295,18.509,0.295c2.859,0,26.954-10.618,31.038-10.21s29.813,14.702,31.446,16.336
			c1.634,1.634,13.885,20.42,12.66,23.278c-1.225,2.859-4.901,3.675-4.901,3.675l-2.859-1.225c0,0-1.633,2.042-4.492,2.45
			c-2.859,0.408-6.126-1.225-6.126-1.225s-2.859,1.634-5.309,1.634c-2.45,0-5.309-2.859-5.309-2.859h-5.717
			c0,0,2.859,3.267,2.45,4.492c-0.408,1.225-2.45,2.45-5.309,1.225c-2.859-1.225-5.717-4.901-5.717-4.901l-12.66-6.126
			c0,0-7.76,2.859-14.702,3.267c-6.943,0.408-17.969-3.267-17.969-3.267l-15.404-5.337L70.028,97.12z"/>
		<path style="fill:#92E3A9;stroke:#263238;stroke-linecap:round;stroke-linejoin:round;stroke-miterlimit:10;" d="M195.095,178.518
			c-0.419,3.183-1.48,11.554-2.514,20.746c-11.447-0.767-24.473-2.398-32.693-1.409c-12.393,1.48-4.458,11.403-5.947,18.838
			c-1.489,7.435-6.446,11.902-14.871,7.935c-8.434-3.967-4.966-10.912-0.499-18.847c4.467-7.926-3.468-6.936-13.391-6.446
			c-6.526,0.33-16.066,1.088-21.816,1.569v-92.302h89.253c1.034,6.526,3.361,21.968,2.978,27.763
			c-0.499,7.436-1.988,6.945-4.957,7.436c-2.978,0.499-9.923-6.936-16.369-1.48c-6.446,5.447-5.447,20.818-0.99,22.806
			c4.467,1.979,16.859-6.446,20.327-3.468C197.083,164.628,196.085,171.073,195.095,178.518z"/>
		<path style="fill:#A3A3A3;stroke:#263238;stroke-linecap:round;stroke-linejoin:round;stroke-miterlimit:10;" d="M117.532,99.457
			c0,0,8.985,4.084,12.66,5.717c3.675,1.633,10.21,4.901,10.21,4.901s8.985,6.126,10.21,6.534c1.225,0.408,1.225,3.675-4.084,4.901
			c-5.309,1.225-14.294-5.309-15.927-5.717c-1.634-0.408-12.252,2.45-13.885,2.45c-1.634,0-11.435,3.676-18.378,3.267
			c-6.943-0.408-11.027-4.084-12.66-6.943"/>
		<polygon style="fill:#FFFFFF;stroke:#263238;stroke-linecap:round;stroke-linejoin:round;stroke-miterlimit:10;" points="
			77.441,87.953 57.826,125.415 45.247,120.693 67.709,83.121 		"/>
		<polygon style="fill:#92E3A9;stroke:#263238;stroke-linecap:round;stroke-linejoin:round;stroke-miterlimit:10;" points="
			-0.033,40.01 -0.033,104.993 45.88,127.899 69.751,81.488 		"/>
	</g>
</g>
<g id="Hand_1">
	<g>
		<path style="fill:#FFFFFF;stroke:#263238;stroke-linecap:round;stroke-linejoin:round;stroke-miterlimit:10;" d="M105.569,316.334
			c-0.36-3.208-1.831-5.729-5.007-7.872c-3.177-2.142-26.307-17.849-27.103-18.259c-0.796-0.41-5.216,0.836-5.216,0.836
			s-24.898,13.605-36.665,17.863c-11.767,4.258-20.81,14.958-21.92,15.644c-0.283,0.175-1.422,1.153-9.425,7.592v47.659
			l30.594-34.764c0,0,9.811,0.022,12.73-1.243c2.919-1.265,9.693-6.587,11.22-8.57c1.527-1.983,3.939-2.754,6.858-4.019
			c2.919-1.265,4.735-2.344,4.735-2.344s7.162,3.694,8.054,4.406c0.892,0.712-0.55,3.998-0.55,3.998s-6.332,2.023-8.045,2.903
			c-1.713,0.88-4.138,2.651-3.958,4.255c0.18,1.604,3.671,2.649,3.671,2.649s-0.647,3.696,1.131,5.621
			c1.778,1.924,2.4,0.23,5.826-1.529c3.426-1.759,20.652-10.254,20.652-10.254s1.56,3.323,4.159,3.656
			c2.599,0.333,2.661-4.672,3.936-10.563C102.519,328.109,105.93,319.542,105.569,316.334z"/>
		<path style="fill:none;stroke:#263238;stroke-linecap:round;stroke-linejoin:round;stroke-miterlimit:10;" d="M72.308,302.203
			c0,0,1.535,5.325-0.42,9.606"/>
		<path style="fill:none;stroke:#263238;stroke-linecap:round;stroke-linejoin:round;stroke-miterlimit:10;" d="M81.702,303.522
			c0,0,1.849,4.228-0.087,7.007"/>
		<path style="fill:none;stroke:#263238;stroke-linecap:round;stroke-linejoin:round;stroke-miterlimit:10;" d="M93.33,326.393
			l1.085,1.315c0,0-3.488,6.764-1.266,13.199"/>
		<path style="fill:none;stroke:#263238;stroke-linecap:round;stroke-linejoin:round;stroke-miterlimit:10;" d="M87.613,327.222
			l-0.967,5.294c0,0-5.779,5.835-7.287,6.316c-1.508,0.482-12.152,3.052-13.819,8.237"/>
		<path style="fill:none;stroke:#263238;stroke-linecap:round;stroke-linejoin:round;stroke-miterlimit:10;" d="M73.872,337.263
			l3.233-2.362l2.758-4.371c0,0-3.889-1.25-3.954-4.054"/>
		<path style="fill:none;stroke:#263238;stroke-linecap:round;stroke-linejoin:round;stroke-miterlimit:10;" d="M79.358,338.833
			c0,0-4.234,2.35-3.174,5.667c1.06,3.317,3.858,3.752,3.858,3.752"/>
		<path style="fill:#263238;stroke:#263238;stroke-linecap:round;stroke-linejoin:round;stroke-miterlimit:10;" d="M192.083,280.593
			c-6.735,1.963-10.868-5.966-15.637-0.772c-2.573,2.791,0.239,19.807,3.464,36.061c-10.776,0.091-21.777,0.124-25.828,0.199
			c-7.996,0.135-9.606,6.381-7.434,14.581c2.174,8.209-0.347,15.081-12.269,15.786c-11.915,0.695-8.277-12.343-8.482-20.834
			c-0.213-8.48-9.12-4.198-21.462,0.565c-5.948,2.301-10.715,3.036-14.073,3.174l-13.138-91.866
			c5.624-1.291,14.961-3.391,21.374-4.642c9.754-1.89,17.468-3.993,14.169,4.485c-3.298,8.487-5.748,15.853,3.162,18.587
			c8.902,2.735,13.176-2.389,13.598-9.96c0.421-7.571-8.838-16.271,3.22-19.49c7.997-2.143,21.122-2.372,32.563-3.234
			c0.36,12.341,0.98,26.122,1.945,30.856c1.687,8.27,6.521,10.586,13.46,6.586c6.948-4.002,13.674-5.963,16.553,3.649
			C200.145,273.929,198.816,278.622,192.083,280.593z"/>
		<path style="fill:#FFFFFF;stroke:#263238;stroke-linecap:round;stroke-linejoin:round;stroke-miterlimit:10;" d="M61.492,310.477
			c0,0,3.767,2.95,10.395,1.331c6.628-1.619,13.025-0.839,19.237-1.161c6.211-0.323,14.502,1.182,14.446,5.687
			c-0.056,4.504-4.797,7.348-10.719,8.576c-5.922,1.228-22.323-0.179-25.858,2.28c-3.535,2.459-9.886,5.983-14.216,8.032
			c-4.331,2.048-9.74,2.281-16.849,2.392"/>
	</g>
</g>
</svg>
