<svg version="1.2" xmlns="http://www.w3.org/2000/svg" viewBox="0 0 100 100" width="100" height="100">
	<defs>
		<linearGradient id="g26" x2="1" gradientUnits="userSpaceOnUse" gradientTransform="matrix(73.912,-15.489,15.337,73.187,9.112,57.176)">
			<stop offset="0" stop-color="#85e169"/>
			<stop offset=".997" stop-color="#6bbd00"/>
		</linearGradient>
		<linearGradient id="g27" x2="1" gradientUnits="userSpaceOnUse" gradientTransform="matrix(54.552,80.995,-86.424,58.208,23.664,13.495)">
			<stop offset="0" stop-color="#85e169"/>
			<stop offset=".997" stop-color="#6bbd00"/>
		</linearGradient>
		<linearGradient id="g28" x2="1" gradientUnits="userSpaceOnUse" gradientTransform="matrix(54.552,80.995,-82.535,55.589,54.718,-12.528)">
			<stop offset="0" stop-color="#85e169"/>
			<stop offset=".997" stop-color="#6bbd00"/>
		</linearGradient>
		<linearGradient id="g29" x2="1" gradientUnits="userSpaceOnUse" gradientTransform="matrix(54.552,80.995,-72.579,48.883,28.433,10.284)">
			<stop offset="0" stop-color="#85e169"/>
			<stop offset=".997" stop-color="#6bbd00"/>
		</linearGradient>
		<linearGradient id="g30" x2="1" gradientUnits="userSpaceOnUse" gradientTransform="matrix(54.552,80.995,-76.948,51.826,-0.398,29.701)">
			<stop offset="0" stop-color="#85e169"/>
			<stop offset=".997" stop-color="#6bbd00"/>
		</linearGradient>
	</defs>
	<style>
		.s6 { fill: #ffffff } 
		.s27 { opacity: .5;fill: url(#g26) } 
		.s28 { opacity: .9;fill: url(#g27) } 
		.s29 { opacity: .9;fill: url(#g28) } 
		.s30 { opacity: .9;fill: url(#g29) } 
		.s31 { opacity: .9;fill: url(#g30) } 		
	</style>
	
	<g>
		<path class="s27" d="m11.8 56.4c2.6-7.1 9.2-13.8 14.3-18.3 5.9-5.2 12.2-10 17-16.2 3.4-4.3 6.3-9.4 11.1-11.9 4.4-2.3 10.1-1.9 14.2 1 4.6 3.2 6.8 8.8 7.8 14.3 1 5.5 1.1 11.2 2.7 16.5 1.7 5.3 4.7 10 6.8 15.1 2.1 5.1 3.1 11.1 0.6 16-3.9 7.7-14.5 10-22.3 10.3-11.3 0.6-22.7 0-33.9-2.7-5.6-1.5-11.4-3.6-15.4-7.9-4.7-5.1-5-10.8-2.9-16.2z"/>		
		<path class="s28" d="m75.9 28.9c-9.4-5.5-20.6-17.1-31.5-17.8-8.8-0.5-17.6 4.8-21.6 12.5-6.4 12.4-6.3 27.1-3.7 40.5 1 5 1.5 10.3 3 14.9 1.6 4.7 4.2 8.7 9.6 11.1 17 7.9 24.4-7 34.9-16.7 8-7.3 22.3-7.8 23.9-20.5 1.5-11.7-5.3-18.4-14.6-24z"/>
	</g>
		
	<g>
		<path class="s29" d="m79.1 18.1c-3.9-1.4-7.5 1.8-4.7 5.6 3.9 5.2 10.6-3.5 4.7-5.6z"/>
		<path class="s30" d="m70.2 73.7c-1.9 2.4 1.6 6.2 4.1 4.2 3.2-2.6-2-6.8-4.1-4.2z"/>
		<path class="s31" d="m14 47.3c-2.7-1.2-4.2 3.3-2.3 4.7 0.4 0.3 0.9 0.3 1.4 0.4 0.6 0 1.2-0.1 1.7-0.3 2-1.1 0.9-4.1-0.8-4.8z"/>	
	</g>
		
	<g>
		<path fill-rule="evenodd" class="s6" d="m54.2 68c-4.1 0.8-8.1 0.2-11.9-1.8-0.2-0.2-0.4-0.2-0.7-0.1q-4.4 1.2-8.8 2.5c-0.5 0.1-0.5 0.1-0.3-0.4 0.7-3 1.5-6.1 2.4-9.1 0-0.3 0-0.6-0.2-0.9-5.9-11.5 0.4-25.8 12.5-28.4 1.1-0.3 2.3-0.4 3.4-0.4 8.7 0.1 15.8 6.2 17.8 15 2.4 10.6-4.2 21.5-14.2 23.6zm11.2-22.6c-1.4-6.6-5.4-10.9-11.6-12.3-6.2-1.5-11.5 0.8-15.4 6.3-3.6 5.3-3.8 12.4-0.5 18.2 0.3 0.3 0.3 0.7 0.2 1.1-0.5 1.7-0.9 3.3-1.3 4.9-0.1 0.4-0.1 0.5 0.3 0.4 1.6-0.5 3.2-0.9 4.9-1.4 0.3-0.1 0.5 0 0.9 0.2 2.4 1.5 5 2.2 8.2 2.2 0.4 0.1 1.2 0 2.1-0.2 8.5-1.4 14.2-10.4 12.2-19.4z"/>
		<path class="s6" d="m55.4 58.2c-0.6 0-1.3-0.1-1.9-0.3-4.2-1.3-7.3-4-9.8-7.8-1-1.3-1.9-2.8-2.1-4.5-0.4-2.1 0.2-3.9 1.6-5.3 0.5-0.4 1.9-0.7 2.4-0.4 0.2 0.2 0.3 0.4 0.4 0.6 0.5 1.4 1.1 2.6 1.6 4q0.1 0.4-0.1 0.8c-0.2 0.6-0.7 1.1-1.1 1.6-0.3 0.3-0.3 0.7-0.1 1.1 1.5 2.6 3.5 4.6 6.2 5.7q0.6 0.3 1-0.3c0.4-0.5 0.9-1.1 1.3-1.8 0.3-0.3 0.6-0.4 1-0.2q1.4 0.6 2.7 1.3c0.2 0.1 0.4 0.2 0.6 0.3 0.9 0.4 0.9 0.5 0.8 1.6-0.2 2-1.6 3-3.3 3.5-0.4 0.1-0.8 0.1-1.2 0.1z"/>
	</g>
</svg>