<svg version="1.2" xmlns="http://www.w3.org/2000/svg" viewBox="0 0 431 82" width="431" height="82">
    <title>logo_notext-svg</title>
    <style>
        .s0 {
            fill: #f3b905
        }
    </style>
    <path id="path1-1" fill-rule="evenodd" class="s0"
        d="m245.2 78.8l-0.3-0.5-0.3-0.8-0.2-0.3v-0.5l0.1-0.2 0.3-0.2 1-0.3 0.5-0.2 1.8-0.2h0.9l2.3-0.1h1.2l2.7 0.1 1.3 0.1 2.8 0.1 1.3 0.1 2.5 0.3 1.2 0.1 2.1 0.3 0.9 0.2 1.3 0.3 0.3 0.1 0.4 0.2 0.2 0.2v0.2l-0.3 0.6-0.6 1.2-0.2 0.4-0.5 0.5-0.2 0.1-0.5 0.2h-0.3l-0.7 0.2h-0.4l-1 0.1h-0.5l-1.4 0.1h-0.7-1.8-3.3-10.7zm-210.7 0.3l-0.7-0.2-2-0.2-1-0.2-2.3-0.2-1.2-0.1-2.4-0.2-3.4-0.1h-0.8-1.5-0.7-1.1-0.5l-0.9-0.1h-0.3l-0.6-0.1-0.5-0.2-0.5-0.3-0.2-0.9v-0.6l0.6-0.8 1.5-0.8h0.2l0.5-0.1h0.3l0.8-0.1h0.8 2.2l1.1-0.1 2.7 0.1h1.4l2.9 0.1h1.4l2.8 0.2h1.3l2.4 0.2 1.1 0.1 1.8 0.2h0.4l0.5 0.1 0.6 0.1 0.4 0.2 0.5 0.8 0.1 0.3v0.6l-0.1 1.1-0.1 0.7-0.2 0.9-0.1 0.1-0.2 0.3-0.1 0.1-0.4 0.1h-0.3-0.6-0.4l-0.9-0.2-0.5-0.1-1.3-0.2-0.7-0.2m364.3-0.1v-0.4l-0.4-0.9-0.9-1.3-0.4-0.4-0.4-0.7-0.1-0.7 0.2-0.2 0.7-0.2 0.4-0.1 1.2-0.2h0.7l1.6-0.1 0.8-0.1h1.8l1.8-0.1 3.8 0.2h0.9l1.7 0.1 2.3 0.3 1.1 0.3 1.7 0.3 0.7 0.2 0.9 0.3 0.4 0.2 0.4 0.4v0.7l-0.1 0.3-0.2 0.4-0.2 0.2-0.6 0.2-0.4 0.1h-1l-2.2-0.1h-1l-2.6 0.1h-1.3l-2.8 0.4-1.4 0.1-2.6 0.5-0.6 0.2-1.1 0.2-1.3 0.5-0.5 0.2-0.6-0.1-0.3-0.1m-343.5-4.2l-0.7-0.3-1.7-0.7-0.9-0.3-1.8-0.7-1.9-0.6-4.3-1.1-2.1-0.6-4.4-0.8-6.3-0.8h-0.9l-1.6-0.2-0.7-0.1-1.2-0.2h-0.6l-0.9-0.3-0.4-0.1-0.6-0.2-0.2-0.2-0.3-0.3-0.1-0.1v-0.3l0.1-0.2 0.3-0.4 0.8-0.7 0.1-0.1 0.5-0.2 0.3-0.1 0.6-0.1 0.8-0.1 1.9-0.1h1.1l2.5 0.1 1.3 0.1 2.9 0.3 2.9 0.3 6.3 1 1.5 0.3 3 0.7 4.1 1.1 0.6 0.2 0.9 0.3 0.5 0.1 0.7 0.3 0.7 0.2 0.8 0.5 0.3 0.2 0.3 0.5-0.1 0.9-0.1 0.4v1.2l0.5 1.6 0.3 0.5 0.2 0.7v0.1l-0.1 0.1v0.1h-0.3-0.1l-0.5-0.1-0.3-0.1-0.7-0.3-0.3-0.1-1-0.5-0.5-0.2m174.6-0.4v-0.1-0.3l-0.1-0.2-0.3-0.6-1.4-1.8-2.1-2.2 3.1-1 1.1-0.3 2.6-0.6 1.4-0.2 3-0.5 1.5-0.2 3.3-0.3 1.7-0.2 3.4-0.2 3.4-0.2 6.8 0.1 1.7 0.1 3.1 0.2 4.3 0.5 1 0.2 1.7 0.3 0.8 0.1 1.2 0.2 0.6 0.2 0.9 0.2 0.4 0.1 0.6 0.3 0.2 0.1 0.4 0.3 0.2 0.1 0.1 0.4v1.5 0.6l0.1 1.3 0.4 1.5 0.2 0.2 0.1 0.3 0.1 0.1-0.1 0.2h-0.1-0.3l-0.7-0.3-0.2-0.1-1-0.2-0.5-0.2-1.5-0.3-0.8-0.2-1.8-0.4-2.8-0.5-1.1-0.2-2.3-0.3-1.2-0.1-2.5-0.2-2.6-0.1-5.4 0.1-2.7 0.1-5.3 0.6-1.3 0.2-2.4 0.4-3.5 0.7-0.8 0.2-1.4 0.4-0.7 0.1-1.1 0.2-0.5 0.1h-0.6-0.3m154.3-2.1l-0.1-0.6v-1-0.4l0.1-0.6 0.2-0.2 0.4-0.4 1.1-0.6 0.6-0.2 1.2-0.4 0.7-0.2 1.5-0.3 1.5-0.3 3.3-0.4 1.7-0.2 3.4-0.1 4.7 0.3 1 0.1 1.7 0.3 0.7 0.2 1.1 0.3 0.5 0.1 0.6 0.3 0.2 0.1 0.1 0.3-0.1 0.1-0.5 0.3-0.3 0.1-1 0.3-0.5 0.1-1.6 0.2-2.9 0.2-1.6 0.1-3.6 0.6-1.8 0.3-3.5 0.8-1.7 0.5-2.9 1-0.6 0.3-1.1 0.5-1.3 0.8-0.1 0.1h-0.3-0.1l-0.2-0.3-0.1-0.1-0.2-0.7-0.1-0.3m-170.4-5.3l0.1-0.5v-0.9l-0.4-0.9-0.2-0.1-0.4-0.4-0.2-0.6v-0.1l0.2-0.1 0.1-0.1 0.4-0.2 0.4-0.1 1.4-0.5 0.8-0.2 2-0.6 1-0.3 2.4-0.5 2.5-0.6 5.4-1.2 1.4-0.3 2.6-0.5 3.7-0.6h0.5l1.1-0.2h0.6l1.3-0.1 1.4-0.1 3.2-0.2 1.7-0.1 3.7-0.1h1.9l3.9-0.1h2l3.7 0.1h1.9l3.4 0.1h1.7l2.8 0.2 0.6 0.1 1.2 0.1 1.4 0.2 4.1 0.6 0.3 3.6 0.2 3.6-2.7-0.5-2.7-0.6-4.7-0.8-2.3-0.4-4.2-0.5-2-0.2-4-0.3-5.8-0.2h-1.4l-2.5 0.1h-1.2l-2.2 0.1-2.3 0.1-4 0.5-2.1 0.3-4 0.9-6.5 1.8-1.9 0.6-3.7 1-0.8 0.2-1.4 0.4-1.5 0.4-0.5 0.1-0.8 0.1h-0.3l-0.3-0.1-0.2-0.1v-0.4-0.2m-149.3-1.3l-0.6-0.3-1.6-0.6-0.8-0.3-1.9-0.6-1.1-0.3-2.2-0.6-1.2-0.3-2.4-0.6-2.5-0.6-5-1-1.2-0.2-2.4-0.5-3.2-0.4-0.8-0.1-1.2-0.2-0.7-0.1-1-0.1-0.5-0.1-0.8-0.2-0.3-0.1-0.6-0.1-0.5-0.2-0.4-0.3v-0.5l0.3-0.3 0.2-0.7-0.1-0.9-0.1-0.2v-0.2l0.1-0.1 0.3-0.2 0.2-0.1 0.6-0.1h0.3l0.8-0.1h0.9l2.3 0.1 1.3 0.1 2.9 0.3 1.5 0.2 3.2 0.5 1.7 0.3 3.3 0.7 1.7 0.3 3.3 0.8 4.6 1.3 0.8 0.3 1.4 0.4 0.6 0.2 1 0.3 0.4 0.2 0.7 0.3 0.3 0.2 0.5 0.3 0.4 0.3 0.3 0.8 0.2 1.7v0.8 1.2 0.3 0.3 0.2h-0.1l-0.2-0.1h-0.2l-0.4-0.2-0.6-0.3m127.9-2l-0.1-0.9-0.1-1.4-0.1-0.7-0.1-1.1-0.1-0.6-0.2-0.9-0.3-1-0.2-0.4 0.3-0.7 1.2-0.6h0.3l1-0.3 0.7-0.1 1.6-0.5 0.9-0.2 2-0.5 3.2-0.8 2.4-0.7 5.2-1.2 2.6-0.6 5.4-0.9 2.8-0.5 5.6-0.8 2.8-0.4 5.7-0.6 5.7-0.5 11.4-0.5h2.8 5.6l8.2 0.4h1l1.8 0.1 0.9 0.1 1.5 0.1 1.5 0.1 2.4 0.2 1.1 0.1 1.6 0.2 0.7 0.1 1 0.2 0.5 0.2 0.5 0.3 0.2 0.2 0.1 0.5v0.3l-0.1 0.6-0.4 1.2-0.2 0.7-0.4 1-0.1 0.4-0.5 0.4-0.2 0.1-0.8 0.1-1.6-0.2h-0.2l-0.6-0.1-0.4-0.1-0.8-0.1-0.9-0.1-2.4-0.2-1.2-0.2-2.8-0.2-4.4-0.5-2.8-0.2-5.5-0.2-2.8-0.1-5.6 0.2-2.8 0.1-5.6 0.5-2.9 0.3-5.7 0.9-2.9 0.5-5.7 1.2-2.9 0.6-5.8 1.6-3 0.9-5.8 1.9-8.8 3.4-4.3 1.7zm163.3 0.1v-0.3l-0.1-0.3-0.1-0.2-0.4-0.3-0.2-0.2-0.6-0.2-1.1-0.2-2.5-0.2 3.8-5 1.2-1.4 2.1-3.2 1-1.5 1.8-3.3 0.8-1.6 1.4-3.1 1.5-4.5 1-4.1 1.9 1.5 0.5 0.4 0.5 0.6 0.3 0.3 0.2 0.7 0.1 0.3-0.1 1.1-0.5 2.4-0.1 0.6-0.5 1.5-0.2 0.8-0.7 1.8-2.2 5.2-0.9 1.7-2 3.4-0.5 0.8-0.9 1.5-0.5 0.8-0.9 1.3-0.4 0.6-0.8 1-0.4 0.5-0.6 0.6-0.3 0.3-0.3 0.2h-0.2m28-3.3v-0.8l0.3-1 0.1-0.2 0.4-0.4 0.3-0.2 0.6-0.2 0.4-0.2 1-0.1 0.5-0.1 1.3-0.1 0.7-0.1h1.7 3.1 1.4 2l0.9 0.1 1.4 0.1 0.6 0.2 0.9 0.3 1 0.7 0.3 0.3 0.4 0.5v0.1l-0.1 0.2v0.1l-0.3 0.1-0.2 0.1-0.5 0.1h-0.3l-0.8 0.1-0.4 0.1-1.1 0.1-2.1 0.1-1.8 0.2-3.4 0.4-0.8 0.1-1.3 0.2-1.3 0.2-0.6 0.2-1.1 0.3-0.5 0.2-0.7 0.2h-0.4l-0.5 0.1-0.3 0.1-0.3-0.1h-0.3l-0.2-0.6v-0.3m-318.7-5.4l-0.7-0.3-2-0.5-1.1-0.3-2.5-0.6-8.2-1.6-1.3-0.3-2.5-0.4-1.2-0.2-2.2-0.4-1-0.2-1.6-0.3-0.3-0.1-0.6-0.1-0.5-0.1-0.3-0.1-0.5-0.1-0.2-0.1-0.3-0.3-0.1-0.2-0.1-0.4 0.1-0.8 0.1-0.3 0.3-0.5 0.2-0.2 0.5-0.3 0.3-0.1 1-0.2h1.9 0.9l2.3 0.1 1.3 0.2 2.8 0.3 1.5 0.2 3.2 0.5 1.6 0.2 3.2 0.6 1.6 0.3 3 0.6 1.5 0.3 2.5 0.7 1.3 0.3 1.9 0.6 0.4 0.1 0.7 0.3 0.8 0.3 0.1 0.1 0.3 0.4 0.1 0.2 0.1 0.5 0.1 0.5-0.2 1.2-0.2 0.6-0.6 0.9-0.1 0.2-0.4 0.3-0.6 0.1h-0.2l-0.7-0.2h-0.5l-1-0.3-1.2-0.3m53.5-2.5l-0.4-0.5-1-0.6-1.3-0.2-0.2 0.1-0.4 0.2h-0.2-0.2v-0.1-0.2l0.1-0.1 0.4-0.4 0.2-0.3 0.6-0.6 0.4-0.3 0.9-0.9 0.6-0.5 1.3-1.2 2.3-2 1-0.9 2.2-1.8 1.1-0.9 2.3-1.8 2.4-1.8 5.2-3.7 2.6-1.8 5.3-3.3 7.5-4.4 1.1-0.6 1.6-0.8 0.8-0.4 1-0.4 0.5-0.2h0.5 0.2l-0.1 0.3-0.1 0.2-0.6 0.6-0.4 0.3-1.1 1-0.7 0.5-1.7 1.2-3.1 2.2-2.3 1.5-4.7 3.6-2.4 1.8-4.6 3.9-1.1 0.9-2.1 1.9-1 0.9-1.8 1.8-1 0.9-1.5 1.7-2.1 2.3-0.5 0.6-0.9 1.2-0.5 0.5-0.8 0.9-0.4 0.4-0.6 0.6-0.4 0.4h-0.1l-0.7-0.5-0.3-0.3m262.5-2.8v-0.6l0.1-0.8 0.1-0.2 0.2-0.2 0.1-0.1 0.4-0.1h0.2 0.7 0.3l0.9 0.1 0.5 0.1 1.3 0.2 2.3 0.4 0.8 0.1 1.2 0.3 0.6 0.1 1 0.3 0.4 0.1 0.6 0.3 0.2 0.1 0.3 0.3 0.1 0.1-0.2 0.2-0.1 0.1-0.4 0.1-0.3 0.1-0.9 0.1-1.7 0.1h-0.9l-2.4 0.1h-0.5l-1.1 0.2-1.2 0.2-0.6 0.1-0.8 0.1h-0.4l-0.4-0.1-0.2-0.1-0.1-0.5-0.1-0.3m-196-2.2l-0.5-0.8-0.5-1.3-0.2-0.6 0.2-1 0.2-0.5 0.8-0.7 2-0.8 1.1-0.3 2.2-0.6 1.1-0.2 2.5-0.6 2.5-0.5 5.5-1 2.8-0.5 6-0.9 3-0.5 6.3-0.8 3.1-0.3 6.4-0.7 3.1-0.3 6.2-0.5 3.1-0.2 5.8-0.3 8.2-0.1h1.3 3.1l1.6 0.1 3.5 0.1 3.6 0.2 7.4 0.4 1.7 0.2 3.2 0.2 1.6 0.2 2.6 0.2 0.5 0.1 1.1 0.1 0.5 0.1 0.7 0.1h0.4l0.5 0.2 0.4 0.1 0.1 0.1v0.3 0.3 0.5l-0.5 2.2-0.2 0.5-0.2 0.6-0.1 0.4-0.3 0.4-0.2 0.3-0.5 0.3-0.3 0.1-0.9 0.1-0.5 0.1h-1.5-0.7l-2.1-0.2h-0.6l-1.3-0.1-0.7-0.1-1.5-0.1-0.7-0.1-1.8-0.2-2.9-0.3-2.1-0.2-4.6-0.3-2.3-0.1-5-0.2h-2.6-5.2-2.7l-5.3 0.2h-2.7l-5.3 0.3-2.6 0.2-5 0.4-2.4 0.2-4.6 0.5-6.3 0.9-2.7 0.5-5.5 1.1-2.7 0.5-5.1 1.1-1.2 0.3-2.2 0.5-1.1 0.2-1.9 0.5-0.9 0.3-1.5 0.4-1.6 0.5-0.3 0.1-0.8-0.3-0.4-0.2m-111.3-2.1l-0.8-0.3-1.8-0.5-1-0.2-2.4-0.6-1.2-0.3-2.6-0.6-1.4-0.3-2.8-0.6-2.8-0.5-5.3-1-1.2-0.2-2.2-0.3-2.8-0.4-0.8-0.1-1.4-0.2h-0.6l-1.1-0.2-0.5-0.1-0.7-0.1-0.4-0.2v-0.1l0.2-0.7 0.7-1.3 0.2-0.4 0.4-0.5 0.3-0.2 0.9-0.2 0.3-0.1h0.7 0.3 1 0.5l1.2 0.1 2.2 0.2h0.7l1.7 0.2 0.9 0.1 2.1 0.3 1 0.2 2.3 0.3 1.2 0.2 2.5 0.4 2.6 0.5 5.6 1.1 8.8 1.9h0.4l0.5 0.3 0.2 0.1 0.2 0.4 0.1 0.2 0.1 0.7-0.1 1.5-0.1 0.7-0.3 1-0.1 0.5-0.6 0.3h-0.2-0.5-0.3l-0.7-0.1-0.4-0.1-1-0.3-0.5-0.2m305.3-2.9l-0.4-0.1-0.6-0.5-0.2-0.3-0.2-0.6-0.1-0.3 0.2-0.5 0.9-0.4h0.1l0.5 0.2h0.3l0.6 0.3 2.4 1.1 2.9 1.6-2.5-0.1h-0.7l-1.5-0.1-0.7-0.1m-215.1-3.9l0.2-0.7 0.3-1.2 0.1-0.2 0.2-0.4 0.1-0.3 0.3-0.1h0.2l0.5-0.2h0.3l0.7-0.2 0.5-0.1 0.9-0.2 1-0.3 2.5-0.5 1.3-0.3 2.9-0.6 2.9-0.6 6-1.2 1.5-0.3 2.6-0.5 3.4-0.6 1-0.1 2.4-0.4 1.3-0.2 2.6-0.3 1.3-0.2 2.6-0.2 3.4-0.4h0.8l1.3-0.1h0.6l1-0.1h0.5 0.8 0.4 0.5l0.5 0.1 0.5 0.2 0.3 0.7v0.2l-0.2 0.4-0.2 0.2-0.4 0.3-0.3 0.1-0.8 0.3-1.6 0.3-2.3 0.4-4.5 0.7-2.3 0.3-4.2 0.8-2.1 0.4-4.1 0.7-1.9 0.4-3.8 0.7-1.9 0.4-3.4 0.8-1.7 0.4-3.2 0.7-1.5 0.4-2.9 0.8-3.8 1.1-3.9 1.2zm-87-1.6l-0.5-0.1-1.1-0.3-0.6-0.1-1.3-0.3-1.5-0.3-3.3-0.6-10.7-1.8-12.3-1.9 2.8-1.8 0.7-0.4 1.1-0.5 0.5-0.2 1.2-0.3 0.6-0.1h1.7 0.4l1.1 0.1 1.8 0.1 0.9 0.1 2.1 0.2 1 0.1 2.3 0.3 2.4 0.3 4.8 0.6 1.2 0.2 2.3 0.4 1.1 0.2 2 0.3 1 0.2 1.7 0.3 2 0.5 0.6 0.2 0.9 0.3 0.4 0.2 0.5 0.4 0.2 0.3 0.2 0.7 0.2 1.6 0.1 0.4v0.7 0.3 0.5 0.2l-0.3 0.3-0.1 0.1-0.4 0.1h-0.3-0.7l-0.4-0.1-1.2-0.2-0.6-0.1-1.5-0.4-0.9-0.2m232.9-2.5l-0.6-0.2-1.5-0.2-0.7-0.2-1.7-0.3-1.7-0.3-3.7-0.7-1.9-0.3-3.9-0.7-5.3-0.8-1.7-0.2-3-0.5-1.4-0.2-2.5-0.4-0.5-0.1-1-0.1-0.4-0.1-0.7-0.2h-0.3l-0.5-0.1-0.3-0.1v-0.1l0.2-0.6 0.7-1.3 0.2-0.4 0.5-0.6 0.3-0.2 0.9-0.2 0.2-0.1h0.7 0.3 0.9 0.5l1.1 0.1 2 0.1 1.3 0.1 2.7 0.3 1.4 0.1 3.1 0.3 3.1 0.3 6.5 0.7 1.6 0.2 3 0.4 1.5 0.1 2.7 0.4 1.4 0.2 2.2 0.3 2.8 0.4 0.6 0.1 1 0.2 0.5 0.1 0.7 0.1 0.3 0.1 0.6 0.2h0.2l0.3 0.2 0.3 0.2v0.3l-0.6 0.8-0.4 0.4-0.5 1.2-0.4 1.6v0.6l-0.1 0.6-0.1 0.1-0.2 0.2-0.2 0.1h-0.6-0.3l-1-0.2-0.5-0.1-1.5-0.2-0.8-0.2-2-0.4-1.1-0.2m-228.8-5.9l-1-0.2-2.5-0.5-1.3-0.2-3-0.4-1.5-0.2-3.2-0.4-4.4-0.5-1-0.1-1.8-0.2-0.8-0.1-1.6-0.1-1.5-0.2-2.4-0.2-1.1-0.2-1.6-0.2-0.8-0.1-1-0.2-0.5-0.1-0.5-0.2-0.3-0.1-0.1-0.2-0.1-0.1 0.2-0.3 0.4-0.5 0.2-0.3 0.7-0.4 0.3-0.1 0.5-0.1h0.4l0.8-0.1h0.4 1.2l0.6-0.1 1.4 0.1h0.8l1.9 0.1 3.4 0.1 2.9 0.1 6.2 0.5 1.5 0.1 3 0.3 1.5 0.2 2.8 0.3 1.3 0.2 2.5 0.3 1.2 0.2 1.9 0.3 1 0.1 1.3 0.4 1.3 0.4 0.3 0.2 0.4 0.6 0.1 0.3v0.7l-0.1 0.4-0.4 0.7-1 0.8-0.5 0.2-0.7 0.4-0.7 0.1-0.6-0.1-0.4-0.1-1.2-0.3-0.6-0.1-1.6-0.3-0.8-0.2m82.5-0.8l-0.2-0.6-0.1-1-0.1-0.3 0.3-0.5 0.2-0.3 0.8-0.2 2.2-0.4h0.5l1.4-0.2 0.7-0.1 1.7-0.1 1.6-0.2 3.9-0.3 2-0.2 4.3-0.3 2.2-0.1 4.3-0.2 2.1-0.2 4-0.1 0.9-0.1h1.8l0.8-0.1h1.6 0.7 1.3 0.6 0.9 0.5 0.6l0.4 0.1 0.2 0.2 0.1 0.2 0.1 0.1-0.1 0.2-0.1 0.1-0.4 0.2-0.2 0.1-0.8 0.2-0.5 0.1-1.2 0.2-0.7 0.1-1.9 0.2-1 0.2-2.5 0.3-4.5 0.5-1.6 0.2-3.7 0.5-1.8 0.2-3.7 0.5-1.8 0.2-3.3 0.5-0.8 0.2-1.4 0.2-1.8 0.3-1 0.2-1.7 0.3-0.7 0.1-1.2 0.2-0.6 0.1-0.9 0.1h-0.4l-0.6 0.1-0.5-0.1-0.5-0.3-0.2-0.2m150.1-3.4l-0.8-0.1-2.1-0.3-1-0.2-2.5-0.4-1.3-0.2-2.9-0.4-1.4-0.2-3-0.3-3.1-0.4-6-0.7-1.5-0.2-2.8-0.3-3.8-0.3-0.8-0.1-1.5-0.2-0.6-0.1-1.2-0.2-0.5-0.1-0.8-0.2-0.4-0.1-0.4-0.2-0.2-0.2-0.1-0.2 0.1-0.1 0.3-0.1 0.2-0.1 0.8-0.1 1.8-0.1h0.3 1l0.6 0.1h1.4 0.8l1.8 0.1h0.9l2.1 0.1 2.2 0.1 4.9 0.2 2.5 0.1 5.2 0.3 2.5 0.1 4.9 0.3h1.2l2.2 0.2h1.1l1.9 0.1 1 0.1 1.6 0.1h0.7l1.2 0.1h0.6l0.7 0.1 0.5 0.1v0.3l-0.1 0.1-0.2 0.5-1 1.7-1.5 2.4zm-236.1-5.3h-0.2l-0.8-0.1-0.4-0.1-1.1-0.1-1-0.1-2.8-0.2-1.4-0.1-3.1-0.3-4.8-0.3-1.8-0.1-3.2-0.2-1.5-0.1-2.3-0.3-0.5-0.1-0.9-0.1-0.5-0.1-0.7-0.1-0.3-0.1-0.4-0.2-0.5-0.2-0.1-0.2v-0.3-0.1l0.5-0.3 0.2-0.1 1-0.2 0.5-0.1 1.5-0.1 0.8-0.1 2-0.1h1.1l2.6-0.1h1.4 3.3 5.7 1.6l2.6 0.1h1.2l2 0.1h1l1.5 0.1 0.8 0.1 1.1 0.3 0.5 0.1 0.9 0.4 0.3 0.1 0.7 0.5 1.5 2.1 0.1 0.3 0.2 0.5v0.2l-0.1 0.2-0.1 0.1-0.5 0.1h-1.1-0.4l-0.9-0.1h-0.4l-1.2-0.1-1.1-0.2m88.3-2.3l0.2-0.5 0.3-0.8 0.1-0.4 0.4-0.6 0.2-0.3 0.7-0.4 0.3-0.2 1-0.2 0.5-0.1 1.4-0.1h0.8 2l1.1 0.1 2.7 0.1 4.9 0.3 1.9 0.2 3.6 0.2 1.7 0.1 3 0.2 0.7 0.1h1.2l0.6 0.1h0.9 0.5l0.6 0.1h0.6 0.4l0.6 0.3 0.4 0.8v0.2l-0.2 0.3-0.2 0.1-0.7 0.2-0.4 0.1-1.1 0.2-0.7 0.1-1.7 0.2-1 0.1-2.4 0.2-1.3 0.1-3.1 0.1-1.7 0.1-3.9 0.2h-1.1l-2.2 0.1-3.6 0.2h-1.1l-1.7 0.1h-0.8-1.2-0.6-0.9-0.4l-0.6-0.1-0.3-0.1-0.3-0.1-0.1-0.1-0.1-0.2-0.1-0.2m128.2-1.9h-1.3l-2.2-0.1h-1l-1.6-0.1h-0.8l-1.2-0.1h-0.6l-0.8-0.1-0.4-0.1-0.6-0.1-0.2-0.1-0.4-0.2-0.3-0.8v-0.2l0.1-0.2 0.1-0.2 0.3-0.2 0.3-0.1 0.6-0.2 0.4-0.1 1.2-0.2 0.6-0.1 1.7-0.1 1-0.1 2.3-0.2 1.3-0.1 3.1-0.1 0.9-0.1 1.8-0.1 3-0.2 2.6-0.1 4.7-0.2h1.2l2.1-0.1h1 1.8l0.9-0.1h1.5 0.7l1.2 0.1h0.5 0.7l0.5 0.2 0.2 0.1 0.1 1-0.4 1.7-0.2 0.6-0.4 0.7-0.2 0.3-0.9 0.3-0.2 0.1-0.7 0.1h-0.4-0.9-0.5-1.3-2.4l-0.5-0.1h-1.2-0.6-1.4l-1.4-0.1h-3.3l-1.7-0.1-3.5-0.1h-1.7m-246.3-5.2v-0.3l0.4-0.6 0.2-0.3 0.8-0.5 0.5-0.2 1.2-0.5 0.6-0.2 1.6-0.4 0.8-0.2 1.9-0.3 0.9-0.1 2.2-0.2 1.2-0.1 2.4-0.2h4 0.7 1.1 0.6 0.9 0.4l0.6 0.1h0.3l0.5 0.1 0.4 0.2 0.4 0.4 0.4 1.2 0.3 2-12.6 0.2-1.8 0.1h-3.1-1.5-2.6-0.5-1l-0.5-0.1h-0.7-0.3l-0.4-0.1h-0.2m132.5-0.7h-0.9-1.6l-0.7-0.1h-1.3l-0.6-0.1h-1l-0.5-0.1-0.8-0.1h-0.4l-0.6-0.1-0.2-0.1-0.4-0.1-0.3-0.5v-0.3l0.3-1.1 0.5-1.9 0.1-0.5 0.2-0.7 0.2-0.3 0.4-0.4 0.3-0.1h0.8l1.9 0.2 1.7 0.2 3.8 0.7 1.9 0.3 3.7 0.8 0.8 0.1 1.7 0.4 0.7 0.2 1.4 0.3 0.6 0.2 0.9 0.2 1 0.4 0.6 0.3 0.7 0.7 0.2 0.4-0.1 0.7-0.1 0.3-0.8 0.4-1.8 0.2h-0.1-0.6l-0.3-0.1h-0.8-0.8l-2.1-0.1-1.1-0.1h-2.5l-1.3-0.1m102.8-3.8l0.1-0.6 0.6-1.1 1-0.9 0.3-0.1 1-0.2 0.6-0.1 1.6-0.3 0.9-0.1 2-0.4 1-0.1 2.3-0.4 2.3-0.3 4.7-0.6 1.1-0.2 2-0.2 2.7-0.3 0.7-0.1 1.1-0.1h0.5l0.8-0.1h0.8l0.9 0.1 0.4 0.1 0.4 0.4 0.3 1 0.2 0.6 0.3 1.3 0.5 1.8 0.2 0.4v0.6l-0.1 0.2-0.6 0.3-0.2 0.1-0.6 0.1h-0.3l-0.9 0.1h-0.4-1.2l-2.2 0.1h-0.9-2.5l-1.3 0.1-2.8 0.1h-1.5l-2.9 0.2-4.1 0.2-9.2 0.5zm-72.4-2.2v-0.1l0.4-0.1h0.3l0.8-0.1 0.5-0.1 1.3-0.1h0.7l1.8-0.1h1l2.2-0.1h1.2l2.6-0.1h1.4 3.1 5.1 1.8 3.3 1.6 2.9l1.4 0.1h2.4 1.1l2 0.1h0.9l1.5 0.1 0.7 0.1 1 0.1h0.4l0.5 0.1 0.3 0.2-0.1 0.1-0.4 0.1-0.3 0.1-0.9 0.1h-0.6l-1.3 0.1h-0.8l-1.8 0.1-1 0.1h-2.2-1.1l-2.6 0.1h-1.4-3-4.9-1.7-3.2-1.6-2.8-1.3l-2.4-0.1h-1.1l-2-0.1h-0.9l-1.5-0.1h-0.7l-1.1-0.1-0.5-0.1-0.6-0.1-0.2-0.1m-160-1.4l0.1-0.2 0.4-0.5 0.2-0.2 0.8-0.5 0.5-0.2 1-0.5 0.6-0.2 1.2-0.4 1.2-0.3 2.6-0.4 0.6-0.1h1.1l1.5 0.2 0.3 0.1 0.6 0.3 0.2 0.1 0.3 0.4 0.3 0.4-0.1 0.9-0.1 0.4-0.7 0.7-0.3 0.2-0.6 0.2-1 0.1h-0.3-0.9l-0.5 0.1-1.1 0.1-3.8 0.3-1 0.2-1.3 0.1h-0.6l-0.7-0.1h-0.3l-0.2-0.4-0.1-0.2m130.4-1.1l-0.6-0.1-1-0.3-0.5-0.1-0.7-0.3-0.4-0.1-0.4-0.3-0.2-0.2-0.2-0.3v-0.1l0.1-0.3 0.1-0.1 0.5-0.3 0.2-0.1 0.7-0.2 1.5-0.2h0.8l2 0.2 1.1 0.2 2 0.5 1 0.3 1.5 0.7 0.3 0.1 0.4 0.4 0.1 0.4v0.3l-0.7 0.3-0.3 0.2-1.3 0.1h-0.7l-1.9-0.2-1-0.1m99.7-3v-0.3l0.3-0.8 0.7-0.9 0.2-0.1 0.7-0.4 0.3-0.2 1-0.3 0.5-0.2 1.2-0.4 0.6-0.2 1.4-0.4 1.5-0.4 3.3-0.8 5.1-0.9 0.6-0.1 1.1-0.2h0.5l0.8-0.1 0.8-0.1h1.2 0.5l0.7 0.3 1 0.7 0.4 0.4 0.7 0.8 0.5 0.8v0.1l-0.5 0.2-0.3 0.1-0.9 0.2-0.5 0.1-1.3 0.2-2.2 0.2-0.8 0.1-2 0.3-1 0.1-2.2 0.4-1.1 0.2-2.3 0.4-3 0.7-1 0.2-1.7 0.4-0.7 0.2-1.2 0.3-0.5 0.1-0.8 0.2h-0.4l-0.5 0.1h-0.2-0.2l-0.2-0.1-0.1-0.1v-0.2m5.8-8.3v-0.4l0.5-0.7 0.4-0.3 1-0.7 0.6-0.3 1.4-0.5 0.8-0.3 1.5-0.3 0.8-0.2 1.6-0.2 0.7-0.1 1.4 0.1h0.6l0.9 0.4 0.8 0.8v0.2l-0.2 0.4-0.2 0.2-0.9 0.4-0.5 0.2-1.5 0.4-3.1 0.7-0.7 0.1-1.1 0.2-0.5 0.1-0.9 0.1-0.9 0.2-1.2 0.1h-0.5l-0.5-0.2-0.2-0.1zm38.2 10.9l0.3 0.4 0.6 0.7 0.3 0.4 0.6 0.5 0.2 0.2 0.4 0.3 0.4 0.1 0.1-0.1h0.3 0.3l0.6 0.3 0.4 0.1 0.8 0.4 0.4 0.2 1 0.5 0.9 0.5 2.1 1.3 2.8 2.2 0.4 0.3 0.9 1 0.5 0.5 0.9 1.1 0.5 0.6 0.9 1.2 1.1 1.7 0.5 0.8 0.6 1.4 0.3 0.7 0.4 1.4 0.2 0.8 0.1 1.9v0.5l0.1 1.2v2.1 0.8 0.2l-0.3-0.3-0.5-0.6-0.5-0.3-1.9-1.6-1.1 4.2-1.4 4.5-1.4 3.1-0.8 1.6-1.8 3.2-1 1.6-2.1 3.1-1.2 1.5-3.8 5 2.5 0.2 1.1 0.2 0.6 0.2 0.2 0.1 0.4 0.3 0.1 0.2 0.1 0.4v0.3l0.1 0.3h0.1l0.4-0.2 0.3-0.3 0.6-0.7 0.3-0.4-0.1 0.2-2.9 3.7-4.7 5.4-0.6 0.7-1.1 1-0.4 0.5-0.9 0.8-0.3 0.4-0.7 0.6-0.3 0.3-0.6 0.3-0.6 0.4-1.3 0.2-0.4 0.1h-0.8-1.4-0.6-1.2l-0.5-0.1h-0.9l-0.4-0.1-0.5-0.1h-0.2l-0.2-0.2 0.2-0.2 0.1-0.1 0.3-0.4 0.3-0.3 1.2-1.2 0.6-0.6 1.6-1.6 2.7-2.6 2.5-2.4 4.4-4.7 1.1-1.2 1.9-2.4 1-1.1 1.7-2.4 0.9-1.1 1.5-2.3 0.7-1.1 1.3-2.3 0.6-1.1 1.1-2.1 0.5-1.1 0.8-2.2 0.4-1 0.6-2.1 0.3-1 0.3-2 0.2-0.9 0.1-1.9v-1l-0.1-1.8v-0.9l-0.4-1.7-0.2-0.8-0.6-1.7-0.3-0.8-0.8-1.5-1.6-2.1-0.6-0.8-1.8-1.6-0.9-0.9-1.9-1.5-0.5-0.3-0.9-0.6-0.4-0.3-0.7-0.5-0.4-0.2-0.5-0.2h-0.6l-0.4 0.1h-0.2l-0.8 0.1h-0.4l-1.2 0.1h-0.5l-1.5 0.1h-0.7l-1.6 0.1-0.9 0.1h-1.8l-6.1 0.3h-0.7l0.2-0.1 0.6-0.3 0.1-0.2-0.1-0.6-0.1-0.4-0.5-1.8-0.4-1.3-0.1-0.6-0.4-1-0.4-0.4 1-0.1 11.6-0.5m36.7 59.6l-0.2 0.2-0.1 0.6v0.4 1l0.1 0.6 0.1 1 0.1 0.3 0.2 0.7 0.1 0.1 0.2 0.3 0.1 0.1 0.3-0.1 0.1-0.1 1.3-0.8 1.1-0.5 0.6-0.3 1.7-0.6-2.7 1.2-4.6 3-0.8 0.6-1.2 0.8-0.6 0.4-1.2 0.5-0.5 0.2-1.2 0.2-2.2 0.1h-0.5l-1-0.1h-0.5l-0.8-0.1-0.4-0.1-0.5-0.2-0.1-0.1-0.2-0.2v-0.1l0.3-0.5 0.2-0.3 0.7-0.7 0.4-0.3 0.9-0.8 0.5-0.5 1.1-0.8 1.2-0.9 2.7-1.7 3.8-2.1 1.2-0.6 0.7-0.2m-156.7 2.1l1.4 1.8 0.3 0.6 0.1 0.2v0.3 0.1 0.2h0.3 0.6l0.5-0.1 1.1-0.2 0.7-0.1 1.4-0.4 0.8-0.2 3.5-0.7 2.4-0.4 1.3-0.2 1.8-0.2-4.6 0.7-2.6 0.5-4.9 1.3-7 2.5-1.2 0.6-2 0.7-0.9 0.3-1.7 0.5-0.9 0.1-2 0.2-3.6 0.1h-0.9l-1.7-0.1h-0.8l-1.3-0.1-0.6-0.1-0.8-0.1-0.4-0.1-0.2-0.2v-0.2l0.5-0.4 0.3-0.3 1-0.6 0.5-0.4 1.4-0.7 0.8-0.5 1.7-0.8 1.8-0.9 4.1-1.8 6.2-2.4 0.9-0.4 0.7-0.2m-12.2-5.1l-0.4 0.2-0.4 0.1-0.1 0.1-0.2 0.1v0.1l0.2 0.6 0.4 0.4 0.2 0.2 0.4 0.8v0.9l-0.1 0.5-0.2 0.7v0.2 0.4l0.2 0.1 0.3 0.1h0.3l0.8-0.1 0.5-0.1 1.5-0.4 1.4-0.3 0.8-0.3 0.6-0.2-0.8 0.3-1.6 0.7-3.4 1.5-1.6 0.7-3.3 1.8-5 2.9-5.4 3.4h-9.8-1.1-1.9-0.9l-1.4-0.1h-0.7-0.9l-0.5-0.1h-0.6l-0.3-0.1-0.3-0.1-0.1-0.1-0.1-0.1v-0.2l0.7-0.6 0.4-0.3 1.3-0.8 0.8-0.4 1.9-1 1-0.6 2.4-1.1 1.2-0.6 2.7-1.2 2.8-1.3 5.8-2.4 1.4-0.5 2.8-1.1 3.8-1.3 3.4-1.1 1.8-0.5m-21.7-5.5l-0.3 0.7 0.2 0.4 0.3 1 0.2 0.9 0.1 0.6 0.1 1.1 0.1 0.7 0.1 1.5 0.1 0.8 0.1 1.8 4.3-1.7 0.6-0.3-1.7 0.8-6 2.7-9 4.7-9.6 5.4h-14.3-2.3-1-1.8l-0.9-0.1h-1.3-0.7l-0.9-0.1h-0.5l-0.6-0.1-0.3-0.1-0.3-0.1-0.1-0.1-0.1-0.2v-0.1l0.2-0.2 0.1-0.1 0.3-0.3 0.2-0.2 0.6-0.4 0.6-0.4 1.8-1 0.9-0.5 2.3-1.3 1.3-0.6 2.7-1.4 2.8-1.3 6-2.9 1.5-0.6 2.9-1.3 4.1-1.7 3.4-1.3 6.6-2.4 3.3-1.2 4.5-1.3m201.9 15.7l0.4 0.7 0.4 0.4 0.9 1.3 0.4 0.9v0.4l0.1 0.7 0.3 0.1 0.6 0.1-1 0.2-0.7 0.2-1.4 0.2-1.5 0.2-3.2 0.2h-0.7-1.4-0.7l-1.1-0.1-0.5-0.1-0.7-0.2-0.3-0.1-0.1-0.3v-0.1l0.2-0.4 0.1-0.2 0.5-0.4 0.6-0.4 1.7-1 0.9-0.6 2.2-0.9 3.6-1.3 0.3-0.1m-127.2 2.8l0.9 0.2 1.9 0.6 0.8 0.2 1.5 0.5 0.8 0.3 1 0.4 0.9 0.4v0.1l-0.3 0.1-0.2 0.1-0.8 0.1h-0.5l-1.3 0.1h-0.8l-1.8 0.1h-1l-2.2 0.1h-1.2l-2.8 0.1h-1.4-3.1-1 1.6 0.7l1.4-0.1h0.6l1-0.1h0.4l0.7-0.2h0.2l0.5-0.2 0.2-0.1 0.6-0.5 0.2-0.4 0.6-1.2 0.2-0.7v-0.1l-0.2-0.2v-0.1m-24.8-0.8v0.2 0.4l0.1 0.4 0.3 0.8 0.3 0.5 1.2 2.3h-1-2.5-1.2l-2.1-0.1h-1l-1.6-0.1-0.8-0.1h-1.1l-0.5-0.1-0.7-0.1-0.2-0.1-0.1-0.1 0.1-0.1 0.5-0.3 0.3-0.2 0.8-0.5 3.5-1.5 0.9-0.4 2.1-0.5 1.1-0.3 1.8-0.2m-49.6-26.5l-2 0.9-0.8 0.7-0.2 0.5-0.2 1 0.2 0.6 0.5 1.3 0.4 0.8 0.7 0.8 0.4 0.2 0.8 0.3 0.3-0.1 1.6-0.5 1.5-0.5 0.9-0.2 1.9-0.5 1.1-0.2 2.2-0.6 1.2-0.2 1.8-0.4-6.4 1.5-4.5 1.2-9 2.9-4.4 1.5-8.8 3.4-4.4 1.8-8.7 4.1-12.8 6.9-1 0.5-1.5 0.9-0.7 0.4-1.2 0.6-0.6 0.4-0.9 0.4-0.4 0.2-0.7 0.3-0.2 0.1-0.5 0.2h-0.1-0.3l-0.2-0.1v-0.4-0.2l0.2-0.9 0.1-0.4 0.4-1.3 0.4-1.4 1.1-3.2 0.3-0.8 0.6-1.5 0.3-0.8 0.6-1.3 0.3-0.6 0.4-0.9 0.5-0.7 0.1-0.2 0.8-0.4 0.4-0.2 1.3-0.6 0.7-0.3 1.6-0.7 2.6-1.1 2.5-1 5.3-2 2.7-1 5.6-1.9 2.9-0.9 5.9-1.8 3-0.9 6.2-1.6 6.1-1.6 2.4-0.6m82 19.8l1 0.3 2.4 0.7 1.1 0.3 2.5 0.8 2.5 0.9 4.6 1.7 1.1 0.4 1.9 0.9 0.9 0.3 1.5 0.7 0.6 0.4 0.8 0.5 0.2 0.1 0.1 0.2v0.2h-0.1l-0.5 0.3-0.2 0.1-0.9 0.4-3.1 1-0.9 0.3-1.4 0.3-0.6 0.1-0.9 0.1h-0.5l-0.8-0.2-1.4-0.6-2-1.1-4.4-1.7-2.3-0.8-0.2-0.1 0.1-0.1-0.1-0.1-0.1-0.3-0.2-0.2-0.4-1.5-0.1-1.3v-0.6-1.5l-0.1-0.4-0.2-0.1-0.4-0.3-0.2-0.1-0.6-0.3m-151.7-11.5l1 0.6 0.4 0.5 0.8 0.9 0.3 0.3 0.7 0.5h0.1l0.4-0.4h0.1-0.1l-1.8 2.3-3.1 4.7-4.1 7.1-3 6.1h-9.9l1.8-3.5 0.7-1.3 1.4-2.5 0.8-1.3 1.7-2.5 1.7-2.6 4.2-5 2.1-2.5 1.5-1.4 0.2 0.1 0.1-0.1 0.4-0.1 0.3-0.1m-83.7 13.1l4.4 0.9 2.1 0.5 4.3 1.1 1.9 0.6 1.8 0.7 0.9 0.3 1.7 0.7 0.7 0.3 1.2 0.6 0.5 0.2 1 0.5 0.3 0.1 0.7 0.3 0.3 0.1 0.5 0.1h0.1 0.3l0.1-0.2v-0.1l-0.2-0.7-0.3-0.5-0.5-1.6v-1.2l0.1-0.4 0.1-0.9-0.3-0.5-0.3-0.2-0.7-0.4 4.3 1.6 2.1 0.8 4.1 1.8 5.6 3.1 3.3 2-7-0.1h-0.8-1.4-0.7l-1.1-0.1-1.1-0.1-1.8-0.4-0.9-0.2-1.9-0.7-0.5-0.2-1.1-0.6-0.6-0.2-1.3-0.7-1.4-0.7-3.1-1.3-1.6-0.6-3.5-1.1-1.7-0.6-3.8-0.9-1.9-0.5-3.9-0.7h-0.1m6 5.3l6.3 2.1 5 2-6.8 0.2h-1-2.2-1.2l-2.4-0.2h-0.6l0.1-0.1 0.2-0.2 0.1-0.2 0.2-0.9 0.1-0.7 0.1-1.1v-0.6l-0.1-0.2-0.4-0.7m-27.2-0.4l-0.6 0.8v0.6l0.2 0.9 0.5 0.4 0.5 0.1 0.6 0.1h0.3l0.9 0.1h0.5 1.1 0.7 1.5 0.8l3.4 0.1 2.4 0.2 1.2 0.1 2.3 0.2 1 0.2 1.8 0.2-1.7-0.2-1.3-0.2-2.9-0.2-1.5-0.1-3-0.2-4.2-0.1h-1.1-2l-1 0.1h-1.7l-1.6 0.1-2.7 0.2-1.3 0.2-2.4 0.4-3.7 1-0.3 0.2-0.6 0.1h-0.2-0.3-0.1l0.1-0.2v-0.1l0.3-0.3 0.1-0.1 0.7-0.5 0.4-0.2 1.1-0.5 0.6-0.3 1.4-0.6 2.3-0.9 1.2-0.5 2.1-0.6 1.1-0.3 2.2-0.4 0.6-0.1 1.1-0.1m406.8 1.4l1.4 0.4 2.4 0.9 3.3 1.5 0.5 0.2 0.6 0.5 0.3 0.1 0.4 0.3 0.1 0.1v0.1h-0.4l-2.4-0.6-5.2-0.8-2.6-0.3-5.1-0.1h-1.2l-2.5 0.1-1.2 0.1-2.3 0.2-1.1 0.2-2 0.4-2.8 0.8-0.5 0.1-0.2 0.1 0.5-0.2 1.3-0.5 1.1-0.2 0.6-0.2 2.6-0.4 1.4-0.2 2.8-0.4h1.3l2.6-0.1h1l2.2 0.1h1l0.4-0.1 0.6-0.2 0.2-0.2 0.2-0.4 0.1-0.3v-0.7l-0.4-0.4-0.4-0.2-0.6-0.2m-350.8-10.8l4 1.4 1.9 0.7 3.6 1.4 0.8 0.3 1.5 0.7 0.8 0.3 1.3 0.6 0.6 0.3 1.1 0.6 0.5 0.2 0.8 0.5 0.4 0.2 0.4 0.5 0.3 0.5v0.1l-0.2 0.3-0.1 0.2-0.3 0.4-0.3 0.5-1 1-0.5 0.5-1.1 0.7-0.2 0.2-0.4 0.2-0.5 0.2h-0.2l-0.8-0.4-0.5-0.3-0.9-0.7-0.4-0.3-1.1-0.7-0.6-0.3-1.5-0.9-0.9-0.4-1.8-0.9-0.9-0.4-2.1-0.9-2-0.9-4.2-1.7-1-0.4-1.9-0.6-1-0.3 0.6 0.1 1.1 0.4 1.9 0.6 0.8 0.2 1.6 0.6 0.6 0.3 1.5 0.6 0.6 0.3 0.4 0.2h0.2l0.2 0.2h0.1v-0.3-0.3-0.3-1.2-0.8l-0.2-1.7-0.3-0.8-0.4-0.3-0.4-0.3m214.5-3.1l9.5 2.2 2.8 0.7 5.5 1.7 1.4 0.5 2.5 0.9 1.3 0.4 2.3 0.9 1.1 0.4 1.9 0.8 0.8 0.4 1.4 0.7 0.6 0.3 0.7 0.5 0.2 0.6h-0.1l-0.5 0.2-0.4 0.2-1 0.4-0.6 0.2-1.3 0.5-2.3 0.8-5.8 2-5.3-2.3-2-0.9-3.9-1.6-2-0.8-3.9-1.3-2-0.7-3.9-1.1-1.9-0.5-4-0.8-0.4-0.1 3 0.5 2.7 0.6 2.7 0.5-0.5-7m-251 12.8l2.5 0.1 2.3 0.2-1.7-0.1h-1.3l-2.8-0.2h-1.4l-2.3-0.1h1 1.3m235.2-0.5l1.2 0.1 2.3 0.3 1.1 0.2 0.3 0.1-2.8-0.4-2.5-0.3m145.9 0.6h1.4 0.3l-3.6-0.1m-0.1 0l-1.8 0.1h-0.1l1.1-0.1m-156.3-0.5l-1.7 0.1 2.1-0.2 2.7-0.1h0.6m7.4 0.1l2 0.1-5.2-0.2h-1l1.6-0.1m148-4.7l1.5 0.1 3 0.5 1.6 0.2 2.9 0.7 4.4 1.3 4.5 1.7-4.1-0.6-0.5-0.1-1.7-0.1-0.9-0.1-2.2-0.1-7-0.2h-2.5l-4.3 0.4-0.3 0.1 3.6-0.6 1.6-0.1 2.9-0.2 1.6-0.2 0.5-0.1 1-0.3 0.3-0.1 0.5-0.3 0.1-0.1-0.1-0.3-0.2-0.1-0.6-0.3-0.5-0.1-1.1-0.3-0.7-0.2-1.7-0.3-1-0.1-4.1-0.2h0.5m2.3-6.2l3.3 0.9 0.8 0.2 1.5 0.5 0.7 0.2 1.1 0.4 0.6 0.2 0.7 0.3 0.5 0.3-0.7 0.1h-0.4-1.3-0.7l-1.9-0.1-3.1-0.2-2.5-0.1-4.9 0.2-2.4 0.2-4.6 0.9-1.1 0.2-2.1 0.6-1.1 0.3-1.9 0.7-0.9 0.4-1.8 0.8-2.2 1.4-0.5 0.3-0.9 0.6-0.4 0.3-0.7 0.4-0.3 0.2-0.5 0.2-0.1 0.1h-0.1l0.1-0.4 0.1-0.3 0.2-0.7 1.2-2.7 0.3-0.7 0.5-1 0.4-0.6 0.7-0.8 0.4-0.5 0.8-0.7 0.5-0.3 1.1-0.5 0.6-0.3 1.4-0.4 0.8-0.2 1.7-0.3 0.7-0.1-0.5 0.2-0.3 0.2-0.4 0.3-0.1 0.3-0.3 1v0.8l-0.1 1.1 0.1 0.3 0.2 0.5 0.3 0.1h0.3 0.3l0.5-0.1 0.4-0.1 0.7-0.2 0.5-0.1 1.1-0.3 0.6-0.2 1.3-0.3 1.3-0.2 0.8-0.1 3.4-0.4 1.8-0.1 2.1-0.2 1.1-0.1h0.4l0.8-0.1 0.3-0.1 0.5-0.1h0.2l0.3-0.2 0.1-0.2v-0.1l-0.4-0.5-0.3-0.3-1-0.7-0.8-0.3m-118.1-9.9l5.1 0.7 2.5 0.3 5 0.9 2.5 0.5 5 1.1 2.6 0.6 5 1.3 7.6 2.2 0.8 0.3 1.5 0.5 0.8 0.2 1.3 0.4 1.2 0.4 1.9 0.6 0.9 0.3 1.2 0.5 0.5 0.2 0.5 0.4 0.1 0.3-0.1 0.4-0.2 0.2-0.7 0.4-0.4 0.3-1.2 0.6-2.4 1.2-6.2 3.1-9.4-3.8-2.3-0.9-4.3-1.6-2.2-0.7-4.3-1.4-2.1-0.6-4.3-1.1-2.1-0.5-4.3-0.9-2.2-0.3-4.4-0.7-2.3-0.3-4.6-0.4-2.3-0.2-4.8-0.2-7.5-0.1h-3.3l-6.3 0.3-3.2 0.2-6.2 0.7-3.1 0.4-4.8 0.9 1.8-0.4 2.9-0.5 5.7-0.9 2.9-0.3 5.6-0.5 2.8-0.1 5.6-0.2 2.8 0.1 5.5 0.2 2.8 0.3 4.4 0.4 2.8 0.2 1.3 0.2 2.3 0.2 0.9 0.1 0.8 0.1 0.4 0.1 0.6 0.1h0.2l1.6 0.2h0.8l0.2-0.2 0.5-0.4 0.1-0.4 0.4-1 0.2-0.7 0.4-1.2 0.1-0.6v-0.3l-0.1-0.5-0.2-0.2-0.5-0.3-0.5-0.2-0.5-0.1m-257.8 14.2l-0.6 0.1-0.3 0.1-0.5 0.2-0.1 0.1-0.8 0.7-0.3 0.4-0.1 0.2v0.3l0.1 0.2 0.3 0.2 0.2 0.2 0.6 0.2 0.4 0.1 0.9 0.3-1.8-0.2-2.1-0.1h-3.9l-5.8 0.2-0.9 0.1-1.9 0.1h-0.8l-1.5 0.1h-0.6-0.9l-0.6-0.2v-0.1l0.4-0.2 0.2-0.1 0.8-0.3 0.5-0.1 1.1-0.3 0.6-0.1 1.5-0.3 1.5-0.3 3.6-0.5 5.7-0.7 2.1-0.2 3.2-0.1m49.1-8.8l6.4 2.1 1.6 0.5 2.9 1 1.3 0.5 2.4 0.8 0.5 0.2 1 0.4 0.4 0.2 0.7 0.2 0.3 0.2 0.5 0.2 0.3 0.2 0.1 0.1-0.1 0.4-0.1 0.2-0.4 0.5-1.7 2-2.7 2.4-7.3-3.5-1.7-0.8-3.5-1.4-1.8-0.7-3.8-1.4-2-0.6-4.1-1.2-2.1-0.6-1.5-0.3h0.1l2.5 0.6 1.1 0.3 2 0.5 0.7 0.2 2.7 0.9 1.2 0.2 1 0.3 0.5 0.1 0.7 0.2h0.2l0.6-0.2 0.4-0.2 0.1-0.2 0.6-1 0.2-0.5 0.2-1.2-0.1-0.5-0.1-0.5-0.1-0.2-0.3-0.4-0.1-0.1m172.9 10.1l-3.4 0.2-1.7 0.2-3.3 0.3-1.5 0.2-0.8 0.1 2-0.3 1.2-0.2 2.7-0.3 1.4-0.1 3.1-0.1h0.6m9.7-2.4l4 0.3 2 0.2h0.4l-3.8-0.3-2-0.1-4.2-0.1-6.4 0.1h-2.1l-4 0.4-2 0.1-3.8 0.6-1.8 0.2-2.2 0.5 0.4-0.1 4-0.9 2.1-0.3 4-0.5 2.3-0.1 2.2-0.1h1.2l2.5-0.1h1.4m16 1.2l1 0.2-2-0.3m-44.5-2.2l1.2-0.3 0.7-0.2m-191.3-4.9l-0.2 0.1-0.3 0.2-0.1 0.1v0.2l0.1 0.2 0.1 0.9-0.2 0.7-0.3 0.3v0.5l0.4 0.3 0.5 0.2 0.6 0.2h0.3l0.8 0.2 0.5 0.1 1 0.1 0.7 0.1 1.2 0.2 0.8 0.1 3.2 0.5h0.5l-2-0.3-2.7-0.3-5.7-0.5h-1.4l-3.1-0.2h-4.7l-12.8-0.1 4.9-1.6 0.9-0.3 2.2-0.5 1.1-0.3 2.5-0.3 1.3-0.2 2.8-0.3 1.5-0.1 2.9-0.1 2.8-0.1m260-14.7l4.7 0.5 9.2 1.4 4.6 0.7 9.1 1.8 13.5 3.3 1.5 0.4 2.7 0.7 1.2 0.4 2.2 0.6 0.5 0.1 0.9 0.3 0.4 0.1 0.6 0.2 0.3 0.1 0.4 0.1 0.2 0.1 0.1 0.1-0.4 0.3-0.2 0.2-0.7 0.6-0.5 0.4-1.1 0.8-1.9 1.3-4.9 3.5-7.7-2.4-2.8-1-5.8-1.6-2.9-0.8-5.8-1.5-2.9-0.6-5.8-1.2-2.9-0.6-5.9-0.9-3-0.5-6-0.7-0.5-0.1 1.2 0.2h0.7l1.3 0.1 0.6 0.1 2 0.1 0.8 0.1h1.5l0.5-0.1 0.9-0.1 0.3-0.2 0.5-0.3 0.2-0.2 0.3-0.5 0.1-0.3 0.2-0.7 0.2-0.4 0.5-2.2v-0.6-0.2-0.3l-0.1-0.1-0.4-0.2-0.5-0.1h-0.4l-0.7-0.2h-0.5l-0.9-0.1m95.1 11.5h0.7 0.1l-0.2 0.1-0.4 0.1-0.1 0.1-0.2 0.2-0.1 0.2-0.1 0.8v0.6 0.9l0.1 0.2 0.1 0.5 0.2 0.1 0.4 0.2h0.4l0.8-0.1 0.6-0.2 1.2-0.2 1.1-0.1h0.5l2.3-0.2h0.8-0.2l-2.5 0.3-1.8 0.1-3.7 0.6-0.9 0.2-1.4 0.3-1.7 0.5-2.9 1.2 0.5-2.2 0.1-0.5 0.2-0.9 0.1-0.4 0.2-0.6 0.2-0.6 0.5-0.7 0.3-0.3 0.9-0.2 2-0.1h0.6m-194.1-9.5l-3.6 0.8-6.8 1.8-3.4 0.9-6.4 1.9-3.1 1-6 2.2-8.4 3.4-1.2 0.5-2.2 1-1.1 0.4-1.7 0.7-0.8 0.4-1 0.3-0.3 0.1-0.2 0.1h-0.1v-0.1-0.1l0.2-0.4 0.2-0.3 0.4-0.8 1.8-3.2 2.5-4.3 9.9-2.8 3.6-1.1 7.4-1.9 2.1-0.6-0.1 0.1-0.1 0.3-0.2 0.4-0.1 0.2-0.4 1.2-0.2 0.7-0.7 2.5 3.9-1.2 3.8-1.1 2.9-0.8 1.5-0.4 3.2-0.8 1.7-0.3 3.4-0.8 1.9-0.4 3.7-0.7 0.3-0.1m-103.3 8.8l9.6 3-2.8 2.4-0.8 0.6-1.5 1-0.3 0.2-0.6 0.3-0.5 0.2h-0.1l-0.7-0.2-0.4-0.2-1.2-0.4-0.7-0.2-1.5-0.6-0.7-0.3-1.7-0.6-1.7-0.7-3.8-1.3-1.9-0.7-4.1-1.2-2-0.5-4.3-1.1 1.1 0.3 2.4 0.5 1 0.3 1.8 0.5 0.8 0.2 1.2 0.4 0.5 0.2 1 0.2 0.4 0.1 0.7 0.2h0.3 0.5 0.2l0.6-0.4 0.1-0.4 0.3-1 0.1-0.8 0.1-1.4-0.1-0.7-0.1-0.2-0.1-0.3m-41.9 8.5l4 0.6 1.5 0.3 2.8 0.6h-0.2l-3.3-0.7-1.7-0.3-3.1-0.5m217.6 0.7l3.4 0.1 4.2 0.3h-0.9l-3.4-0.1h-1.9l-3.7-0.1h-2l-3.9 0.1h-1.9l-3.7 0.1-1.7 0.1-2.6 0.1 1.1-0.1 6.8-0.4 3.5-0.2m-42.6-4.1l-5.2 1.2-2.4 0.7-3.2 0.8-2 0.5-0.9 0.3-1.5 0.3 2.7-0.8 6.6-1.7 3.3-0.8 4.4-0.9m182.6 1.5l1 0.2 0.5 0.2 0.6 0.2 0.4 0.4-0.1 0.1v-0.1l-0.3-0.2-0.2-0.2-0.6-0.2-0.4-0.2-1-0.2-0.3-0.1m-356.3-4.8l3.6 0.2h-0.9l-1 0.1-0.3 0.1-0.5 0.3-0.2 0.2-0.3 0.5-0.1 0.4-0.1 0.8 0.1 0.4 0.1 0.1 0.3 0.3 0.2 0.1 0.4 0.2 0.4 0.1 0.5 0.1 0.6 0.1h0.3l1.6 0.3 1 0.2 0.2 0.1-1.8-0.3-2.4-0.4-5-0.5-7.7-0.6-10.3-0.7 5.5-1 1.4-0.2 2.9-0.4 1.5-0.2 3.2-0.2h1.7l3.4-0.1m332.3-6.3l-0.3 1.8-0.2 0.9-0.7 2-0.3 0.5-0.5 1.2-0.9 2-0.9 2h-0.1l0.1-0.1 2.2-5.1 0.7-1.8 0.2-0.8 0.5-1.5 0.1-0.6 0.1-0.8m-150.3 8.9l-5 0.9 1.1-0.2 3.3-0.7 2.4-0.3m-156.8 1.1h0.1l-0.2-0.1m29-11.9l6.8 1.8 1.6 0.4 3 0.8 1.4 0.4 2.4 0.7 0.5 0.2 1 0.3 0.5 0.2 0.7 0.2 0.3 0.2 0.5 0.2 0.5 0.2v0.1l-0.1 0.3-0.1 0.2-0.4 0.5-0.5 0.5-1.4 1.2-0.7 0.6-1.4 1-0.4 0.2-0.5 0.3-0.6 0.1-0.5-0.2-0.2-0.1-0.8-0.3-0.8-0.3-2.2-0.8-0.7-0.3-1.6-0.6-0.8-0.3-1.8-0.5-1.9-0.6-4.4-1.1-2.2-0.6-5-1.1-2.5-0.6-5.4-1-4.8-0.9 5.5 0.9 3.4 0.6 1.4 0.3 1.3 0.3 0.6 0.1 1.2 0.3 0.4 0.1 2.1 0.5 0.9 0.2 1.5 0.4 0.7 0.2 1.1 0.2h0.4l0.7 0.1h0.3l0.4-0.1 0.2-0.2 0.2-0.3v-0.2l0.1-0.5-0.1-0.3v-0.7-0.4l-0.2-1.5-0.3-0.8-0.2-0.2-0.5-0.5-0.4-0.2h-0.2m136.5 10.3l-4.1 0.6 1.8-0.3 3.3-0.5 1-0.1m153.2-4l0.4 0.1 0.7 0.2 0.4 0.2 1 0.4 0.4 0.2-0.4-0.1h-0.1l-0.9 0.3-0.2 0.5 0.1 0.4 0.2 0.6 0.2 0.3 0.6 0.5 0.4 0.1 1 0.2 0.7 0.1h0.8-0.1l-1.4-0.1-0.8-0.1-1.9-0.2h-0.6l-0.9-0.2-0.4-0.1-0.5-0.2-0.2-0.2-0.3-0.4-0.2-0.7v-0.7l0.3-0.7 0.2-0.4 0.7-0.1h0.3m-257.5 4l0.1-0.1 0.1-0.1m88.4 0.1l2.2-0.4 2.7-0.5 1.5-0.2m112.4-10.7l4.5 0.8 2.2 0.4 3.8 0.8 1 0.2 1.7 0.4 0.8 0.2 1.4 0.4 0.7 0.1 1.2 0.4 0.6 0.1 0.9 0.3 0.4 0.2 0.5 0.2 0.5 0.3 0.1 0.2-0.1 0.4-0.1 0.3-0.4 0.6-0.4 0.7-1.3 1.5-0.7 0.8-1.5 1.2-0.3 0.3-0.6 0.4-0.8 0.2h-0.2l-0.5-0.1-0.3-0.1-0.7-0.2-0.8-0.2-1.5-0.6-0.5-0.2-1.1-0.4-0.6-0.2-1.4-0.5-1.4-0.4-3.5-1-1.8-0.4-4.2-1-0.6-0.2 0.3 0.1 0.5 0.1 1 0.1h0.3 0.6l0.2-0.1 0.3-0.1v-0.1l0.1-0.7v-0.5l0.4-1.7 0.6-1.1 0.3-0.4 0.6-0.8v-0.4l-0.3-0.2-0.3-0.1-0.2-0.1h-0.2m-105.7 10l-3.5 0.4 2.3-0.3 4.6-0.5 2.5-0.3h0.6m-184.5-5l-0.6 0.1-0.3 0.3-0.4 0.5-0.2 0.4-0.7 1.3-0.3 0.6v0.1l0.5 0.2 0.7 0.2 0.5 0.1 1.1 0.1 0.6 0.1 1.4 0.2 0.8 0.1 2.8 0.3 2.2 0.4 1.2 0.2 2.8 0.5-8.7-1.3-14.1-1.2-1.4-0.1-2.3-0.1h-1.1l-1.7-0.1-0.8-0.1-1.2-0.1h-0.5l-0.7-0.1-0.3-0.1-0.2-0.1-0.1-0.1 0.1-0.1 0.1-0.1 0.5-0.2 0.9-0.3 0.7-0.2 1.7-0.4 0.9-0.1 2.2-0.3 1.2-0.1 2.5-0.2 1.3-0.1 2.8-0.1 2.8-0.1m218.6 4l5 0.2 2.3 0.1 4.6 0.3 2.1 0.2 1.4 0.1-4.3-0.3-3.1-0.2-6.3-0.3-7.3-0.1h3m-202.3-3.5l2.6 0.3 5.6 0.9 2.8 0.5 6 1.3 0.3 0.1-0.6-0.1-5.6-1.1-2.6-0.5-2.5-0.4-1.2-0.2-2.3-0.4-1-0.1-2.1-0.3m84.9-6.2l-2.6 1.8-5.2 3.6-2.4 1.9-1.6 1.2 2.9-2.3 6.4-4.5 3.2-2.2 2.2-1.4m92.1 6.1l-3.1 0.3-6.4 0.6-3.1 0.4-6.3 0.8-3 0.4-4.3 0.7 0.2-0.1 9.1-1.3 4.8-0.7 9.7-0.9 4.9-0.5h1.6m-158.6-9.1l1.7 0.1 3.1 0.3 1.6 0.1 3.3 0.4 1.6 0.2 3.5 0.5 1.8 0.3 3.9 0.7 6.6 1.2 1.2 0.3 2.1 0.4 1.1 0.2 1.7 0.4 0.8 0.2 1.4 0.3 0.7 0.2 1 0.4 0.5 0.1 0.8 0.3 0.3 0.2 0.5 0.3 0.3 0.2 0.2 0.3 0.1 0.5v0.1l-0.2 0.2-0.2 0.2-0.4 0.4-0.6 0.4-1.4 1-0.7 0.5-1.3 0.9-0.3 0.1-0.4 0.3-0.4 0.1-0.4-0.2h-0.3l-0.8-0.3-0.4-0.2-1-0.3-0.5-0.2-1.2-0.4-1.8-0.7-3.8-1.1-1.9-0.6-4.1-1-0.1-0.1 0.5-0.1 0.8-0.3 0.4-0.3 1-0.8 0.5-0.7v-0.3l0.1-0.7-0.2-0.4-0.4-0.6-0.3-0.2-1.2-0.4-1.4-0.3-0.9-0.2-2-0.3-1.2-0.2-2.4-0.3-1.4-0.2-2.8-0.3-1.5-0.1-3-0.3-1.5-0.1-1.6-0.2m99.3 2.1l-0.6 0.1-2.2 0.3-0.8 0.3-0.2 0.2-0.2 0.5v0.4l0.2 0.9 0.1 0.7 0.2 0.7 0.2 0.2 0.5 0.4h0.6 0.5l0.4-0.1 0.9-0.1h0.6l1.2-0.2 0.8-0.2 1.6-0.3 1-0.1 1.8-0.4 1.4-0.2 0.8-0.1 2.9-0.4-1 0.1-5.9 1-17.4 3.4-1.6 0.4-3 0.7-1.4 0.3-2.5 0.6-0.6 0.1-1 0.2-0.5 0.2-0.8 0.2-0.4 0.1-0.5 0.1-0.5 0.2h-0.3l-0.2 0.1-0.1-0.1v-0.2-0.1l0.3-0.6 0.2-0.3 0.6-0.8 0.6-0.8 1.1-1.4 0.5-0.7 0.8-1 0.4-0.5 0.8-0.7 0.4-0.4 0.8-0.5 0.4-0.2 0.9-0.3 0.4-0.1 1.2-0.3h0.5l1.5-0.2 2.6-0.2 1.1-0.1 2.5-0.2 1.3-0.1 2.9-0.2 1.5-0.1 2.9-0.2 0.5-0.1m131.2 7.9l1.7 0.3 0.4 0.1-1.9-0.3-1.1-0.3m-255.9-4.9h2-0.2l-0.5 0.2-1.1 0.6-0.6 0.4-2.9 1.8 12.3 1.8 3.9 0.7-10.7-1.6-2.8-0.4-5.5-0.6-7.9-0.7-0.8-0.1-1.5-0.1h-0.6l-1.1-0.1-0.6-0.1-0.8-0.1h-0.3l-0.5-0.1-0.3-0.1-0.2-0.1h-0.1l-0.1-0.2 0.7-0.4 0.2-0.1 0.6-0.1 0.3-0.1 1-0.1h0.5l1.3-0.1 0.6-0.1h1.6l0.8-0.1h1.9l0.9-0.1h2 6.8m179-1.3l2.4 0.1 3.3 0.2 6.6 0.7-8.2 0.7-4.3 0.3-8.3 0.9-4.1 0.5-7.9 1-3.9 0.6-7.7 1.3-0.5 0.1 1.7-0.3 2.1-0.3 4.2-0.8 2.3-0.4 4.5-0.7 2.3-0.3 1.5-0.3 0.9-0.3 0.2-0.1 0.5-0.4 0.2-0.1 0.2-0.4v-0.3l-0.3-0.6-0.5-0.3h-0.5l-0.5-0.1h-0.4l-0.8 0.1h-0.5-1l-0.6 0.1-1.3 0.1h-0.8l3.2-0.3 6.3-0.5 1.5-0.1 2.8-0.1h1.5 2.6m-46 5.4l-3 0.6-0.9 0.2 3-0.6 1.1-0.3m91.6 0.2l4.7 0.3 2.8 0.3-2.8-0.3-1.8-0.1-3.3-0.2m9.8-6.8l0.4 0.1-0.3 0.2-0.5 0.5-0.2 0.4-0.7 1.4-0.2 0.6 0.1 0.1h0.3l0.4 0.1 0.3 0.1 0.7 0.1 0.5 0.1 0.9 0.2h0.6l2.4 0.4 1.4 0.3 3 0.4 1.7 0.3 5.3 0.8 3.9 0.6 1.9 0.4 0.7 0.1-4.7-0.8-15.8-2.2-1.9-0.3-3.3-0.4-1.6-0.1-2.6-0.4-1.2-0.1-2.1-0.2-1-0.1-1.6-0.2-0.8-0.1-1.3-0.1h-0.6l-1.2-0.1-3.5-0.1h-0.5-0.8l-0.4-0.1h-0.6-0.6l-0.5-0.1-0.2-0.1 0.2-0.2 1-0.5 0.2-0.1 0.6-0.1 0.4-0.1 1-0.1 0.5-0.1 1.4-0.1h0.7l1.5-0.1 1.7-0.1 3.9-0.1h2.1l4.4-0.1m31.9-4.5l7.3 0.3 3.7 0.2 7 0.3 1.7 0.1 3.2 0.1 1.6 0.1 2.9 0.2 1.4 0.1 2.6 0.1 1.2 0.1 2 0.1 1 0.1 1.5 0.1 1.5 0.1 0.6 0.1 1 0.2 0.4 0.1 0.6 0.3 0.3 0.1 0.2 0.3v0.5 0.2l-0.2 0.5-0.1 0.3-0.1 0.7-0.6 2.4-0.1 0.8-0.3 1.1-0.1 0.2-0.3 0.3-0.1 0.2-0.5 0.1-0.2 0.1h-0.6l-0.3-0.1-0.8-0.1-0.5-0.1-1.1-0.3-2-0.5-0.8-0.2-2.2-0.5-1.1-0.3-2.7-0.5-1.4-0.3-3.1-0.6-1.7-0.3-2.3-0.5 1.6-2.3 1-1.8 0.2-0.4v-0.2-0.2-0.1h-0.5l-0.7-0.1h-0.6l-1.2-0.1-0.7-0.1-1.6-0.1h-1l-1.9-0.1-1.1-0.1-2.2-0.1-1.2-0.1-4.8-0.2-2.6-0.2-2.1-0.1m-133.6-11.5l-0.1 0.1-0.1 0.1-0.3 0.2-0.4 0.2-1.3 0.7-0.8 0.4-1.9 1-3.4 1.8-3.4 1.7-6.5 3.6-3.1 1.8-6 3.9-2.9 1.9-5 3.7 0.8-0.6 4.8-3.6 2.3-1.6 3.1-2.1 1.7-1.3 0.6-0.5 1.2-0.9 0.4-0.4 0.6-0.6 0.1-0.2v-0.2l-0.1-0.1-0.5 0.1-0.5 0.2-1 0.4-0.3 0.1 2.8-1.4 11.9-5.6 0.9-0.4 1.7-0.7 0.9-0.3 1.4-0.6 0.6-0.2 1-0.4 0.7-0.2m-110.5 19l2 0.2 3.5 0.4 5.4 0.8 1.3 0.3 1.7 0.3-0.6-0.1-1.1-0.2-2.3-0.3-1.2-0.2-4.8-0.7-2.4-0.3c0 0-1.5-0.2-1.5-0.2zm233.1-2.3l0.9 0.1 1.7 0.1 2.4 0.2 2.3 0.3 4.8 0.6 2.5 0.4 2.9 0.4-1.6-0.2-1.5-0.2-3-0.4-1.6-0.1-6.5-0.7-3.1-0.4-3-0.3m21.4-0.7l2.5 0.3 1.1 0.2 2 0.3 0.8 0.2 4.8 0.9-0.4-0.1-3.5-0.6-7.2-1.2-1.2-0.2m-258.3-1.7l-0.2 0.3-0.4 0.5-0.1 0.3v0.1l0.2 0.3 0.2 0.1 0.5 0.2 0.5 0.1 1 0.2 0.8 0.1 1.7 0.2 1.1 0.1 1.3 0.2-4.3-0.3-8.4-0.4-1.4-0.1-2.3-0.1h-1.1l-1.9-0.1-0.9-0.1-1.5-0.1-0.7-0.1-1.1-0.1h-0.5l-0.7-0.2h-0.4l-0.3-0.1-0.1-0.1v-0.1l0.1-0.1 0.4-0.1h0.2l0.8-0.2h0.4l1.1-0.1 0.6-0.1 1.4-0.1h0.8l1.7-0.1h0.9l2.1-0.1h1.1l2.4-0.1h1.2 2.8 1.6m200.2-16.2l1.3-0.1h2.6 1.2l2.2-0.1h1l1.8-0.1h0.7l1.4-0.1 0.6-0.1 0.9-0.1 0.3-0.1 0.4-0.1h0.1l-0.3-0.2-0.5-0.1-0.5-0.1-1-0.1h-0.6l-1.5-0.1h-0.9l-2-0.1h-1.1l-2.4-0.1h-1.4-2.9-1.6l-3.3-0.1h-1.8l-5.1 0.1h-3.1-1.4-2.6l-1.2 0.1h-2.2l-1 0.1h-1.8l-0.7 0.1-1.3 0.1h-0.5l-0.8 0.1-0.3 0.1-0.4 0.1v0.1l0.2 0.1 0.2 0.1 0.6 0.1h0.5l1 0.1 0.7 0.1h1.6l0.9 0.1h2l1.1 0.1h2.4 1.3l2.8 0.1h1.6 3.2-11v17.3h-10.1-1.9l-4.4 0.2-2.2 0.1-4.8 0.3-2.4 0.2-1.3 0.1 0.7-0.1 0.7-0.1 1.3-0.2 0.4-0.1 0.8-0.2 0.2-0.1 0.4-0.1 0.1-0.1 0.1-0.2-0.1-0.1-0.1-0.3-0.1-0.1-0.5-0.1-0.6-0.1h-0.4-1-0.6-1.3-0.7l-1.6 0.1h-0.8l-1.8 0.1h-0.9l-3.1 0.1 3-0.1 1.8-0.2 3.1-0.2 1.6-0.1 2.7-0.1 1.4-0.1 2.4-0.2h1.1l2.1-0.2 1-0.1 1.7-0.1 0.9-0.1 1.5-0.1 0.7-0.1 1.2-0.1h0.5l1-0.2 1-0.1 1.3-0.3 0.6-0.1 0.8-0.4 0.3-0.1 0.5-0.5 0.6-0.7 0.2-0.3 0.4-0.9 0.2-0.6 0.4-1.2 0.8-4.3 0.6-5.1h-10l-0.3 6-0.2 5.9-26.2 1-3.2 0.1 1.3-0.1 3.1-0.1 1.3-0.1 2.4-0.2 0.9-0.1 1.8-0.2 0.6-0.1 1.2-0.2 0.4-0.1 0.7-0.2 0.2-0.1 0.2-0.3v-0.2l-0.4-0.8-0.6-0.3h-0.4-0.6l-0.6-0.1h-0.5-0.9l-0.6-0.1h-1.2l-0.7-0.1-3-0.2-1.7-0.1h-0.5l1.2 0.1 1.7 0.1 3.1 0.1 1.6 0.1 2.7 0.2h1.3l2.2 0.1 1.1 0.1h1.8 0.9 1.3 0.6l1-0.1 0.8-0.2 0.5-0.2 1.1-0.9 0.5-0.6 0.9-1.5 0.4-0.8 0.6-1.7 0.4-2.4v-0.3l-0.2-0.5-0.1-0.3-0.8-0.3h-0.3l-0.6-0.2h-0.4l-0.9-0.1h-0.5l-1.2-0.1-2.2-0.1h-0.8l-2-0.2-1.1-0.1-2.5-0.2-2.5-0.3-5.5-0.8-1.4-0.1-2.6-0.4-1.2-0.2-2.3-0.4-1.1-0.2-1.7-0.4-1.9-0.4-0.2-0.1-0.3-0.2-0.1-0.1 0.1-0.2v-0.1l0.4-0.2 0.2-0.1 0.5-0.1 0.6-0.2 1.8-0.3 3.2-0.2h0.7 0.5l-0.7 0.1-1.5 0.2-0.7 0.2-0.3 0.1-0.4 0.2-0.1 0.2-0.1 0.2v0.2l0.2 0.3 0.2 0.1 0.4 0.3 0.4 0.2 0.7 0.3 0.5 0.1 1 0.3 0.6 0.1 2.4 0.4 1 0.1 1.9 0.1h0.7l1.2-0.1 0.4-0.1 0.7-0.3v-0.3l-0.2-0.5-0.3-0.3-0.4-0.2 0.3 0.1 4.9 2h78.4l6.6-3.3 1.9-0.9 4-1.7 0.4-0.1-0.6 0.3-0.2 0.2-0.7 0.9-0.3 0.7v0.3 0.7 0.1l0.1 0.2h0.1l0.3 0.1 0.2-0.1h0.5l0.4-0.1 0.8-0.1 0.5-0.2 1.2-0.2 0.7-0.2 1.6-0.4 1-0.2 3.1-0.7 2.2-0.4 1.2-0.2 2.2-0.4 1-0.2 2-0.2 0.8-0.1 2.2-0.3 1.3-0.2 0.5-0.1 0.9-0.2 0.3-0.1 0.5-0.2v-0.1l-0.5-0.8-0.7-0.8-0.4-0.3-1-0.7-0.7-0.3h-0.5l-0.5-0.1h0.8l1.2-0.1h0.6l1-0.1h1l1.5 0.1 0.7 0.2 1.4 0.4 2.5 1.2 0.6 0.3 1 0.6 0.6 0.2 0.8 0.5 0.4 0.2 0.5 0.3 0.4 0.3h-0.6-0.3-1.1-0.6-1.5l-2.6-0.1-2.1-0.1-4.5 0.1-2.2 0.1-4.7 0.7-2.5 0.3-5.2 1.1-1.3 0.4-2.9 0.7-4.4 1.2-1.8 0.6-3.2 0.8-1.5 0.4-2.9 0.6-1.4 0.2-2.7 0.4-3.8 0.3-0.8 0.1-1.4 0.1h-0.7l-1 0.1h-0.5l-0.8 0.1-0.3 0.1-0.6 0.1-0.5 0.2-0.4 0.4-0.2 0.9v0.6l0.2 1.1 0.1 0.5 0.6 0.9 0.3 0.5 0.8 0.7 0.5 0.3 1.2 0.6 0.6 0.2 1.5 0.4 0.9 0.1 1.9 0.2 1 0.1h2.3l4-0.1 2.8-0.2 6.1-0.4 3.1-0.2 6.4-0.3 3.2-0.2 6.4-0.3 3.1-0.1 5.8-0.3 1.5-0.1 2.7-0.1h1.3l2.5-0.1 1.2-0.1 2.2-0.1h1.1l1.9-0.1h0.9 1.6l0.7-0.1h1.1 0.6 0.6l0.5 0.1 0.2 0.1 0.5 0.9 0.5 1.7 0.1 0.6 0.4 1.5 0.6 1.7 0.1 0.4 0.1 0.4v0.2l-0.3 0.2-0.1 0.1h-0.7l-1.7-0.2h-0.3l-0.6-0.1-0.3-0.1h-0.9l-0.9-0.1-2.2-0.2-1.2-0.1-2.7-0.1-4.1-0.3-2.6-0.1-5.5-0.2-2.8-0.2-4.2-0.1h1.1 0.6 1.2l0.5 0.1h2.4 1.3 0.5 0.9 0.4l0.7-0.1 0.2-0.1 0.8-0.3 0.3-0.3 0.4-0.7 0.2-0.6 0.4-1.7-0.1-1-0.2-0.2-0.5-0.1h-0.7-0.5l-1.2-0.1h-0.7-1.5l-0.9 0.1h-1.8-1l-2.1 0.1h-1.2l-4.7 0.2-2.6 0.1-3 0.2-1.8 0.1-0.9 0.1-3.1 0.1-1.3 0.1-2.4 0.2-0.9 0.1-1.7 0.1-0.6 0.1-1.2 0.2-0.4 0.1-0.7 0.2-0.2 0.1-0.3 0.2-0.1 0.1-0.1 0.3v0.2l0.3 0.8 0.3 0.2 0.3 0.1h0.1-0.3l-2.3-0.1-4.1-0.1-0.9-0.1h-1.8-0.8l-1.4-0.1h-0.7-1.2-1.3-6v-9.9h-10.1l0.5 4.2 0.1 1 0.3 1.8 0.2 0.8 0.4 1.3 0.3 0.6 0.7 1 0.4 0.4 1.1 0.7 0.5 0.3 1.6 0.4 0.8 0.2 2.1 0.2 1.1 0.1 2.8 0.1 4.9 0.1h0.7 1.8 0.9 0.4-0.2l-0.8 0.2h-0.3l-0.3 0.2v0.1 0.2l0.2 0.1 0.5 0.2 0.3 0.1 0.8 0.3 0.5 0.1 1.2 0.2 0.7 0.1 1.4 0.2h0.8l3.8 0.4 2.8 0.3 1.1 0.1-3.8-0.3-2.3-0.1-5-0.1-7.7-0.2-16.7-0.1v-15.2h-12.9 4.9m-166.1 9.7h1.9l3.2 0.2 1.4 0.1 2.5 0.2 1.2 0.1 1.8 0.4 0.9 0.1 1.4 0.5 0.7 0.2 1.2 0.7 0.5 0.3 1.1 0.8 1.6 1.4 0.4 0.5 0.7 0.7 0.3 0.4 0.5 0.5 0.2 0.2 0.3 0.4 0.1 0.2v0.2h-0.1l-0.2 0.1h-0.2l-0.5-0.1h-0.3l-0.8-0.2-0.5-0.1-1.1-0.2-1.1-0.3-2.7-0.6-1.4-0.3-3.1-0.5-1.6-0.2-3.5-0.5-1.7-0.2-3.8-0.5-3.7-0.4-8.1-0.6-12.4-0.6-2.4-0.1-4.5-0.1h-1.1l-1.9-0.1-1-0.1h-1.6l-0.8-0.1h-1.4l-0.6-0.1h-1l-0.5-0.1h-0.5l-0.3-0.1 0.1-0.1 0.3-0.1 0.3-0.1 0.6-0.1 0.4-0.1 0.9-0.2h0.5l1.2-0.2 1.2-0.1 2.9-0.3 1.6-0.2 2.9-0.1h-0.3l-0.4 0.3v0.1 0.3l0.1 0.2 0.5 0.2 0.4 0.2 0.3 0.1 0.7 0.1 0.4 0.1 1 0.1 0.5 0.1 2.3 0.3 1.5 0.1 3.1 0.2 1.9 0.1 4.8 0.3 3.1 0.3 1.4 0.1 2.7 0.2 1.1 0.1 1 0.1 0.5 0.1 0.8 0.1h0.2l2.5 0.3 1.1 0.2 1.1 0.1h0.5l0.9 0.1h0.4 1.1l0.5-0.1 0.1-0.1 0.1-0.2v-0.2l-0.2-0.5-0.2-0.3-1.4-2.1-0.7-0.5-0.4-0.1-0.8-0.4-0.5-0.1-1.1-0.3-0.8-0.1h-0.7m56.4 7.4l0.4-0.2 3.6-2.1 0.6-0.3m40-5.9h-0.1l-2.6-0.1-1.1-0.1h-2-0.8l-1.4 0.1-0.5 0.1-1 0.2-0.3 0.2-0.7 0.4-0.2 0.3-0.4 0.6-0.2 0.4-0.2 0.8-0.2 0.5-0.2 0.8 0.1 0.2 0.1 0.2 0.1 0.1 0.3 0.1 0.3 0.1 0.6 0.1h0.4 0.9 0.5 1.3l0.8-0.1h1.7 1.1l0.9-0.1-2.1 0.1-1.6 0.1-3 0.1-1.4 0.1-2.6 0.1-1.2 0.1-2.1 0.1-1 0.1-1.6 0.1-1.7 0.1-0.7 0.1-1.3 0.1h-0.6l-0.8 0.1-0.4-0.1-0.5-0.1-0.2-0.1-0.1-0.2v-0.2l0.3-0.4 0.1-0.3 0.7-0.6 0.4-0.4 1-0.9 2-1.6 3.1-2.4m35.8-5.4l1.5 0.4 2.7 0.7 1.3 0.3 2.2 0.7 1 0.4 1.6 0.6 0.4 0.1 0.5 0.3 0.5 0.3 0.3 0.3 0.1 0.3-0.4 0.1-0.1-0.1h-0.8l-0.6-0.1-1.5-0.1-0.8-0.1-1.9-0.1-1.1-0.1-2.2-0.2h-0.6l-1.3-0.1h-0.2l1.6-0.2 0.8-0.4 0.1-0.3 0.1-0.7-0.3-0.4-0.6-0.7-0.6-0.3-1-0.4-0.9-0.2-0.5-0.2m-119.2-0.1h0.9 1.3 0.7l1 0.1h0.5l0.8 0.2 0.8 0.1 1.1 0.5 1.6 1.3 2.6 2.3h-23.1-1.2-2.4-1.1-2.1-1-1.8-0.9-1.6-0.7-1.3-0.7l-1.1-0.1h-1.1l-1.5-0.1h-0.7l-0.8-0.1h-0.3l-0.3-0.2v-0.1l0.3-0.1 0.2-0.1 0.7-0.3 0.9-0.2 1.9-0.5 1-0.2 2.1-0.4 2.3-0.4 3.2-0.5-1.1 0.3-0.7 0.2-1.1 0.5-0.5 0.2-0.8 0.5-0.2 0.3-0.4 0.6v0.3h0.1 0.2l0.4 0.1h0.3 0.7l0.5 0.1h1 0.5 2.5 1.5 3.2l1.8-0.1 12.6-0.2-0.4-2-0.3-1.2-0.4-0.4-0.4-0.2-0.5-0.1h-0.3l-0.6-0.1h-0.4-0.8 0.6 1m101.6-3.2l0.9 0.1h0.1-0.2l-0.2 0.1-0.5 0.4-0.1 0.2-0.2 0.8-0.1 0.5-0.5 1.9-0.3 1.1-0.1 0.3 0.4 0.5 0.4 0.1 0.2 0.1 0.6 0.1h0.4l0.8 0.1 0.4 0.1h1.1l0.6 0.1-2.2-0.1h-1.3-2.2-1l-1.8-0.1h-0.9l-1.3-0.1h-0.7l-1-0.1h-0.4l-0.7-0.1-0.3-0.1-0.4-0.1-0.1-0.1-0.1-0.2 0.1-0.2 0.2-0.3 0.2-0.7-0.2-0.7-0.2-0.2v-0.2l0.6 0.2 0.1 0.1h0.5l0.3-0.1 0.7-0.2 2.5-1.4 0.7-0.4 1.1-0.7 0.6-0.3 1.1-0.3 0.5-0.1h1.5m114.8 1.2l-0.6 1.1-0.1 0.6-0.4 2.1 9.1-0.5 4.2-0.2 2.9-0.2h1.4l2.9-0.1 0.9-0.1-1.4 0.1-3.9 0.2-7.7 0.4-1.9 0.1-3.6 0.3-1.8 0.1-3.3 0.2-1.7 0.2-3 0.2-4 0.4h-0.8l-1.1 0.1h-0.4-0.7-0.3l-0.2-0.2 0.3-0.3 0.1-0.1 0.8-0.4 0.4-0.2 1.2-0.4 0.6-0.3 1.7-0.6 3-1 1.1-0.4 2.6-0.7 1.3-0.3 2.8-0.7 0.4-0.1m-101.2 1.6l0.8 0.2h-0.2l-2.4-0.5m-127.1-4.7l-0.6 0.2-1 0.4-0.5 0.2-0.8 0.5-0.2 0.2-0.4 0.5-0.1 0.2-0.1 0.7 0.1 0.2 0.2 0.3 0.2 0.1 0.6 0.1-1.3 0.1-2.1 0.2-0.5 0.1h-0.9-0.4-0.6-0.3l-0.3-0.1-0.2-0.1 0.1-0.1v-0.1l0.5-0.4 0.4-0.1 0.9-0.5 0.5-0.2 1.2-0.6 2.1-0.8 1.6-0.6 2.2-0.5m122.5 4m-112.7-4.5l0.6 0.2 1.1 0.3 1.4 0.8 2.5 1.6-9.1 0.6-2.5 0.1-3.8 0.3h0.2l3.8-0.4 1.1-0.1h0.5 0.9 0.3l1-0.2 0.6-0.2 0.3-0.2 0.7-0.7 0.1-0.4 0.1-0.9-0.3-0.4-0.3-0.3-0.3-0.2h-0.1m233.4 1.9l-1 0.1 0.8-0.1h0.4m-4.2-6.9l0.5-0.2 1-0.2m1.9-0.3l1.6-0.4h0.5m-5.3-4.7l-1.4 0.6-0.6 0.3-1.1 0.6-0.3 0.4-0.5 0.7v0.3l0.1 0.4 0.2 0.1 0.5 0.1h0.5l1.2-0.1 0.9-0.1 0.9-0.2h0.5l0.6-0.2-3.2 0.7-1 0.2-1.8 0.4-2.2 0.6-0.5 0.1-0.6 0.1-0.3 0.1h-0.3l-0.2-0.1-0.1-0.1v-0.1l0.2-0.3 0.1-0.2 0.4-0.4 0.3-0.2 0.8-0.6 3.2-1.8 0.6-0.3 1.4-0.5 0.7-0.2 1.5-0.4 0.2-0.1m9-0.7l0.7 0.1 1.2 0.3 1.4 0.5 0.4 0.3 0.4 0.3 0.2 0.1 0.1 0.2-0.4 0.1h-1.1-0.3l-0.9 0.2h-0.5l-1.4 0.2-0.8 0.2-1.7 0.3-0.9 0.1-1.9 0.4h-0.2l1.8-0.3 1.5-0.4 0.5-0.2 0.8-0.4 0.2-0.2 0.3-0.4-0.1-0.3-0.7-0.8-0.9-0.3-0.6-0.1h-0.4 0.5z" />
</svg>